<svg width="334" height="40" viewBox="0 0 334 40" fill="none" xmlns="http://www.w3.org/2000/svg">
<rect width="334" height="40" rx="4" fill="#D5EDFC"/>
<path d="M213.01 13.925C213.37 14.035 213.82 14.15 214.36 14.27C214.9 14.39 215.465 14.51 216.055 14.63C216.645 14.74 217.2 14.835 217.72 14.915C218.25 14.995 218.68 15.055 219.01 15.095L218.56 16.925C218.26 16.885 217.895 16.83 217.465 16.76C217.045 16.68 216.595 16.595 216.115 16.505C215.645 16.415 215.18 16.325 214.72 16.235C214.26 16.135 213.84 16.04 213.46 15.95C213.08 15.86 212.77 15.785 212.53 15.725L213.01 13.925ZM213.1 16.94C213.05 17.14 212.995 17.4 212.935 17.72C212.885 18.03 212.835 18.355 212.785 18.695C212.735 19.035 212.685 19.36 212.635 19.67C212.595 19.98 212.56 20.24 212.53 20.45C213.21 19.96 213.92 19.6 214.66 19.37C215.41 19.14 216.175 19.025 216.955 19.025C217.835 19.025 218.585 19.185 219.205 19.505C219.825 19.825 220.295 20.245 220.615 20.765C220.945 21.285 221.11 21.85 221.11 22.46C221.11 23.14 220.965 23.77 220.675 24.35C220.385 24.9301 219.91 25.425 219.25 25.835C218.59 26.245 217.725 26.535 216.655 26.705C215.585 26.875 214.27 26.895 212.71 26.765L212.14 24.8C213.64 25 214.9 25.03 215.92 24.89C216.94 24.74 217.71 24.4501 218.23 24.0201C218.76 23.58 219.025 23.045 219.025 22.415C219.025 22.085 218.93 21.795 218.74 21.545C218.55 21.285 218.285 21.085 217.945 20.945C217.605 20.795 217.22 20.72 216.79 20.72C215.95 20.72 215.16 20.875 214.42 21.185C213.69 21.485 213.09 21.92 212.62 22.49C212.49 22.65 212.38 22.8 212.29 22.94C212.21 23.07 212.135 23.21 212.065 23.36L210.34 22.925C210.4 22.635 210.46 22.295 210.52 21.905C210.58 21.505 210.64 21.08 210.7 20.63C210.76 20.17 210.815 19.71 210.865 19.25C210.915 18.79 210.96 18.335 211 17.885C211.04 17.435 211.07 17.025 211.09 16.655L213.1 16.94Z" fill="#194299"/>
<path d="M199.795 14.0451C199.715 14.3051 199.645 14.5651 199.585 14.8251C199.535 15.0751 199.485 15.3251 199.435 15.5751C199.385 15.8151 199.325 16.0901 199.255 16.4001C199.195 16.7101 199.125 17.0401 199.045 17.3901C198.975 17.7301 198.895 18.0751 198.805 18.4251C198.725 18.7751 198.64 19.1201 198.55 19.4601C198.46 19.7901 198.375 20.0951 198.295 20.3751C198.905 20.0351 199.51 19.7951 200.11 19.6551C200.71 19.5051 201.345 19.4301 202.015 19.4301C202.825 19.4301 203.53 19.5651 204.13 19.8351C204.74 20.1051 205.21 20.4801 205.54 20.9601C205.88 21.4401 206.05 22.0001 206.05 22.6401C206.05 23.4801 205.855 24.1901 205.465 24.7701C205.085 25.3501 204.535 25.8051 203.815 26.1351C203.105 26.4651 202.25 26.6751 201.25 26.7651C200.26 26.8551 199.16 26.8351 197.95 26.7051L197.425 24.7701C198.245 24.9101 199.045 24.9801 199.825 24.9801C200.615 24.9801 201.325 24.9051 201.955 24.7551C202.585 24.6051 203.085 24.3651 203.455 24.0351C203.835 23.6951 204.025 23.2501 204.025 22.7001C204.025 22.2501 203.835 21.8651 203.455 21.5451C203.075 21.2151 202.52 21.0501 201.79 21.0501C200.92 21.0501 200.12 21.2001 199.39 21.5001C198.67 21.8001 198.085 22.2351 197.635 22.8051C197.565 22.9151 197.495 23.0201 197.425 23.1201C197.365 23.2201 197.295 23.3351 197.215 23.4651L195.445 22.8351C195.725 22.2951 195.985 21.6801 196.225 20.9901C196.465 20.3001 196.68 19.6051 196.87 18.9051C197.06 18.2051 197.215 17.5551 197.335 16.9551C197.455 16.3451 197.54 15.8501 197.59 15.4701C197.64 15.1501 197.67 14.8801 197.68 14.6601C197.69 14.4301 197.685 14.1951 197.665 13.9551L199.795 14.0451ZM194.56 15.8001C195.04 15.8801 195.56 15.9501 196.12 16.0101C196.68 16.0601 197.195 16.0851 197.665 16.0851C198.145 16.0851 198.67 16.0701 199.24 16.0401C199.82 16.0101 200.43 15.9651 201.07 15.9051C201.71 15.8451 202.35 15.7701 202.99 15.6801C203.64 15.5801 204.275 15.4651 204.895 15.3351L204.925 17.1201C204.445 17.2001 203.9 17.2801 203.29 17.3601C202.69 17.4401 202.06 17.5151 201.4 17.5851C200.74 17.6451 200.09 17.6951 199.45 17.7351C198.81 17.7751 198.22 17.7951 197.68 17.7951C197.1 17.7951 196.545 17.7851 196.015 17.7651C195.495 17.7351 195.01 17.7001 194.56 17.6601V15.8001Z" fill="#194299"/>
<path d="M181.27 15.0949C181.82 15.1549 182.44 15.1999 183.13 15.2299C183.82 15.2599 184.56 15.2749 185.35 15.2749C185.84 15.2749 186.345 15.2649 186.865 15.2449C187.395 15.2249 187.905 15.1999 188.395 15.1699C188.885 15.1399 189.32 15.1049 189.7 15.0649V17.0599C189.35 17.0899 188.925 17.1199 188.425 17.1499C187.935 17.1799 187.42 17.2049 186.88 17.2249C186.35 17.2349 185.845 17.2399 185.365 17.2399C184.585 17.2399 183.86 17.2249 183.19 17.1949C182.52 17.1649 181.88 17.1249 181.27 17.0749V15.0949ZM182.53 21.4549C182.46 21.7149 182.4 21.9699 182.35 22.2199C182.3 22.4699 182.275 22.7199 182.275 22.9699C182.275 23.4499 182.515 23.8449 182.995 24.1549C183.485 24.4649 184.27 24.6199 185.35 24.6199C186.03 24.6199 186.685 24.5949 187.315 24.5449C187.945 24.4949 188.54 24.4249 189.1 24.3349C189.67 24.2449 190.175 24.1399 190.615 24.0199L190.63 26.1349C190.19 26.2349 189.7 26.3199 189.16 26.3899C188.62 26.4699 188.035 26.5299 187.405 26.5699C186.785 26.6199 186.125 26.6449 185.425 26.6449C184.285 26.6449 183.33 26.5199 182.56 26.2699C181.79 26.0199 181.215 25.6599 180.835 25.1899C180.455 24.7099 180.265 24.1249 180.265 23.4349C180.265 22.9949 180.3 22.5949 180.37 22.2349C180.44 21.8749 180.505 21.5549 180.565 21.2749L182.53 21.4549Z" fill="#194299"/>
<path d="M168.865 16.79C169.295 16.83 169.725 16.865 170.155 16.895C170.595 16.915 171.04 16.925 171.49 16.925C172.41 16.925 173.325 16.885 174.235 16.805C175.145 16.725 175.985 16.6 176.755 16.43V18.305C175.975 18.415 175.13 18.505 174.22 18.575C173.31 18.635 172.4 18.665 171.49 18.665C171.05 18.665 170.61 18.66 170.17 18.65C169.74 18.63 169.305 18.605 168.865 18.575V16.79ZM174.565 14.255C174.545 14.395 174.525 14.55 174.505 14.72C174.495 14.89 174.485 15.06 174.475 15.23C174.465 15.39 174.455 15.605 174.445 15.875C174.435 16.145 174.43 16.45 174.43 16.79C174.43 17.12 174.43 17.47 174.43 17.84C174.43 18.52 174.44 19.16 174.46 19.76C174.48 20.35 174.505 20.9 174.535 21.41C174.565 21.91 174.59 22.37 174.61 22.79C174.64 23.21 174.655 23.6 174.655 23.96C174.655 24.35 174.6 24.71 174.49 25.04C174.39 25.37 174.225 25.66 173.995 25.91C173.765 26.16 173.46 26.35 173.08 26.48C172.71 26.62 172.255 26.69 171.715 26.69C170.675 26.69 169.855 26.48 169.255 26.06C168.655 25.64 168.355 25.035 168.355 24.245C168.355 23.735 168.49 23.29 168.76 22.91C169.03 22.52 169.415 22.22 169.915 22.01C170.415 21.79 171.005 21.68 171.685 21.68C172.395 21.68 173.04 21.755 173.62 21.905C174.2 22.055 174.73 22.255 175.21 22.505C175.69 22.755 176.115 23.03 176.485 23.33C176.865 23.62 177.205 23.9 177.505 24.17L176.47 25.745C175.9 25.205 175.345 24.74 174.805 24.35C174.265 23.96 173.725 23.66 173.185 23.45C172.655 23.24 172.105 23.135 171.535 23.135C171.115 23.135 170.77 23.215 170.5 23.375C170.24 23.535 170.11 23.76 170.11 24.05C170.11 24.35 170.245 24.57 170.515 24.71C170.785 24.85 171.115 24.92 171.505 24.92C171.815 24.92 172.06 24.87 172.24 24.77C172.42 24.66 172.545 24.505 172.615 24.305C172.695 24.095 172.735 23.845 172.735 23.555C172.735 23.295 172.725 22.955 172.705 22.535C172.685 22.115 172.66 21.645 172.63 21.125C172.61 20.605 172.59 20.065 172.57 19.505C172.55 18.935 172.54 18.38 172.54 17.84C172.54 17.27 172.535 16.755 172.525 16.295C172.525 15.825 172.525 15.475 172.525 15.245C172.525 15.135 172.515 14.98 172.495 14.78C172.475 14.58 172.45 14.405 172.42 14.255H174.565ZM167.245 14.42C167.215 14.52 167.17 14.66 167.11 14.84C167.06 15.02 167.015 15.195 166.975 15.365C166.945 15.535 166.92 15.665 166.9 15.755C166.85 15.965 166.795 16.25 166.735 16.61C166.675 16.96 166.61 17.36 166.54 17.81C166.48 18.25 166.42 18.705 166.36 19.175C166.3 19.635 166.255 20.075 166.225 20.495C166.195 20.905 166.18 21.26 166.18 21.56C166.18 21.71 166.18 21.875 166.18 22.055C166.19 22.225 166.21 22.385 166.24 22.535C166.31 22.355 166.38 22.18 166.45 22.01C166.53 21.84 166.61 21.67 166.69 21.5C166.77 21.33 166.845 21.16 166.915 20.99L167.83 21.74C167.69 22.15 167.545 22.58 167.395 23.03C167.255 23.48 167.125 23.905 167.005 24.305C166.895 24.705 166.81 25.04 166.75 25.31C166.73 25.41 166.71 25.53 166.69 25.67C166.68 25.81 166.675 25.925 166.675 26.015C166.675 26.095 166.675 26.19 166.675 26.3C166.685 26.42 166.695 26.53 166.705 26.63L165.01 26.765C164.85 26.235 164.71 25.56 164.59 24.74C164.47 23.91 164.41 22.985 164.41 21.965C164.41 21.405 164.435 20.82 164.485 20.21C164.535 19.59 164.59 18.995 164.65 18.425C164.72 17.855 164.79 17.335 164.86 16.865C164.93 16.385 164.985 16 165.025 15.71C165.055 15.5 165.085 15.265 165.115 15.005C165.145 14.735 165.165 14.48 165.175 14.24L167.245 14.42Z" fill="#194299"/>
<path d="M159.475 14.2251C159.465 14.3051 159.455 14.4251 159.445 14.5851C159.435 14.7351 159.425 14.8951 159.415 15.0651C159.405 15.2351 159.395 15.3901 159.385 15.5301C159.385 15.8601 159.38 16.1801 159.37 16.4901C159.37 16.8001 159.365 17.0951 159.355 17.3751C159.355 17.6451 159.35 17.9101 159.34 18.1701C159.33 18.6101 159.315 19.0701 159.295 19.5501C159.275 20.0301 159.25 20.4751 159.22 20.8851C159.19 21.2951 159.15 21.6301 159.1 21.8901C159.02 22.2801 158.88 22.5451 158.68 22.6851C158.48 22.8151 158.185 22.8801 157.795 22.8801C157.625 22.8801 157.39 22.8701 157.09 22.8501C156.8 22.8201 156.51 22.7851 156.22 22.7451C155.94 22.7051 155.71 22.6751 155.53 22.6551L155.575 20.9901C155.805 21.0401 156.055 21.0851 156.325 21.1251C156.605 21.1651 156.815 21.1851 156.955 21.1851C157.105 21.1851 157.215 21.1651 157.285 21.1251C157.365 21.0751 157.41 20.9801 157.42 20.8401C157.45 20.6501 157.47 20.4101 157.48 20.1201C157.5 19.8301 157.515 19.5151 157.525 19.1751C157.545 18.8251 157.56 18.4851 157.57 18.1551C157.57 17.8851 157.57 17.6151 157.57 17.3451C157.57 17.0651 157.57 16.7801 157.57 16.4901C157.57 16.1901 157.57 15.8951 157.57 15.6051C157.57 15.4751 157.56 15.3251 157.54 15.1551C157.53 14.9751 157.52 14.8001 157.51 14.6301C157.5 14.4601 157.485 14.3251 157.465 14.2251H159.475ZM153.58 14.6751C153.54 14.9251 153.515 15.1701 153.505 15.4101C153.495 15.6401 153.49 15.9151 153.49 16.2351C153.49 16.5051 153.485 16.8651 153.475 17.3151C153.475 17.7651 153.47 18.2551 153.46 18.7851C153.46 19.3051 153.455 19.8301 153.445 20.3601C153.445 20.8801 153.445 21.3551 153.445 21.7851C153.445 22.2151 153.45 22.5551 153.46 22.8051C153.47 23.1751 153.495 23.4801 153.535 23.7201C153.585 23.9501 153.685 24.1301 153.835 24.2601C153.985 24.3901 154.22 24.4801 154.54 24.5301C154.87 24.5801 155.315 24.6051 155.875 24.6051C156.365 24.6051 156.885 24.5901 157.435 24.5601C157.985 24.5201 158.515 24.4701 159.025 24.4101C159.535 24.3501 159.98 24.2901 160.36 24.2301L160.285 26.2701C159.955 26.3101 159.545 26.3451 159.055 26.3751C158.565 26.4151 158.055 26.4451 157.525 26.4651C156.995 26.4951 156.49 26.5101 156.01 26.5101C155.04 26.5101 154.265 26.4551 153.685 26.3451C153.105 26.2351 152.665 26.0501 152.365 25.7901C152.065 25.5301 151.865 25.1801 151.765 24.7401C151.665 24.3001 151.605 23.7551 151.585 23.1051C151.585 22.8851 151.58 22.5901 151.57 22.2201C151.57 21.8501 151.57 21.4401 151.57 20.9901C151.57 20.5301 151.57 20.0601 151.57 19.5801C151.57 19.1001 151.57 18.6451 151.57 18.2151C151.58 17.7751 151.585 17.3901 151.585 17.0601C151.585 16.7301 151.585 16.4901 151.585 16.3401C151.585 16.0301 151.575 15.7401 151.555 15.4701C151.535 15.2001 151.505 14.9351 151.465 14.6751H153.58ZM148.555 18.0651C148.775 18.0651 149.05 18.0551 149.38 18.0351C149.71 18.0151 150.065 17.9901 150.445 17.9601C150.745 17.9301 151.19 17.8901 151.78 17.8401C152.37 17.7801 153.04 17.7151 153.79 17.6451C154.54 17.5751 155.32 17.5051 156.13 17.4351C156.95 17.3551 157.735 17.2851 158.485 17.2251C159.235 17.1651 159.9 17.1151 160.48 17.0751C160.69 17.0551 160.925 17.0401 161.185 17.0301C161.455 17.0101 161.7 16.9901 161.92 16.9701V18.8151C161.84 18.8051 161.71 18.8001 161.53 18.8001C161.35 18.8001 161.16 18.8051 160.96 18.8151C160.77 18.8151 160.61 18.8201 160.48 18.8301C160.09 18.8401 159.615 18.8651 159.055 18.9051C158.495 18.9351 157.895 18.9801 157.255 19.0401C156.615 19.0901 155.96 19.1501 155.29 19.2201C154.63 19.2801 153.995 19.3451 153.385 19.4151C152.775 19.4851 152.225 19.5451 151.735 19.5951C151.245 19.6451 150.855 19.6851 150.565 19.7151C150.405 19.7351 150.21 19.7651 149.98 19.8051C149.75 19.8351 149.52 19.8701 149.29 19.9101C149.07 19.9401 148.895 19.9651 148.765 19.9851L148.555 18.0651Z" fill="#194299"/>
<path d="M140.665 24.59C141.325 24.49 141.93 24.345 142.48 24.155C143.03 23.965 143.505 23.72 143.905 23.42C144.315 23.12 144.63 22.755 144.85 22.325C145.07 21.885 145.18 21.37 145.18 20.78C145.18 20.49 145.125 20.21 145.015 19.94C144.905 19.67 144.74 19.43 144.52 19.22C144.31 19 144.055 18.83 143.755 18.71C143.455 18.59 143.115 18.53 142.735 18.53C141.785 18.53 140.9 18.78 140.08 19.28C139.26 19.77 138.485 20.405 137.755 21.185V19.055C138.655 18.215 139.56 17.625 140.47 17.285C141.39 16.945 142.25 16.775 143.05 16.775C143.82 16.775 144.515 16.945 145.135 17.285C145.765 17.625 146.265 18.1 146.635 18.71C147.005 19.32 147.19 20.025 147.19 20.825C147.19 21.585 147.07 22.27 146.83 22.88C146.59 23.49 146.235 24.025 145.765 24.485C145.295 24.945 144.71 25.335 144.01 25.655C143.31 25.965 142.495 26.215 141.565 26.405L140.665 24.59ZM137.26 18.08C137.1 18.09 136.895 18.115 136.645 18.155C136.395 18.185 136.125 18.22 135.835 18.26C135.555 18.29 135.27 18.325 134.98 18.365C134.69 18.405 134.42 18.44 134.17 18.47L133.975 16.55C134.195 16.56 134.4 16.565 134.59 16.565C134.79 16.555 135.02 16.545 135.28 16.535C135.52 16.515 135.805 16.49 136.135 16.46C136.475 16.42 136.815 16.375 137.155 16.325C137.505 16.275 137.83 16.22 138.13 16.16C138.43 16.1 138.665 16.04 138.835 15.98L139.435 16.745C139.345 16.865 139.24 17.015 139.12 17.195C139.01 17.375 138.895 17.56 138.775 17.75C138.655 17.93 138.55 18.09 138.46 18.23L137.575 21.05C137.415 21.28 137.215 21.57 136.975 21.92C136.745 22.27 136.5 22.64 136.24 23.03C135.98 23.42 135.725 23.795 135.475 24.155C135.225 24.515 135 24.83 134.8 25.1L133.615 23.465C133.805 23.225 134.025 22.95 134.275 22.64C134.525 22.32 134.78 21.985 135.04 21.635C135.31 21.275 135.575 20.92 135.835 20.57C136.095 20.21 136.335 19.875 136.555 19.565C136.785 19.245 136.975 18.97 137.125 18.74L137.155 18.35L137.26 18.08ZM137.08 15.185C137.08 14.965 137.08 14.745 137.08 14.525C137.08 14.295 137.06 14.065 137.02 13.835L139.21 13.91C139.16 14.14 139.1 14.475 139.03 14.915C138.96 15.345 138.89 15.84 138.82 16.4C138.76 16.96 138.7 17.55 138.64 18.17C138.59 18.78 138.545 19.39 138.505 20C138.475 20.61 138.46 21.18 138.46 21.71C138.46 22.12 138.46 22.535 138.46 22.955C138.47 23.375 138.48 23.805 138.49 24.245C138.5 24.685 138.52 25.14 138.55 25.61C138.56 25.74 138.575 25.92 138.595 26.15C138.615 26.39 138.635 26.595 138.655 26.765H136.585C136.605 26.595 136.615 26.395 136.615 26.165C136.625 25.945 136.63 25.775 136.63 25.655C136.64 25.165 136.65 24.71 136.66 24.29C136.67 23.87 136.675 23.425 136.675 22.955C136.685 22.485 136.7 21.94 136.72 21.32C136.73 21.09 136.745 20.8 136.765 20.45C136.785 20.09 136.805 19.7 136.825 19.28C136.855 18.85 136.885 18.415 136.915 17.975C136.945 17.535 136.97 17.125 136.99 16.745C137.02 16.355 137.04 16.025 137.05 15.755C137.07 15.475 137.08 15.285 137.08 15.185Z" fill="#194299"/>
<path d="M121.765 18.095H129.28V19.685H121.765V18.095ZM121.57 25.22H129.325V26.81H121.57V25.22ZM120.775 21.185H130.345V27.365H128.485V22.76H122.545V27.365H120.775V21.185ZM125.455 15.035C125.045 15.625 124.525 16.225 123.895 16.835C123.275 17.445 122.58 18.03 121.81 18.59C121.05 19.15 120.26 19.655 119.44 20.105C119.36 19.965 119.255 19.805 119.125 19.625C119.005 19.445 118.87 19.27 118.72 19.1C118.58 18.92 118.44 18.77 118.3 18.65C119.17 18.22 120 17.705 120.79 17.105C121.59 16.505 122.305 15.87 122.935 15.2C123.565 14.53 124.065 13.89 124.435 13.28H126.31C126.71 13.85 127.16 14.395 127.66 14.915C128.16 15.435 128.685 15.92 129.235 16.37C129.795 16.82 130.375 17.22 130.975 17.57C131.575 17.92 132.17 18.215 132.76 18.455C132.54 18.685 132.33 18.945 132.13 19.235C131.93 19.515 131.75 19.795 131.59 20.075C131.01 19.775 130.425 19.43 129.835 19.04C129.245 18.64 128.675 18.22 128.125 17.78C127.585 17.33 127.085 16.875 126.625 16.415C126.165 15.945 125.775 15.485 125.455 15.035Z" fill="#194299"/>
<path d="M106.9 15.2751C106.86 15.4551 106.825 15.6601 106.795 15.8901C106.775 16.1201 106.755 16.3451 106.735 16.5651C106.725 16.7851 106.72 16.9651 106.72 17.1051C106.71 17.4351 106.705 17.7751 106.705 18.1251C106.715 18.4751 106.725 18.8351 106.735 19.2051C106.755 19.5651 106.78 19.9251 106.81 20.2851C106.88 21.0051 106.98 21.6401 107.11 22.1901C107.24 22.7401 107.41 23.1701 107.62 23.4801C107.83 23.7801 108.095 23.9301 108.415 23.9301C108.585 23.9301 108.75 23.8351 108.91 23.6451C109.08 23.4551 109.23 23.2101 109.36 22.9101C109.5 22.6001 109.62 22.2751 109.72 21.9351C109.83 21.5951 109.925 21.2751 110.005 20.9751L111.505 22.8051C111.175 23.6751 110.845 24.3701 110.515 24.8901C110.195 25.4001 109.86 25.7701 109.51 26.0001C109.16 26.2201 108.78 26.3301 108.37 26.3301C107.83 26.3301 107.315 26.1501 106.825 25.7901C106.345 25.4301 105.935 24.8501 105.595 24.0501C105.255 23.2401 105.015 22.1651 104.875 20.8251C104.825 20.3651 104.785 19.8801 104.755 19.3701C104.735 18.8601 104.72 18.3751 104.71 17.9151C104.71 17.4551 104.71 17.0751 104.71 16.7751C104.71 16.5651 104.7 16.3151 104.68 16.0251C104.66 15.7351 104.63 15.4751 104.59 15.2451L106.9 15.2751ZM114.4 15.6201C114.68 15.9601 114.95 16.3751 115.21 16.8651C115.47 17.3551 115.71 17.8801 115.93 18.4401C116.15 19.0001 116.345 19.5751 116.515 20.1651C116.685 20.7451 116.82 21.3151 116.92 21.8751C117.03 22.4251 117.1 22.9301 117.13 23.3901L115.15 24.1551C115.1 23.5451 115.01 22.8801 114.88 22.1601C114.75 21.4401 114.575 20.7151 114.355 19.9851C114.135 19.2551 113.87 18.5651 113.56 17.9151C113.26 17.2651 112.905 16.7051 112.495 16.2351L114.4 15.6201Z" fill="#194299"/>
<path d="M93.3099 20.48H98.38V25.22H93.3099V23.75H96.685V21.965H93.3099V20.48ZM92.53 20.48H94.195V26.075H92.53V20.48ZM90.085 16.01H93.835V17.225H90.085V16.01ZM97.045 16.01H100.825V17.225H97.045V16.01ZM100.075 13.835H101.905V25.19C101.905 25.69 101.845 26.08 101.725 26.36C101.605 26.64 101.39 26.855 101.08 27.005C100.76 27.155 100.36 27.25 99.88 27.29C99.4 27.33 98.81 27.35 98.11 27.35C98.1 27.17 98.06 26.97 97.99 26.75C97.92 26.53 97.8449 26.305 97.7649 26.075C97.6849 25.855 97.595 25.665 97.495 25.505C97.795 25.525 98.095 25.54 98.395 25.55C98.695 25.55 98.96 25.55 99.19 25.55C99.43 25.54 99.6 25.535 99.7 25.535C99.84 25.535 99.935 25.51 99.985 25.46C100.045 25.4 100.075 25.3 100.075 25.16V13.835ZM90.2199 13.835H94.975V19.445H90.2199V18.08H93.28V15.2H90.2199V13.835ZM101.05 13.835V15.2H97.69V18.11H101.05V19.46H95.9799V13.835H101.05ZM89.2 13.835H90.985V27.35H89.2V13.835Z" fill="#194299"/>
<path d="M79.54 13.8201C79.53 13.9001 79.515 14.0251 79.495 14.1951C79.475 14.3551 79.455 14.5201 79.435 14.6901C79.425 14.8501 79.415 14.9951 79.405 15.1251C79.385 15.4151 79.365 15.7351 79.345 16.0851C79.335 16.4251 79.325 16.7801 79.315 17.1501C79.305 17.5101 79.295 17.8751 79.285 18.2451C79.285 18.6151 79.285 18.9751 79.285 19.3251C79.285 19.7351 79.29 20.1901 79.3 20.6901C79.31 21.1801 79.32 21.6701 79.33 22.1601C79.35 22.6401 79.36 23.0801 79.36 23.4801C79.37 23.8801 79.375 24.1901 79.375 24.4101C79.375 25.0301 79.305 25.5101 79.165 25.8501C79.035 26.1901 78.845 26.4251 78.595 26.5551C78.345 26.6951 78.055 26.7651 77.725 26.7651C77.365 26.7651 76.98 26.6901 76.57 26.5401C76.16 26.4001 75.775 26.2001 75.415 25.9401C75.065 25.6801 74.775 25.3801 74.545 25.0401C74.325 24.6901 74.215 24.3151 74.215 23.9151C74.215 23.4351 74.395 22.9601 74.755 22.4901C75.125 22.0101 75.61 21.5701 76.21 21.1701C76.82 20.7701 77.475 20.4501 78.175 20.2101C78.845 19.9601 79.535 19.7801 80.245 19.6701C80.955 19.5501 81.595 19.4901 82.165 19.4901C82.935 19.4901 83.63 19.6201 84.25 19.8801C84.87 20.1301 85.365 20.5001 85.735 20.9901C86.105 21.4801 86.29 22.0701 86.29 22.7601C86.29 23.3401 86.18 23.8751 85.96 24.3651C85.74 24.8551 85.385 25.2801 84.895 25.6401C84.415 25.9901 83.775 26.2651 82.975 26.4651C82.635 26.5351 82.295 26.5851 81.955 26.6151C81.625 26.6551 81.31 26.6851 81.01 26.7051L80.32 24.7701C80.66 24.7701 80.985 24.7651 81.295 24.7551C81.615 24.7351 81.905 24.7051 82.165 24.6651C82.575 24.5851 82.945 24.4651 83.275 24.3051C83.605 24.1451 83.865 23.9351 84.055 23.6751C84.245 23.4151 84.34 23.1051 84.34 22.7451C84.34 22.4051 84.245 22.1151 84.055 21.8751C83.875 21.6351 83.62 21.4501 83.29 21.3201C82.96 21.1901 82.575 21.1251 82.135 21.1251C81.505 21.1251 80.865 21.1901 80.215 21.3201C79.575 21.4501 78.96 21.6301 78.37 21.8601C77.93 22.0301 77.535 22.2301 77.185 22.4601C76.835 22.6801 76.56 22.9101 76.36 23.1501C76.16 23.3901 76.06 23.6201 76.06 23.8401C76.06 23.9601 76.095 24.0751 76.165 24.1851C76.245 24.2851 76.345 24.3751 76.465 24.4551C76.585 24.5351 76.705 24.6001 76.825 24.6501C76.955 24.6901 77.065 24.7101 77.155 24.7101C77.295 24.7101 77.41 24.6701 77.5 24.5901C77.59 24.5001 77.635 24.3301 77.635 24.0801C77.635 23.8101 77.625 23.4251 77.605 22.9251C77.595 22.4151 77.58 21.8501 77.56 21.2301C77.55 20.6101 77.545 19.9951 77.545 19.3851C77.545 18.9651 77.545 18.5401 77.545 18.1101C77.555 17.6801 77.56 17.2701 77.56 16.8801C77.56 16.4901 77.56 16.1451 77.56 15.8451C77.57 15.5451 77.575 15.3101 77.575 15.1401C77.575 15.0301 77.57 14.8901 77.56 14.7201C77.55 14.5501 77.535 14.3801 77.515 14.2101C77.505 14.0301 77.49 13.9001 77.47 13.8201H79.54ZM83.815 15.4401C84.195 15.6201 84.62 15.8401 85.09 16.1001C85.57 16.3601 86.025 16.6201 86.455 16.8801C86.895 17.1301 87.245 17.3551 87.505 17.5551L86.605 19.0851C86.415 18.9251 86.165 18.7451 85.855 18.5451C85.555 18.3451 85.225 18.1401 84.865 17.9301C84.515 17.7201 84.175 17.5251 83.845 17.3451C83.515 17.1551 83.23 17.0051 82.99 16.8951L83.815 15.4401ZM74.62 16.2651C75.06 16.3151 75.445 16.3501 75.775 16.3701C76.115 16.3801 76.42 16.3851 76.69 16.3851C77.08 16.3851 77.51 16.3701 77.98 16.3401C78.45 16.3001 78.93 16.2501 79.42 16.1901C79.91 16.1201 80.385 16.0401 80.845 15.9501C81.315 15.8601 81.74 15.7601 82.12 15.6501L82.165 17.5101C81.745 17.6101 81.29 17.7001 80.8 17.7801C80.31 17.8501 79.815 17.9151 79.315 17.9751C78.825 18.0351 78.355 18.0801 77.905 18.1101C77.465 18.1401 77.08 18.1551 76.75 18.1551C76.25 18.1551 75.84 18.1501 75.52 18.1401C75.2 18.1301 74.91 18.1101 74.65 18.0801L74.62 16.2651Z" fill="#194299"/>
<path d="M242 13V12C241.448 12 241 12.4477 241 13H242ZM260 13H261C261 12.4477 260.552 12 260 12V13ZM251 20.1511L250.497 21.0151L251 21.3085L251.503 21.0151L251 20.1511ZM242 27H241C241 27.5523 241.448 28 242 28V27ZM260 27V28C260.552 28 261 27.5523 261 27H260ZM242 13V14H260V13V12H242V13ZM260 13H259V14.907H260H261V13H260ZM260 14.907L259.497 14.0429L250.497 19.2871L251 20.1511L251.503 21.0151L260.503 15.771L260 14.907ZM251 20.1511L251.503 19.2871L242.503 14.0429L242 14.907L241.497 15.771L250.497 21.0151L251 20.1511ZM242 14.907H243V13H242H241V14.907H242ZM242 27H243V14.907H242H241V27H242ZM242 27V28H260V27V26H242V27ZM260 27H261V14.907H260H259V27H260Z" fill="#194299"/>
</svg>
