<svg width="334" height="40" viewBox="0 0 334 40" fill="none" xmlns="http://www.w3.org/2000/svg">
<rect width="334" height="40" rx="4" fill="#7794AE"/>
<path d="M231.468 21.68C231.468 22.6786 231.342 23.5933 231.09 24.424C230.838 25.2546 230.502 26.0013 230.082 26.664C229.671 27.3266 229.214 27.9053 228.71 28.4L227.38 27.812C227.847 27.308 228.267 26.7526 228.64 26.146C229.023 25.5393 229.326 24.8673 229.55 24.13C229.774 23.3833 229.886 22.5666 229.886 21.68C229.886 20.784 229.774 19.9673 229.55 19.23C229.326 18.4926 229.023 17.8206 228.64 17.214C228.267 16.598 227.847 16.0426 227.38 15.548L228.71 14.96C229.214 15.4546 229.671 16.0333 230.082 16.696C230.502 17.3586 230.838 18.1053 231.09 18.936C231.342 19.7666 231.468 20.6813 231.468 21.68Z" fill="white"/>
<path d="M214.91 15.1701H216.45V28.2181H214.91V15.1701ZM212.782 19.7761H218.522V21.3441H212.782V19.7761ZM214.602 20.6021L215.54 21.0641C215.419 21.5308 215.279 22.0254 215.12 22.5481C214.961 23.0614 214.784 23.5748 214.588 24.0881C214.392 24.6014 214.187 25.0868 213.972 25.5441C213.757 25.9921 213.529 26.3841 213.286 26.7201C213.239 26.5428 213.169 26.3514 213.076 26.1461C212.992 25.9314 212.899 25.7214 212.796 25.5161C212.703 25.3108 212.614 25.1334 212.53 24.9841C212.81 24.6388 213.081 24.2141 213.342 23.7101C213.613 23.1968 213.86 22.6694 214.084 22.1281C214.308 21.5774 214.481 21.0688 214.602 20.6021ZM216.436 21.4141C216.511 21.4888 216.618 21.6054 216.758 21.7641C216.907 21.9228 217.071 22.1048 217.248 22.3101C217.425 22.5061 217.593 22.7068 217.752 22.9121C217.92 23.1081 218.069 23.2854 218.2 23.4441C218.34 23.6028 218.438 23.7241 218.494 23.8081L217.472 25.1241C217.379 24.9188 217.257 24.6808 217.108 24.4101C216.959 24.1301 216.795 23.8454 216.618 23.5561C216.441 23.2574 216.268 22.9774 216.1 22.7161C215.932 22.4548 215.787 22.2401 215.666 22.0721L216.436 21.4141ZM212.768 16.2481L213.944 15.9401C214.065 16.2761 214.173 16.6401 214.266 17.0321C214.369 17.4241 214.453 17.8068 214.518 18.1801C214.583 18.5534 214.63 18.8894 214.658 19.1881L213.398 19.5241C213.389 19.2254 213.351 18.8894 213.286 18.5161C213.23 18.1334 213.155 17.7461 213.062 17.3541C212.978 16.9528 212.88 16.5841 212.768 16.2481ZM217.374 15.8701L218.788 16.1781C218.676 16.5608 218.555 16.9528 218.424 17.3541C218.293 17.7554 218.163 18.1428 218.032 18.5161C217.901 18.8801 217.78 19.2021 217.668 19.4821L216.604 19.1741C216.707 18.8754 216.805 18.5348 216.898 18.1521C217.001 17.7601 217.094 17.3634 217.178 16.9621C217.262 16.5608 217.327 16.1968 217.374 15.8701ZM222.68 15.1001H224.248V28.2461H222.68V15.1001ZM218.494 23.8641L225.69 22.5761L225.942 24.1301L218.746 25.4321L218.494 23.8641ZM219.278 17.0041L220.104 15.8701C220.365 16.0194 220.636 16.1921 220.916 16.3881C221.205 16.5841 221.476 16.7848 221.728 16.9901C221.989 17.1954 222.195 17.3868 222.344 17.5641L221.476 18.8241C221.336 18.6374 221.14 18.4368 220.888 18.2221C220.645 18.0074 220.384 17.7928 220.104 17.5781C219.824 17.3634 219.549 17.1721 219.278 17.0041ZM218.648 20.5321L219.432 19.3281C219.712 19.4681 220.001 19.6361 220.3 19.8321C220.599 20.0188 220.883 20.2101 221.154 20.4061C221.425 20.5928 221.644 20.7748 221.812 20.9521L220.958 22.2961C220.809 22.1188 220.603 21.9274 220.342 21.7221C220.081 21.5074 219.801 21.2974 219.502 21.0921C219.213 20.8774 218.928 20.6908 218.648 20.5321Z" fill="white"/>
<path d="M201.04 15.1001L202.692 15.5901C202.44 16.1034 202.141 16.6074 201.796 17.1021C201.451 17.5968 201.077 18.0541 200.676 18.4741C200.284 18.8941 199.892 19.2628 199.5 19.5801C199.407 19.4681 199.276 19.3421 199.108 19.2021C198.94 19.0621 198.767 18.9268 198.59 18.7961C198.413 18.6654 198.259 18.5581 198.128 18.4741C198.725 18.0821 199.285 17.5874 199.808 16.9901C200.331 16.3928 200.741 15.7628 201.04 15.1001ZM200.928 16.5841H210.574V18.0541H200.522L200.928 16.5841ZM198.436 19.8461H211.092V21.3441H198.436V19.8461ZM198.66 23.1221H210.882V24.6201H198.66V23.1221ZM202.818 17.1021H204.218V23.9061H202.818V17.1021ZM200.326 17.1021H201.824V23.9201H200.326V17.1021ZM205.254 17.1021H206.654V23.9201H205.254V17.1021ZM207.718 17.1021H209.258V23.9201H207.718V17.1021ZM202.398 25.4041L203.952 25.2361C204.045 25.6561 204.125 26.1134 204.19 26.6081C204.265 27.1028 204.307 27.5228 204.316 27.8681L202.664 28.1061C202.664 27.8821 202.65 27.6161 202.622 27.3081C202.603 27.0001 202.575 26.6781 202.538 26.3421C202.501 26.0061 202.454 25.6934 202.398 25.4041ZM205.184 25.4461L206.752 25.1801C206.873 25.4508 206.99 25.7448 207.102 26.0621C207.214 26.3794 207.312 26.6874 207.396 26.9861C207.48 27.2848 207.541 27.5554 207.578 27.7981L205.898 28.1201C205.851 27.7748 205.758 27.3501 205.618 26.8461C205.487 26.3421 205.343 25.8754 205.184 25.4461ZM207.956 25.3621L209.566 24.8581C209.79 25.1474 210.014 25.4601 210.238 25.7961C210.462 26.1321 210.677 26.4681 210.882 26.8041C211.087 27.1308 211.246 27.4248 211.358 27.6861L209.636 28.2601C209.533 28.0081 209.389 27.7141 209.202 27.3781C209.025 27.0421 208.824 26.7014 208.6 26.3561C208.385 26.0014 208.171 25.6701 207.956 25.3621ZM199.878 24.9141L201.502 25.3201C201.343 25.8521 201.124 26.3841 200.844 26.9161C200.564 27.4481 200.251 27.9008 199.906 28.2741L198.296 27.6161C198.613 27.3174 198.917 26.9208 199.206 26.4261C199.495 25.9314 199.719 25.4274 199.878 24.9141Z" fill="white"/>
<path d="M192.532 21.68C192.532 20.6813 192.658 19.7666 192.91 18.936C193.162 18.1053 193.498 17.3586 193.918 16.696C194.338 16.0333 194.795 15.4546 195.29 14.96L196.62 15.548C196.153 16.0426 195.729 16.598 195.346 17.214C194.973 17.8206 194.674 18.4926 194.45 19.23C194.226 19.9673 194.114 20.784 194.114 21.68C194.114 22.5666 194.226 23.3833 194.45 24.13C194.674 24.8673 194.973 25.5393 195.346 26.146C195.729 26.7526 196.153 27.308 196.62 27.812L195.29 28.4C194.795 27.9053 194.338 27.3266 193.918 26.664C193.498 26.0013 193.162 25.2546 192.91 24.424C192.658 23.5933 192.532 22.6786 192.532 21.68Z" fill="white"/>
<path d="M188.48 15.8399C188.62 16.0399 188.775 16.2749 188.945 16.5449C189.115 16.8149 189.275 17.0849 189.425 17.3549C189.585 17.6249 189.725 17.8749 189.845 18.1049L188.54 18.6899C188.4 18.3699 188.26 18.0849 188.12 17.8349C187.99 17.5849 187.855 17.3449 187.715 17.1149C187.575 16.8749 187.41 16.6249 187.22 16.3649L188.48 15.8399ZM190.445 15.0149C190.595 15.2149 190.755 15.4449 190.925 15.7049C191.105 15.9649 191.275 16.2299 191.435 16.4999C191.605 16.7599 191.745 17.0049 191.855 17.2349L190.595 17.8499C190.435 17.5299 190.28 17.2499 190.13 17.0099C189.99 16.7599 189.845 16.5249 189.695 16.3049C189.555 16.0749 189.39 15.8399 189.2 15.5999L190.445 15.0149ZM182.495 25.7849C182.495 25.5849 182.495 25.2699 182.495 24.8399C182.495 24.3999 182.495 23.8949 182.495 23.3249C182.495 22.7449 182.495 22.1449 182.495 21.5249C182.495 20.8949 182.495 20.2899 182.495 19.7099C182.495 19.1199 182.495 18.5999 182.495 18.1499C182.495 17.6999 182.495 17.3699 182.495 17.1599C182.495 16.8899 182.48 16.5849 182.45 16.2449C182.43 15.9049 182.395 15.6049 182.345 15.3449H184.685C184.655 15.6049 184.625 15.8949 184.595 16.2149C184.565 16.5349 184.55 16.8499 184.55 17.1599C184.55 17.4299 184.55 17.8049 184.55 18.2849C184.55 18.7649 184.55 19.2999 184.55 19.8899C184.55 20.4699 184.55 21.0649 184.55 21.6749C184.55 22.2849 184.55 22.8699 184.55 23.4299C184.55 23.9799 184.55 24.4649 184.55 24.8849C184.55 25.2949 184.55 25.5949 184.55 25.7849C184.55 25.9149 184.555 26.1099 184.565 26.3699C184.585 26.6199 184.605 26.8799 184.625 27.1499C184.655 27.4199 184.68 27.6599 184.7 27.8699H182.345C182.395 27.5799 182.43 27.2349 182.45 26.8349C182.48 26.4249 182.495 26.0749 182.495 25.7849ZM184.115 19.2299C184.615 19.3599 185.17 19.5299 185.78 19.7399C186.4 19.9399 187.025 20.1599 187.655 20.3999C188.285 20.6299 188.88 20.8599 189.44 21.0899C190 21.3099 190.46 21.5099 190.82 21.6899L189.98 23.7749C189.55 23.5449 189.08 23.3199 188.57 23.0999C188.06 22.8799 187.54 22.6649 187.01 22.4549C186.49 22.2349 185.98 22.0349 185.48 21.8549C184.98 21.6749 184.525 21.5199 184.115 21.3899V19.2299Z" fill="white"/>
<path d="M164.63 20.0549C164.81 20.0649 165.04 20.0799 165.32 20.0999C165.6 20.1099 165.89 20.1199 166.19 20.1299C166.5 20.1399 166.785 20.1449 167.045 20.1449C167.295 20.1449 167.605 20.1449 167.975 20.1449C168.345 20.1449 168.745 20.1449 169.175 20.1449C169.615 20.1449 170.065 20.1449 170.525 20.1449C170.995 20.1449 171.46 20.1449 171.92 20.1449C172.38 20.1449 172.815 20.1449 173.225 20.1449C173.635 20.1449 174 20.1449 174.32 20.1449C174.65 20.1449 174.91 20.1449 175.1 20.1449C175.45 20.1449 175.78 20.1349 176.09 20.1149C176.4 20.0849 176.655 20.0649 176.855 20.0549V22.4099C176.685 22.3999 176.43 22.3849 176.09 22.3649C175.75 22.3449 175.42 22.3349 175.1 22.3349C174.91 22.3349 174.65 22.3349 174.32 22.3349C173.99 22.3349 173.62 22.3349 173.21 22.3349C172.8 22.3349 172.365 22.3349 171.905 22.3349C171.455 22.3349 170.995 22.3349 170.525 22.3349C170.055 22.3349 169.6 22.3349 169.16 22.3349C168.73 22.3349 168.33 22.3349 167.96 22.3349C167.6 22.3349 167.295 22.3349 167.045 22.3349C166.615 22.3349 166.175 22.3449 165.725 22.3649C165.275 22.3749 164.91 22.3899 164.63 22.4099V20.0549Z" fill="white"/>
<path d="M150.14 16.365C150.45 16.375 150.74 16.385 151.01 16.395C151.29 16.395 151.53 16.395 151.73 16.395C151.89 16.395 152.135 16.395 152.465 16.395C152.805 16.395 153.2 16.395 153.65 16.395C154.1 16.395 154.58 16.395 155.09 16.395C155.6 16.395 156.11 16.395 156.62 16.395C157.14 16.395 157.625 16.395 158.075 16.395C158.525 16.395 158.915 16.395 159.245 16.395C159.585 16.395 159.83 16.395 159.98 16.395C160.17 16.395 160.395 16.395 160.655 16.395C160.925 16.385 161.195 16.375 161.465 16.365C161.455 16.595 161.445 16.84 161.435 17.1C161.435 17.35 161.435 17.59 161.435 17.82C161.435 17.96 161.435 18.18 161.435 18.48C161.435 18.77 161.435 19.12 161.435 19.53C161.435 19.93 161.435 20.36 161.435 20.82C161.435 21.27 161.435 21.725 161.435 22.185C161.435 22.645 161.435 23.08 161.435 23.49C161.435 23.89 161.435 24.24 161.435 24.54C161.435 24.83 161.435 25.04 161.435 25.17C161.435 25.32 161.435 25.51 161.435 25.74C161.445 25.96 161.45 26.185 161.45 26.415C161.45 26.635 161.45 26.83 161.45 27C161.46 27.16 161.465 27.245 161.465 27.255H159.395C159.395 27.235 159.395 27.115 159.395 26.895C159.405 26.665 159.41 26.395 159.41 26.085C159.42 25.775 159.425 25.485 159.425 25.215C159.425 25.085 159.425 24.865 159.425 24.555C159.425 24.245 159.425 23.88 159.425 23.46C159.425 23.04 159.425 22.595 159.425 22.125C159.425 21.655 159.425 21.195 159.425 20.745C159.425 20.295 159.425 19.885 159.425 19.515C159.425 19.145 159.425 18.85 159.425 18.63C159.425 18.41 159.425 18.3 159.425 18.3H152.18C152.18 18.3 152.18 18.41 152.18 18.63C152.18 18.85 152.18 19.145 152.18 19.515C152.18 19.875 152.18 20.285 152.18 20.745C152.18 21.195 152.18 21.655 152.18 22.125C152.18 22.585 152.18 23.03 152.18 23.46C152.18 23.88 152.18 24.245 152.18 24.555C152.18 24.865 152.18 25.085 152.18 25.215C152.18 25.395 152.18 25.6 152.18 25.83C152.18 26.05 152.18 26.265 152.18 26.475C152.19 26.685 152.195 26.86 152.195 27C152.195 27.15 152.195 27.235 152.195 27.255H150.125C150.125 27.235 150.125 27.15 150.125 27C150.135 26.85 150.14 26.665 150.14 26.445C150.15 26.225 150.155 26 150.155 25.77C150.165 25.54 150.17 25.335 150.17 25.155C150.17 25.025 150.17 24.815 150.17 24.525C150.17 24.225 150.17 23.87 150.17 23.46C150.17 23.05 150.17 22.62 150.17 22.17C150.17 21.71 150.17 21.25 150.17 20.79C150.17 20.33 150.17 19.9 150.17 19.5C150.17 19.09 150.17 18.74 150.17 18.45C150.17 18.16 150.17 17.95 150.17 17.82C150.17 17.61 150.17 17.37 150.17 17.1C150.17 16.82 150.16 16.575 150.14 16.365ZM160.175 24.525V26.445H151.16V24.525H160.175Z" fill="white"/>
<path d="M136.865 15.6001C137.125 15.7801 137.43 16.0001 137.78 16.2601C138.13 16.5201 138.49 16.8051 138.86 17.1151C139.24 17.4151 139.595 17.7101 139.925 18.0001C140.255 18.2901 140.525 18.5501 140.735 18.7801L139.205 20.3401C139.015 20.1301 138.765 19.8801 138.455 19.5901C138.145 19.3001 137.81 19.0001 137.45 18.6901C137.09 18.3801 136.735 18.0851 136.385 17.8051C136.035 17.5251 135.725 17.2901 135.455 17.1001L136.865 15.6001ZM134.99 25.5901C135.77 25.4801 136.505 25.3251 137.195 25.1251C137.885 24.9251 138.525 24.6951 139.115 24.4351C139.705 24.1751 140.245 23.9051 140.735 23.6251C141.585 23.1151 142.365 22.5351 143.075 21.8851C143.785 21.2351 144.405 20.5601 144.935 19.8601C145.465 19.1501 145.885 18.4601 146.195 17.7901L147.365 19.9051C146.985 20.5751 146.515 21.2451 145.955 21.9151C145.405 22.5851 144.78 23.2251 144.08 23.8351C143.38 24.4351 142.625 24.9751 141.815 25.4551C141.305 25.7651 140.755 26.0601 140.165 26.3401C139.575 26.6101 138.95 26.8501 138.29 27.0601C137.64 27.2801 136.96 27.4501 136.25 27.5701L134.99 25.5901Z" fill="white"/>
<path d="M126.83 14.7451C126.8 15.0651 126.775 15.3251 126.755 15.5251C126.735 15.7151 126.725 15.9151 126.725 16.1251C126.725 16.2551 126.725 16.4551 126.725 16.7251C126.725 16.9951 126.725 17.2751 126.725 17.5651C126.725 17.8551 126.725 18.0951 126.725 18.2851H124.64C124.64 18.0751 124.64 17.8251 124.64 17.5351C124.64 17.2451 124.64 16.9701 124.64 16.7101C124.64 16.4501 124.64 16.2551 124.64 16.1251C124.64 15.9151 124.63 15.7151 124.61 15.5251C124.6 15.3251 124.57 15.0651 124.52 14.7451H126.83ZM131.885 17.9101C131.825 18.0701 131.765 18.2751 131.705 18.5251C131.655 18.7651 131.615 18.9601 131.585 19.1101C131.525 19.4601 131.45 19.8151 131.36 20.1751C131.28 20.5351 131.18 20.8951 131.06 21.2551C130.95 21.6151 130.82 21.9701 130.67 22.3201C130.53 22.6701 130.37 23.0151 130.19 23.3551C129.79 24.0851 129.28 24.7501 128.66 25.3501C128.05 25.9501 127.355 26.4601 126.575 26.8801C125.795 27.2901 124.96 27.6151 124.07 27.8551L122.51 26.0551C122.85 25.9951 123.21 25.9151 123.59 25.8151C123.97 25.7051 124.315 25.5901 124.625 25.4701C125.045 25.3101 125.46 25.1101 125.87 24.8701C126.29 24.6201 126.685 24.3301 127.055 24.0001C127.425 23.6701 127.75 23.3051 128.03 22.9051C128.28 22.5351 128.495 22.1401 128.675 21.7201C128.855 21.2901 129 20.8501 129.11 20.4001C129.22 19.9401 129.305 19.4901 129.365 19.0501H121.925C121.925 19.1801 121.925 19.3451 121.925 19.5451C121.925 19.7351 121.925 19.9451 121.925 20.1751C121.925 20.3951 121.925 20.6001 121.925 20.7901C121.925 20.9701 121.925 21.1201 121.925 21.2401C121.925 21.4101 121.93 21.6001 121.94 21.8101C121.95 22.0201 121.96 22.2001 121.97 22.3501H119.9C119.92 22.1601 119.935 21.9551 119.945 21.7351C119.965 21.5051 119.975 21.2901 119.975 21.0901C119.975 20.9701 119.975 20.7951 119.975 20.5651C119.975 20.3351 119.975 20.0901 119.975 19.8301C119.975 19.5601 119.975 19.3051 119.975 19.0651C119.975 18.8251 119.975 18.6351 119.975 18.4951C119.975 18.3251 119.97 18.1151 119.96 17.8651C119.95 17.6051 119.93 17.3851 119.9 17.2051C120.16 17.2351 120.41 17.2551 120.65 17.2651C120.89 17.2751 121.15 17.2801 121.43 17.2801H129.335C129.645 17.2801 129.895 17.2651 130.085 17.2351C130.285 17.1951 130.45 17.1551 130.58 17.1151L131.885 17.9101Z" fill="white"/>
<path d="M114.935 14.6851C115.065 14.8551 115.2 15.0701 115.34 15.3301C115.49 15.5801 115.635 15.8301 115.775 16.0801C115.915 16.3301 116.03 16.5501 116.12 16.7401L114.92 17.2501C114.77 16.9401 114.585 16.5901 114.365 16.2001C114.155 15.8001 113.95 15.4551 113.75 15.1651L114.935 14.6851ZM116.705 13.9951C116.835 14.1851 116.975 14.4101 117.125 14.6701C117.285 14.9201 117.435 15.1701 117.575 15.4201C117.725 15.6601 117.84 15.8651 117.92 16.0351L116.735 16.5601C116.575 16.2401 116.385 15.8851 116.165 15.4951C115.945 15.1051 115.73 14.7701 115.52 14.4901L116.705 13.9951ZM109.325 20.3251C109.785 20.5951 110.29 20.9101 110.84 21.2701C111.39 21.6201 111.94 21.9851 112.49 22.3651C113.05 22.7451 113.575 23.1151 114.065 23.4751C114.565 23.8251 114.99 24.1451 115.34 24.4351L113.9 26.1301C113.57 25.8201 113.16 25.4701 112.67 25.0801C112.19 24.6901 111.67 24.2901 111.11 23.8801C110.55 23.4601 110 23.0601 109.46 22.6801C108.92 22.3001 108.43 21.9701 107.99 21.6901L109.325 20.3251ZM116.375 17.7751C116.295 17.9151 116.21 18.0851 116.12 18.2851C116.03 18.4751 115.95 18.6651 115.88 18.8551C115.73 19.3151 115.525 19.8251 115.265 20.3851C115.015 20.9451 114.715 21.5201 114.365 22.1101C114.015 22.7001 113.615 23.2751 113.165 23.8351C112.465 24.7051 111.615 25.5401 110.615 26.3401C109.615 27.1301 108.4 27.8001 106.97 28.3501L105.23 26.8351C106.27 26.5051 107.175 26.1251 107.945 25.6951C108.715 25.2551 109.385 24.7851 109.955 24.2851C110.525 23.7851 111.02 23.2851 111.44 22.7851C111.78 22.3851 112.1 21.9451 112.4 21.4651C112.7 20.9751 112.96 20.4901 113.18 20.0101C113.41 19.5301 113.57 19.1001 113.66 18.7201H108.59L109.28 17.0101H113.555C113.785 17.0101 114.015 16.9951 114.245 16.9651C114.485 16.9351 114.69 16.8901 114.86 16.8301L116.375 17.7751ZM111.425 15.4801C111.245 15.7401 111.065 16.0201 110.885 16.3201C110.715 16.6201 110.585 16.8501 110.495 17.0101C110.165 17.6001 109.735 18.2351 109.205 18.9151C108.685 19.5951 108.1 20.2551 107.45 20.8951C106.81 21.5351 106.13 22.1051 105.41 22.6051L103.79 21.3451C104.67 20.8051 105.415 20.2351 106.025 19.6351C106.645 19.0251 107.16 18.4401 107.57 17.8801C107.99 17.3101 108.325 16.8051 108.575 16.3651C108.695 16.1851 108.82 15.9451 108.95 15.6451C109.09 15.3351 109.19 15.0551 109.25 14.8051L111.425 15.4801Z" fill="white"/>
<path d="M91.1 14.325H92.75V28.305H91.1V14.325ZM88.82 19.26H94.97V20.94H88.82V19.26ZM90.77 20.145L91.775 20.64C91.645 21.14 91.495 21.67 91.325 22.23C91.155 22.78 90.965 23.33 90.755 23.88C90.545 24.43 90.325 24.95 90.095 25.44C89.865 25.92 89.62 26.34 89.36 26.7C89.31 26.51 89.235 26.305 89.135 26.085C89.045 25.855 88.945 25.63 88.835 25.41C88.735 25.19 88.64 25 88.55 24.84C88.85 24.47 89.14 24.015 89.42 23.475C89.71 22.925 89.975 22.36 90.215 21.78C90.455 21.19 90.64 20.645 90.77 20.145ZM92.735 21.015C92.815 21.095 92.93 21.22 93.08 21.39C93.24 21.56 93.415 21.755 93.605 21.975C93.795 22.185 93.975 22.4 94.145 22.62C94.325 22.83 94.485 23.02 94.625 23.19C94.775 23.36 94.88 23.49 94.94 23.58L93.845 24.99C93.745 24.77 93.615 24.515 93.455 24.225C93.295 23.925 93.12 23.62 92.93 23.31C92.74 22.99 92.555 22.69 92.375 22.41C92.195 22.13 92.04 21.9 91.91 21.72L92.735 21.015ZM88.805 15.48L90.065 15.15C90.195 15.51 90.31 15.9 90.41 16.32C90.52 16.74 90.61 17.15 90.68 17.55C90.75 17.95 90.8 18.31 90.83 18.63L89.48 18.99C89.47 18.67 89.43 18.31 89.36 17.91C89.3 17.5 89.22 17.085 89.12 16.665C89.03 16.235 88.925 15.84 88.805 15.48ZM93.74 15.075L95.255 15.405C95.135 15.815 95.005 16.235 94.865 16.665C94.725 17.095 94.585 17.51 94.445 17.91C94.305 18.3 94.175 18.645 94.055 18.945L92.915 18.615C93.025 18.295 93.13 17.93 93.23 17.52C93.34 17.1 93.44 16.675 93.53 16.245C93.62 15.815 93.69 15.425 93.74 15.075ZM99.425 14.25H101.105V28.335H99.425V14.25ZM94.94 23.64L102.65 22.26L102.92 23.925L95.21 25.32L94.94 23.64ZM95.78 16.29L96.665 15.075C96.945 15.235 97.235 15.42 97.535 15.63C97.845 15.84 98.135 16.055 98.405 16.275C98.685 16.495 98.905 16.7 99.065 16.89L98.135 18.24C97.985 18.04 97.775 17.825 97.505 17.595C97.245 17.365 96.965 17.135 96.665 16.905C96.365 16.675 96.07 16.47 95.78 16.29ZM95.105 20.07L95.945 18.78C96.245 18.93 96.555 19.11 96.875 19.32C97.195 19.52 97.5 19.725 97.79 19.935C98.08 20.135 98.315 20.33 98.495 20.52L97.58 21.96C97.42 21.77 97.2 21.565 96.92 21.345C96.64 21.115 96.34 20.89 96.02 20.67C95.71 20.44 95.405 20.24 95.105 20.07Z" fill="white"/>
<path d="M74.435 15.705L75.23 14.475C75.57 14.555 75.935 14.66 76.325 14.79C76.715 14.91 77.095 15.04 77.465 15.18C77.845 15.31 78.16 15.435 78.41 15.555L77.6 16.92C77.36 16.8 77.06 16.665 76.7 16.515C76.34 16.355 75.96 16.205 75.56 16.065C75.16 15.925 74.785 15.805 74.435 15.705ZM73.775 18.24C74.325 18.14 74.985 18 75.755 17.82C76.535 17.64 77.32 17.46 78.11 17.28L78.275 18.69C77.625 18.9 76.965 19.1 76.295 19.29C75.635 19.47 75.02 19.64 74.45 19.8L73.775 18.24ZM80.42 15.255H86.18V16.53H79.415L80.42 15.255ZM85.76 15.255H86.015L86.285 15.195L87.47 15.51C87.28 15.91 87.055 16.32 86.795 16.74C86.545 17.16 86.3 17.51 86.06 17.79L84.65 17.355C84.85 17.115 85.055 16.82 85.265 16.47C85.475 16.11 85.64 15.775 85.76 15.465V15.255ZM81.965 15.795H83.57C83.5 16.325 83.38 16.81 83.21 17.25C83.04 17.68 82.79 18.065 82.46 18.405C82.14 18.735 81.705 19.025 81.155 19.275C80.615 19.525 79.92 19.735 79.07 19.905C79 19.715 78.885 19.495 78.725 19.245C78.565 18.985 78.41 18.78 78.26 18.63C78.98 18.51 79.57 18.365 80.03 18.195C80.49 18.025 80.845 17.83 81.095 17.61C81.355 17.38 81.55 17.115 81.68 16.815C81.81 16.515 81.905 16.175 81.965 15.795ZM83.48 16.17C83.54 16.45 83.64 16.72 83.78 16.98C83.93 17.24 84.155 17.48 84.455 17.7C84.755 17.91 85.175 18.1 85.715 18.27C86.255 18.43 86.95 18.56 87.8 18.66C87.63 18.84 87.46 19.075 87.29 19.365C87.12 19.655 86.99 19.915 86.9 20.145C85.97 19.995 85.205 19.785 84.605 19.515C84.015 19.245 83.55 18.94 83.21 18.6C82.88 18.26 82.625 17.895 82.445 17.505C82.275 17.105 82.14 16.71 82.04 16.32L83.48 16.17ZM80.375 14.25L81.965 14.52C81.675 15.11 81.335 15.68 80.945 16.23C80.555 16.77 80.075 17.27 79.505 17.73C79.345 17.57 79.13 17.41 78.86 17.25C78.6 17.09 78.36 16.965 78.14 16.875C78.69 16.495 79.15 16.075 79.52 15.615C79.89 15.145 80.175 14.69 80.375 14.25ZM77.555 22.425V23.055H84.08V22.425H77.555ZM77.555 24.075V24.735H84.08V24.075H77.555ZM77.555 20.76V21.405H84.08V20.76H77.555ZM75.815 19.695H85.895V25.8H75.815V19.695ZM81.59 26.595L83.09 25.74C83.63 25.93 84.175 26.135 84.725 26.355C85.285 26.565 85.815 26.78 86.315 27C86.825 27.21 87.255 27.4 87.605 27.57L85.505 28.38C85.225 28.22 84.875 28.035 84.455 27.825C84.035 27.615 83.58 27.4 83.09 27.18C82.61 26.97 82.11 26.775 81.59 26.595ZM78.275 25.68L79.91 26.43C79.51 26.69 79.04 26.945 78.5 27.195C77.96 27.445 77.405 27.67 76.835 27.87C76.265 28.08 75.725 28.255 75.215 28.395C75.105 28.275 74.97 28.13 74.81 27.96C74.66 27.8 74.5 27.635 74.33 27.465C74.16 27.305 74.01 27.175 73.88 27.075C74.41 26.975 74.945 26.855 75.485 26.715C76.035 26.575 76.55 26.415 77.03 26.235C77.52 26.055 77.935 25.87 78.275 25.68Z" fill="white"/>
<path d="M242 23.7791V28.1427H260V23.7791" stroke="white" stroke-width="2" stroke-linecap="round" stroke-linejoin="round"/>
<path d="M251 12.1426V25.2335" stroke="white" stroke-width="2"/>
<path d="M245 19.4163L251 25.2344L257 19.4163" stroke="white" stroke-width="2" stroke-linejoin="round"/>
</svg>
