<svg width="200" height="38" viewBox="0 0 200 38" fill="none" xmlns="http://www.w3.org/2000/svg">
<path d="M188.733 35V4.50801H182.979V0.980011H199.065V4.50801H193.479V35H188.733Z" fill="white"/>
<path d="M164.531 35V0.980011H177.719V4.50801H169.277V15.764H176.123V19.124H169.277V31.598H177.803V35H164.531Z" fill="white"/>
<path d="M146.186 35.798V32.396C147.222 32.396 148.062 32.326 148.706 32.186C149.35 32.046 149.84 31.794 150.176 31.43C150.54 31.066 150.792 30.548 150.932 29.876C151.072 29.176 151.142 28.294 151.142 27.23V0.980011H155.846V27.314C155.846 29.274 155.636 30.884 155.216 32.144C154.796 33.376 154.054 34.3 152.99 34.916C151.926 35.504 150.414 35.798 148.454 35.798H146.186Z" fill="white"/>
<path d="M118.991 35L113.447 0.980011H117.395L121.049 25.424L125.627 1.10601H128.987L133.607 25.55L137.177 0.980011H141.041L135.581 35H132.137L127.391 9.80001L122.603 35H118.991Z" fill="white"/>
<path d="M94.1172 35V0.980011H107.305V4.50801H98.8632V15.764H105.709V19.124H98.8632V31.598H107.389V35H94.1172Z" fill="white"/>
<path d="M68.978 35V0.980011H75.824C78.092 0.980011 79.968 1.28801 81.452 1.90401C82.936 2.49201 84.028 3.45801 84.728 4.80201C85.456 6.11801 85.82 7.85401 85.82 10.01C85.82 11.326 85.68 12.53 85.4 13.622C85.12 14.686 84.672 15.596 84.056 16.352C83.44 17.08 82.628 17.612 81.62 17.948L86.45 35H81.872L77.42 19.04H73.724V35H68.978ZM73.724 15.638H75.53C76.874 15.638 77.966 15.47 78.806 15.134C79.646 14.798 80.262 14.224 80.654 13.412C81.046 12.6 81.242 11.466 81.242 10.01C81.242 8.02201 80.878 6.59401 80.15 5.72601C79.422 4.83001 77.98 4.38201 75.824 4.38201H73.724V15.638Z" fill="white"/>
<path d="M43.5926 35V0.980011H51.4046C52.9446 0.980011 54.2746 1.14801 55.3946 1.48401C56.5426 1.82001 57.4946 2.33801 58.2506 3.03801C59.0066 3.73801 59.5666 4.63401 59.9306 5.72601C60.2946 6.79001 60.4766 8.05001 60.4766 9.50601C60.4766 10.906 60.2946 12.124 59.9306 13.16C59.5946 14.168 59.0626 14.966 58.3346 15.554C57.6346 16.142 56.7246 16.52 55.6046 16.688C56.9766 16.996 58.0826 17.528 58.9226 18.284C59.7626 19.012 60.3786 19.964 60.7706 21.14C61.1906 22.288 61.4006 23.674 61.4006 25.298C61.4006 26.754 61.2326 28.084 60.8966 29.288C60.5606 30.492 60.0286 31.514 59.3006 32.354C58.6006 33.194 57.6906 33.852 56.5706 34.328C55.4786 34.776 54.1766 35 52.6646 35H43.5926ZM48.3386 31.598H51.5306C53.6586 31.598 55.0726 31.108 55.7726 30.128C56.5006 29.12 56.8646 27.51 56.8646 25.298C56.8646 23.87 56.6686 22.68 56.2766 21.728C55.9126 20.748 55.3106 20.02 54.4706 19.544C53.6586 19.04 52.5526 18.788 51.1526 18.788H48.3386V31.598ZM48.3386 15.176H51.1526C52.4966 15.176 53.5466 14.994 54.3026 14.63C55.0586 14.238 55.5906 13.622 55.8986 12.782C56.2066 11.942 56.3606 10.85 56.3606 9.50601C56.3606 7.93801 56.1226 6.80401 55.6466 6.10401C55.1706 5.40401 54.4286 4.97001 53.4206 4.80201C52.4126 4.60601 51.0966 4.50801 49.4726 4.50801H48.3386V15.176Z" fill="white"/>
<path d="M6.41601 30.968L5.57601 37.772H0.998012L1.83801 30.968H0.200012V26.432H2.38401L3.72801 15.512H1.92201V10.976H4.27401L5.11401 4.172H9.65001L8.85201 10.976H11.204L12.044 4.172H16.622L15.782 10.976H17.42V15.512H15.236L13.892 26.432H15.698V30.968H13.346L12.506 37.772H7.92801L8.76801 30.968H6.41601ZM10.658 15.512H8.26401L6.96201 26.432H9.31401L10.658 15.512Z" fill="white"/>
</svg>
