<svg width="156" height="36" viewBox="0 0 156 36" fill="none" xmlns="http://www.w3.org/2000/svg">
<path d="M146.185 35.192C141.355 35.192 136.987 32.588 136.987 26.414V9.53001C136.987 3.35601 141.355 0.752014 146.185 0.752014C150.973 0.752014 155.341 3.35601 155.341 9.53001V11.966H150.805V9.53001C150.805 6.54801 149.335 5.28801 146.185 5.28801C143.035 5.28801 141.523 6.54801 141.523 9.53001V26.414C141.523 29.396 143.035 30.656 146.185 30.656C149.335 30.656 150.805 29.396 150.805 26.414V22.508H145.639V17.972H155.341V26.414C155.341 32.588 150.973 35.192 146.185 35.192Z" fill="white"/>
<path d="M128.589 30.236V34.772H110.655V1.172H128.589V5.708H115.191V15.074H127.749V19.61H115.191V30.236H128.589Z" fill="white"/>
<path d="M88.613 34.772H84.077V1.172H88.613V16.124L97.811 1.172H103.103L92.813 17.972L103.103 34.772H97.811L88.613 19.82V34.772Z" fill="white"/>
<path d="M75.6786 22.508H64.7586V17.972H75.6786V22.508Z" fill="white"/>
<path d="M49.6826 5.708V34.772H45.1466V5.708H38.4266V1.172H56.3606V5.708H49.6826Z" fill="white"/>
<path d="M6.41601 27.968L5.57601 34.772H0.998012L1.83801 27.968H0.200012V23.432H2.38401L3.72801 12.512H1.92201V7.976H4.27401L5.11401 1.172H9.65001L8.85201 7.976H11.204L12.044 1.172H16.622L15.782 7.976H17.42V12.512H15.236L13.892 23.432H15.698V27.968H13.346L12.506 34.772H7.92801L8.76801 27.968H6.41601ZM10.658 12.512H8.26401L6.96201 23.432H9.31401L10.658 12.512Z" fill="white"/>
</svg>
