<svg width="192" height="36" viewBox="0 0 192 36" fill="none" xmlns="http://www.w3.org/2000/svg">
<path d="M190.947 11.462C190.947 15.62 189.183 18.77 186.285 20.45L191.283 34.772H186.453L181.959 21.752C181.581 21.752 181.245 21.794 180.909 21.794H176.961V34.772H172.425V1.172H180.909C186.831 1.172 190.947 5.162 190.947 11.462ZM176.961 17.258H180.909C184.479 17.258 186.411 14.864 186.411 11.462C186.411 8.102 184.479 5.708 180.909 5.708H176.961V17.258Z" fill="white"/>
<path d="M164.027 30.236V34.772H146.093V1.172H164.027V5.708H150.629V15.074H163.187V19.61H150.629V30.236H164.027Z" fill="white"/>
<path d="M124.543 34.772H120.007V1.172H128.491C134.413 1.172 138.529 5.162 138.529 11.462C138.529 17.762 134.413 21.794 128.491 21.794H124.543V34.772ZM128.491 5.708H124.543V17.258H128.491C132.061 17.258 133.993 14.864 133.993 11.462C133.993 8.102 132.061 5.708 128.491 5.708Z" fill="white"/>
<path d="M98.4567 34.772H93.9207V1.172H102.405C108.327 1.172 112.443 5.162 112.443 11.462C112.443 17.762 108.327 21.794 102.405 21.794H98.4567V34.772ZM102.405 5.708H98.4567V17.258H102.405C105.975 17.258 107.907 14.864 107.907 11.462C107.907 8.102 105.975 5.708 102.405 5.708Z" fill="white"/>
<path d="M75.1326 35.192C67.7826 35.192 64.7586 28.85 64.7586 17.972C64.7586 7.09401 67.7826 0.752014 75.1326 0.752014C82.4406 0.752014 85.5066 7.09401 85.5066 17.972C85.5066 28.85 82.4406 35.192 75.1326 35.192ZM75.1326 5.28801C71.6466 5.28801 69.2946 8.35401 69.2946 17.972C69.2946 27.59 71.6466 30.656 75.1326 30.656C78.6186 30.656 80.9286 27.59 80.9286 17.972C80.9286 8.35401 78.6186 5.28801 75.1326 5.28801Z" fill="white"/>
<path d="M49.6826 5.708V34.772H45.1466V5.708H38.4266V1.172H56.3606V5.708H49.6826Z" fill="white"/>
<path d="M6.41601 27.968L5.57601 34.772H0.998012L1.83801 27.968H0.200012V23.432H2.38401L3.72801 12.512H1.92201V7.976H4.27401L5.11401 1.172H9.65001L8.85201 7.976H11.204L12.044 1.172H16.622L15.782 7.976H17.42V12.512H15.236L13.892 23.432H15.698V27.968H13.346L12.506 34.772H7.92801L8.76801 27.968H6.41601ZM10.658 12.512H8.26401L6.96201 23.432H9.31401L10.658 12.512Z" fill="white"/>
</svg>
