<?xml version="1.0" encoding="UTF-8"?>
<svg id="_レイヤー_2" xmlns="http://www.w3.org/2000/svg" xmlns:xlink="http://www.w3.org/1999/xlink" version="1.1" viewBox="0 0 197.7 37">
  <!-- Generator: Adobe Illustrator 29.7.1, SVG Export Plug-In . SVG Version: 2.1.1 Build 8)  -->
  <defs>
    <style>
      .st0 {
        fill: none;
      }

      .st1 {
        fill: #fff;
      }

      .st2 {
        clip-path: url(#clippath);
      }
    </style>
    <clipPath id="clippath">
      <path class="st0" d="M7.4,3.4C-.3,9.1-1.4,18.6,1.4,24.9c.2-.1.4-.2.7-.4.2-.1.4-.3.6-.4,1-.8,1.6-1.8,1.9-3.1.7-2.7,1.4-5.4,2.1-8,.2-.7.5-1.4,1-2,.3-.3.6-.6.9-.9,0,0,0,0,0,0,.8-.5,1.5-1,2.3-1.4,3-1.8,6.1-3.5,9.1-5.2.6-.3,1,0,1,.6v.9c0,1.1-.4,2-1.2,2.6,0,0-.1,0-.2.2-1.1.7-2.3,1.3-3.5,2-.3.2-.5.3-.8.5-1.5,1.1-2.4,2.5-2.4,4.5,0,2.6,0,5.1,0,7.7,0,.6.4.8,1,.6.4-.2.8-.5,1.2-.7,1.2-.7,2.4-1.4,3.7-2.1.5-.3,1,0,1,.6s0,1.2,0,1.8c0,1-.4,1.7-1.1,2.3,0,0-.2.1-.3.2-2.8,1.6-5.6,3.2-8.4,4.9-1,.6-2,1.1-3,1.7-.2.1-.5.3-.7.4,5.8,5.8,15.7,7.1,23.2,1.7,7.8-5.7,8.8-15.2,6.1-21.5-.2.1-.5.2-.7.4-.2.1-.4.3-.6.4-1,.8-1.6,1.8-1.9,3.1-.7,2.7-1.4,5.3-2.1,8-.2.7-.5,1.4-1,2-.3.3-.6.6-.9.9,0,0,0,0,0,0-.8.5-1.5,1-2.3,1.4-3,1.8-6.1,3.5-9.1,5.2-.6.3-1.1,0-1.1-.6v-.9c0-1.1.4-2,1.2-2.6,0,0,.1,0,.2-.2,1.1-.7,2.3-1.3,3.5-2,.3-.2.5-.3.8-.5,1.5-1.1,2.4-2.5,2.4-4.5,0-2.6,0-5.1,0-7.7,0-.6-.5-.8-1-.6-.4.2-.8.5-1.2.7-1.2.7-2.4,1.4-3.7,2.1-.5.3-1,0-1-.6,0-.6,0-1.2,0-1.8,0-1,.4-1.7,1.1-2.3,0,0,.2-.1.3-.2,2.8-1.6,5.6-3.2,8.4-4.9,1-.6,2-1.1,3-1.7.2-.1.5-.3.7-.4C27.3,1.8,22.7,0,18,0s-7.3,1.1-10.5,3.4h0Z"/>
    </clipPath>
  </defs>
  <g id="_レイヤー_2-2">
    <g>
      <g class="st2">
        <polygon class="st1" points="18.5 -19.9 57.8 19.5 18.5 58.9 -20.8 19.5 18.5 -19.9"/>
      </g>
      <g>
        <g>
          <path class="st1" d="M50.6,13.6c.3,1.9,1.1,2.9,2.9,2.9s1.7-.5,1.7-1.6-.7-1.6-3.3-2.5c-3-1.1-4.5-2.5-4.5-5s2.2-4.9,5.5-4.9,5.4,1.7,5.9,4.8l-3.7.8c-.2-2-.9-3-2.3-3s-1.7.7-1.7,1.7.8,1.7,3.1,2.5c3.5,1.1,5,2.4,5,5.1s-2.2,5-5.9,5-6-1.7-6.5-5.2l3.9-.5h0Z"/>
          <path class="st1" d="M72.4,16.2v2.8h-10V2.7h9.8v2.8h-6.1v3.9h5.5v2.7h-5.5v4.1h6.3Z"/>
          <path class="st1" d="M85.8,16.1v2.9h-10.1V2.7h3.9v13.4h6.3Z"/>
          <path class="st1" d="M98.9,16.2v2.8h-10V2.7h9.8v2.8h-6.1v3.9h5.5v2.7h-5.5v4.1h6.3Z"/>
          <path class="st1" d="M114.7,13.8c-.9,3.7-2.9,5.5-6.3,5.5s-7.1-2.8-7.1-8.4,2.7-8.4,6.9-8.4,5.7,1.8,6.2,5.2l-3.9.9c-.2-2.3-1-3.3-2.5-3.3s-2.7,2-2.7,5.5,1.1,5.8,2.8,5.8,2.2-.9,2.5-3.2l4,.5h0Z"/>
          <path class="st1" d="M129.2,5.7h-4.4v13.3h-3.8V5.7h-4.4v-3h12.6v3Z"/>
          <path class="st1" d="M154.3,2.7v16.4h-3.5v-6.4c0-2.2,0-4.5.2-6.7h-.2l-3.1,13.1h-3.1l-3.2-13.1h-.2c.2,2.2.2,4.4.2,6.7v6.4h-3.5V2.7h5.8l1.6,6.5c.4,1.7.8,4,.9,5.6h.2c0-1.6.4-3.9.8-5.6l1.5-6.5h5.6Z"/>
          <path class="st1" d="M171.5,19h-3.9l-.9-3.8h-5l-.9,3.8h-3.6l4.2-16.4h6l4.2,16.4h0ZM164.7,7.1c-.2-.7-.4-1.5-.5-2.2h-.1c-.1.8-.3,1.5-.5,2.2l-1.3,5.2h3.6l-1.3-5.2h0Z"/>
          <path class="st1" d="M184.5,16.1v2.9h-10.1V2.7h3.9v13.4h6.3Z"/>
          <path class="st1" d="M197.7,16.1v2.9h-10.1V2.7h3.9v13.4h6.3Z"/>
        </g>
        <g>
          <path class="st1" d="M93.4,27.7c0-.8,0-1.2-.1-1.8.5,0,1,.1,1.3.2.1,0,.2,0,.2.2s0,.1,0,.2c-.1.2-.1.4-.1.9v1l2.6-.6c.4-.1.5-.1.7-.3,0,0,0,0,.1,0s0,0,.1,0c.2.1.5.4.7.6,0,0,0,.1,0,.2s0,.1-.1.2c-.1.1-.2.2-.3.4-.5.9-1,1.6-1.6,2.2,0,0-.2.1-.3.1s-.1,0-.2,0c-.3-.2-.5-.3-.8-.4.7-.6,1.2-1.3,1.6-2l-2.8.7v2.3c0,.5.2.7,1.3.7s1.7,0,2.4-.2c.1,0,.2,0,.2.2,0,.3,0,.6,0,.8s0,.1-.2.2c-.6,0-1.3.1-2.4.1-1.9,0-2.5-.4-2.5-1.8v-2l-.6.2c-.5.1-1.1.3-1.4.4,0,0,0,0-.1,0,0,0-.1,0-.2-.2-.1-.3-.3-.7-.4-1,.6,0,1.2-.2,1.9-.4l.8-.2v-1h0Z"/>
          <path class="st1" d="M102.6,31.8c.8-.3,1.5-.6,2.6-1.3,1.2-.7,1.8-1.2,2.7-2,0,.5,0,.9.2,1.2,0,.2,0,.3,0,.4-.8.7-1.7,1.2-2.5,1.7-.8.5-1.5.8-2.4,1.2-.2.1-.4.2-.6.3,0,0-.1,0-.2,0s-.1,0-.2,0c-.2-.2-.4-.4-.6-.7,0,0,0,0,0-.2s0-.1,0-.2c0,0,0-.3,0-.6v-3.8c0-.8,0-1.3,0-1.7.6,0,1.1.1,1.3.2,0,0,.2,0,.2.2s0,.1,0,.2c0,.2-.1.5-.1,1.2v3.7h0Z"/>
          <path class="st1" d="M114.8,27.1c.3,0,.4,0,.5-.1,0,0,0,0,.1,0s0,0,.2,0c.2.2.5.4.7.5,0,0,.1.2.1.2s0,.1-.1.2c-.1.1-.2.2-.3.4-.7,1.4-1.3,2.3-2,3.1-.9,1-2.1,1.9-3,2.5,0,0-.1,0-.2,0,0,0-.2,0-.2-.1-.2-.2-.6-.3-.9-.5,1.6-.9,2.3-1.5,3.3-2.5.8-.9,1.2-1.6,1.8-2.8h-2.4c-.8,1.1-1.3,1.6-1.9,2.1,0,0-.1.1-.2.1s0,0-.2,0c-.2-.2-.6-.4-1-.4,1.3-1.1,2.1-2,2.7-3,.3-.6.5-.9.6-1.4.6.2.9.4,1.2.5,0,0,0,.1,0,.2s0,.1-.1.2c0,0-.2.2-.2.3-.1.2-.2.3-.3.5h1.8s0,0,0,0Z"/>
          <path class="st1" d="M120.7,28.4c1.2.4,2.2.8,3.2,1.4.1,0,.2.1.1.3-.1.3-.3.6-.4.9,0,0,0,.1-.1.1s0,0-.1,0c-.9-.6-1.8-1-2.6-1.3v2.2c0,.7,0,1.2,0,2,0,.1,0,.2-.2.2-.3,0-.6,0-.9,0-.1,0-.2,0-.2-.2,0-.7,0-1.3,0-2v-4.9c0-.8,0-1.1,0-1.5.5,0,1,0,1.2.2.1,0,.2,0,.2.2s0,.1,0,.2c0,.1,0,.4,0,.9,0,0,0,1.4,0,1.4Z"/>
          <path class="st1" d="M129.6,29.1h1.9c.8,0,1.6,0,2.2,0,0,0,.1,0,.1.2,0,.2,0,.5,0,.8,0,.2,0,.2-.2.2-.7,0-1.5,0-2.1,0h-1.9v1.5c0,.3,0,.5.3.5.2,0,.5.1,1.1.1s1.3,0,1.8-.1c0,0,.1,0,.1.2,0,.2,0,.5,0,.8s0,.2-.2.2c-.4,0-1.1,0-1.9,0s-1.4,0-1.7-.3c-.5-.2-.7-.6-.7-1.2v-1.8h-.6c-.9,0-1.6,0-2.1,0-.1,0-.2,0-.2-.2,0-.2,0-.6,0-1,.6,0,1.4,0,2.3,0h.6v-1.6c-1,0-1.4,0-1.7,0-.1,0-.2,0-.2-.2,0-.3,0-.6,0-.9.5,0,1.3,0,2,0h2c.8,0,1.4,0,2,0,.1,0,.1,0,.1.2,0,.2,0,.5,0,.7s0,.2-.2.2c-.6,0-1.3,0-1.9,0h-.9v1.6h0Z"/>
          <path class="st1" d="M137.1,30.5c-1,0-1.4.1-1.5.1s-.2,0-.2-.2c0-.2-.1-.7-.1-1.2.6.1,1.1.1,2.2.1h3.2c.8,0,1.5,0,2.3,0,.1,0,.2,0,.2.1,0,.3,0,.6,0,.9,0,.1,0,.2-.2.1-.8,0-1.5,0-2.2,0h-3.6Z"/>
          <path class="st1" d="M147.6,27.2c.2,0,.2.2.1.3-.1.2-.1.4-.1.7,0,1.2-.2,2.2-.5,2.9-.3.6-.7,1.3-1.4,1.9-.1,0-.2.1-.3.1s-.1,0-.2,0c-.2-.2-.5-.3-.9-.4.8-.6,1.3-1.2,1.7-2,.3-.7.4-1.2.4-2.8,0-.4,0-.5-.1-.8.6,0,1,.1,1.3.2h0ZM149.8,31.5c.5-.3.9-.6,1.4-.9.6-.5,1.2-1,1.8-1.7,0,.4.1.7.3,1,0,0,0,.1,0,.2s0,.1-.1.2c-.5.5-1,.9-1.5,1.3-.5.4-1.1.8-1.8,1.2-.2.1-.2.1-.3.2,0,0-.1,0-.2,0s-.1,0-.2,0c-.2-.2-.4-.4-.6-.6,0,0,0-.2,0-.2s0,0,0-.1c0-.1,0-.2,0-.8v-3.1c0-.9,0-1.3-.1-1.7.4,0,.9.1,1.2.2.1,0,.2,0,.2.2s0,.1,0,.2c0,.2,0,.4,0,1.1v3.3h0Z"/>
        </g>
      </g>
    </g>
  </g>
</svg>