<?xml version="1.0" encoding="UTF-8"?>
<svg id="_レイヤー_2" data-name="レイヤー 2" xmlns="http://www.w3.org/2000/svg" xmlns:xlink="http://www.w3.org/1999/xlink" viewBox="0 0 197.66 37">
  <defs>
    <style>
      .cls-1 {
        fill: none;
      }

      .cls-2 {
        fill: url(#_名称未設定グラデーション_3);
      }

      .cls-3 {
        clip-path: url(#clippath);
      }
    </style>
    <clipPath id="clippath">
      <path class="cls-1" d="M7.45,3.45C-.31,9.12-1.38,18.64,1.38,24.91c.23-.11.45-.23.66-.36.21-.11.41-.26.61-.43.95-.77,1.6-1.79,1.93-3.08.69-2.68,1.42-5.35,2.12-8.03.19-.74.49-1.42.98-2.01.27-.32.58-.61.88-.9.03-.02.05-.04.08-.06.75-.51,1.54-.95,2.33-1.4,3.03-1.75,6.07-3.5,9.11-5.25.6-.34,1.05-.09,1.05.6,0,.3,0,.61,0,.91,0,1.1-.41,1.96-1.22,2.59-.07.05-.15.1-.23.15-1.15.67-2.3,1.35-3.45,2.01-.27.16-.53.33-.76.51-1.53,1.06-2.36,2.54-2.38,4.47-.03,2.57-.01,5.14,0,7.7,0,.58.45.84.97.55.42-.24.83-.48,1.25-.72,1.22-.71,2.44-1.42,3.66-2.12.52-.3.98-.03.98.57,0,.58.02,1.17,0,1.75-.04.95-.41,1.71-1.11,2.27-.09.06-.18.12-.28.18-2.81,1.62-5.61,3.25-8.42,4.87-1,.57-2,1.15-2.99,1.72-.25.14-.49.29-.74.44,5.83,5.85,15.72,7.14,23.16,1.72,7.77-5.67,8.84-15.2,6.07-21.46-.23.11-.45.23-.66.36-.21.11-.41.26-.61.43-.95.77-1.6,1.79-1.93,3.08-.69,2.68-1.42,5.35-2.12,8.03-.19.74-.49,1.42-.98,2.01-.27.32-.58.61-.88.9-.03.02-.05.04-.08.06-.75.51-1.54.95-2.33,1.4-3.03,1.75-6.07,3.5-9.11,5.25-.6.34-1.05.09-1.05-.6,0-.3,0-.61,0-.91,0-1.1.41-1.96,1.22-2.59.07-.05.15-.1.23-.15,1.15-.67,2.3-1.35,3.46-2.01.27-.16.53-.33.76-.51,1.53-1.06,2.36-2.54,2.38-4.47.03-2.57.01-5.14,0-7.7,0-.58-.45-.84-.97-.55-.42.24-.83.48-1.25.72-1.22.71-2.44,1.42-3.66,2.12-.52.3-.98.03-.99-.57,0-.58-.02-1.17,0-1.75.04-.95.41-1.71,1.11-2.27.09-.06.18-.12.28-.18,2.81-1.62,5.61-3.25,8.41-4.87,1-.57,2-1.15,2.99-1.72.25-.14.49-.29.74-.44C27.32,1.85,22.72,0,18,0c-3.62,0-7.31,1.09-10.54,3.45"/>
    </clipPath>
    <linearGradient id="_名称未設定グラデーション_3" data-name="名称未設定グラデーション 3" x1="-320" y1="470.89" x2="-319.78" y2="470.89" gradientTransform="translate(-18138.4 95102.89) rotate(45) scale(170.04 -170.04)" gradientUnits="userSpaceOnUse">
      <stop offset="0" stop-color="#db141f"/>
      <stop offset="1" stop-color="#ed9822"/>
      <stop offset="1" stop-color="#ed9822"/>
    </linearGradient>
  </defs>
  <g id="_レイヤー_2-2" data-name=" レイヤー 2">
    <g>
      <g class="cls-3">
        <polygon class="cls-2" points="18.5 -19.91 57.84 19.49 18.5 58.9 -20.84 19.49 18.5 -19.91"/>
      </g>
      <g>
        <g>
          <path d="M50.64,13.62c.27,1.85,1.11,2.86,2.86,2.86.99,0,1.72-.5,1.72-1.55,0-1.18-.71-1.64-3.3-2.54-2.98-1.05-4.51-2.5-4.51-5,0-3.09,2.18-4.93,5.5-4.93s5.42,1.68,5.88,4.81l-3.74.78c-.15-1.97-.92-3-2.31-3-1.07,0-1.66.67-1.66,1.68,0,1.11.78,1.7,3.13,2.46,3.49,1.11,4.96,2.41,4.96,5.1,0,3.04-2.2,5-5.9,5s-6.05-1.74-6.49-5.17l3.86-.48Z"/>
          <path d="M72.45,16.2v2.83h-10.04V2.66h9.85v2.83h-6.07v3.88h5.46v2.73h-5.46v4.09h6.26Z"/>
          <path d="M85.85,16.1v2.94h-10.14V2.66h3.88v13.44h6.26Z"/>
          <path d="M98.94,16.2v2.83h-10.04V2.66h9.85v2.83h-6.07v3.88h5.46v2.73h-5.46v4.09h6.26Z"/>
          <path d="M114.71,13.79c-.9,3.72-2.92,5.46-6.28,5.46-4.66,0-7.08-2.83-7.08-8.4,0-5.19,2.65-8.4,6.89-8.4,3.42,0,5.65,1.85,6.24,5.19l-3.91.88c-.21-2.31-1.01-3.34-2.54-3.34-1.7,0-2.69,1.97-2.69,5.52s1.09,5.82,2.81,5.82c1.47,0,2.18-.92,2.52-3.23l4.03.5Z"/>
          <path d="M129.2,5.7h-4.41v13.33h-3.78V5.7h-4.41v-3.04h12.6v3.04Z"/>
          <path d="M154.29,2.66v16.38h-3.46v-6.4c0-2.25.04-4.47.23-6.72h-.21l-3.13,13.12h-3.09l-3.19-13.12h-.21c.17,2.23.21,4.43.21,6.72v6.4h-3.46V2.66h5.75l1.58,6.47c.42,1.68.78,3.99.88,5.58h.21c.08-1.6.42-3.95.8-5.56l1.53-6.49h5.56Z"/>
          <path d="M171.49,19.04h-3.88l-.94-3.84h-5.02l-.92,3.84h-3.59l4.18-16.38h5.98l4.2,16.38ZM164.69,7.07c-.19-.73-.36-1.49-.46-2.25h-.1c-.13.76-.29,1.51-.48,2.25l-1.28,5.19h3.59l-1.26-5.19Z"/>
          <path d="M184.47,16.1v2.94h-10.14V2.66h3.88v13.44h6.26Z"/>
          <path d="M197.66,16.1v2.94h-10.14V2.66h3.88v13.44h6.26Z"/>
        </g>
        <g>
          <path d="M93.39,27.68c0-.79-.02-1.2-.13-1.76.5.04.98.11,1.29.2.13.03.19.09.19.18,0,.04-.02.1-.06.16-.11.21-.13.42-.13.89v1.03l2.61-.61c.44-.1.53-.15.71-.29.05-.04.1-.06.14-.06.05,0,.09.02.14.06.21.13.53.41.74.65.06.06.09.12.09.18,0,.07-.05.14-.13.2-.14.1-.22.25-.31.39-.51.86-1.01,1.59-1.59,2.16-.09.09-.17.15-.26.15-.06,0-.12-.02-.19-.07-.29-.17-.54-.3-.83-.38.69-.6,1.18-1.27,1.63-2l-2.75.7v2.27c0,.53.18.7,1.26.7.81,0,1.74-.1,2.42-.22.14-.02.15.05.17.2.05.27.09.57.09.84,0,.1-.06.14-.21.15-.6.07-1.29.12-2.39.12-1.91,0-2.5-.41-2.5-1.76v-2.02l-.64.17c-.54.14-1.1.29-1.41.43-.05.02-.09.04-.12.04-.07,0-.11-.05-.16-.16-.14-.26-.29-.69-.4-1.02.63-.08,1.2-.18,1.88-.35l.85-.21v-.96Z"/>
          <path d="M102.62,31.81c.77-.3,1.52-.65,2.55-1.26,1.15-.68,1.84-1.24,2.65-2.04,0,.46.07.86.16,1.16.06.19.03.29-.1.4-.82.69-1.65,1.24-2.5,1.72-.76.45-1.54.84-2.45,1.24-.25.11-.43.21-.56.32-.06.05-.12.08-.18.08s-.11-.03-.17-.08c-.23-.19-.43-.41-.61-.68-.04-.05-.06-.1-.06-.16,0-.05.02-.11.05-.17.04-.1.04-.29.04-.57l.02-3.76c0-.82-.03-1.31-.11-1.74.56.07,1.07.15,1.3.22.1.03.16.09.16.19,0,.05-.02.12-.05.21-.07.2-.11.53-.11,1.24l-.03,3.68Z"/>
          <path d="M114.8,27.13c.26-.01.39-.05.5-.12.04-.03.08-.04.13-.04s.1.02.16.06c.25.16.48.35.68.54.09.08.13.16.13.23,0,.08-.05.15-.12.21-.14.11-.24.25-.33.43-.67,1.36-1.31,2.33-1.98,3.09-.86.97-2.05,1.94-3.04,2.49-.06.04-.11.05-.16.05-.08,0-.15-.04-.23-.11-.25-.2-.56-.35-.95-.46,1.56-.86,2.35-1.49,3.33-2.55.79-.88,1.25-1.56,1.85-2.84l-2.42.07c-.82,1.01-1.32,1.58-1.89,2.05-.07.07-.14.11-.21.11-.05,0-.1-.02-.15-.06-.25-.18-.62-.36-.96-.43,1.3-1.06,2.07-1.99,2.69-2.97.33-.56.48-.87.59-1.35.57.2.95.37,1.17.53.07.05.1.11.1.17s-.03.12-.11.17c-.1.06-.17.17-.25.27-.11.17-.21.32-.33.5l1.8-.04Z"/>
          <path d="M120.68,28.42c1.22.38,2.19.77,3.18,1.36.11.06.16.13.11.26-.13.33-.29.64-.43.87-.04.07-.08.11-.13.11-.03,0-.07-.01-.11-.05-.92-.59-1.82-1.03-2.63-1.28v2.21c0,.65.02,1.24.04,1.96,0,.12-.04.15-.18.15-.29.02-.6.02-.89,0-.14,0-.19-.03-.19-.15.03-.74.04-1.33.04-1.97v-4.92c0-.75-.03-1.08-.1-1.48.46.03.96.08,1.25.16.14.03.19.09.19.17,0,.06-.03.14-.08.23-.07.13-.07.38-.07.94v1.43Z"/>
          <path d="M129.59,29.11h1.86c.75,0,1.56-.02,2.2-.05.09,0,.11.05.12.18.02.24.02.51,0,.75,0,.17-.04.19-.19.18-.7,0-1.47-.02-2.13-.02h-1.87v1.51c0,.31.09.46.27.53.21.07.51.11,1.09.11s1.31-.04,1.76-.12c.09,0,.12.04.12.15.02.18.03.48.03.79,0,.17-.05.2-.2.21-.36.05-1.05.09-1.86.09-.87,0-1.36-.1-1.73-.27-.46-.21-.66-.59-.66-1.22v-1.78h-.64c-.88,0-1.62.03-2.08.05-.13,0-.16-.06-.17-.19-.04-.22-.05-.62-.07-.95.61.05,1.4.06,2.33.06h.63v-1.58c-.96,0-1.39,0-1.74.02-.13,0-.17-.05-.17-.18-.03-.3-.04-.62-.04-.93.48.04,1.27.05,2.04.05h2.02c.79,0,1.43-.02,1.97-.04.12,0,.15.05.15.17,0,.24.02.5.02.74,0,.14-.05.18-.21.17-.59,0-1.27-.01-1.93-.01h-.92v1.58Z"/>
          <path d="M137.06,30.47c-.99,0-1.37.12-1.47.12-.12,0-.2-.06-.23-.21-.05-.23-.11-.7-.15-1.21.65.1,1.15.12,2.16.12h3.22c.76,0,1.53-.02,2.3-.03.15,0,.18.02.18.14.02.3.02.64,0,.94,0,.12-.04.16-.18.15-.75,0-1.49-.02-2.23-.02h-3.6Z"/>
          <path d="M147.6,27.22c.17.05.19.17.13.31-.11.22-.12.44-.12.68-.02,1.25-.21,2.2-.54,2.94-.26.61-.7,1.26-1.42,1.88-.1.08-.18.13-.26.13-.06,0-.12-.03-.19-.08-.25-.17-.49-.29-.85-.42.78-.59,1.31-1.2,1.66-1.99.28-.68.41-1.23.42-2.83,0-.38-.02-.54-.1-.84.57.07,1.03.14,1.27.22ZM149.82,31.45c.49-.26.95-.57,1.42-.93.6-.46,1.19-.99,1.75-1.7.04.35.14.68.31,1.01.03.07.06.12.06.17,0,.07-.04.14-.15.25-.5.51-.96.92-1.48,1.31-.52.4-1.08.79-1.78,1.2-.18.12-.2.14-.29.21-.06.05-.13.08-.2.08-.06,0-.13-.03-.21-.08-.22-.15-.45-.41-.6-.61-.06-.09-.09-.15-.09-.21,0-.05,0-.09.04-.15.07-.13.06-.25.06-.76v-3.13c0-.87,0-1.28-.1-1.74.4.05.95.12,1.25.21.13.03.18.09.18.17,0,.06-.03.15-.08.25-.09.19-.09.39-.09,1.11v3.34Z"/>
        </g>
      </g>
    </g>
  </g>
</svg>