<svg xmlns="http://www.w3.org/2000/svg" viewBox="0 0 542.16 188.39">
    <style>
        .cls-1 {
            fill: none;
        }
        .cls-2 {
            fill: #ffffff;
        }
        .cls-3 {
            fill: #FDCE00;
        }
    </style>
    <g data-name="">
        <g data-name="">
            <path class="cls-1" d="M362,72.91c-24.57,0-39.89,16.75-39.89,45.48h0c0,28.73,15.32,45.47,39.89,45.48s39.89-16.75,39.89-45.48h0C401.88,89.66,386.56,72.93,362,72.91Zm32.7,29.83c.39,1.53.71,3.12,1,4.77h0l.07.44h0l0,.22h0l0,.23h0l0,.23h0l.06.46h0l.06.46h0c.07.54.12,1.09.18,1.64h0l0,.47h0l0,.48h0l0,.24h0v.24h0l0,.24h0l0,.49h0l0,.24h0v.25h0v.24h0l0,.49h0v.24h0v.25h0v.25h0v.75h0v1.52h0c0,.38,0,.77,0,1.15v.44l0,.66,0,.56,0,.58,0,.48,0,.66,0,.45,0,.61-.05.52,0,.57-.05.49-.06.57-.06.5-.08.59-.06.42-.09.63-.07.42-.09.57-.08.44-.18.95v0l-.09.43c0,.18-.08.36-.11.54l-.11.47-.12.5-.11.45-.13.49-.12.48-.13.44-.14.49-.12.42-.15.48-.14.42-.16.5-.12.32c-.06.19-.13.37-.19.55l-.12.31-.21.54-.12.3-.21.53h0c-.11.27-.23.53-.34.79s-.2.43-.29.64l-.07.15-.27.55-.12.24-.26.51-.13.26c-.1.17-.19.34-.28.51l-.13.23-.28.5-.15.25c-.09.16-.19.32-.29.48l-.15.24c-.1.16-.2.32-.31.48l-.12.18c-.11.18-.23.35-.35.52l-.09.14-.38.54-.05.06a30.33,30.33,0,0,1-1.94,2.4h0l-.44.48-.12.13-.42.44-.13.13-.44.43L385,150l-.44.42-.15.13-.44.39-.15.13-.47.39-.09.07a28.65,28.65,0,0,1-4.36,2.93l-.08,0-.59.32-.11.05-.62.31-.07,0-.65.31-.06,0-.66.28-.07,0a32.92,32.92,0,0,1-6.09,1.86h0c-.54.11-1.08.2-1.63.29h0a41,41,0,0,1-6.28.48c-16.23,0-27.79-8.8-32.33-24.46a37.57,37.57,0,0,0,9.95,1.33,38.29,38.29,0,0,0,30.95-15.89c.38-.57.77-1.14,1.18-1.7l0,0h0a38.6,38.6,0,0,1,23-15Z"></path>
            <path class="cls-1" d="M137.9,143.12c0,12.66,9.5,17.53,21,18.83,11.76,1.32,25.63-1.06,33.66-2.67V120.64l-35,4.92C147.11,127,137.9,132.49,137.9,143.12Z"></path>
            <polygon class="cls-2" points="149.6 7.24 92.71 7.24 56.88 7.24 0 7.24 0 32.3 56.88 32.3 56.88 184.81 92.71 184.81 92.71 32.3 149.6 32.3 149.6 7.24"></polygon>
            <path class="cls-2" d="M274.68,147.6V0L238.85,7.44V153.92c0,34.38,33.76,37.87,60.9,27.43l-9.32-22.78C279.5,161.54,274.68,156.89,274.68,147.6Z"></path>
            <path class="cls-2" d="M178.48,48.46c-20.89-.84-45,5.52-63.39,12.44l8.08,21.78s22.27-6,42.85-7.73,25.75,8.22,26,10.89.35,10.43.35,10.43C179.3,98,163.43,99.7,148.09,102.4c-23.34,4.11-42.45,13.77-42.49,41.85,0,27.72,26,41.53,57,42.2,18.1.38,46-2.56,62.08-9.74V87.09C224.68,61.08,203.94,49.49,178.48,48.46Zm14.11,110.82c-8,1.61-21.9,4-33.66,2.67-11.53-1.3-21-6.17-21-18.83,0-10.63,9.21-16.08,19.73-17.56l35-4.92Z"></path>
            <path class="cls-2" d="M362,48.4c-42.47,0-68.95,25.78-68.95,70h0c0,44.21,26.48,70,68.95,70s68.95-25.78,68.95-70h0C430.94,74.18,404.46,48.42,362,48.4Zm39.89,70c0,28.73-15.32,45.47-39.89,45.48S322.1,147.13,322.1,118.4h0c0-28.73,15.32-45.46,39.89-45.48s39.89,16.75,39.89,45.48Z"></path>
            <path class="cls-3" d="M371.72,117.71h0l0,0c-.41.56-.8,1.13-1.18,1.7a38.29,38.29,0,0,1-30.95,15.89,37.57,37.57,0,0,1-9.95-1.33c4.54,15.66,16.1,24.45,32.33,24.46a41,41,0,0,0,6.28-.48h0c.55-.09,1.09-.18,1.63-.29h0a32.92,32.92,0,0,0,6.09-1.86l.07,0,.66-.28.06,0,.65-.31.07,0,.62-.31.11-.05.59-.32.08,0a28.65,28.65,0,0,0,4.36-2.93l.09-.07.47-.39.15-.13.44-.39.15-.13L385,150l.13-.12.44-.43.13-.13.42-.44.12-.13.44-.48h0a30.33,30.33,0,0,0,1.94-2.4l.05-.06.38-.54.09-.14c.12-.17.24-.34.35-.52l.12-.18c.11-.16.21-.32.31-.48l.15-.24c.1-.16.2-.32.29-.48l.15-.25.28-.5.13-.23c.09-.17.18-.34.28-.51l.13-.26.26-.51.12-.24.27-.55.07-.15c.09-.21.19-.42.29-.64s.23-.52.34-.79h0l.21-.53.12-.3.21-.54.12-.31c.06-.18.13-.36.19-.55l.12-.32.16-.5.14-.42.15-.48.12-.42.14-.49.13-.44.12-.48.13-.49.11-.45.12-.5.11-.47c0-.18.07-.36.11-.54l.09-.43v0l.18-.95.08-.44.09-.57.07-.42.09-.63.06-.42.08-.59.06-.5.06-.57.05-.49,0-.57.05-.52,0-.61,0-.45,0-.66,0-.48,0-.58,0-.56,0-.66v-.44c0-.38,0-.77,0-1.15h0V116.1h0v-.75h0v-.25h0v-.25h0v-.24h0l0-.49h0v-.24h0v-.25h0l0-.24h0l0-.49h0l0-.24h0v-.24h0l0-.24h0l0-.48h0l0-.47h0c-.06-.55-.11-1.1-.18-1.64h0l-.06-.46h0l-.06-.46h0l0-.23h0l0-.23h0l0-.22h0l-.07-.44h0c-.26-1.65-.58-3.24-1-4.77h0A38.6,38.6,0,0,0,371.72,117.71Z"></path>
            <path class="cls-2" d="M511,109.6C498.51,104.49,484.73,101,474.7,95c-3.05-1.8-3.7-8.12-2.61-11.17,2.92-8.14,17.25-8.82,25.35-8.1,11.34,1,20.72,1.8,32.67,6.53l8.58-23.1c-13-4.92-29.49-10.58-47.48-10.69-20.51-.11-42.58,5.94-50.18,21.8-6.68,13.93-5.48,37.64,13.43,47,6.34,3.16,23,10.8,41,17.71,7.92,3,13.43,6.2,12.48,13.9-1.16,9.51-19.28,10-26,10-13.7,0-26.75-2.72-40.74-7.7l-8.69,23.35c17.47,6.82,34.77,12.05,53.11,12.05,20.35,0,47.73-8.34,54.14-26.54C548.5,135.16,532.36,118.39,511,109.6Z"></path>
        </g>
    </g>
</svg>