<?xml version="1.0" encoding="UTF-8"?>
<svg id="_レイヤー_1" data-name="レイヤー_1" xmlns="http://www.w3.org/2000/svg" xmlns:xlink="http://www.w3.org/1999/xlink" version="1.1" viewBox="0 0 543 189">
  <!-- Generator: Adobe Illustrator 29.7.1, SVG Export Plug-In . SVG Version: 2.1.1 Build 8)  -->
  <defs>
    <style>
      .st0 {
        fill: none;
      }

      .st1 {
        fill: #fdce00;
      }

      .st2 {
        fill: #333;
      }

      .st3 {
        clip-path: url(#clippath);
      }
    </style>
    <clipPath id="clippath">
      <rect class="st0" width="542.2" height="188.4"/>
    </clipPath>
  </defs>
  <g class="st3">
    <g>
      <path class="st2" d="M149.6,7.2H0v25.1h56.9v152.5h35.8V32.3h56.9V7.2Z"/>
      <path class="st2" d="M274.7,147.6V0l-35.8,7.4v146.5c0,34.4,33.8,37.9,60.9,27.4l-9.3-22.8c-10.9,3-15.8-1.7-15.8-11Z"/>
      <path class="st2" d="M178.5,48.5c-20.9-.8-45,5.5-63.4,12.4l8.1,21.8s22.3-6,42.9-7.7c20.6-1.7,25.8,8.2,26,10.9.2,2.7.3,10.4.3,10.4-13.1,1.7-28.9,3.4-44.3,6.1-23.3,4.1-42.4,13.8-42.5,41.8,0,27.7,26,41.5,57,42.2,18.1.4,46-2.6,62.1-9.7v-89.6c0-26-20.7-37.6-46.2-38.6ZM192.6,159.3c-8,1.6-21.9,4-33.7,2.7-11.5-1.3-21-6.2-21-18.8s9.2-16.1,19.7-17.6l35-4.9v38.6Z"/>
      <path class="st2" d="M362,48.4c-42.5,0-69,25.8-69,70s26.5,70,69,70,69-25.8,69-70c0-44.2-26.5-70-69-70ZM401.9,118.4c0,28.7-15.3,45.5-39.9,45.5-24.6,0-39.9-16.8-39.9-45.5s15.3-45.5,39.9-45.5c24.6,0,39.9,16.8,39.9,45.5h0Z"/>
      <path class="st1" d="M371.7,117.7c-.4.6-.8,1.1-1.2,1.7-3.5,4.9-8.2,8.9-13.6,11.7-5.4,2.8-11.3,4.2-17.4,4.2-3.4,0-6.7-.4-9.9-1.3,4.5,15.7,16.1,24.4,32.3,24.5,2.1,0,4.2-.2,6.3-.5.5,0,1.1-.2,1.6-.3,2.1-.4,4.1-1,6.1-1.9h0l.7-.3h0l.6-.3h0l.6-.3h.1s.6-.4.6-.4h0c1.5-.8,3-1.8,4.4-2.9h0c0,0,.5-.5.5-.5h.2c0-.1.4-.5.4-.5h.1c0-.1.5-.6.5-.6h.1c0-.1.4-.6.4-.6h.1c0-.1.4-.6.4-.6h.1c0-.1.4-.6.4-.6.7-.8,1.3-1.6,1.9-2.4h0c0,0,.4-.6.4-.6h0c.1-.3.2-.5.3-.7v-.2c.2-.2.3-.3.4-.5v-.2c.2-.2.3-.3.4-.5l.2-.2.3-.5v-.2c.2-.2.3-.3.4-.5v-.3c.1,0,.4-.5.4-.5v-.2c.1,0,.4-.6.4-.6h0c0-.4.2-.6.3-.8s.2-.5.3-.8l.2-.5v-.3c.1,0,.3-.5.3-.5v-.3c.2-.2.2-.4.3-.6v-.3c.1,0,.3-.5.3-.5v-.4c.1,0,.3-.5.3-.5v-.4c.1,0,.3-.5.3-.5v-.4c.1,0,.2-.5.2-.5v-.5c.1,0,.2-.4.2-.4v-.5c.1,0,.2-.5.2-.5,0-.2,0-.4.1-.5v-.4c0,0,.3-.9.3-.9v-.4c0,0,.2-.6.2-.6v-.4c0,0,.2-.6.2-.6v-.4c0,0,.1-.6.1-.6v-.5c0,0,.1-.6.1-.6v-.5c0,0,0-.6,0-.6v-.5s0-.6,0-.6v-11.4c0-.6-.1-1.1-.2-1.6v-.5c0,0-.1-.5-.1-.5v-1.1c-.3-1.7-.6-3.2-1.1-4.8-9.3,2-17.5,7.3-23.1,14.9Z"/>
      <path class="st2" d="M511,109.6c-12.5-5.1-26.3-8.6-36.3-14.6-3.1-1.8-3.7-8.1-2.6-11.2,2.9-8.1,17.2-8.8,25.4-8.1,11.3,1,20.7,1.8,32.7,6.5l8.6-23.1c-13-4.9-29.5-10.6-47.5-10.7-20.5-.1-42.6,5.9-50.2,21.8-6.7,13.9-5.5,37.6,13.4,47,6.3,3.2,23,10.8,41,17.7,7.9,3,13.4,6.2,12.5,13.9-1.2,9.5-19.3,10-26,10-13.7,0-26.8-2.7-40.7-7.7l-8.7,23.4c17.5,6.8,34.8,12.1,53.1,12.1s47.7-8.3,54.1-26.5c8.7-24.9-7.4-41.6-28.8-50.4Z"/>
    </g>
  </g>
</svg>