<svg width="332" height="102" viewBox="0 0 332 102" fill="none" xmlns="http://www.w3.org/2000/svg">
<path d="M5 49H322.456C327.727 49 332 53.2731 332 58.5442V92.4558C332 97.7269 327.727 102 322.456 102H14.5442C9.27306 102 5 97.7269 5 92.4558V49Z" fill="#82530C"/>
<path d="M0 50.5442C0 45.2731 4.27307 41 9.54416 41H317.456C322.727 41 327 45.2731 327 50.5442V84.4558C327 89.7269 322.727 94 317.456 94H9.54416C4.27306 94 0 89.7269 0 84.4558V50.5442Z" fill="#F4E6D1"/>
<rect x="44.9999" y="27.0001" width="259" height="29" rx="14.5" fill="#B4986E"/>
<path d="M68.3179 48.0121L58.3079 38.0021L58.6819 37.6281L68.6919 47.6381L68.3179 48.0121ZM70.6253 38.4861H80.2943V39.6851H70.6253V38.4861ZM74.7283 37.6501H76.0813V39.2011H74.7283V37.6501ZM70.9883 40.5431H79.4583V41.6871H72.2423V47.9681H70.9883V40.5431ZM78.7763 40.5431H80.0413V46.5601C80.0413 46.8755 80.001 47.1285 79.9203 47.3191C79.847 47.5098 79.704 47.6601 79.4913 47.7701C79.2713 47.8655 79.0036 47.9241 78.6883 47.9461C78.373 47.9755 77.999 47.9901 77.5663 47.9901C77.5443 47.8728 77.5113 47.7371 77.4673 47.5831C77.4233 47.4291 77.372 47.2751 77.3133 47.1211C77.2546 46.9745 77.1923 46.8461 77.1263 46.7361C77.4196 46.7435 77.702 46.7508 77.9733 46.7581C78.252 46.7581 78.439 46.7581 78.5343 46.7581C78.6223 46.7581 78.6846 46.7435 78.7213 46.7141C78.758 46.6775 78.7763 46.6188 78.7763 46.5381V40.5431ZM73.7603 41.5441H74.9263C74.9043 41.9768 74.831 42.3545 74.7063 42.6771C74.5816 42.9998 74.3653 43.2675 74.0573 43.4801C73.7493 43.6928 73.302 43.8688 72.7153 44.0081C72.6713 43.8615 72.587 43.6965 72.4623 43.5131C72.345 43.3298 72.2313 43.1868 72.1213 43.0841C72.576 43.0035 72.917 42.9008 73.1443 42.7761C73.3716 42.6441 73.5256 42.4791 73.6063 42.2811C73.6943 42.0831 73.7456 41.8375 73.7603 41.5441ZM75.8063 41.5331H76.9393V42.3801C76.9393 42.4975 76.954 42.5708 76.9833 42.6001C77.0126 42.6221 77.075 42.6331 77.1703 42.6331C77.1923 42.6331 77.229 42.6331 77.2803 42.6331C77.3316 42.6331 77.3866 42.6331 77.4453 42.6331C77.504 42.6331 77.559 42.6331 77.6103 42.6331C77.669 42.6331 77.7093 42.6331 77.7313 42.6331C77.7973 42.6331 77.845 42.6221 77.8743 42.6001C77.911 42.5708 77.9366 42.5121 77.9513 42.4241C77.9733 42.3361 77.988 42.2041 77.9953 42.0281C78.098 42.1015 78.2446 42.1748 78.4353 42.2481C78.6333 42.3141 78.8056 42.3655 78.9523 42.4021C78.901 42.8715 78.7946 43.1868 78.6333 43.3481C78.472 43.5095 78.2226 43.5901 77.8853 43.5901C77.834 43.5901 77.768 43.5901 77.6873 43.5901C77.6066 43.5901 77.5186 43.5901 77.4233 43.5901C77.3353 43.5901 77.251 43.5901 77.1703 43.5901C77.097 43.5901 77.0383 43.5901 76.9943 43.5901C76.6716 43.5901 76.4223 43.5535 76.2463 43.4801C76.0776 43.3995 75.9603 43.2748 75.8943 43.1061C75.8356 42.9301 75.8063 42.6918 75.8063 42.3911V41.5331ZM73.3203 43.9971H74.4973V47.4731H73.3203V43.9971ZM74.0463 43.9971H77.6653V46.8791H74.0463V45.9001H76.4773V44.9761H74.0463V43.9971ZM72.5943 39.6631L73.9033 39.4431C74.006 39.6118 74.105 39.8061 74.2003 40.0261C74.2956 40.2388 74.3653 40.4258 74.4093 40.5871L73.0343 40.8621C73.005 40.7008 72.9463 40.5065 72.8583 40.2791C72.7776 40.0518 72.6896 39.8465 72.5943 39.6631ZM76.8953 39.4321L78.3583 39.6521C78.2263 39.8868 78.1016 40.1068 77.9843 40.3121C77.8743 40.5101 77.768 40.6788 77.6653 40.8181L76.3563 40.5981C76.4516 40.4295 76.5506 40.2351 76.6533 40.0151C76.756 39.7951 76.8366 39.6008 76.8953 39.4321ZM85.4727 39.3551V40.8291H89.3447V39.3551H85.4727ZM84.1967 38.0901H90.6867V42.0831H84.1967V38.0901ZM82.6787 43.0071H86.8917V47.9241H85.5717V44.2721H83.9327V47.9901H82.6787V43.0071ZM87.8157 43.0071H92.1717V47.9351H90.8517V44.2721H89.0807V47.9901H87.8157V43.0071ZM83.2287 46.1641H86.1217V47.4291H83.2287V46.1641ZM88.4207 46.1641H91.5007V47.4291H88.4207V46.1641ZM98.7251 38.6291H104.027V39.8281H98.7251V38.6291ZM98.0761 40.7631H104.511V41.9951H98.0761V40.7631ZM98.3071 42.9851H104.412V44.1951H98.3071V42.9851ZM100.694 37.6391H102.003V41.4451H100.694V37.6391ZM101.992 41.8521H103.301V46.5161C103.301 46.8461 103.261 47.1065 103.18 47.2971C103.107 47.4878 102.96 47.6381 102.74 47.7481C102.513 47.8435 102.241 47.9021 101.926 47.9241C101.611 47.9535 101.248 47.9681 100.837 47.9681C100.808 47.7775 100.756 47.5575 100.683 47.3081C100.61 47.0588 100.525 46.8425 100.43 46.6591C100.701 46.6665 100.969 46.6738 101.233 46.6811C101.497 46.6811 101.673 46.6811 101.761 46.6811C101.849 46.6738 101.908 46.6591 101.937 46.6371C101.974 46.6151 101.992 46.5675 101.992 46.4941V41.8521ZM98.6921 44.7891L99.6711 44.1841C99.8398 44.3455 100.008 44.5251 100.177 44.7231C100.346 44.9211 100.503 45.1191 100.65 45.3171C100.804 45.5078 100.921 45.6838 101.002 45.8451L99.9571 46.5271C99.8838 46.3658 99.7775 46.1861 99.6381 45.9881C99.4988 45.7828 99.3448 45.5775 99.1761 45.3721C99.0148 45.1595 98.8535 44.9651 98.6921 44.7891ZM94.1601 43.5131C94.5195 43.4325 94.9265 43.3335 95.3811 43.2161C95.8431 43.0988 96.3271 42.9705 96.8331 42.8311C97.3465 42.6845 97.8561 42.5378 98.3621 42.3911L98.5271 43.5571C97.8378 43.7698 97.1338 43.9861 96.4151 44.2061C95.7038 44.4188 95.0585 44.6095 94.4791 44.7781L94.1601 43.5131ZM96.1291 37.6611H97.3391V47.9901H96.1291V37.6611ZM94.6771 38.2221L95.7881 38.4091C95.7368 38.8931 95.6745 39.3808 95.6011 39.8721C95.5278 40.3561 95.4398 40.8145 95.3371 41.2471C95.2345 41.6798 95.1171 42.0611 94.9851 42.3911C94.9191 42.3325 94.8275 42.2665 94.7101 42.1931C94.5928 42.1198 94.4755 42.0465 94.3581 41.9731C94.2408 41.8925 94.1381 41.8301 94.0501 41.7861C94.1675 41.4928 94.2665 41.1518 94.3471 40.7631C94.4351 40.3745 94.5048 39.9638 94.5561 39.5311C94.6148 39.0911 94.6551 38.6548 94.6771 38.2221ZM94.9851 39.7291H98.2631V40.9831H94.7321L94.9851 39.7291ZM113.87 39.8061H116.51V40.9061H113.562L113.87 39.8061ZM113.683 37.6611L114.893 37.8481C114.79 38.5448 114.662 39.2268 114.508 39.8941C114.354 40.5541 114.163 41.1738 113.936 41.7531C113.716 42.3325 113.452 42.8385 113.144 43.2711C113.1 43.1831 113.03 43.0695 112.935 42.9301C112.839 42.7908 112.74 42.6551 112.638 42.5231C112.535 42.3838 112.443 42.2738 112.363 42.1931C112.612 41.8338 112.821 41.4121 112.99 40.9281C113.166 40.4441 113.309 39.9235 113.419 39.3661C113.529 38.8088 113.617 38.2405 113.683 37.6611ZM110.394 37.6611H111.461V41.0711H110.394V37.6611ZM109.03 38.5851H109.921V40.5101H111.945V38.6071H112.869V41.5221H109.03V38.5851ZM109.074 42.1601H112.748V43.1831H109.074V42.1601ZM109.239 43.9091H112.627V44.8991H109.239V43.9091ZM108.832 45.8451C109.338 45.8158 109.95 45.7791 110.669 45.7351C111.387 45.6838 112.117 45.6251 112.858 45.5591L112.869 46.5711C112.187 46.6518 111.505 46.7251 110.823 46.7911C110.148 46.8571 109.543 46.9195 109.008 46.9781L108.832 45.8451ZM110.383 42.6881H111.494V46.0761L110.383 46.2411V42.6881ZM114.079 40.8841C114.181 41.7641 114.332 42.6001 114.53 43.3921C114.728 44.1768 114.995 44.8735 115.333 45.4821C115.677 46.0908 116.117 46.5748 116.653 46.9341C116.565 47.0001 116.466 47.0881 116.356 47.1981C116.253 47.3155 116.154 47.4365 116.059 47.5611C115.971 47.6931 115.897 47.8141 115.839 47.9241C115.281 47.4768 114.83 46.9085 114.486 46.2191C114.141 45.5225 113.87 44.7341 113.672 43.8541C113.481 42.9668 113.327 42.0135 113.21 40.9941L114.079 40.8841ZM114.948 40.4771L116.103 40.5541C116.029 41.4708 115.916 42.3105 115.762 43.0731C115.608 43.8285 115.399 44.5141 115.135 45.1301C114.871 45.7388 114.537 46.2851 114.134 46.7691C113.738 47.2458 113.25 47.6638 112.671 48.0231C112.627 47.9425 112.553 47.8471 112.451 47.7371C112.355 47.6271 112.253 47.5171 112.143 47.4071C112.033 47.2971 111.934 47.2055 111.846 47.1321C112.579 46.7361 113.158 46.2301 113.584 45.6141C114.009 44.9908 114.324 44.2538 114.53 43.4031C114.742 42.5451 114.882 41.5698 114.948 40.4771ZM107.853 37.6501L109.03 38.0901C108.736 38.5668 108.373 39.0471 107.941 39.5311C107.515 40.0151 107.094 40.4258 106.676 40.7631C106.632 40.6751 106.569 40.5688 106.489 40.4441C106.408 40.3121 106.327 40.1838 106.247 40.0591C106.166 39.9345 106.089 39.8318 106.016 39.7511C106.25 39.5678 106.481 39.3588 106.709 39.1241C106.943 38.8821 107.16 38.6328 107.358 38.3761C107.563 38.1195 107.728 37.8775 107.853 37.6501ZM108.029 39.9711L109.162 40.3781C108.956 40.8181 108.714 41.2691 108.436 41.7311C108.157 42.1858 107.864 42.6221 107.556 43.0401C107.248 43.4508 106.943 43.8101 106.643 44.1181C106.606 44.0228 106.544 43.8981 106.456 43.7441C106.375 43.5901 106.287 43.4361 106.192 43.2821C106.096 43.1281 106.012 43.0071 105.939 42.9191C106.327 42.5525 106.709 42.1051 107.083 41.5771C107.464 41.0491 107.779 40.5138 108.029 39.9711ZM107.27 42.3691L108.469 41.1811V41.1921V47.9901H107.27V42.3691ZM123.558 40.0041C123.433 39.8648 123.276 39.7035 123.085 39.5201C122.894 39.3295 122.7 39.1461 122.502 38.9701C122.304 38.7868 122.132 38.6438 121.985 38.5411L122.997 37.8371C123.136 37.9325 123.305 38.0681 123.503 38.2441C123.701 38.4128 123.899 38.5888 124.097 38.7721C124.302 38.9481 124.467 39.1058 124.592 39.2451L123.558 40.0041ZM120.566 38.8271C120.603 38.8931 120.647 38.9811 120.698 39.0911C120.749 39.2011 120.804 39.3111 120.863 39.4211C120.922 39.5238 120.969 39.6118 121.006 39.6851C121.233 40.1105 121.464 40.5798 121.699 41.0931C121.934 41.5991 122.15 42.0831 122.348 42.5451C122.473 42.8458 122.616 43.2051 122.777 43.6231C122.946 44.0411 123.111 44.4775 123.272 44.9321C123.433 45.3868 123.584 45.8231 123.723 46.2411C123.87 46.6591 123.987 47.0221 124.075 47.3301L122.568 47.7261C122.458 47.2641 122.322 46.7618 122.161 46.2191C122 45.6765 121.827 45.1411 121.644 44.6131C121.461 44.0778 121.277 43.5901 121.094 43.1501C120.947 42.8055 120.801 42.4681 120.654 42.1381C120.515 41.8081 120.372 41.4928 120.225 41.1921C120.086 40.8841 119.939 40.6018 119.785 40.3451C119.712 40.2058 119.613 40.0445 119.488 39.8611C119.371 39.6778 119.253 39.5165 119.136 39.3771L120.566 38.8271ZM118.19 42.0501C118.41 41.9988 118.623 41.9365 118.828 41.8631C119.041 41.7898 119.191 41.7348 119.279 41.6981C119.682 41.5368 120.089 41.3645 120.5 41.1811C120.918 40.9978 121.336 40.8145 121.754 40.6311C122.179 40.4405 122.594 40.2718 122.997 40.1251C123.408 39.9711 123.807 39.8501 124.196 39.7621C124.592 39.6668 124.962 39.6191 125.307 39.6191C125.879 39.6191 126.367 39.7218 126.77 39.9271C127.181 40.1325 127.492 40.4111 127.705 40.7631C127.925 41.1151 128.035 41.5038 128.035 41.9291C128.035 42.4425 127.925 42.8898 127.705 43.2711C127.485 43.6451 127.17 43.9348 126.759 44.1401C126.348 44.3455 125.861 44.4481 125.296 44.4481C125.003 44.4481 124.698 44.4151 124.383 44.3491C124.075 44.2831 123.815 44.2135 123.602 44.1401L123.635 42.7541C123.884 42.8641 124.141 42.9558 124.405 43.0291C124.669 43.0951 124.922 43.1281 125.164 43.1281C125.435 43.1281 125.677 43.0805 125.89 42.9851C126.11 42.8825 126.282 42.7395 126.407 42.5561C126.532 42.3728 126.594 42.1491 126.594 41.8851C126.594 41.7018 126.539 41.5331 126.429 41.3791C126.326 41.2251 126.176 41.1041 125.978 41.0161C125.787 40.9208 125.553 40.8731 125.274 40.8731C124.915 40.8731 124.508 40.9428 124.053 41.0821C123.606 41.2141 123.133 41.3865 122.634 41.5991C122.135 41.8118 121.648 42.0391 121.171 42.2811C120.694 42.5158 120.254 42.7395 119.851 42.9521C119.448 43.1575 119.11 43.3225 118.839 43.4471L118.19 42.0501ZM133.202 38.7281H140.231V39.9161H133.202V38.7281ZM133.312 41.2911H140.176V47.6821H138.9V42.4461H134.522V47.7481H133.312V41.2911ZM135.094 38.8821H136.337V42.1491H135.094V38.8821ZM137.063 38.8711H138.306V42.1381H137.063V38.8711ZM133.862 45.9881H139.835V47.1211H133.862V45.9881ZM135.215 42.1381H136.326V46.8681H135.215V42.1381ZM137.063 42.1271H138.174V46.8571H137.063V42.1271ZM132.256 37.6831L133.444 38.0571C133.224 38.6585 132.96 39.2635 132.652 39.8721C132.344 40.4808 132.011 41.0565 131.651 41.5991C131.292 42.1345 130.922 42.6075 130.54 43.0181C130.496 42.9155 130.434 42.7798 130.353 42.6111C130.28 42.4425 130.196 42.2738 130.1 42.1051C130.012 41.9291 129.932 41.7898 129.858 41.6871C130.181 41.3645 130.489 40.9905 130.782 40.5651C131.083 40.1325 131.358 39.6705 131.607 39.1791C131.857 38.6878 132.073 38.1891 132.256 37.6831ZM131.2 40.7521L132.432 39.5091L132.443 39.5311V47.9791H131.2V40.7521ZM147.852 38.8161H150.756V39.9491H147.852V38.8161ZM146.719 43.8541H151.515V47.9571H150.239V44.9651H147.94V47.9901H146.719V43.8541ZM147.203 46.4721H150.943V47.6051H147.203V46.4721ZM147.973 37.6391L149.238 37.9911C149.032 38.4898 148.79 38.9775 148.512 39.4541C148.233 39.9308 147.929 40.3745 147.599 40.7851C147.276 41.1958 146.942 41.5551 146.598 41.8631C146.532 41.7825 146.436 41.6871 146.312 41.5771C146.187 41.4598 146.059 41.3461 145.927 41.2361C145.802 41.1261 145.688 41.0381 145.586 40.9721C146.092 40.5835 146.554 40.0958 146.972 39.5091C147.397 38.9151 147.731 38.2918 147.973 37.6391ZM150.415 38.8161H150.646L150.866 38.7721L151.702 39.1571C151.467 39.8538 151.163 40.4918 150.789 41.0711C150.422 41.6505 149.997 42.1675 149.513 42.6221C149.029 43.0768 148.501 43.4765 147.929 43.8211C147.364 44.1658 146.77 44.4518 146.147 44.6791C146.066 44.5251 145.952 44.3418 145.806 44.1291C145.666 43.9165 145.531 43.7441 145.399 43.6121C145.971 43.4435 146.517 43.2125 147.038 42.9191C147.566 42.6185 148.05 42.2738 148.49 41.8851C148.937 41.4891 149.326 41.0528 149.656 40.5761C149.986 40.0921 150.239 39.5788 150.415 39.0361V38.8161ZM147.907 39.5861C148.134 40.0701 148.46 40.5615 148.886 41.0601C149.311 41.5515 149.828 41.9988 150.437 42.4021C151.053 42.8055 151.746 43.1171 152.516 43.3371C152.435 43.4178 152.34 43.5241 152.23 43.6561C152.127 43.7881 152.028 43.9238 151.933 44.0631C151.845 44.2025 151.771 44.3235 151.713 44.4261C150.921 44.1475 150.209 43.7771 149.579 43.3151C148.955 42.8458 148.42 42.3288 147.973 41.7641C147.533 41.1995 147.181 40.6421 146.917 40.0921L147.907 39.5861ZM142.176 39.9271H146.103V41.1481H142.176V39.9271ZM143.628 37.6501H144.871V47.9791H143.628V37.6501ZM143.606 40.7741L144.365 41.0271C144.277 41.4671 144.17 41.9255 144.046 42.4021C143.928 42.8715 143.789 43.3335 143.628 43.7881C143.466 44.2355 143.294 44.6535 143.111 45.0421C142.927 45.4308 142.733 45.7645 142.528 46.0431C142.469 45.8671 142.377 45.6655 142.253 45.4381C142.128 45.2108 142.014 45.0165 141.912 44.8551C142.102 44.6131 142.282 44.3308 142.451 44.0081C142.619 43.6855 142.777 43.3445 142.924 42.9851C143.078 42.6185 143.21 42.2481 143.32 41.8741C143.437 41.4928 143.532 41.1261 143.606 40.7741ZM144.827 41.3681C144.893 41.4268 144.988 41.5295 145.113 41.6761C145.245 41.8228 145.384 41.9841 145.531 42.1601C145.677 42.3361 145.809 42.4975 145.927 42.6441C146.051 42.7908 146.139 42.8935 146.191 42.9521L145.476 43.9531C145.41 43.8138 145.322 43.6525 145.212 43.4691C145.109 43.2858 144.995 43.0951 144.871 42.8971C144.753 42.6991 144.636 42.5121 144.519 42.3361C144.409 42.1601 144.313 42.0171 144.233 41.9071L144.827 41.3681ZM158.64 38.3871C158.611 38.5265 158.578 38.6805 158.541 38.8491C158.505 39.0105 158.472 39.1608 158.442 39.3001C158.413 39.4615 158.376 39.6448 158.332 39.8501C158.288 40.0481 158.244 40.2498 158.2 40.4551C158.164 40.6531 158.123 40.8475 158.079 41.0381C158.006 41.3535 157.914 41.7201 157.804 42.1381C157.694 42.5561 157.566 43.0071 157.419 43.4911C157.273 43.9678 157.108 44.4481 156.924 44.9321C156.741 45.4161 156.547 45.8891 156.341 46.3511C156.136 46.8058 155.916 47.2165 155.681 47.5831L154.251 47.0111C154.508 46.6665 154.746 46.2815 154.966 45.8561C155.194 45.4235 155.399 44.9835 155.582 44.5361C155.766 44.0815 155.927 43.6341 156.066 43.1941C156.213 42.7468 156.338 42.3325 156.44 41.9511C156.55 41.5698 156.635 41.2435 156.693 40.9721C156.796 40.4735 156.877 39.9931 156.935 39.5311C156.994 39.0691 157.016 38.6328 157.001 38.2221L158.64 38.3871ZM162.424 39.4981C162.6 39.7401 162.78 40.0371 162.963 40.3891C163.154 40.7338 163.341 41.1005 163.524 41.4891C163.708 41.8778 163.873 42.2518 164.019 42.6111C164.166 42.9705 164.28 43.2821 164.36 43.5461L162.963 44.1841C162.897 43.8761 162.798 43.5351 162.666 43.1611C162.542 42.7871 162.395 42.4095 162.226 42.0281C162.058 41.6395 161.878 41.2728 161.687 40.9281C161.504 40.5835 161.313 40.2938 161.115 40.0591L162.424 39.4981ZM154.174 40.6421C154.372 40.6568 154.567 40.6641 154.757 40.6641C154.955 40.6568 155.153 40.6495 155.351 40.6421C155.535 40.6348 155.755 40.6238 156.011 40.6091C156.268 40.5871 156.539 40.5651 156.825 40.5431C157.119 40.5211 157.412 40.4991 157.705 40.4771C157.999 40.4478 158.27 40.4258 158.519 40.4111C158.769 40.3965 158.974 40.3891 159.135 40.3891C159.531 40.3891 159.876 40.4551 160.169 40.5871C160.463 40.7118 160.694 40.9281 160.862 41.2361C161.038 41.5441 161.126 41.9621 161.126 42.4901C161.126 42.9228 161.108 43.3921 161.071 43.8981C161.035 44.4041 160.969 44.8881 160.873 45.3501C160.785 45.8121 160.661 46.2045 160.499 46.5271C160.323 46.9085 160.081 47.1725 159.773 47.3191C159.473 47.4658 159.113 47.5391 158.695 47.5391C158.49 47.5391 158.266 47.5208 158.024 47.4841C157.782 47.4548 157.566 47.4218 157.375 47.3851L157.144 45.9331C157.284 45.9698 157.438 46.0065 157.606 46.0431C157.782 46.0798 157.947 46.1091 158.101 46.1311C158.263 46.1531 158.391 46.1641 158.486 46.1641C158.67 46.1641 158.831 46.1311 158.97 46.0651C159.11 45.9918 159.223 45.8671 159.311 45.6911C159.414 45.4785 159.498 45.2035 159.564 44.8661C159.63 44.5288 159.678 44.1658 159.707 43.7771C159.744 43.3811 159.762 43.0035 159.762 42.6441C159.762 42.3508 159.718 42.1345 159.63 41.9951C159.55 41.8558 159.429 41.7641 159.267 41.7201C159.113 41.6688 158.923 41.6431 158.695 41.6431C158.527 41.6431 158.299 41.6578 158.013 41.6871C157.727 41.7091 157.419 41.7385 157.089 41.7751C156.767 41.8045 156.466 41.8375 156.187 41.8741C155.909 41.9108 155.692 41.9365 155.538 41.9511C155.377 41.9805 155.172 42.0135 154.922 42.0501C154.68 42.0795 154.475 42.1088 154.306 42.1381L154.174 40.6421ZM162.226 37.9691C162.322 38.1011 162.421 38.2588 162.523 38.4421C162.633 38.6255 162.74 38.8088 162.842 38.9921C162.945 39.1755 163.033 39.3368 163.106 39.4761L162.215 39.8611C162.142 39.7071 162.058 39.5385 161.962 39.3551C161.867 39.1718 161.768 38.9885 161.665 38.8051C161.563 38.6218 161.46 38.4641 161.357 38.3321L162.226 37.9691ZM163.535 37.4741C163.631 37.6135 163.733 37.7748 163.843 37.9581C163.953 38.1415 164.06 38.3248 164.162 38.5081C164.272 38.6915 164.357 38.8455 164.415 38.9701L163.546 39.3441C163.429 39.1168 163.29 38.8601 163.128 38.5741C162.967 38.2808 162.809 38.0315 162.655 37.8261L163.535 37.4741ZM171.211 45.9661C171.695 45.8928 172.138 45.7865 172.542 45.6471C172.945 45.5078 173.293 45.3281 173.587 45.1081C173.887 44.8881 174.118 44.6205 174.28 44.3051C174.441 43.9825 174.522 43.6048 174.522 43.1721C174.522 42.9595 174.481 42.7541 174.401 42.5561C174.32 42.3581 174.199 42.1821 174.038 42.0281C173.884 41.8668 173.697 41.7421 173.477 41.6541C173.257 41.5661 173.007 41.5221 172.729 41.5221C172.032 41.5221 171.383 41.7055 170.782 42.0721C170.18 42.4315 169.612 42.8971 169.077 43.4691V41.9071C169.737 41.2911 170.4 40.8585 171.068 40.6091C171.742 40.3598 172.373 40.2351 172.96 40.2351C173.524 40.2351 174.034 40.3598 174.489 40.6091C174.951 40.8585 175.317 41.2068 175.589 41.6541C175.86 42.1015 175.996 42.6185 175.996 43.2051C175.996 43.7625 175.908 44.2648 175.732 44.7121C175.556 45.1595 175.295 45.5518 174.951 45.8891C174.606 46.2265 174.177 46.5125 173.664 46.7471C173.15 46.9745 172.553 47.1578 171.871 47.2971L171.211 45.9661ZM168.714 41.1921C168.596 41.1995 168.446 41.2178 168.263 41.2471C168.079 41.2691 167.881 41.2948 167.669 41.3241C167.463 41.3461 167.254 41.3718 167.042 41.4011C166.829 41.4305 166.631 41.4561 166.448 41.4781L166.305 40.0701C166.466 40.0775 166.616 40.0811 166.756 40.0811C166.902 40.0738 167.071 40.0665 167.262 40.0591C167.438 40.0445 167.647 40.0261 167.889 40.0041C168.138 39.9748 168.387 39.9418 168.637 39.9051C168.893 39.8685 169.132 39.8281 169.352 39.7841C169.572 39.7401 169.744 39.6961 169.869 39.6521L170.309 40.2131C170.243 40.3011 170.166 40.4111 170.078 40.5431C169.997 40.6751 169.913 40.8108 169.825 40.9501C169.737 41.0821 169.66 41.1995 169.594 41.3021L168.945 43.3701C168.827 43.5388 168.681 43.7515 168.505 44.0081C168.336 44.2648 168.156 44.5361 167.966 44.8221C167.775 45.1081 167.588 45.3831 167.405 45.6471C167.221 45.9111 167.056 46.1421 166.91 46.3401L166.041 45.1411C166.18 44.9651 166.341 44.7635 166.525 44.5361C166.708 44.3015 166.895 44.0558 167.086 43.7991C167.284 43.5351 167.478 43.2748 167.669 43.0181C167.859 42.7541 168.035 42.5085 168.197 42.2811C168.365 42.0465 168.505 41.8448 168.615 41.6761L168.637 41.3901L168.714 41.1921ZM168.582 39.0691C168.582 38.9078 168.582 38.7465 168.582 38.5851C168.582 38.4165 168.567 38.2478 168.538 38.0791L170.144 38.1341C170.107 38.3028 170.063 38.5485 170.012 38.8711C169.96 39.1865 169.909 39.5495 169.858 39.9601C169.814 40.3708 169.77 40.8035 169.726 41.2581C169.689 41.7055 169.656 42.1528 169.627 42.6001C169.605 43.0475 169.594 43.4655 169.594 43.8541C169.594 44.1548 169.594 44.4591 169.594 44.7671C169.601 45.0751 169.608 45.3905 169.616 45.7131C169.623 46.0358 169.638 46.3695 169.66 46.7141C169.667 46.8095 169.678 46.9415 169.693 47.1101C169.707 47.2861 169.722 47.4365 169.737 47.5611H168.219C168.233 47.4365 168.241 47.2898 168.241 47.1211C168.248 46.9598 168.252 46.8351 168.252 46.7471C168.259 46.3878 168.266 46.0541 168.274 45.7461C168.281 45.4381 168.285 45.1118 168.285 44.7671C168.292 44.4225 168.303 44.0228 168.318 43.5681C168.325 43.3995 168.336 43.1868 168.351 42.9301C168.365 42.6661 168.38 42.3801 168.395 42.0721C168.417 41.7568 168.439 41.4378 168.461 41.1151C168.483 40.7925 168.501 40.4918 168.516 40.2131C168.538 39.9271 168.552 39.6851 168.56 39.4871C168.574 39.2818 168.582 39.1425 168.582 39.0691ZM182.626 38.3101C182.589 38.4495 182.553 38.6035 182.516 38.7721C182.487 38.9335 182.457 39.0838 182.428 39.2231C182.399 39.3845 182.362 39.5678 182.318 39.7731C182.274 39.9711 182.23 40.1728 182.186 40.3781C182.149 40.5761 182.109 40.7705 182.065 40.9611C181.992 41.2765 181.9 41.6431 181.79 42.0611C181.68 42.4791 181.552 42.9301 181.405 43.4141C181.258 43.8908 181.093 44.3711 180.91 44.8551C180.727 45.3391 180.532 45.8121 180.327 46.2741C180.122 46.7288 179.902 47.1395 179.667 47.5061L178.237 46.9341C178.494 46.5895 178.732 46.2045 178.952 45.7791C179.179 45.3465 179.385 44.9028 179.568 44.4481C179.751 43.9935 179.913 43.5461 180.052 43.1061C180.199 42.6661 180.323 42.2555 180.426 41.8741C180.529 41.4928 180.609 41.1665 180.668 40.8951C180.771 40.3965 180.851 39.9161 180.91 39.4541C180.969 38.9921 180.994 38.5558 180.987 38.1451L182.626 38.3101ZM186.41 39.3441C186.586 39.5788 186.766 39.8758 186.949 40.2351C187.14 40.5871 187.323 40.9611 187.499 41.3571C187.682 41.7531 187.847 42.1345 187.994 42.5011C188.148 42.8678 188.265 43.1795 188.346 43.4361L186.949 44.0851C186.876 43.7771 186.773 43.4361 186.641 43.0621C186.516 42.6808 186.37 42.2958 186.201 41.9071C186.04 41.5111 185.864 41.1371 185.673 40.7851C185.49 40.4331 185.299 40.1398 185.101 39.9051L186.41 39.3441ZM178.16 40.5651C178.358 40.5798 178.552 40.5871 178.743 40.5871C178.934 40.5798 179.132 40.5725 179.337 40.5651C179.513 40.5578 179.729 40.5468 179.986 40.5321C180.25 40.5101 180.525 40.4881 180.811 40.4661C181.104 40.4441 181.398 40.4221 181.691 40.4001C181.984 40.3708 182.256 40.3488 182.505 40.3341C182.754 40.3195 182.96 40.3121 183.121 40.3121C183.51 40.3121 183.851 40.3781 184.144 40.5101C184.445 40.6348 184.679 40.8511 184.848 41.1591C185.024 41.4671 185.112 41.8851 185.112 42.4131C185.112 42.8458 185.09 43.3151 185.046 43.8211C185.009 44.3271 184.947 44.8111 184.859 45.2731C184.771 45.7351 184.646 46.1275 184.485 46.4501C184.309 46.8315 184.067 47.0955 183.759 47.2421C183.458 47.3888 183.099 47.4621 182.681 47.4621C182.468 47.4621 182.241 47.4438 181.999 47.4071C181.764 47.3778 181.552 47.3448 181.361 47.3081L181.119 45.8561C181.266 45.8928 181.423 45.9295 181.592 45.9661C181.768 46.0028 181.933 46.0321 182.087 46.0541C182.248 46.0761 182.377 46.0871 182.472 46.0871C182.655 46.0871 182.817 46.0541 182.956 45.9881C183.095 45.9148 183.209 45.7901 183.297 45.6141C183.4 45.4015 183.48 45.1265 183.539 44.7891C183.605 44.4518 183.653 44.0888 183.682 43.7001C183.719 43.3041 183.737 42.9265 183.737 42.5671C183.737 42.2738 183.697 42.0575 183.616 41.9181C183.535 41.7788 183.414 41.6871 183.253 41.6431C183.099 41.5918 182.905 41.5661 182.67 41.5661C182.509 41.5661 182.281 41.5808 181.988 41.6101C181.702 41.6321 181.398 41.6615 181.075 41.6981C180.752 41.7275 180.448 41.7605 180.162 41.7971C179.883 41.8338 179.667 41.8595 179.513 41.8741C179.359 41.9035 179.157 41.9365 178.908 41.9731C178.666 42.0025 178.461 42.0318 178.292 42.0611L178.16 40.5651ZM191.918 38.6181C192.072 38.6401 192.237 38.6548 192.413 38.6621C192.589 38.6695 192.758 38.6731 192.919 38.6731C193.037 38.6731 193.213 38.6731 193.447 38.6731C193.682 38.6658 193.946 38.6585 194.239 38.6511C194.54 38.6438 194.837 38.6365 195.13 38.6291C195.424 38.6218 195.688 38.6145 195.922 38.6071C196.164 38.5925 196.351 38.5815 196.483 38.5741C196.711 38.5521 196.89 38.5338 197.022 38.5191C197.154 38.4971 197.253 38.4751 197.319 38.4531L198.034 39.4321C197.91 39.5128 197.781 39.5935 197.649 39.6741C197.517 39.7548 197.389 39.8428 197.264 39.9381C197.118 40.0408 196.942 40.1765 196.736 40.3451C196.531 40.5065 196.311 40.6788 196.076 40.8621C195.849 41.0455 195.625 41.2251 195.405 41.4011C195.193 41.5771 194.998 41.7348 194.822 41.8741C195.006 41.8301 195.182 41.8008 195.35 41.7861C195.519 41.7641 195.691 41.7531 195.867 41.7531C196.491 41.7531 197.048 41.8741 197.539 42.1161C198.038 42.3581 198.43 42.6881 198.716 43.1061C199.01 43.5168 199.156 43.9898 199.156 44.5251C199.156 45.1045 199.01 45.6288 198.716 46.0981C198.423 46.5675 197.979 46.9415 197.385 47.2201C196.799 47.4988 196.062 47.6381 195.174 47.6381C194.668 47.6381 194.21 47.5648 193.799 47.4181C193.396 47.2715 193.077 47.0625 192.842 46.7911C192.608 46.5198 192.49 46.2008 192.49 45.8341C192.49 45.5335 192.571 45.2548 192.732 44.9981C192.901 44.7341 193.132 44.5215 193.425 44.3601C193.726 44.1988 194.071 44.1181 194.459 44.1181C194.965 44.1181 195.391 44.2208 195.735 44.4261C196.087 44.6241 196.355 44.8918 196.538 45.2291C196.729 45.5665 196.828 45.9368 196.835 46.3401L195.548 46.5161C195.541 46.1128 195.438 45.7901 195.24 45.5481C195.05 45.2988 194.793 45.1741 194.47 45.1741C194.265 45.1741 194.1 45.2291 193.975 45.3391C193.851 45.4418 193.788 45.5628 193.788 45.7021C193.788 45.9075 193.891 46.0725 194.096 46.1971C194.302 46.3218 194.569 46.3841 194.899 46.3841C195.523 46.3841 196.043 46.3108 196.461 46.1641C196.879 46.0101 197.191 45.7938 197.396 45.5151C197.609 45.2291 197.715 44.8918 197.715 44.5031C197.715 44.1731 197.613 43.8835 197.407 43.6341C197.209 43.3848 196.938 43.1905 196.593 43.0511C196.249 42.9118 195.86 42.8421 195.427 42.8421C195.002 42.8421 194.613 42.8971 194.261 43.0071C193.909 43.1098 193.576 43.2601 193.26 43.4581C192.952 43.6488 192.648 43.8835 192.347 44.1621C192.054 44.4335 191.761 44.7378 191.467 45.0751L190.466 44.0411C190.664 43.8798 190.888 43.7001 191.137 43.5021C191.387 43.2968 191.64 43.0841 191.896 42.8641C192.16 42.6441 192.406 42.4388 192.633 42.2481C192.868 42.0501 193.066 41.8851 193.227 41.7531C193.381 41.6285 193.561 41.4818 193.766 41.3131C193.972 41.1445 194.184 40.9721 194.404 40.7961C194.624 40.6128 194.833 40.4405 195.031 40.2791C195.229 40.1105 195.394 39.9675 195.526 39.8501C195.416 39.8501 195.273 39.8538 195.097 39.8611C194.921 39.8685 194.727 39.8758 194.514 39.8831C194.309 39.8905 194.1 39.8978 193.887 39.9051C193.682 39.9125 193.488 39.9235 193.304 39.9381C193.128 39.9455 192.982 39.9528 192.864 39.9601C192.718 39.9675 192.564 39.9785 192.402 39.9931C192.241 40.0078 192.094 40.0261 191.962 40.0481L191.918 38.6181ZM202.322 38.7171L202.905 37.8151C203.154 37.8738 203.422 37.9508 203.708 38.0461C203.994 38.1341 204.273 38.2295 204.544 38.3321C204.823 38.4275 205.054 38.5191 205.237 38.6071L204.643 39.6081C204.467 39.5201 204.247 39.4211 203.983 39.3111C203.719 39.1938 203.44 39.0838 203.147 38.9811C202.854 38.8785 202.579 38.7905 202.322 38.7171ZM201.838 40.5761C202.241 40.5028 202.725 40.4001 203.29 40.2681C203.862 40.1361 204.438 40.0041 205.017 39.8721L205.138 40.9061C204.661 41.0601 204.177 41.2068 203.686 41.3461C203.202 41.4781 202.751 41.6028 202.333 41.7201L201.838 40.5761ZM206.711 38.3871H210.935V39.3221H205.974L206.711 38.3871ZM210.627 38.3871H210.814L211.012 38.3431L211.881 38.5741C211.742 38.8675 211.577 39.1681 211.386 39.4761C211.203 39.7841 211.023 40.0408 210.847 40.2461L209.813 39.9271C209.96 39.7511 210.11 39.5348 210.264 39.2781C210.418 39.0141 210.539 38.7685 210.627 38.5411V38.3871ZM207.844 38.7831H209.021C208.97 39.1718 208.882 39.5275 208.757 39.8501C208.632 40.1655 208.449 40.4478 208.207 40.6971C207.972 40.9391 207.653 41.1518 207.25 41.3351C206.854 41.5185 206.344 41.6725 205.721 41.7971C205.67 41.6578 205.585 41.4965 205.468 41.3131C205.351 41.1225 205.237 40.9721 205.127 40.8621C205.655 40.7741 206.088 40.6678 206.425 40.5431C206.762 40.4185 207.023 40.2755 207.206 40.1141C207.397 39.9455 207.54 39.7511 207.635 39.5311C207.73 39.3111 207.8 39.0618 207.844 38.7831ZM208.955 39.0581C208.999 39.2635 209.072 39.4615 209.175 39.6521C209.285 39.8428 209.45 40.0188 209.67 40.1801C209.89 40.3341 210.198 40.4735 210.594 40.5981C210.99 40.7155 211.5 40.8108 212.123 40.8841C211.998 41.0161 211.874 41.1885 211.749 41.4011C211.624 41.6138 211.529 41.8045 211.463 41.9731C210.781 41.8631 210.22 41.7091 209.78 41.5111C209.347 41.3131 209.006 41.0895 208.757 40.8401C208.515 40.5908 208.328 40.3231 208.196 40.0371C208.071 39.7438 207.972 39.4541 207.899 39.1681L208.955 39.0581ZM206.678 37.6501L207.844 37.8481C207.631 38.2808 207.382 38.6988 207.096 39.1021C206.81 39.4981 206.458 39.8648 206.04 40.2021C205.923 40.0848 205.765 39.9675 205.567 39.8501C205.376 39.7328 205.2 39.6411 205.039 39.5751C205.442 39.2965 205.78 38.9885 206.051 38.6511C206.322 38.3065 206.531 37.9728 206.678 37.6501ZM204.61 43.6451V44.1071H209.395V43.6451H204.61ZM204.61 44.8551V45.3391H209.395V44.8551H204.61ZM204.61 42.4241V42.8971H209.395V42.4241H204.61ZM203.334 41.6431H210.726V46.1201H203.334V41.6431ZM207.569 46.7031L208.669 46.0761C209.065 46.2155 209.465 46.3658 209.868 46.5271C210.279 46.6811 210.667 46.8388 211.034 47.0001C211.408 47.1541 211.723 47.2935 211.98 47.4181L210.44 48.0121C210.235 47.8948 209.978 47.7591 209.67 47.6051C209.362 47.4511 209.028 47.2935 208.669 47.1321C208.317 46.9781 207.95 46.8351 207.569 46.7031ZM205.138 46.0321L206.337 46.5821C206.044 46.7728 205.699 46.9598 205.303 47.1431C204.907 47.3265 204.5 47.4915 204.082 47.6381C203.664 47.7921 203.268 47.9205 202.894 48.0231C202.813 47.9351 202.714 47.8288 202.597 47.7041C202.487 47.5868 202.37 47.4658 202.245 47.3411C202.12 47.2238 202.01 47.1285 201.915 47.0551C202.304 46.9818 202.696 46.8938 203.092 46.7911C203.495 46.6885 203.873 46.5711 204.225 46.4391C204.584 46.3071 204.889 46.1715 205.138 46.0321ZM215.497 37.7051H216.707V47.9571H215.497V37.7051ZM213.825 41.3241H218.335V42.5561H213.825V41.3241ZM215.255 41.9731L215.992 42.3361C215.897 42.7028 215.787 43.0915 215.662 43.5021C215.538 43.9055 215.398 44.3088 215.244 44.7121C215.09 45.1155 214.929 45.4968 214.76 45.8561C214.592 46.2081 214.412 46.5161 214.221 46.7801C214.185 46.6408 214.13 46.4905 214.056 46.3291C213.99 46.1605 213.917 45.9955 213.836 45.8341C213.763 45.6728 213.693 45.5335 213.627 45.4161C213.847 45.1448 214.06 44.8111 214.265 44.4151C214.478 44.0118 214.672 43.5975 214.848 43.1721C215.024 42.7395 215.16 42.3398 215.255 41.9731ZM216.696 42.6111C216.755 42.6698 216.839 42.7615 216.949 42.8861C217.067 43.0108 217.195 43.1538 217.334 43.3151C217.474 43.4691 217.606 43.6268 217.73 43.7881C217.862 43.9421 217.98 44.0815 218.082 44.2061C218.192 44.3308 218.269 44.4261 218.313 44.4921L217.51 45.5261C217.437 45.3648 217.342 45.1778 217.224 44.9651C217.107 44.7451 216.979 44.5215 216.839 44.2941C216.7 44.0595 216.564 43.8395 216.432 43.6341C216.3 43.4288 216.187 43.2601 216.091 43.1281L216.696 42.6111ZM213.814 38.5521L214.738 38.3101C214.834 38.5741 214.918 38.8601 214.991 39.1681C215.072 39.4761 215.138 39.7768 215.189 40.0701C215.241 40.3635 215.277 40.6275 215.299 40.8621L214.309 41.1261C214.302 40.8915 214.273 40.6275 214.221 40.3341C214.177 40.0335 214.119 39.7291 214.045 39.4211C213.979 39.1058 213.902 38.8161 213.814 38.5521ZM217.433 38.2551L218.544 38.4971C218.456 38.7978 218.361 39.1058 218.258 39.4211C218.156 39.7365 218.053 40.0408 217.95 40.3341C217.848 40.6201 217.752 40.8731 217.664 41.0931L216.828 40.8511C216.909 40.6165 216.986 40.3488 217.059 40.0481C217.14 39.7401 217.213 39.4285 217.279 39.1131C217.345 38.7978 217.397 38.5118 217.433 38.2551ZM221.602 37.6501H222.834V47.9791H221.602V37.6501ZM218.313 44.5361L223.967 43.5241L224.165 44.7451L218.511 45.7681L218.313 44.5361ZM218.929 39.1461L219.578 38.2551C219.784 38.3725 219.996 38.5081 220.216 38.6621C220.444 38.8161 220.656 38.9738 220.854 39.1351C221.06 39.2965 221.221 39.4468 221.338 39.5861L220.656 40.5761C220.546 40.4295 220.392 40.2718 220.194 40.1031C220.004 39.9345 219.798 39.7658 219.578 39.5971C219.358 39.4285 219.142 39.2781 218.929 39.1461ZM218.434 41.9181L219.05 40.9721C219.27 41.0821 219.498 41.2141 219.732 41.3681C219.967 41.5148 220.191 41.6651 220.403 41.8191C220.616 41.9658 220.788 42.1088 220.92 42.2481L220.249 43.3041C220.132 43.1648 219.971 43.0145 219.765 42.8531C219.56 42.6845 219.34 42.5195 219.105 42.3581C218.878 42.1895 218.654 42.0428 218.434 41.9181ZM229.663 40.2461C229.978 40.2755 230.293 40.3011 230.609 40.3231C230.931 40.3378 231.258 40.3451 231.588 40.3451C232.262 40.3451 232.933 40.3158 233.601 40.2571C234.268 40.1985 234.884 40.1068 235.449 39.9821V41.3571C234.877 41.4378 234.257 41.5038 233.59 41.5551C232.922 41.5991 232.255 41.6211 231.588 41.6211C231.265 41.6211 230.942 41.6175 230.62 41.6101C230.304 41.5955 229.985 41.5771 229.663 41.5551V40.2461ZM233.843 38.3871C233.828 38.4898 233.813 38.6035 233.799 38.7281C233.791 38.8528 233.784 38.9775 233.777 39.1021C233.769 39.2195 233.762 39.3771 233.755 39.5751C233.747 39.7731 233.744 39.9968 233.744 40.2461C233.744 40.4881 233.744 40.7448 233.744 41.0161C233.744 41.5148 233.751 41.9841 233.766 42.4241C233.78 42.8568 233.799 43.2601 233.821 43.6341C233.843 44.0008 233.861 44.3381 233.876 44.6461C233.898 44.9541 233.909 45.2401 233.909 45.5041C233.909 45.7901 233.868 46.0541 233.788 46.2961C233.714 46.5381 233.593 46.7508 233.425 46.9341C233.256 47.1175 233.032 47.2568 232.754 47.3521C232.482 47.4548 232.149 47.5061 231.753 47.5061C230.99 47.5061 230.389 47.3521 229.949 47.0441C229.509 46.7361 229.289 46.2925 229.289 45.7131C229.289 45.3391 229.388 45.0128 229.586 44.7341C229.784 44.4481 230.066 44.2281 230.433 44.0741C230.799 43.9128 231.232 43.8321 231.731 43.8321C232.251 43.8321 232.724 43.8871 233.15 43.9971C233.575 44.1071 233.964 44.2538 234.316 44.4371C234.668 44.6205 234.979 44.8221 235.251 45.0421C235.529 45.2548 235.779 45.4601 235.999 45.6581L235.24 46.8131C234.822 46.4171 234.415 46.0761 234.019 45.7901C233.623 45.5041 233.227 45.2841 232.831 45.1301C232.442 44.9761 232.039 44.8991 231.621 44.8991C231.313 44.8991 231.06 44.9578 230.862 45.0751C230.671 45.1925 230.576 45.3575 230.576 45.5701C230.576 45.7901 230.675 45.9515 230.873 46.0541C231.071 46.1568 231.313 46.2081 231.599 46.2081C231.826 46.2081 232.006 46.1715 232.138 46.0981C232.27 46.0175 232.361 45.9038 232.413 45.7571C232.471 45.6031 232.501 45.4198 232.501 45.2071C232.501 45.0165 232.493 44.7671 232.479 44.4591C232.464 44.1511 232.446 43.8065 232.424 43.4251C232.409 43.0438 232.394 42.6478 232.38 42.2371C232.365 41.8191 232.358 41.4121 232.358 41.0161C232.358 40.5981 232.354 40.2205 232.347 39.8831C232.347 39.5385 232.347 39.2818 232.347 39.1131C232.347 39.0325 232.339 38.9188 232.325 38.7721C232.31 38.6255 232.292 38.4971 232.27 38.3871H233.843ZM228.475 38.5081C228.453 38.5815 228.42 38.6841 228.376 38.8161C228.339 38.9481 228.306 39.0765 228.277 39.2011C228.255 39.3258 228.236 39.4211 228.222 39.4871C228.185 39.6411 228.145 39.8501 228.101 40.1141C228.057 40.3708 228.009 40.6641 227.958 40.9941C227.914 41.3168 227.87 41.6505 227.826 41.9951C227.782 42.3325 227.749 42.6551 227.727 42.9631C227.705 43.2638 227.694 43.5241 227.694 43.7441C227.694 43.8541 227.694 43.9751 227.694 44.1071C227.701 44.2318 227.716 44.3491 227.738 44.4591C227.789 44.3271 227.84 44.1988 227.892 44.0741C227.95 43.9495 228.009 43.8248 228.068 43.7001C228.126 43.5755 228.181 43.4508 228.233 43.3261L228.904 43.8761C228.801 44.1768 228.695 44.4921 228.585 44.8221C228.482 45.1521 228.387 45.4638 228.299 45.7571C228.218 46.0505 228.156 46.2961 228.112 46.4941C228.097 46.5675 228.082 46.6555 228.068 46.7581C228.06 46.8608 228.057 46.9451 228.057 47.0111C228.057 47.0698 228.057 47.1395 228.057 47.2201C228.064 47.3081 228.071 47.3888 228.079 47.4621L226.836 47.5611C226.718 47.1725 226.616 46.6775 226.528 46.0761C226.44 45.4675 226.396 44.7891 226.396 44.0411C226.396 43.6305 226.414 43.2015 226.451 42.7541C226.487 42.2995 226.528 41.8631 226.572 41.4451C226.623 41.0271 226.674 40.6458 226.726 40.3011C226.777 39.9491 226.817 39.6668 226.847 39.4541C226.869 39.3001 226.891 39.1278 226.913 38.9371C226.935 38.7391 226.949 38.5521 226.957 38.3761L228.475 38.5081ZM239.714 39.0031C240.117 39.0471 240.572 39.0801 241.078 39.1021C241.584 39.1241 242.127 39.1351 242.706 39.1351C243.065 39.1351 243.436 39.1278 243.817 39.1131C244.206 39.0985 244.58 39.0801 244.939 39.0581C245.298 39.0361 245.617 39.0105 245.896 38.9811V40.4441C245.639 40.4661 245.328 40.4881 244.961 40.5101C244.602 40.5321 244.224 40.5505 243.828 40.5651C243.439 40.5725 243.069 40.5761 242.717 40.5761C242.145 40.5761 241.613 40.5651 241.122 40.5431C240.631 40.5211 240.161 40.4918 239.714 40.4551V39.0031ZM240.638 43.6671C240.587 43.8578 240.543 44.0448 240.506 44.2281C240.469 44.4115 240.451 44.5948 240.451 44.7781C240.451 45.1301 240.627 45.4198 240.979 45.6471C241.338 45.8745 241.914 45.9881 242.706 45.9881C243.205 45.9881 243.685 45.9698 244.147 45.9331C244.609 45.8965 245.045 45.8451 245.456 45.7791C245.874 45.7131 246.244 45.6361 246.567 45.5481L246.578 47.0991C246.255 47.1725 245.896 47.2348 245.5 47.2861C245.104 47.3448 244.675 47.3888 244.213 47.4181C243.758 47.4548 243.274 47.4731 242.761 47.4731C241.925 47.4731 241.225 47.3815 240.66 47.1981C240.095 47.0148 239.674 46.7508 239.395 46.4061C239.116 46.0541 238.977 45.6251 238.977 45.1191C238.977 44.7965 239.003 44.5031 239.054 44.2391C239.105 43.9751 239.153 43.7405 239.197 43.5351L240.638 43.6671ZM254.254 38.2331C254.195 38.4238 254.144 38.6145 254.1 38.8051C254.063 38.9885 254.026 39.1718 253.99 39.3551C253.953 39.5311 253.909 39.7328 253.858 39.9601C253.814 40.1875 253.762 40.4295 253.704 40.6861C253.652 40.9355 253.594 41.1885 253.528 41.4451C253.469 41.7018 253.407 41.9548 253.341 42.2041C253.275 42.4461 253.212 42.6698 253.154 42.8751C253.601 42.6258 254.045 42.4498 254.485 42.3471C254.925 42.2371 255.39 42.1821 255.882 42.1821C256.476 42.1821 256.993 42.2811 257.433 42.4791C257.88 42.6771 258.225 42.9521 258.467 43.3041C258.716 43.6561 258.841 44.0668 258.841 44.5361C258.841 45.1521 258.698 45.6728 258.412 46.0981C258.133 46.5235 257.73 46.8571 257.202 47.0991C256.681 47.3411 256.054 47.4951 255.321 47.5611C254.595 47.6271 253.788 47.6125 252.901 47.5171L252.516 46.0981C253.117 46.2008 253.704 46.2521 254.276 46.2521C254.855 46.2521 255.376 46.1971 255.838 46.0871C256.3 45.9771 256.666 45.8011 256.938 45.5591C257.216 45.3098 257.356 44.9835 257.356 44.5801C257.356 44.2501 257.216 43.9678 256.938 43.7331C256.659 43.4911 256.252 43.3701 255.717 43.3701C255.079 43.3701 254.492 43.4801 253.957 43.7001C253.429 43.9201 253 44.2391 252.67 44.6571C252.618 44.7378 252.567 44.8148 252.516 44.8881C252.472 44.9615 252.42 45.0458 252.362 45.1411L251.064 44.6791C251.269 44.2831 251.46 43.8321 251.636 43.3261C251.812 42.8201 251.969 42.3105 252.109 41.7971C252.248 41.2838 252.362 40.8071 252.45 40.3671C252.538 39.9198 252.6 39.5568 252.637 39.2781C252.673 39.0435 252.695 38.8455 252.703 38.6841C252.71 38.5155 252.706 38.3431 252.692 38.1671L254.254 38.2331ZM250.415 39.5201C250.767 39.5788 251.148 39.6301 251.559 39.6741C251.969 39.7108 252.347 39.7291 252.692 39.7291C253.044 39.7291 253.429 39.7181 253.847 39.6961C254.272 39.6741 254.719 39.6411 255.189 39.5971C255.658 39.5531 256.127 39.4981 256.597 39.4321C257.073 39.3588 257.539 39.2745 257.994 39.1791L258.016 40.4881C257.664 40.5468 257.264 40.6055 256.817 40.6641C256.377 40.7228 255.915 40.7778 255.431 40.8291C254.947 40.8731 254.47 40.9098 254.001 40.9391C253.531 40.9685 253.099 40.9831 252.703 40.9831C252.277 40.9831 251.87 40.9758 251.482 40.9611C251.1 40.9391 250.745 40.9135 250.415 40.8841V39.5201ZM264.899 38.1451C265.163 38.2258 265.493 38.3101 265.889 38.3981C266.285 38.4861 266.699 38.5741 267.132 38.6621C267.565 38.7428 267.972 38.8125 268.353 38.8711C268.742 38.9298 269.057 38.9738 269.299 39.0031L268.969 40.3451C268.749 40.3158 268.481 40.2755 268.166 40.2241C267.858 40.1655 267.528 40.1031 267.176 40.0371C266.831 39.9711 266.49 39.9051 266.153 39.8391C265.816 39.7658 265.508 39.6961 265.229 39.6301C264.95 39.5641 264.723 39.5091 264.547 39.4651L264.899 38.1451ZM264.965 40.3561C264.928 40.5028 264.888 40.6935 264.844 40.9281C264.807 41.1555 264.771 41.3938 264.734 41.6431C264.697 41.8925 264.661 42.1308 264.624 42.3581C264.595 42.5855 264.569 42.7761 264.547 42.9301C265.046 42.5708 265.566 42.3068 266.109 42.1381C266.659 41.9695 267.22 41.8851 267.792 41.8851C268.437 41.8851 268.987 42.0025 269.442 42.2371C269.897 42.4718 270.241 42.7798 270.476 43.1611C270.718 43.5425 270.839 43.9568 270.839 44.4041C270.839 44.9028 270.733 45.3648 270.52 45.7901C270.307 46.2155 269.959 46.5785 269.475 46.8791C268.991 47.1798 268.357 47.3925 267.572 47.5171C266.787 47.6418 265.823 47.6565 264.679 47.5611L264.261 46.1201C265.361 46.2668 266.285 46.2888 267.033 46.1861C267.781 46.0761 268.346 45.8635 268.727 45.5481C269.116 45.2255 269.31 44.8331 269.31 44.3711C269.31 44.1291 269.24 43.9165 269.101 43.7331C268.962 43.5425 268.767 43.3958 268.518 43.2931C268.269 43.1831 267.986 43.1281 267.671 43.1281C267.055 43.1281 266.476 43.2418 265.933 43.4691C265.398 43.6891 264.958 44.0081 264.613 44.4261C264.518 44.5435 264.437 44.6535 264.371 44.7561C264.312 44.8515 264.257 44.9541 264.206 45.0641L262.941 44.7451C262.985 44.5325 263.029 44.2831 263.073 43.9971C263.117 43.7038 263.161 43.3921 263.205 43.0621C263.249 42.7248 263.289 42.3875 263.326 42.0501C263.363 41.7128 263.396 41.3791 263.425 41.0491C263.454 40.7191 263.476 40.4185 263.491 40.1471L264.965 40.3561ZM283.497 37.6281L283.871 38.0021L273.861 48.0121L273.487 47.6381L283.497 37.6281Z" fill="white"/>
<path d="M28.22 67.5201H45.8V69.7001H28.22V67.5201ZM35.68 66.0001H38.14V68.8201H35.68V66.0001ZM28.88 71.2601H44.28V73.3401H31.16V84.7601H28.88V71.2601ZM43.04 71.2601H45.34V82.2001C45.34 82.7735 45.2667 83.2335 45.12 83.5801C44.9867 83.9268 44.7267 84.2001 44.34 84.4001C43.94 84.5735 43.4533 84.6801 42.88 84.7201C42.3067 84.7735 41.6267 84.8001 40.84 84.8001C40.8 84.5868 40.74 84.3401 40.66 84.0601C40.58 83.7801 40.4867 83.5001 40.38 83.2201C40.2733 82.9535 40.16 82.7201 40.04 82.5201C40.5733 82.5335 41.0867 82.5468 41.58 82.5601C42.0867 82.5601 42.4267 82.5601 42.6 82.5601C42.76 82.5601 42.8733 82.5335 42.94 82.4801C43.0067 82.4135 43.04 82.3068 43.04 82.1601V71.2601ZM33.92 73.0801H36.04C36 73.8668 35.8667 74.5535 35.64 75.1401C35.4133 75.7268 35.02 76.2135 34.46 76.6001C33.9 76.9868 33.0867 77.3068 32.02 77.5601C31.94 77.2935 31.7867 76.9935 31.56 76.6601C31.3467 76.3268 31.14 76.0668 30.94 75.8801C31.7667 75.7335 32.3867 75.5468 32.8 75.3201C33.2133 75.0801 33.4933 74.7801 33.64 74.4201C33.8 74.0601 33.8933 73.6135 33.92 73.0801ZM37.64 73.0601H39.7V74.6001C39.7 74.8135 39.7267 74.9468 39.78 75.0001C39.8333 75.0401 39.9467 75.0601 40.12 75.0601C40.16 75.0601 40.2267 75.0601 40.32 75.0601C40.4133 75.0601 40.5133 75.0601 40.62 75.0601C40.7267 75.0601 40.8267 75.0601 40.92 75.0601C41.0267 75.0601 41.1 75.0601 41.14 75.0601C41.26 75.0601 41.3467 75.0401 41.4 75.0001C41.4667 74.9468 41.5133 74.8401 41.54 74.6801C41.58 74.5201 41.6067 74.2801 41.62 73.9601C41.8067 74.0935 42.0733 74.2268 42.42 74.3601C42.78 74.4801 43.0933 74.5735 43.36 74.6401C43.2667 75.4935 43.0733 76.0668 42.78 76.3601C42.4867 76.6535 42.0333 76.8001 41.42 76.8001C41.3267 76.8001 41.2067 76.8001 41.06 76.8001C40.9133 76.8001 40.7533 76.8001 40.58 76.8001C40.42 76.8001 40.2667 76.8001 40.12 76.8001C39.9867 76.8001 39.88 76.8001 39.8 76.8001C39.2133 76.8001 38.76 76.7335 38.44 76.6001C38.1333 76.4535 37.92 76.2268 37.8 75.9201C37.6933 75.6001 37.64 75.1668 37.64 74.6201V73.0601ZM33.12 77.5401H35.26V83.8601H33.12V77.5401ZM34.44 77.5401H41.02V82.7801H34.44V81.0001H38.86V79.3201H34.44V77.5401ZM31.8 69.6601L34.18 69.2601C34.3667 69.5668 34.5467 69.9201 34.72 70.3201C34.8933 70.7068 35.02 71.0468 35.1 71.3401L32.6 71.8401C32.5467 71.5468 32.44 71.1935 32.28 70.7801C32.1333 70.3668 31.9733 69.9935 31.8 69.6601ZM39.62 69.2401L42.28 69.6401C42.04 70.0668 41.8133 70.4668 41.6 70.8401C41.4 71.2001 41.2067 71.5068 41.02 71.7601L38.64 71.3601C38.8133 71.0535 38.9933 70.7001 39.18 70.3001C39.3667 69.9001 39.5133 69.5468 39.62 69.2401ZM54.98 69.1001V71.7801H62.02V69.1001H54.98ZM52.66 66.8001H64.46V74.0601H52.66V66.8001ZM49.9 75.7401H57.56V84.6801H55.16V78.0401H52.18V84.8001H49.9V75.7401ZM59.24 75.7401H67.16V84.7001H64.76V78.0401H61.54V84.8001H59.24V75.7401ZM50.9 81.4801H56.16V83.7801H50.9V81.4801ZM60.34 81.4801H65.94V83.7801H60.34V81.4801ZM71.58 67.9401L72.64 66.3001C73.0933 66.4068 73.58 66.5468 74.1 66.7201C74.62 66.8801 75.1267 67.0535 75.62 67.2401C76.1267 67.4135 76.5467 67.5801 76.88 67.7401L75.8 69.5601C75.48 69.4001 75.08 69.2201 74.6 69.0201C74.12 68.8068 73.6133 68.6068 73.08 68.4201C72.5467 68.2335 72.0467 68.0735 71.58 67.9401ZM70.7 71.3201C71.4333 71.1868 72.3133 71.0001 73.34 70.7601C74.38 70.5201 75.4267 70.2801 76.48 70.0401L76.7 71.9201C75.8333 72.2001 74.9533 72.4668 74.06 72.7201C73.18 72.9601 72.36 73.1868 71.6 73.4001L70.7 71.3201ZM79.56 67.3401H87.24V69.0401H78.22L79.56 67.3401ZM86.68 67.3401H87.02L87.38 67.2601L88.96 67.6801C88.7067 68.2135 88.4067 68.7601 88.06 69.3201C87.7267 69.8801 87.4 70.3468 87.08 70.7201L85.2 70.1401C85.4667 69.8201 85.74 69.4268 86.02 68.9601C86.3 68.4801 86.52 68.0335 86.68 67.6201V67.3401ZM81.62 68.0601H83.76C83.6667 68.7668 83.5067 69.4135 83.28 70.0001C83.0533 70.5735 82.72 71.0868 82.28 71.5401C81.8533 71.9801 81.2733 72.3668 80.54 72.7001C79.82 73.0335 78.8933 73.3135 77.76 73.5401C77.6667 73.2868 77.5133 72.9935 77.3 72.6601C77.0867 72.3135 76.88 72.0401 76.68 71.8401C77.64 71.6801 78.4267 71.4868 79.04 71.2601C79.6533 71.0335 80.1267 70.7735 80.46 70.4801C80.8067 70.1735 81.0667 69.8201 81.24 69.4201C81.4133 69.0201 81.54 68.5668 81.62 68.0601ZM83.64 68.5601C83.72 68.9335 83.8533 69.2935 84.04 69.6401C84.24 69.9868 84.54 70.3068 84.94 70.6001C85.34 70.8801 85.9 71.1335 86.62 71.3601C87.34 71.5735 88.2667 71.7468 89.4 71.8801C89.1733 72.1201 88.9467 72.4335 88.72 72.8201C88.4933 73.2068 88.32 73.5535 88.2 73.8601C86.96 73.6601 85.94 73.3801 85.14 73.0201C84.3533 72.6601 83.7333 72.2535 83.28 71.8001C82.84 71.3468 82.5 70.8601 82.26 70.3401C82.0333 69.8068 81.8533 69.2801 81.72 68.7601L83.64 68.5601ZM79.5 66.0001L81.62 66.3601C81.2333 67.1468 80.78 67.9068 80.26 68.6401C79.74 69.3601 79.1 70.0268 78.34 70.6401C78.1267 70.4268 77.84 70.2135 77.48 70.0001C77.1333 69.7868 76.8133 69.6201 76.52 69.5001C77.2533 68.9935 77.8667 68.4335 78.36 67.8201C78.8533 67.1935 79.2333 66.5868 79.5 66.0001ZM75.74 76.9001V77.7401H84.44V76.9001H75.74ZM75.74 79.1001V79.9801H84.44V79.1001H75.74ZM75.74 74.6801V75.5401H84.44V74.6801H75.74ZM73.42 73.2601H86.86V81.4001H73.42V73.2601ZM81.12 82.4601L83.12 81.3201C83.84 81.5735 84.5667 81.8468 85.3 82.1401C86.0467 82.4201 86.7533 82.7068 87.42 83.0001C88.1 83.2801 88.6733 83.5335 89.14 83.7601L86.34 84.8401C85.9667 84.6268 85.5 84.3801 84.94 84.1001C84.38 83.8201 83.7733 83.5335 83.12 83.2401C82.48 82.9601 81.8133 82.7001 81.12 82.4601ZM76.7 81.2401L78.88 82.2401C78.3467 82.5868 77.72 82.9268 77 83.2601C76.28 83.5935 75.54 83.8935 74.78 84.1601C74.02 84.4401 73.3 84.6735 72.62 84.8601C72.4733 84.7001 72.2933 84.5068 72.08 84.2801C71.88 84.0668 71.6667 83.8468 71.44 83.6201C71.2133 83.4068 71.0133 83.2335 70.84 83.1001C71.5467 82.9668 72.26 82.8068 72.98 82.6201C73.7133 82.4335 74.4 82.2201 75.04 81.9801C75.6933 81.7401 76.2467 81.4935 76.7 81.2401ZM95.3 66.1001H97.5V84.7401H95.3V66.1001ZM92.26 72.6801H100.46V74.9201H92.26V72.6801ZM94.86 73.8601L96.2 74.5201C96.0267 75.1868 95.8267 75.8935 95.6 76.6401C95.3733 77.3735 95.12 78.1068 94.84 78.8401C94.56 79.5735 94.2667 80.2668 93.96 80.9201C93.6533 81.5601 93.3267 82.1201 92.98 82.6001C92.9133 82.3468 92.8133 82.0735 92.68 81.7801C92.56 81.4735 92.4267 81.1735 92.28 80.8801C92.1467 80.5868 92.02 80.3335 91.9 80.1201C92.3 79.6268 92.6867 79.0201 93.06 78.3001C93.4467 77.5668 93.8 76.8135 94.12 76.0401C94.44 75.2535 94.6867 74.5268 94.86 73.8601ZM97.48 75.0201C97.5867 75.1268 97.74 75.2935 97.94 75.5201C98.1533 75.7468 98.3867 76.0068 98.64 76.3001C98.8933 76.5801 99.1333 76.8668 99.36 77.1601C99.6 77.4401 99.8133 77.6935 100 77.9201C100.2 78.1468 100.34 78.3201 100.42 78.4401L98.96 80.3201C98.8267 80.0268 98.6533 79.6868 98.44 79.3001C98.2267 78.9001 97.9933 78.4935 97.74 78.0801C97.4867 77.6535 97.24 77.2535 97 76.8801C96.76 76.5068 96.5533 76.2001 96.38 75.9601L97.48 75.0201ZM92.24 67.6401L93.92 67.2001C94.0933 67.6801 94.2467 68.2001 94.38 68.7601C94.5267 69.3201 94.6467 69.8668 94.74 70.4001C94.8333 70.9335 94.9 71.4135 94.94 71.8401L93.14 72.3201C93.1267 71.8935 93.0733 71.4135 92.98 70.8801C92.9 70.3335 92.7933 69.7801 92.66 69.2201C92.54 68.6468 92.4 68.1201 92.24 67.6401ZM98.82 67.1001L100.84 67.5401C100.68 68.0868 100.507 68.6468 100.32 69.2201C100.133 69.7935 99.9467 70.3468 99.76 70.8801C99.5733 71.4001 99.4 71.8601 99.24 72.2601L97.72 71.8201C97.8667 71.3935 98.0067 70.9068 98.14 70.3601C98.2867 69.8001 98.42 69.2335 98.54 68.6601C98.66 68.0868 98.7533 67.5668 98.82 67.1001ZM106.4 66.0001H108.64V84.7801H106.4V66.0001ZM100.42 78.5201L110.7 76.6801L111.06 78.9001L100.78 80.7601L100.42 78.5201ZM101.54 68.7201L102.72 67.1001C103.093 67.3135 103.48 67.5601 103.88 67.8401C104.293 68.1201 104.68 68.4068 105.04 68.7001C105.413 68.9935 105.707 69.2668 105.92 69.5201L104.68 71.3201C104.48 71.0535 104.2 70.7668 103.84 70.4601C103.493 70.1535 103.12 69.8468 102.72 69.5401C102.32 69.2335 101.927 68.9601 101.54 68.7201ZM100.64 73.7601L101.76 72.0401C102.16 72.2401 102.573 72.4801 103 72.7601C103.427 73.0268 103.833 73.3001 104.22 73.5801C104.607 73.8468 104.92 74.1068 105.16 74.3601L103.94 76.2801C103.727 76.0268 103.433 75.7535 103.06 75.4601C102.687 75.1535 102.287 74.8535 101.86 74.5601C101.447 74.2535 101.04 73.9868 100.64 73.7601ZM120.29 70.9701C120.24 71.2401 120.16 71.5901 120.05 72.0201C119.94 72.4501 119.78 72.9351 119.57 73.4751C119.41 73.8451 119.225 74.2301 119.015 74.6301C118.815 75.0201 118.61 75.3701 118.4 75.6801C118.53 75.6201 118.695 75.5701 118.895 75.5301C119.095 75.4801 119.3 75.4451 119.51 75.4251C119.73 75.3951 119.925 75.3801 120.095 75.3801C120.725 75.3801 121.245 75.5601 121.655 75.9201C122.075 76.2801 122.285 76.8151 122.285 77.5251C122.285 77.7251 122.285 77.9701 122.285 78.2601C122.295 78.5501 122.305 78.8551 122.315 79.1751C122.325 79.4851 122.335 79.7901 122.345 80.0901C122.355 80.3901 122.36 80.6601 122.36 80.9001H120.56C120.58 80.7301 120.59 80.5301 120.59 80.3001C120.6 80.0601 120.605 79.8101 120.605 79.5501C120.615 79.2901 120.62 79.0401 120.62 78.8001C120.63 78.5501 120.635 78.3251 120.635 78.1251C120.635 77.6451 120.505 77.3151 120.245 77.1351C119.995 76.9451 119.715 76.8501 119.405 76.8501C118.985 76.8501 118.56 76.9551 118.13 77.1651C117.71 77.3651 117.355 77.6051 117.065 77.8851C116.845 78.1051 116.62 78.3501 116.39 78.6201C116.17 78.8901 115.93 79.1951 115.67 79.5351L114.065 78.3351C114.715 77.7351 115.275 77.1551 115.745 76.5951C116.225 76.0351 116.63 75.4801 116.96 74.9301C117.29 74.3801 117.56 73.8301 117.77 73.2801C117.92 72.8801 118.04 72.4651 118.13 72.0351C118.23 71.5951 118.29 71.1851 118.31 70.8051L120.29 70.9701ZM114.65 72.3501C115.03 72.4101 115.47 72.4551 115.97 72.4851C116.47 72.5151 116.91 72.5301 117.29 72.5301C117.95 72.5301 118.67 72.5151 119.45 72.4851C120.24 72.4551 121.04 72.4051 121.85 72.3351C122.66 72.2551 123.43 72.1551 124.16 72.0351L124.145 73.7751C123.615 73.8451 123.04 73.9101 122.42 73.9701C121.81 74.0201 121.185 74.0651 120.545 74.1051C119.915 74.1351 119.31 74.1601 118.73 74.1801C118.15 74.1901 117.635 74.1951 117.185 74.1951C116.985 74.1951 116.735 74.1951 116.435 74.1951C116.145 74.1851 115.845 74.1751 115.535 74.1651C115.225 74.1451 114.93 74.1251 114.65 74.1051V72.3501ZM126.53 76.6101C126.37 76.6601 126.18 76.7251 125.96 76.8051C125.75 76.8751 125.535 76.9501 125.315 77.0301C125.105 77.1001 124.915 77.1701 124.745 77.2401C124.265 77.4301 123.695 77.6601 123.035 77.9301C122.385 78.2001 121.705 78.5151 120.995 78.8751C120.545 79.1151 120.165 79.3501 119.855 79.5801C119.545 79.8101 119.31 80.0451 119.15 80.2851C118.99 80.5151 118.91 80.7701 118.91 81.0501C118.91 81.2601 118.955 81.4351 119.045 81.5751C119.135 81.7051 119.27 81.8101 119.45 81.8901C119.63 81.9701 119.855 82.0251 120.125 82.0551C120.395 82.0851 120.715 82.1001 121.085 82.1001C121.725 82.1001 122.43 82.0651 123.2 81.9951C123.97 81.9151 124.685 81.8101 125.345 81.6801L125.285 83.6151C124.965 83.6551 124.56 83.6951 124.07 83.7351C123.58 83.7851 123.07 83.8201 122.54 83.8401C122.02 83.8601 121.52 83.8701 121.04 83.8701C120.26 83.8701 119.56 83.7951 118.94 83.6451C118.32 83.4951 117.83 83.2401 117.47 82.8801C117.12 82.5101 116.945 82.0051 116.945 81.3651C116.945 80.8451 117.06 80.3751 117.29 79.9551C117.53 79.5351 117.845 79.1551 118.235 78.8151C118.625 78.4751 119.05 78.1701 119.51 77.9001C119.98 77.6201 120.44 77.3651 120.89 77.1351C121.35 76.8951 121.765 76.6901 122.135 76.5201C122.505 76.3501 122.85 76.2001 123.17 76.0701C123.5 75.9301 123.815 75.7901 124.115 75.6501C124.405 75.5201 124.685 75.3951 124.955 75.2751C125.225 75.1451 125.5 75.0101 125.78 74.8701L126.53 76.6101ZM134.2 66.0001L136.56 66.7001C136.2 67.4335 135.773 68.1535 135.28 68.8601C134.787 69.5668 134.253 70.2201 133.68 70.8201C133.12 71.4201 132.56 71.9468 132 72.4001C131.867 72.2401 131.68 72.0601 131.44 71.8601C131.2 71.6601 130.953 71.4668 130.7 71.2801C130.447 71.0935 130.227 70.9401 130.04 70.8201C130.893 70.2601 131.693 69.5535 132.44 68.7001C133.187 67.8468 133.773 66.9468 134.2 66.0001ZM134.04 68.1201H147.82V70.2201H133.46L134.04 68.1201ZM130.48 72.7801H148.56V74.9201H130.48V72.7801ZM130.8 77.4601H148.26V79.6001H130.8V77.4601ZM136.74 68.8601H138.74V78.5801H136.74V68.8601ZM133.18 68.8601H135.32V78.6001H133.18V68.8601ZM140.22 68.8601H142.22V78.6001H140.22V68.8601ZM143.74 68.8601H145.94V78.6001H143.74V68.8601ZM136.14 80.7201L138.36 80.4801C138.493 81.0801 138.607 81.7335 138.7 82.4401C138.807 83.1468 138.867 83.7468 138.88 84.2401L136.52 84.5801C136.52 84.2601 136.5 83.8801 136.46 83.4401C136.433 83.0001 136.393 82.5401 136.34 82.0601C136.287 81.5801 136.22 81.1335 136.14 80.7201ZM140.12 80.7801L142.36 80.4001C142.533 80.7868 142.7 81.2068 142.86 81.6601C143.02 82.1135 143.16 82.5535 143.28 82.9801C143.4 83.4068 143.487 83.7935 143.54 84.1401L141.14 84.6001C141.073 84.1068 140.94 83.5001 140.74 82.7801C140.553 82.0601 140.347 81.3935 140.12 80.7801ZM144.08 80.6601L146.38 79.9401C146.7 80.3535 147.02 80.8001 147.34 81.2801C147.66 81.7601 147.967 82.2401 148.26 82.7201C148.553 83.1868 148.78 83.6068 148.94 83.9801L146.48 84.8001C146.333 84.4401 146.127 84.0201 145.86 83.5401C145.607 83.0601 145.32 82.5735 145 82.0801C144.693 81.5735 144.387 81.1001 144.08 80.6601ZM132.54 80.0201L134.86 80.6001C134.633 81.3601 134.32 82.1201 133.92 82.8801C133.52 83.6401 133.073 84.2868 132.58 84.8201L130.28 83.8801C130.733 83.4535 131.167 82.8868 131.58 82.1801C131.993 81.4735 132.313 80.7535 132.54 80.0201ZM154.8 66.1001H157V84.7401H154.8V66.1001ZM151.76 72.6801H159.96V74.9201H151.76V72.6801ZM154.36 73.8601L155.7 74.5201C155.527 75.1868 155.327 75.8935 155.1 76.6401C154.873 77.3735 154.62 78.1068 154.34 78.8401C154.06 79.5735 153.767 80.2668 153.46 80.9201C153.153 81.5601 152.827 82.1201 152.48 82.6001C152.413 82.3468 152.313 82.0735 152.18 81.7801C152.06 81.4735 151.927 81.1735 151.78 80.8801C151.647 80.5868 151.52 80.3335 151.4 80.1201C151.8 79.6268 152.187 79.0201 152.56 78.3001C152.947 77.5668 153.3 76.8135 153.62 76.0401C153.94 75.2535 154.187 74.5268 154.36 73.8601ZM156.98 75.0201C157.087 75.1268 157.24 75.2935 157.44 75.5201C157.653 75.7468 157.887 76.0068 158.14 76.3001C158.393 76.5801 158.633 76.8668 158.86 77.1601C159.1 77.4401 159.313 77.6935 159.5 77.9201C159.7 78.1468 159.84 78.3201 159.92 78.4401L158.46 80.3201C158.327 80.0268 158.153 79.6868 157.94 79.3001C157.727 78.9001 157.493 78.4935 157.24 78.0801C156.987 77.6535 156.74 77.2535 156.5 76.8801C156.26 76.5068 156.053 76.2001 155.88 75.9601L156.98 75.0201ZM151.74 67.6401L153.42 67.2001C153.593 67.6801 153.747 68.2001 153.88 68.7601C154.027 69.3201 154.147 69.8668 154.24 70.4001C154.333 70.9335 154.4 71.4135 154.44 71.8401L152.64 72.3201C152.627 71.8935 152.573 71.4135 152.48 70.8801C152.4 70.3335 152.293 69.7801 152.16 69.2201C152.04 68.6468 151.9 68.1201 151.74 67.6401ZM158.32 67.1001L160.34 67.5401C160.18 68.0868 160.007 68.6468 159.82 69.2201C159.633 69.7935 159.447 70.3468 159.26 70.8801C159.073 71.4001 158.9 71.8601 158.74 72.2601L157.22 71.8201C157.367 71.3935 157.507 70.9068 157.64 70.3601C157.787 69.8001 157.92 69.2335 158.04 68.6601C158.16 68.0868 158.253 67.5668 158.32 67.1001ZM165.9 66.0001H168.14V84.7801H165.9V66.0001ZM159.92 78.5201L170.2 76.6801L170.56 78.9001L160.28 80.7601L159.92 78.5201ZM161.04 68.7201L162.22 67.1001C162.593 67.3135 162.98 67.5601 163.38 67.8401C163.793 68.1201 164.18 68.4068 164.54 68.7001C164.913 68.9935 165.207 69.2668 165.42 69.5201L164.18 71.3201C163.98 71.0535 163.7 70.7668 163.34 70.4601C162.993 70.1535 162.62 69.8468 162.22 69.5401C161.82 69.2335 161.427 68.9601 161.04 68.7201ZM160.14 73.7601L161.26 72.0401C161.66 72.2401 162.073 72.4801 162.5 72.7601C162.927 73.0268 163.333 73.3001 163.72 73.5801C164.107 73.8468 164.42 74.1068 164.66 74.3601L163.44 76.2801C163.227 76.0268 162.933 75.7535 162.56 75.4601C162.187 75.1535 161.787 74.8535 161.36 74.5601C160.947 74.2535 160.54 73.9868 160.14 73.7601ZM188.08 66.5801C188.253 66.8068 188.433 67.0935 188.62 67.4401C188.82 67.7735 189.013 68.1068 189.2 68.4401C189.387 68.7735 189.54 69.0668 189.66 69.3201L188.06 70.0001C187.86 69.5868 187.613 69.1201 187.32 68.6001C187.04 68.0668 186.767 67.6068 186.5 67.2201L188.08 66.5801ZM190.44 65.6601C190.613 65.9135 190.8 66.2135 191 66.5601C191.213 66.8935 191.413 67.2268 191.6 67.5601C191.8 67.8801 191.953 68.1535 192.06 68.3801L190.48 69.0801C190.267 68.6535 190.013 68.1801 189.72 67.6601C189.427 67.1401 189.14 66.6935 188.86 66.3201L190.44 65.6601ZM180.6 74.1001C181.213 74.4601 181.887 74.8801 182.62 75.3601C183.353 75.8268 184.087 76.3135 184.82 76.8201C185.567 77.3268 186.267 77.8201 186.92 78.3001C187.587 78.7668 188.153 79.1935 188.62 79.5801L186.7 81.8401C186.26 81.4268 185.713 80.9601 185.06 80.4401C184.42 79.9201 183.727 79.3868 182.98 78.8401C182.233 78.2801 181.5 77.7468 180.78 77.2401C180.06 76.7335 179.407 76.2935 178.82 75.9201L180.6 74.1001ZM190 70.7001C189.893 70.8868 189.78 71.1135 189.66 71.3801C189.54 71.6335 189.433 71.8868 189.34 72.1401C189.14 72.7535 188.867 73.4335 188.52 74.1801C188.187 74.9268 187.787 75.6935 187.32 76.4801C186.853 77.2668 186.32 78.0335 185.72 78.7801C184.787 79.9401 183.653 81.0535 182.32 82.1201C180.987 83.1735 179.367 84.0668 177.46 84.8001L175.14 82.7801C176.527 82.3401 177.733 81.8335 178.76 81.2601C179.787 80.6735 180.68 80.0468 181.44 79.3801C182.2 78.7135 182.86 78.0468 183.42 77.3801C183.873 76.8468 184.3 76.2601 184.7 75.6201C185.1 74.9668 185.447 74.3201 185.74 73.6801C186.047 73.0401 186.26 72.4668 186.38 71.9601H179.62L180.54 69.6801H186.24C186.547 69.6801 186.853 69.6601 187.16 69.6201C187.48 69.5801 187.753 69.5201 187.98 69.4401L190 70.7001ZM183.4 67.6401C183.16 67.9868 182.92 68.3601 182.68 68.7601C182.453 69.1601 182.28 69.4668 182.16 69.6801C181.72 70.4668 181.147 71.3135 180.44 72.2201C179.747 73.1268 178.967 74.0068 178.1 74.8601C177.247 75.7135 176.34 76.4735 175.38 77.1401L173.22 75.4601C174.393 74.7401 175.387 73.9801 176.2 73.1801C177.027 72.3668 177.713 71.5868 178.26 70.8401C178.82 70.0801 179.267 69.4068 179.6 68.8201C179.76 68.5801 179.927 68.2601 180.1 67.8601C180.287 67.4468 180.42 67.0735 180.5 66.7401L183.4 67.6401ZM205.44 66.6601C205.4 67.0868 205.367 67.4335 205.34 67.7001C205.313 67.9535 205.3 68.2201 205.3 68.5001C205.3 68.6735 205.3 68.9401 205.3 69.3001C205.3 69.6601 205.3 70.0335 205.3 70.4201C205.3 70.8068 205.3 71.1268 205.3 71.3801H202.52C202.52 71.1001 202.52 70.7668 202.52 70.3801C202.52 69.9935 202.52 69.6268 202.52 69.2801C202.52 68.9335 202.52 68.6735 202.52 68.5001C202.52 68.2201 202.507 67.9535 202.48 67.7001C202.467 67.4335 202.427 67.0868 202.36 66.6601H205.44ZM212.18 70.8801C212.1 71.0935 212.02 71.3668 211.94 71.7001C211.873 72.0201 211.82 72.2801 211.78 72.4801C211.7 72.9468 211.6 73.4201 211.48 73.9001C211.373 74.3801 211.24 74.8601 211.08 75.3401C210.933 75.8201 210.76 76.2935 210.56 76.7601C210.373 77.2268 210.16 77.6868 209.92 78.1401C209.387 79.1135 208.707 80.0001 207.88 80.8001C207.067 81.6001 206.14 82.2801 205.1 82.8401C204.06 83.3868 202.947 83.8201 201.76 84.1401L199.68 81.7401C200.133 81.6601 200.613 81.5535 201.12 81.4201C201.627 81.2735 202.087 81.1201 202.5 80.9601C203.06 80.7468 203.613 80.4801 204.16 80.1601C204.72 79.8268 205.247 79.4401 205.74 79.0001C206.233 78.5601 206.667 78.0735 207.04 77.5401C207.373 77.0468 207.66 76.5201 207.9 75.9601C208.14 75.3868 208.333 74.8001 208.48 74.2001C208.627 73.5868 208.74 72.9868 208.82 72.4001H198.9C198.9 72.5735 198.9 72.7935 198.9 73.0601C198.9 73.3135 198.9 73.5935 198.9 73.9001C198.9 74.1935 198.9 74.4668 198.9 74.7201C198.9 74.9601 198.9 75.1601 198.9 75.3201C198.9 75.5468 198.907 75.8001 198.92 76.0801C198.933 76.3601 198.947 76.6001 198.96 76.8001H196.2C196.227 76.5468 196.247 76.2735 196.26 75.9801C196.287 75.6735 196.3 75.3868 196.3 75.1201C196.3 74.9601 196.3 74.7268 196.3 74.4201C196.3 74.1135 196.3 73.7868 196.3 73.4401C196.3 73.0801 196.3 72.7401 196.3 72.4201C196.3 72.1001 196.3 71.8468 196.3 71.6601C196.3 71.4335 196.293 71.1535 196.28 70.8201C196.267 70.4735 196.24 70.1801 196.2 69.9401C196.547 69.9801 196.88 70.0068 197.2 70.0201C197.52 70.0335 197.867 70.0401 198.24 70.0401H208.78C209.193 70.0401 209.527 70.0201 209.78 69.9801C210.047 69.9268 210.267 69.8735 210.44 69.8201L212.18 70.8801ZM220.32 67.8001C220.667 68.0401 221.073 68.3335 221.54 68.6801C222.007 69.0268 222.487 69.4068 222.98 69.8201C223.487 70.2201 223.96 70.6135 224.4 71.0001C224.84 71.3868 225.2 71.7335 225.48 72.0401L223.44 74.1201C223.187 73.8401 222.853 73.5068 222.44 73.1201C222.027 72.7335 221.58 72.3335 221.1 71.9201C220.62 71.5068 220.147 71.1135 219.68 70.7401C219.213 70.3668 218.8 70.0535 218.44 69.8001L220.32 67.8001ZM217.82 81.1201C218.86 80.9735 219.84 80.7668 220.76 80.5001C221.68 80.2335 222.533 79.9268 223.32 79.5801C224.107 79.2335 224.827 78.8735 225.48 78.5001C226.613 77.8201 227.653 77.0468 228.6 76.1801C229.547 75.3135 230.373 74.4135 231.08 73.4801C231.787 72.5335 232.347 71.6135 232.76 70.7201L234.32 73.5401C233.813 74.4335 233.187 75.3268 232.44 76.2201C231.707 77.1135 230.873 77.9668 229.94 78.7801C229.007 79.5801 228 80.3001 226.92 80.9401C226.24 81.3535 225.507 81.7468 224.72 82.1201C223.933 82.4801 223.1 82.8001 222.22 83.0801C221.353 83.3735 220.447 83.6001 219.5 83.7601L217.82 81.1201ZM239.52 68.8201C239.933 68.8335 240.32 68.8468 240.68 68.8601C241.053 68.8601 241.373 68.8601 241.64 68.8601C241.853 68.8601 242.18 68.8601 242.62 68.8601C243.073 68.8601 243.6 68.8601 244.2 68.8601C244.8 68.8601 245.44 68.8601 246.12 68.8601C246.8 68.8601 247.48 68.8601 248.16 68.8601C248.853 68.8601 249.5 68.8601 250.1 68.8601C250.7 68.8601 251.22 68.8601 251.66 68.8601C252.113 68.8601 252.44 68.8601 252.64 68.8601C252.893 68.8601 253.193 68.8601 253.54 68.8601C253.9 68.8468 254.26 68.8335 254.62 68.8201C254.607 69.1268 254.593 69.4535 254.58 69.8001C254.58 70.1335 254.58 70.4535 254.58 70.7601C254.58 70.9468 254.58 71.2401 254.58 71.6401C254.58 72.0268 254.58 72.4935 254.58 73.0401C254.58 73.5735 254.58 74.1468 254.58 74.7601C254.58 75.3601 254.58 75.9668 254.58 76.5801C254.58 77.1935 254.58 77.7735 254.58 78.3201C254.58 78.8535 254.58 79.3201 254.58 79.7201C254.58 80.1068 254.58 80.3868 254.58 80.5601C254.58 80.7601 254.58 81.0135 254.58 81.3201C254.593 81.6135 254.6 81.9135 254.6 82.2201C254.6 82.5135 254.6 82.7735 254.6 83.0001C254.613 83.2135 254.62 83.3268 254.62 83.3401H251.86C251.86 83.3135 251.86 83.1535 251.86 82.8601C251.873 82.5535 251.88 82.1935 251.88 81.7801C251.893 81.3668 251.9 80.9801 251.9 80.6201C251.9 80.4468 251.9 80.1535 251.9 79.7401C251.9 79.3268 251.9 78.8401 251.9 78.2801C251.9 77.7201 251.9 77.1268 251.9 76.5001C251.9 75.8735 251.9 75.2601 251.9 74.6601C251.9 74.0601 251.9 73.5135 251.9 73.0201C251.9 72.5268 251.9 72.1335 251.9 71.8401C251.9 71.5468 251.9 71.4001 251.9 71.4001H242.24C242.24 71.4001 242.24 71.5468 242.24 71.8401C242.24 72.1335 242.24 72.5268 242.24 73.0201C242.24 73.5001 242.24 74.0468 242.24 74.6601C242.24 75.2601 242.24 75.8735 242.24 76.5001C242.24 77.1135 242.24 77.7068 242.24 78.2801C242.24 78.8401 242.24 79.3268 242.24 79.7401C242.24 80.1535 242.24 80.4468 242.24 80.6201C242.24 80.8601 242.24 81.1335 242.24 81.4401C242.24 81.7335 242.24 82.0201 242.24 82.3001C242.253 82.5801 242.26 82.8135 242.26 83.0001C242.26 83.2001 242.26 83.3135 242.26 83.3401H239.5C239.5 83.3135 239.5 83.2001 239.5 83.0001C239.513 82.8001 239.52 82.5535 239.52 82.2601C239.533 81.9668 239.54 81.6668 239.54 81.3601C239.553 81.0535 239.56 80.7801 239.56 80.5401C239.56 80.3668 239.56 80.0868 239.56 79.7001C239.56 79.3001 239.56 78.8268 239.56 78.2801C239.56 77.7335 239.56 77.1601 239.56 76.5601C239.56 75.9468 239.56 75.3335 239.56 74.7201C239.56 74.1068 239.56 73.5335 239.56 73.0001C239.56 72.4535 239.56 71.9868 239.56 71.6001C239.56 71.2135 239.56 70.9335 239.56 70.7601C239.56 70.4801 239.56 70.1601 239.56 69.8001C239.56 69.4268 239.547 69.1001 239.52 68.8201ZM252.9 79.7001V82.2601H240.88V79.7001H252.9ZM260.34 73.7401C260.58 73.7535 260.887 73.7735 261.26 73.8001C261.633 73.8135 262.02 73.8268 262.42 73.8401C262.833 73.8535 263.213 73.8601 263.56 73.8601C263.893 73.8601 264.307 73.8601 264.8 73.8601C265.293 73.8601 265.827 73.8601 266.4 73.8601C266.987 73.8601 267.587 73.8601 268.2 73.8601C268.827 73.8601 269.447 73.8601 270.06 73.8601C270.673 73.8601 271.253 73.8601 271.8 73.8601C272.347 73.8601 272.833 73.8601 273.26 73.8601C273.7 73.8601 274.047 73.8601 274.3 73.8601C274.767 73.8601 275.207 73.8468 275.62 73.8201C276.033 73.7801 276.373 73.7535 276.64 73.7401V76.8801C276.413 76.8668 276.073 76.8468 275.62 76.8201C275.167 76.7935 274.727 76.7801 274.3 76.7801C274.047 76.7801 273.7 76.7801 273.26 76.7801C272.82 76.7801 272.327 76.7801 271.78 76.7801C271.233 76.7801 270.653 76.7801 270.04 76.7801C269.44 76.7801 268.827 76.7801 268.2 76.7801C267.573 76.7801 266.967 76.7801 266.38 76.7801C265.807 76.7801 265.273 76.7801 264.78 76.7801C264.3 76.7801 263.893 76.7801 263.56 76.7801C262.987 76.7801 262.4 76.7935 261.8 76.8201C261.2 76.8335 260.713 76.8535 260.34 76.8801V73.7401ZM293.64 68.1201C293.827 68.3868 294.033 68.7001 294.26 69.0601C294.487 69.4201 294.7 69.7801 294.9 70.1401C295.113 70.5001 295.3 70.8335 295.46 71.1401L293.72 71.9201C293.533 71.4935 293.347 71.1135 293.16 70.7801C292.987 70.4468 292.807 70.1268 292.62 69.8201C292.433 69.5001 292.213 69.1668 291.96 68.8201L293.64 68.1201ZM296.26 67.0201C296.46 67.2868 296.673 67.5935 296.9 67.9401C297.14 68.2868 297.367 68.6401 297.58 69.0001C297.807 69.3468 297.993 69.6735 298.14 69.9801L296.46 70.8001C296.247 70.3735 296.04 70.0001 295.84 69.6801C295.653 69.3468 295.46 69.0335 295.26 68.7401C295.073 68.4335 294.853 68.1201 294.6 67.8001L296.26 67.0201ZM285.66 81.3801C285.66 81.1135 285.66 80.6935 285.66 80.1201C285.66 79.5335 285.66 78.8601 285.66 78.1001C285.66 77.3268 285.66 76.5268 285.66 75.7001C285.66 74.8601 285.66 74.0535 285.66 73.2801C285.66 72.4935 285.66 71.8001 285.66 71.2001C285.66 70.6001 285.66 70.1601 285.66 69.8801C285.66 69.5201 285.64 69.1135 285.6 68.6601C285.573 68.2068 285.527 67.8068 285.46 67.4601H288.58C288.54 67.8068 288.5 68.1935 288.46 68.6201C288.42 69.0468 288.4 69.4668 288.4 69.8801C288.4 70.2401 288.4 70.7401 288.4 71.3801C288.4 72.0201 288.4 72.7335 288.4 73.5201C288.4 74.2935 288.4 75.0868 288.4 75.9001C288.4 76.7135 288.4 77.4935 288.4 78.2401C288.4 78.9735 288.4 79.6201 288.4 80.1801C288.4 80.7268 288.4 81.1268 288.4 81.3801C288.4 81.5535 288.407 81.8135 288.42 82.1601C288.447 82.4935 288.473 82.8401 288.5 83.2001C288.54 83.5601 288.573 83.8801 288.6 84.1601H285.46C285.527 83.7735 285.573 83.3135 285.6 82.7801C285.64 82.2335 285.66 81.7668 285.66 81.3801ZM287.82 72.6401C288.487 72.8135 289.227 73.0401 290.04 73.3201C290.867 73.5868 291.7 73.8801 292.54 74.2001C293.38 74.5068 294.173 74.8135 294.92 75.1201C295.667 75.4135 296.28 75.6801 296.76 75.9201L295.64 78.7001C295.067 78.3935 294.44 78.0935 293.76 77.8001C293.08 77.5068 292.387 77.2201 291.68 76.9401C290.987 76.6468 290.307 76.3801 289.64 76.1401C288.973 75.9001 288.367 75.6935 287.82 75.5201V72.6401Z" fill="#82530C"/>
<g clip-path="url(#clip0_41_34)">
<path d="M18.3118 50.0391L44.4593 58.6172L61.5741 14.7734L43.0331 8.10156L18.3118 50.0391Z" fill="white"/>
<path d="M7.3772 9.05469V48.1328L43.0329 49.5625L42.0821 1.90625H15.4592L14.5083 9.05469H7.3772Z" fill="white"/>
<path d="M4.99947 9.57145V48.8163C4.99947 50.0088 5.9745 50.9803 7.17133 50.9803H42.0948C43.2916 50.9803 44.2666 50.0088 44.2666 48.8163V2.16405C44.2666 0.97153 43.2916 0 42.0948 0H14.6055L14.1849 0.419051C14.1849 0.419051 14.1828 0.421135 14.1807 0.42322L5.42212 9.14823C5.42212 9.14823 5.42003 9.15031 5.41794 9.1524L4.99738 9.57145H4.99947ZM7.89528 11.6104H14.4799C15.6767 11.6104 16.6518 10.6389 16.6518 9.44636V2.8854H41.3708V48.0928H7.89528V11.6104Z" fill="#A49783"/>
<path d="M4.99947 9.57145V48.8163C4.99947 50.0088 5.9745 50.9803 7.17133 50.9803H42.0948C43.2916 50.9803 44.2666 50.0088 44.2666 48.8163V2.16405C44.2666 0.97153 43.2916 0 42.0948 0H14.6055L14.1849 0.419051C14.1849 0.419051 14.1828 0.421135 14.1807 0.42322L5.42212 9.14823C5.42212 9.14823 5.42003 9.15031 5.41794 9.1524L4.99738 9.57145H4.99947ZM7.89528 11.6104H14.4799C15.6767 11.6104 16.6518 10.6389 16.6518 9.44636V2.8854H41.3708V48.0928H7.89528V11.6104Z" fill="#A49783"/>
<path d="M4.99947 9.57145V48.8163C4.99947 50.0088 5.9745 50.9803 7.17133 50.9803H42.0948C43.2916 50.9803 44.2666 50.0088 44.2666 48.8163V2.16405C44.2666 0.97153 43.2916 0 42.0948 0H14.6055L14.1849 0.419051C14.1849 0.419051 14.1828 0.421135 14.1807 0.42322L5.42212 9.14823C5.42212 9.14823 5.42003 9.15031 5.41794 9.1524L4.99738 9.57145H4.99947ZM7.89528 11.6104H14.4799C15.6767 11.6104 16.6518 10.6389 16.6518 9.44636V2.8854H41.3708V48.0928H7.89528V11.6104Z" fill="#A49783"/>
<path d="M4.99941 9.57145V48.8163C4.99941 50.0088 5.97444 50.9803 7.17127 50.9803H42.0947C43.2915 50.9803 44.2666 50.0088 44.2666 48.8163V2.16405C44.2666 0.97153 43.2915 0 42.0947 0H14.6054L14.1848 0.419051C14.1848 0.419051 14.1827 0.421135 14.1806 0.42322L5.42206 9.14823C5.42206 9.14823 5.41997 9.15031 5.41788 9.1524L4.99731 9.57145H4.99941ZM7.89522 11.6104H14.4799C15.6767 11.6104 16.6517 10.6389 16.6517 9.44636V2.8854H41.3708V48.0928H7.89522V11.6104Z" fill="white"/>
<path d="M4.99941 9.57145V48.8163C4.99941 50.0088 5.97444 50.9803 7.17127 50.9803H42.0947C43.2915 50.9803 44.2666 50.0088 44.2666 48.8163V2.16405C44.2666 0.97153 43.2915 0 42.0947 0H14.6054L14.1848 0.419051C14.1848 0.419051 14.1827 0.421135 14.1806 0.42322L5.42206 9.14823C5.42206 9.14823 5.41997 9.15031 5.41788 9.1524L4.99731 9.57145H4.99941ZM7.89522 11.6104H14.4799C15.6767 11.6104 16.6517 10.6389 16.6517 9.44636V2.8854H41.3708V48.0928H7.89522V11.6104Z" fill="#A49783"/>
<path d="M4.99941 9.57145V48.8163C4.99941 50.0088 5.97444 50.9803 7.17127 50.9803H42.0947C43.2915 50.9803 44.2666 50.0088 44.2666 48.8163V2.16405C44.2666 0.97153 43.2915 0 42.0947 0H14.6054L14.1848 0.419051C14.1848 0.419051 14.1827 0.421135 14.1806 0.42322L5.42206 9.14823C5.42206 9.14823 5.41997 9.15031 5.41788 9.1524L4.99731 9.57145H4.99941ZM7.89522 11.6104H14.4799C15.6767 11.6104 16.6517 10.6389 16.6517 9.44636V2.8854H41.3708V48.0928H7.89522V11.6104Z" fill="#A49783"/>
<path d="M38.2684 16.4721C38.2684 17.1351 37.7265 17.6751 37.0611 17.6751H12.204C11.5386 17.6751 10.9967 17.1351 10.9967 16.4721C10.9967 15.8091 11.5386 15.2692 12.204 15.2692H37.0611C37.7265 15.2692 38.2684 15.8091 38.2684 16.4721Z" fill="#A49783"/>
<path d="M12.204 22.0033H37.0611C37.7265 22.0033 38.2684 22.5433 38.2684 23.2062C38.2684 23.8692 37.7265 24.4092 37.0611 24.4092H12.204C11.5386 24.4092 10.9967 23.8692 10.9967 23.2062C10.9967 22.5433 11.5386 22.0033 12.204 22.0033Z" fill="#A49783"/>
<path d="M12.204 28.735H37.0611C37.7265 28.735 38.2684 29.275 38.2684 29.9379C38.2684 30.6009 37.7265 31.1409 37.0611 31.1409H12.204C11.5386 31.1409 10.9967 30.6009 10.9967 29.9379C10.9967 29.275 11.5386 28.735 12.204 28.735Z" fill="#A49783"/>
<path d="M61.5709 12.9654L45.4452 7.11743V10.1884L59.9012 15.4317L44.3843 57.9122L28.5034 52.1539H20.0356L44.0726 60.8706C45.1983 61.2792 46.4474 60.6975 46.8575 59.578L62.8703 15.7403C63.2804 14.6186 62.6966 13.374 61.573 12.9654H61.5709Z" fill="#A49783"/>
<path d="M12.204 35.4691H37.0611C37.7265 35.4691 38.2684 36.0091 38.2684 36.6721C38.2684 37.335 37.7265 37.875 37.0611 37.875H12.204C11.5386 37.875 10.9967 37.335 10.9967 36.6721C10.9967 36.0091 11.5386 35.4691 12.204 35.4691Z" fill="#A49783"/>
</g>
<defs>
<clipPath id="clip0_41_34">
<rect width="58" height="61" fill="white" transform="translate(5)"/>
</clipPath>
</defs>
</svg>
