<?xml version="1.0" encoding="UTF-8"?>
<svg id="_レイヤー_2" data-name="レイヤー 2" xmlns="http://www.w3.org/2000/svg" viewBox="0 0 272.1 243.56">
  <defs>
    <style>
      .cls-1 {
        fill: none;
        stroke: #82530c;
        stroke-linecap: round;
        stroke-linejoin: round;
        stroke-width: 14.44px;
      }

      .cls-2 {
        fill: #82530c;
      }
    </style>
  </defs>
  <g id="illustration">
    <g>
      <g>
        <polyline class="cls-1" points="264.88 66.63 248.53 98.18 216.11 83.65"/>
        <path class="cls-1" d="M26.74,86.15C42.19,39.34,86.82,6.05,138.67,7.25c54.34,1.26,99,39.99,109.87,90.92"/>
      </g>
      <g>
        <polyline class="cls-1" points="7.22 176.92 23.57 145.38 55.99 159.9"/>
        <path class="cls-1" d="M245.36,157.4c-15.46,46.82-60.09,80.1-111.93,78.9-54.34-1.26-99-39.99-109.87-90.92"/>
      </g>
      <g>
        <path class="cls-2" d="M96.38,195.42c-3.23-1.08-5.84-2.22-7.81-3.41-1.91-1.15-3.35-2.84-4.32-5.06-.52-1.18-.78-3.39-.77-6.61.03-13.31.1-21.54.2-24.67,0-.2-.05-.39-.18-.54l-1.08-1.33c-.09-.11-.17-.23-.23-.35l-1.65-3.26c-.1-.21-.16-.43-.17-.66-.18-2.66,1.51-5.25,2.88-7.29.19-.29.29-.62.29-.96l.07-30.59c0-.13-.01-.25-.05-.37,0-.03-.53-.92-1.57-2.7-1.77-3.01-.23-7.37,1.41-10.14.14-.23.21-.49.21-.76-.06-15.75-.07-25.66,0-29.72.04-2.5,2.03-4.15,4.58-4.52,3.13-.46,6.02-1.59,9.9-2.04,3-.36,6.95-1.27,10.59-1.28,3.72-.03,7.14-.51,11.51-.66,15.32-.55,30.65-.28,45.99.82,1.09.08,1.85.17,2.27.25,1.85.39,3.73.09,5.43.43,1.49.29,2.54.46,3.13.52,3.38.31,6.98,1.1,10.8,2.35,1.99.65,3.35,1.77,4.1,3.36.03.07.05.15.05.23v28.86c0,.67.21,1.32.6,1.87,2.53,3.54,3.07,7.06,1.64,10.57-.02.06-.05.11-.1.16l-1.49,1.74c-.45.52-.7,1.19-.7,1.88v28.91c0,.41.18.81.48,1.09,1.07.96,1.75,2.2,2.05,3.73.56,2.92.94,4.82-.54,7.5-.25.46-1,1.59-2.24,3.4-.11.17-.16.37-.13.57l.32,1.72s0,.07,0,.11l.23,27.01c0,.11-.01.22-.05.33-.72,2.52-2.01,4.4-3.87,5.62-.85.56-2.14,1.21-3.87,1.93-1.04.44-2.41.9-4.12,1.39-5.73,1.63-12.86,2.79-21.41,3.5-17.48,1.45-34.91,1.42-51.94-1.08-4.28-.63-7.07-1.16-8.33-1.59-.86-.29-1.45-.37-1.77-.24-.1.04-.21.04-.31,0M90.49,67.82c1.57.56,3.46.92,5.68,1.07,1.37.1,2.74.24,4.1.43,1.92.26,3.29.42,4.1.47,18.35,1.22,36.58,1.34,54.66.39,8.46-.44,14.5-.94,18.12-1.46,2.01-.29,4.09-.67,6.26-1.13.41-.09.52-.62.18-.87-.03-.03-.22-.06-.54-.09-3.41-.37-5.3-1.14-8.39-1.5-5.92-.7-10.17-1.11-12.75-1.22-3.19-.13-5.19-.24-5.99-.33-2.13-.24-4.12-.37-5.98-.38-7.96-.05-16.53-.04-25.7.04-5.68.05-11.3.99-16.65,1.1-1.83.05-3.8.23-5.9.56-4.52.71-7.7.95-11.22,2.49-.19.09-.18.36.02.43M88.67,72.63c-.25-.07-.5.13-.5.39,0,5.94.03,12.97.11,21.07,0,1.16.17,1.95.47,2.38.13.19.32.32.54.37,3.15.82,4.85,1.25,5.13,1.29,4.14.7,6.96,1.18,8.45,1.44,2.15.39,4.99.7,8.53.94,7.18.49,11.73.76,13.65.82,10.87.33,21.38.15,31.54-.51.33-.02.76-.11,1.29-.26.25-.07.5-.11.76-.12,9.61-.38,18.93-1.63,27.95-3.76.34-.08.58-.38.58-.72v-23.75c0-.58-.64-.93-1.13-.61l-1.05.68c-.13.09-.28.15-.44.17-3.67.59-5.91,1.19-8.85,1.31-4.75.21-11.71,1.24-17.07,1.46-17.13.7-34.02.64-50.66-.17-2.61-.13-4.93-.55-7.38-.57-3.75-.03-8.54-1.03-11.92-1.86M85.92,102.67c-.03.21.23,1.1.29,1.68.11,1.14.6,1.91,1.48,2.32,1.79.82,4.24.98,6.28,1.43,8.52,1.92,12.68,2.28,23.55,3.43,4.8.5,9.16.78,13.09.82,10.6.13,17.99.05,22.17-.21,9.05-.56,17.46-1.45,25.24-2.66,3.01-.47,6-1.24,8.99-2.3,2.26-.8,5.3-2.2,2.96-5.21-.15-.19-.37-.31-.6-.34-1.31-.15-2.27-.12-2.88.09-2.57.91-4.42,1.43-5.56,1.56-8.09.96-14.6,1.71-19.53,2.22-.13.01-.36,0-.64-.05-.39-.06-1.01-.06-1.84,0-9.2.71-14.96,1.22-22.81,1-7.78-.21-11.62-.02-17.69-.54-.05,0-2.15-.14-6.3-.41-3.96-.25-9.9-1.06-17.81-2.41-2.23-.38-3.83-.96-5.8-1.41-.87-.19-1.63-.05-2.28.43-.17.13-.29.32-.31.54M187.16,112.75c0-.37-.39-.6-.72-.43-.8.42-1.61.74-2.43.95-2.62.67-6.33,1.38-11.13,2.12-1.98.31-3.8.1-5.54.59-.18.05-.37.08-.55.09-3.59.21-5.98.37-7.16.45-4.82.38-9.15.29-13.48.65-6.73.55-12.78.07-21.27-.15-5.17-.13-9.81-.44-13.92-.94-6.22-.74-10.83-1.39-13.83-1.94-2.47-.45-5.01-1.2-7.62-2.26-.61-.25-1.28.2-1.28.86v27.39c0,.64.47,1.2,1.12,1.29,2.48.37,4.9,1.16,7.84,1.68,1.41.25,3.47.52,6.16.82,6.13.67,12.44,1.31,19.2,1.59,11.75.47,23.2.4,34.36-.23,1.67-.09,2.69-.19,3.07-.3.18-.05.37-.02.52.1.56.43,1.35-.07,1.93-.12,3.98-.33,8.35-.76,13.08-1.31,2.21-.26,3.97-.56,5.28-.9.47-.13,2.2-.57,5.19-1.34.69-.18,1.18-.8,1.18-1.52v-27.15M85.92,148.13v.1c-.08,1.41.78,2.7,2.11,3.18,5.52,2,10.17,2.56,17.07,3.72,2.07.35,4.02.27,6.12.6,1.54.24,3.07.41,4.58.51,12.05.81,24.68.94,37.9.39,1.97-.08,3.13-.15,3.46-.19,2.94-.43,5.34-.19,8.67-.64,8.96-1.22,14.09-1.85,20.82-3.97,1.99-.63,3.22-1.79,3.71-3.47.07-.23.05-.46-.05-.68-.44-.93-.86-1.55-1.28-1.87-.27-.21-.62-.23-.92-.08-2.55,1.33-5.72,1.61-8.65,2.3-1.66.39-4.28.8-7.86,1.24-.09.01-.2,0-.33-.03-.16-.05-.29-.06-.37-.05-6.54.64-11.02,1.03-13.45,1.16-2.46.13-4,.21-4.64.24-12.44.62-26.35.39-41.72-.7-6.89-.49-14.47-1.68-22.74-3.57-1.2-.27-2.35.6-2.41,1.83M88.73,177.98l7.13,1.99c.11.03.23.04.35.03.56-.04,1.16,0,1.79.1,7.6,1.24,13.26,2.02,17,2.32,9.1.72,17.82.96,26.15.69,6.68-.21,10.46-.35,11.34-.42,3.47-.26,5.71-.62,9.07-.68,3.1-.07,8.41-.77,15.92-2.11.24-.05,1.17-.28,2.79-.7,2.16-.56,4.26-.53,6.47-1.43.27-.11.44-.37.44-.66v-19.36c0-.29-.27-.51-.56-.44-2.64.61-6.14,1.29-10.5,2.05-2.36.41-5.63.92-9.81,1.52-4.84.7-8.72.65-13.75.98-6.26.41-13.37.53-21.34.39-5.98-.1-11.32-.39-16-.87-5.62-.58-10.92-1.23-15.91-1.96-3.71-.54-7.15-1.07-10.45-2.41-.31-.13-.64.1-.64.43v19.91c0,.31.21.58.5.66M88.63,183.77l.19,1.16c.16.96.74,1.8,1.57,2.29,3.15,1.85,6.04,3.03,8.68,3.54,6.28,1.22,12.5,2.11,18.68,2.68,3.63.33,8.39.52,14.27.58,6.81.07,11.57.07,14.28,0,1.83-.05,6.3-.38,13.41-.99.24-.02.48,0,.7.06.35.09.57.13.66.09,1.84-.59,4.44-.49,6.43-.89,1.71-.34,2.78-.56,3.19-.68.13-.04.28-.05.42-.01.03,0,.05,0,.05,0,.24.02.48,0,.72-.04l5.57-1.08s.08-.01.11-.03c4.16-1.72,9.14-1.38,10.22-7.37.07-.37-.29-.68-.65-.57-6.02,1.89-12.13,3.25-18.43,3.92-3.66.39-6.2.66-7.63.83-.1.01-.29-.05-.55-.18-.19-.09-.41-.14-.62-.13-3.16.15-6.25.86-9.36.95-9.15.27-18.65.31-28.48.1-3.2-.07-7.6-.66-10.62-.86-2.92-.2-7.79-.85-14.61-1.95-2.84-.46-5.22-1.18-7.15-2.17-.53-.27-1.15.18-1.05.77h0Z"/>
        <path class="cls-2" d="M156.45,89.07c.01,4.01-3.22,7.27-7.23,7.28l-22.5.08c-4.01.01-7.27-3.23-7.28-7.23v-.78c-.01-4.01,3.22-7.27,7.23-7.28l22.5-.08c4.01-.01,7.27,3.23,7.28,7.23v.78M151.86,88.8c0-1.49-1.22-2.7-2.71-2.7l-22.33.04c-1.5,0-2.7,1.22-2.7,2.71v.13c0,1.49,1.22,2.7,2.71,2.7l22.33-.04c1.5,0,2.7-1.22,2.7-2.71v-.13h0Z"/>
      </g>
    </g>
  </g>
</svg>