<svg width="42" height="235" viewBox="0 0 42 235" fill="none" xmlns="http://www.w3.org/2000/svg">
<path d="M19.905 220.615C19.5783 221.268 19.275 221.933 18.995 222.61C18.715 223.263 18.435 223.928 18.155 224.605C17.875 225.258 17.6183 225.97 17.385 226.74C17.1516 227.51 17.035 228.257 17.035 228.98C17.035 229.47 17.14 229.913 17.35 230.31C17.5833 230.683 17.805 231.022 18.015 231.325C18.2483 231.628 18.365 231.897 18.365 232.13C18.365 232.783 18.1316 233.308 17.665 233.705C17.2216 234.078 16.685 234.265 16.055 234.265C15.5883 234.265 15.1333 234.242 14.69 234.195C14.2466 234.125 13.815 233.973 13.395 233.74C12.0183 232.97 10.98 231.99 10.28 230.8C9.60331 229.587 9.12498 228.268 8.84498 226.845C8.58831 225.398 8.41331 223.963 8.31998 222.54C8.27331 221.56 8.23831 220.58 8.21498 219.6C8.19164 218.597 8.15664 217.605 8.10998 216.625C8.08664 215.692 7.93498 214.782 7.65497 213.895C7.37498 213.008 6.81498 212.308 5.97498 211.795C6.23164 211.702 6.48831 211.643 6.74498 211.62C7.00164 211.597 7.28164 211.585 7.58498 211.585C9.21831 211.585 10.5833 212.005 11.68 212.845C12.8 213.685 13.36 214.98 13.36 216.73C13.36 217.197 13.3133 217.675 13.22 218.165C13.1266 218.655 13.0216 219.133 12.905 219.6C12.6716 220.44 12.5083 221.292 12.415 222.155C12.3216 223.018 12.275 223.893 12.275 224.78C12.275 224.99 12.31 225.34 12.38 225.83C12.45 226.32 12.5666 226.775 12.73 227.195C12.8933 227.615 13.115 227.825 13.395 227.825C13.4416 227.825 13.5233 227.79 13.64 227.72C13.7566 227.65 13.8266 227.603 13.85 227.58C14.0366 227.417 14.2 227.23 14.34 227.02C14.5033 226.81 14.6666 226.612 14.83 226.425C15.25 225.818 15.74 225.153 16.3 224.43C16.86 223.707 17.4433 222.995 18.05 222.295C18.6566 221.595 19.2283 221 19.765 220.51L19.905 220.615ZM35.795 223.94C35.795 224.873 35.55 225.713 35.06 226.46C34.57 227.183 33.8116 227.545 32.785 227.545C32.1083 227.545 31.5483 227.323 31.105 226.88C30.6616 226.413 30.3933 225.865 30.3 225.235C30.2066 224.675 30.1016 224.138 29.985 223.625C29.8916 223.088 29.7283 222.563 29.495 222.05C28.9816 220.79 28.165 219.938 27.045 219.495C25.925 219.052 24.735 218.83 23.475 218.83C23.2183 218.83 22.95 218.853 22.67 218.9C22.4133 218.947 22.145 218.993 21.865 219.04L21.76 218.795C22.2033 218.375 22.74 218.037 23.37 217.78C24.0233 217.5 24.7 217.302 25.4 217.185C26.1 217.045 26.73 216.975 27.29 216.975C28.7366 216.975 30.1016 217.22 31.385 217.71C32.6916 218.2 33.7533 218.958 34.57 219.985C35.3866 221.012 35.795 222.33 35.795 223.94Z" fill="white"/>
<path d="M24.07 174.668V167.906H21.382V174.668H24.07ZM32.05 167.906H28.858V174.668H29.908C30.496 174.668 30.944 174.486 31.252 174.122C31.56 173.73 31.77 173.254 31.882 172.694C31.994 172.134 32.05 171.588 32.05 171.056V167.906ZM14.956 158.876C14.956 160.024 14.76 160.906 14.368 161.522C13.976 162.11 13.444 162.544 12.772 162.824C12.436 162.964 12.072 163.076 11.68 163.16C11.316 163.216 10.924 163.258 10.504 163.286C9.74796 163.342 8.93596 163.342 8.06796 163.286L7.26996 169.292H14.662C14.606 170.384 14.508 171.672 14.368 173.156C14.228 174.612 14.032 176.124 13.78 177.692C13.556 179.26 13.262 180.73 12.898 182.102C12.534 183.474 12.086 184.622 11.554 185.546C11.022 186.47 10.364 187.212 9.57996 187.772C8.79596 188.332 7.82996 188.612 6.68196 188.612C6.28996 188.612 5.75796 188.416 5.08596 188.024C4.44196 187.632 3.79796 187.17 3.15396 186.638C2.62196 186.162 2.11796 185.658 1.64196 185.126C1.16596 184.622 0.829958 184.188 0.633958 183.824C0.465958 183.572 0.381958 183.362 0.381958 183.194C0.381958 183.026 0.493958 182.942 0.717958 182.942C0.773958 182.942 0.871958 182.984 1.01196 183.068C1.17996 183.124 1.36196 183.208 1.55796 183.32C1.72596 183.404 1.92196 183.502 2.14596 183.614C2.36996 183.726 2.60796 183.838 2.85996 183.95C3.25196 184.118 3.65796 184.258 4.07796 184.37C4.52596 184.482 4.94596 184.538 5.33796 184.538C6.00996 184.538 6.58396 184.174 7.05996 183.446C7.53596 182.718 7.91396 181.794 8.19396 180.674C8.50196 179.554 8.72596 178.378 8.86596 177.146C9.03396 175.886 9.14596 174.738 9.20196 173.702C9.28596 172.638 9.34196 171.826 9.36996 171.266L2.06196 171.308L3.32196 161.48H8.61396C9.14596 161.48 9.50996 161.242 9.70596 160.766C9.90196 160.262 9.99996 159.772 9.99996 159.296V154.676H1.59996V152.66H14.956V158.876ZM40.45 160.724C40.45 161.256 40.24 161.69 39.82 162.026C39.4 162.362 38.924 162.53 38.392 162.53C37.132 162.53 36.04 162.236 35.116 161.648C34.22 161.032 33.366 160.332 32.554 159.548C31.994 160.08 31.448 160.5 30.916 160.808C30.384 161.116 29.74 161.382 28.984 161.606V166.058H37.09V170.468C37.09 171.952 36.908 173.114 36.544 173.954C36.208 174.766 35.69 175.368 34.99 175.76C34.318 176.124 33.492 176.362 32.512 176.474C31.56 176.558 30.468 176.6 29.236 176.6H28.942V182.648C29.726 182.564 30.496 182.466 31.252 182.354C32.008 182.242 32.778 182.116 33.562 181.976C33.03 181.556 32.484 181.136 31.924 180.716C31.364 180.296 30.804 179.862 30.244 179.414L34.612 176.978C35.116 177.454 35.69 178.084 36.334 178.868C36.978 179.624 37.594 180.45 38.182 181.346C38.77 182.242 39.246 183.124 39.61 183.992C40.002 184.86 40.198 185.644 40.198 186.344C40.198 187.212 39.974 187.898 39.526 188.402C39.106 188.906 38.42 189.158 37.468 189.158C36.936 189.158 36.39 188.976 35.83 188.612C35.298 188.248 35.032 187.8 35.032 187.268C35.032 186.064 35.662 185.322 36.922 185.042L34.822 183.068C34.318 183.376 33.8 183.684 33.268 183.992C32.736 184.3 32.176 184.566 31.588 184.79C30.496 185.154 29.376 185.476 28.228 185.756C27.08 186.036 25.946 186.274 24.826 186.47C23.398 186.722 21.956 186.946 20.5 187.142C19.044 187.366 17.56 187.52 16.048 187.604L14.242 183.278C15.894 183.222 17.532 183.194 19.156 183.194C20.78 183.166 22.39 183.096 23.986 182.984V176.6C22.782 176.6 21.578 176.6 20.374 176.6C19.17 176.572 17.938 176.558 16.678 176.558V166.058H23.986V162.32C22.866 162.432 21.732 162.53 20.584 162.614C19.464 162.698 18.302 162.754 17.098 162.782L15.922 159.59C16.09 159.562 16.216 159.548 16.3 159.548C16.412 159.548 16.51 159.548 16.594 159.548C16.678 159.548 16.748 159.548 16.804 159.548C16.888 159.52 16.972 159.506 17.056 159.506C17.196 159.45 17.322 159.394 17.434 159.338C17.574 159.282 17.728 159.184 17.896 159.044C18.26 158.736 18.736 158.162 19.324 157.322C19.912 156.454 20.528 155.488 21.172 154.424C21.816 153.36 22.404 152.352 22.936 151.4C23.468 150.42 23.86 149.664 24.112 149.132C24.756 149.272 25.372 149.426 25.96 149.594C26.548 149.762 27.122 149.93 27.682 150.098C27.934 150.182 28.186 150.252 28.438 150.308C28.718 150.364 28.956 150.448 29.152 150.56C29.236 150.588 29.306 150.616 29.362 150.644C29.446 150.672 29.516 150.714 29.572 150.77C29.684 150.882 29.74 151.022 29.74 151.19C29.74 151.302 29.516 151.61 29.068 152.114C28.62 152.618 28.06 153.22 27.388 153.92C26.716 154.62 26.002 155.348 25.246 156.104C24.518 156.832 23.846 157.504 23.23 158.12C22.642 158.708 22.222 159.128 21.97 159.38C22.754 159.352 23.524 159.324 24.28 159.296C25.064 159.268 25.834 159.212 26.59 159.128C27.402 159.044 28.186 158.932 28.942 158.792C29.726 158.624 30.496 158.414 31.252 158.162C30.86 157.742 30.468 157.308 30.076 156.86C29.712 156.412 29.348 155.95 28.984 155.474L34.024 152.954C34.444 154.158 34.906 155.348 35.41 156.524C35.942 157.672 36.502 158.778 37.09 159.842C37.23 159.562 37.454 159.352 37.762 159.212C38.07 159.044 38.392 158.96 38.728 158.96C39.204 158.96 39.61 159.156 39.946 159.548C40.282 159.94 40.45 160.332 40.45 160.724Z" fill="white"/>
<path d="M33.555 112.32C33.555 112.903 33.3567 113.37 32.96 113.72C32.5867 114.047 32.1083 114.21 31.525 114.21C31.3383 114.21 31.14 114.175 30.93 114.105C30.5567 114.012 30.1717 113.953 29.775 113.93C29.3783 113.883 28.9817 113.86 28.585 113.86C27.9317 113.86 27.2667 113.918 26.59 114.035C25.9133 114.128 25.2717 114.327 24.665 114.63C23.9417 114.98 23.3233 115.528 22.81 116.275C22.2967 116.998 21.865 117.827 21.515 118.76C21.1883 119.693 20.9433 120.627 20.78 121.56C20.6167 122.47 20.535 123.298 20.535 124.045C20.535 125.795 20.7567 127.137 21.2 128.07C21.6667 129.003 22.4017 129.657 23.405 130.03C24.4317 130.403 25.7617 130.637 27.395 130.73C28.165 130.777 28.8767 130.975 29.53 131.325C30.1833 131.652 30.6733 132.188 31 132.935C31.0933 133.145 31.14 133.367 31.14 133.6C31.1633 133.81 31.175 134.02 31.175 134.23C31.175 134.837 30.9533 135.292 30.51 135.595C30.0667 135.922 29.5417 136.132 28.935 136.225C28.3283 136.342 27.7917 136.4 27.325 136.4C24.245 136.4 21.585 135.385 19.345 133.355C18.3417 132.468 17.63 131.5 17.21 130.45C16.79 129.4 16.58 128.222 16.58 126.915C16.58 124.418 17.0817 122.108 18.085 119.985C19.1117 117.838 20.4533 115.878 22.11 114.105C20.5467 114.478 19.03 115.027 17.56 115.75C16.1133 116.45 14.7017 117.208 13.325 118.025C13.0217 118.188 12.7067 118.375 12.38 118.585C12.0767 118.772 11.75 118.865 11.4 118.865C10.63 118.865 9.90666 118.678 9.22999 118.305C8.57666 117.908 8.03999 117.383 7.61999 116.73C7.19999 116.077 6.98999 115.353 6.98999 114.56C6.98999 114.21 7.08332 113.813 7.26999 113.37C7.47999 112.903 7.74832 112.588 8.07499 112.425C8.12166 112.542 8.17999 112.693 8.24999 112.88C8.34332 113.043 8.43666 113.183 8.52999 113.3C8.78666 113.533 9.13666 113.673 9.57999 113.72C10.0233 113.743 10.42 113.755 10.77 113.755C11.54 113.755 12.4733 113.65 13.57 113.44C14.6667 113.23 15.81 112.973 17 112.67C18.19 112.343 19.3217 112.017 20.395 111.69C21.4917 111.34 22.425 111.037 23.195 110.78C23.8017 110.593 24.3733 110.36 24.91 110.08C25.4467 109.8 25.995 109.555 26.555 109.345C27.045 109.345 27.675 109.368 28.445 109.415C29.2383 109.462 30.02 109.578 30.79 109.765C31.5833 109.952 32.2367 110.255 32.75 110.675C33.2867 111.072 33.555 111.62 33.555 112.32Z" fill="white"/>
<path d="M28.375 84.3C28.375 85.1867 28.1649 85.945 27.7449 86.575C27.3249 87.205 26.6133 87.52 25.61 87.52C24.77 87.52 24.035 87.2167 23.405 86.61C22.775 86.0267 22.32 85.3733 22.04 84.65C21.3166 82.76 20.4183 81.08 19.345 79.61C18.295 78.1167 16.9883 76.7283 15.425 75.445C14.935 75.025 14.4566 74.64 13.99 74.29C13.5466 73.9167 13.1733 73.4966 12.87 73.03C12.59 72.5633 12.45 71.9683 12.45 71.245C12.45 70.6383 12.5783 70.1133 12.835 69.67C13.0916 69.2266 13.4183 68.795 13.815 68.375C14.1183 68.0483 14.5383 67.605 15.075 67.045C15.635 66.485 16.2183 65.855 16.825 65.155C17.455 64.455 18.0383 63.755 18.575 63.055C19.135 62.3317 19.59 61.655 19.94 61.025C20.3133 60.395 20.5 59.87 20.5 59.45C20.5 58.8666 20.3133 58.365 19.94 57.945C19.59 57.5017 19.1933 57.1283 18.75 56.825C18.8666 56.7316 19.0183 56.6617 19.205 56.615C19.415 56.5683 19.59 56.545 19.73 56.545C20.5466 56.545 21.3516 56.6267 22.145 56.79C22.9616 56.9533 23.7316 57.2566 24.455 57.7C24.945 58.0033 25.3883 58.4467 25.785 59.03C26.205 59.6133 26.415 60.2083 26.415 60.815C26.415 61.445 26.17 61.97 25.68 62.39C25.2133 62.81 24.7583 63.195 24.315 63.545C23.4283 64.245 22.53 64.9333 21.62 65.61C20.7333 66.2633 19.8466 66.9516 18.96 67.675C18.5166 68.025 18.0616 68.375 17.595 68.725C17.1283 69.0516 16.6733 69.4133 16.23 69.81C16.0666 69.9733 15.9033 70.1483 15.74 70.335C15.6 70.5217 15.53 70.7433 15.53 71C15.53 71.2333 15.5883 71.455 15.705 71.665C15.845 71.875 15.9966 72.0616 16.16 72.225C16.44 72.4583 16.7316 72.68 17.035 72.89C17.3383 73.0767 17.6416 73.275 17.945 73.485C18.5516 73.905 19.1583 74.3367 19.765 74.78C20.395 75.2 21.0016 75.6433 21.585 76.11C22.425 76.7167 23.2533 77.37 24.07 78.07C24.8866 78.7467 25.6216 79.4933 26.275 80.31C26.7183 80.87 27.1733 81.4883 27.64 82.165C28.13 82.8183 28.375 83.53 28.375 84.3Z" fill="white"/>
<path d="M7.60601 23.618V19.46H5.75801V23.618H7.60601ZM7.60601 17.738V13.622H5.75801V17.738H7.60601ZM13.948 13.622H12.436V17.276C12.828 17.276 13.164 17.346 13.444 17.486C13.752 17.598 13.906 17.906 13.906 18.41C13.906 18.83 13.752 19.11 13.444 19.25C13.136 19.39 12.8 19.474 12.436 19.502V23.534C12.968 23.422 13.346 23.128 13.57 22.652C13.822 22.176 13.948 21.658 13.948 21.098V13.622ZM24.574 5.76801C25.134 6.80401 25.68 7.81201 26.212 8.79201C26.772 9.74401 27.36 10.668 27.976 11.564C28.536 10.668 29.096 9.74401 29.656 8.79201C30.216 7.81201 30.664 6.80401 31 5.76801H24.574ZM39.862 35.21C39.862 35.966 39.582 36.526 39.022 36.89C38.462 37.254 37.832 37.436 37.132 37.436H17.182V35.336H25.456V28.952H20.668V27.02H25.456V21.98H30.496V27.02H32.218C32.302 26.46 32.568 25.942 33.016 25.466C33.492 24.99 34.038 24.752 34.654 24.752C35.298 24.752 35.858 24.976 36.334 25.424C36.838 25.844 37.09 26.348 37.09 26.936C37.09 27.496 36.894 27.972 36.502 28.364C36.11 28.756 35.606 28.952 34.99 28.952H30.496V35.336H34.822C34.85 34.72 35.13 34.174 35.662 33.698C36.194 33.222 36.782 32.984 37.426 32.984C38.042 32.984 38.602 33.208 39.106 33.656C39.61 34.076 39.862 34.594 39.862 35.21ZM41.374 20.678C41.374 21.322 41.108 21.826 40.576 22.19C40.072 22.526 39.526 22.694 38.938 22.694C36.838 22.694 34.85 22.19 32.974 21.182C31.126 20.146 29.46 18.97 27.976 17.654C26.604 18.718 25.106 19.614 23.482 20.342C21.886 21.07 20.22 21.63 18.484 22.022C18.26 23.03 17.826 23.772 17.182 24.248C16.566 24.696 15.838 24.99 14.998 25.13C14.158 25.27 13.304 25.354 12.436 25.382V28.826H14.956C14.984 28.238 15.222 27.734 15.67 27.314C16.146 26.894 16.692 26.684 17.308 26.684C17.896 26.684 18.428 26.894 18.904 27.314C19.38 27.706 19.618 28.182 19.618 28.742C19.618 29.358 19.408 29.862 18.988 30.254C18.568 30.618 18.036 30.8 17.392 30.8H12.436V38.486H7.60601V30.8H0.0880127V28.826H7.60601V25.382H1.26401V11.816H7.60601V8.20401H1.05401V6.14601H7.60601V0.644012H12.436V6.14601H14.158C14.214 5.55801 14.466 5.05401 14.914 4.63401C15.39 4.21401 15.936 4.00401 16.552 4.00401C17.14 4.00401 17.658 4.22801 18.106 4.67601C18.554 5.09601 18.778 5.58601 18.778 6.14601C18.778 6.67801 18.568 7.15401 18.148 7.57401C17.756 7.99401 17.252 8.20401 16.636 8.20401H12.436V11.816H18.61V20.384C19.842 19.656 21.004 18.844 22.096 17.948C23.188 17.024 24.21 16.044 25.162 15.008C24.266 14.056 23.384 13.076 22.516 12.068C21.676 11.032 20.878 9.96801 20.122 8.87601L24.28 5.76801H19.618V3.75201H37.468C37.44 4.73201 37.23 5.76801 36.838 6.86001C36.446 7.92401 35.956 8.91801 35.368 9.84201C34.668 10.934 33.982 11.886 33.31 12.698C32.638 13.51 31.826 14.308 30.874 15.092C31.714 16.044 32.666 16.996 33.73 17.948C34.822 18.9 35.914 19.712 37.006 20.384C37.146 19.824 37.412 19.376 37.804 19.04C38.196 18.704 38.7 18.536 39.316 18.536C39.932 18.536 40.422 18.76 40.786 19.208C41.178 19.628 41.374 20.118 41.374 20.678Z" fill="white"/>
</svg>
