<?xml version="1.0" encoding="UTF-8"?>
<svg id="Layer_1" data-name="Layer 1" xmlns="http://www.w3.org/2000/svg" viewBox="0 0 39.69 39.69">
  <path d="M11.44,19.56l8.83,9.25c.09.14.19.28.24.38l1.57,4.6c.09.24.24.43.47.52.19.14.43.19.66.19.28-.05.57-.14.81-.28.33-.24.62-.62.76-1.14.57-2.09.62-3.94.24-5.6-.33-1.61-1.04-3.08-1.85-4.32-.33-.43-.19-1.04.24-1.33.19-.14.38-.19.57-.19h11.2c.33,0,.62-.09.81-.33h0c.19-.19.28-.47.28-.76v-.47c0-.28-.09-.57-.28-.76h0c-.24-.19-.47-.33-.81-.33h-.9v-1.95h.9c.28,0,.47-.09.62-.24.19-.19.28-.52.28-.85v-.47c0-.19-.19-.38-.47-.57-.38-.33-.9-.52-1.33-.52h-.9v-1.95h.9c.28,0,.57-.14.76-.33.19-.19.33-.47.33-.76v-.47c0-1-1.19-1.09-2.09-1.09h-1.99v-1.95h.9c.33,0,.57-.14.81-.33h0c.19-.19.28-.47.28-.76v-.47c0-.28-.09-.57-.28-.76-.24-.19-.47-.33-.81-.33h-12.43l-8.3,3.8v10.58ZM10.11,22.88H2.43c-.52,0-1-.43-1-1V6.51c0-.52.47-1,1-1h7.69c.52,0,.95.47.95,1v.47l8.02-3.65c.14-.05.33-.09.47-.09h12.62c.85,0,1.61.33,2.18.9.52.52.9,1.28.9,2.14v.47c0,.43-.1.85-.28,1.23,1.23.28,2.33,1,2.33,2.89v.47c0,.71-.24,1.38-.66,1.9l.14.09c.71.52,1.23,1.28,1.23,2.14v.47c0,.76-.24,1.47-.66,1.99.57.57.9,1.33.9,2.14v.47c0,.85-.38,1.61-.9,2.14h0c-.57.57-1.33.9-2.18.9h-9.49c.52,1.09,1,2.23,1.28,3.51.38,1.9.38,4.08-.33,6.55-.28.95-.85,1.71-1.52,2.14-.52.38-1.19.62-1.76.66-.66,0-1.28-.1-1.8-.43-.57-.33-1.04-.9-1.33-1.61l-1.52-4.37-7.64-8.07c-.05.52-.47.9-.95.9h0ZM3.42,20.93h5.69V7.5H3.42v13.43Z"/>
</svg>