<?xml version="1.0" encoding="UTF-8"?>
<svg id="Layer_1" data-name="Layer 1" xmlns="http://www.w3.org/2000/svg" viewBox="0 0 39.69 39.69">
  <path d="M19.82,3.19h.28c.24,0,.43,0,.62.05v-.05c0-.24-.09-.47-.24-.62v-.05c-.19-.14-.38-.24-.66-.24-.24,0-.43.09-.62.28-.14.14-.24.38-.24.62v.05c.19-.05.38-.05.62-.05h.24ZM22.66,3.57c2.37.62,4.46,1.99,6.12,3.84,2.28,2.61,3.65,6.17,3.7,10.06.05,9.02,1.28,10.49,2.56,12.01.71.85,1.47,1.76,2.04,3.75.19.52-.14,1.04-.66,1.19-.09.05-.14.05-.24.05h-11.48c0,1.38-.52,2.56-1.42,3.46-.85.9-2.09,1.42-3.46,1.42s-2.56-.52-3.42-1.42h0c-.9-.9-1.47-2.09-1.47-3.46H3.49c-.52,0-.95-.43-.95-.95,0-.14,0-.28.05-.38.57-1.9,1.33-2.8,2.04-3.65,1.28-1.52,2.52-2.99,2.56-12.01.05-3.89,1.42-7.45,3.7-10.06,1.66-1.85,3.75-3.23,6.12-3.84,0-.14-.05-.24-.05-.38,0-.81.33-1.52.85-2.04.52-.47,1.23-.81,1.99-.81.81,0,1.52.33,2.04.81h0c.52.52.85,1.23.85,2.04,0,.14-.05.24-.05.38h0ZM22.76,34.46h-5.84c0,.81.33,1.57.85,2.09h0c.52.52,1.23.85,2.04.85.85,0,1.57-.33,2.09-.85.52-.52.85-1.28.85-2.09h0ZM19.82,5.13h-.09c-2.89.05-5.46,1.42-7.36,3.56-1.99,2.28-3.18,5.36-3.23,8.83-.05,9.68-1.52,11.44-2.99,13.19-.43.52-.85,1.04-1.23,1.8h29.85c-.38-.76-.81-1.28-1.23-1.8-1.47-1.76-2.94-3.51-2.99-13.19-.05-3.46-1.23-6.55-3.23-8.83-1.9-2.14-4.46-3.51-7.36-3.56h-.14Z"/>
</svg>