<?xml version="1.0" encoding="UTF-8"?>
<svg id="Layer_1" data-name="Layer 1" xmlns="http://www.w3.org/2000/svg" viewBox="0 0 39.69 39.69">
  <path d="M9.14,18.92H3.4v13.48h5.74v-13.48ZM11.09,17.87l7.64-8.02,1.52-4.41c.28-.71.71-1.28,1.28-1.61.57-.28,1.19-.43,1.8-.38.62,0,1.23.24,1.8.62.66.47,1.23,1.19,1.52,2.18.71,2.42.71,4.6.28,6.5-.24,1.28-.71,2.47-1.23,3.51h9.49c.85,0,1.61.33,2.18.9h0c.52.52.85,1.28.85,2.14v.47c0,.81-.33,1.57-.85,2.14.43.52.66,1.23.66,1.99v.47c0,.85-.52,1.61-1.23,2.14l-.14.09c.43.52.66,1.19.66,1.9v.47c0,1.9-1.09,2.61-2.33,2.89.14.38.24.81.24,1.23v.47c0,.85-.33,1.61-.9,2.14-.52.57-1.28.9-2.14.9h-12.62c-.19,0-.33-.05-.47-.09l-8.02-3.65v.47c0,.57-.43,1-.95,1H2.45c-.57,0-1-.43-1-1v-15.37c0-.57.43-1,1-1h7.69c.47,0,.9.38.95.9h0ZM20.29,11.04l-8.83,9.25v10.63l8.3,3.75h12.43c.28,0,.57-.14.76-.33.24-.19.33-.47.33-.76v-.47c0-.28-.09-.57-.33-.76h0c-.19-.19-.47-.33-.76-.33h-.9v-1.95h1.99c.9,0,2.09-.09,2.09-1.09v-.47c0-.28-.14-.57-.33-.76-.19-.19-.47-.33-.76-.33h-.95v-1.95h.95c.43,0,.95-.19,1.33-.47.24-.24.43-.43.43-.62v-.47c0-.33-.09-.66-.24-.85-.14-.14-.33-.24-.62-.24h-.9v-1.95h.9c.33,0,.57-.14.76-.33h.05c.19-.19.28-.47.28-.76v-.47c0-.28-.09-.57-.33-.76h0c-.19-.19-.43-.33-.76-.33h-11.2c-.19,0-.38-.05-.57-.14-.43-.33-.57-.9-.28-1.38.85-1.23,1.57-2.7,1.9-4.32.33-1.66.33-3.51-.24-5.6-.19-.52-.43-.9-.76-1.14-.28-.14-.52-.24-.81-.24-.24-.05-.47,0-.71.14-.19.1-.33.28-.43.57l-1.61,4.56c0,.14-.1.24-.19.38h0Z"/>
</svg>