<?xml version="1.0" encoding="UTF-8"?>
<svg id="_レイヤー_2" data-name="レイヤー 2" xmlns="http://www.w3.org/2000/svg" viewBox="0 0 272.1 243.56">
  <defs>
    <style>
      .cls-1 {
        fill: none;
        stroke-linecap: round;
        stroke-linejoin: round;
        stroke-width: 14.44px;
      }

      .cls-1, .cls-2 {
        stroke: #82530c;
      }

      .cls-2 {
        fill: #82530c;
        stroke-miterlimit: 10;
        stroke-width: 4px;
      }
    </style>
  </defs>
  <g id="illustration">
    <g>
      <g>
        <polyline class="cls-1" points="264.88 66.63 248.53 98.18 216.11 83.65"/>
        <path class="cls-1" d="M26.74,86.15C42.19,39.34,86.82,6.05,138.67,7.25c54.34,1.26,99,39.99,109.87,90.92"/>
      </g>
      <g>
        <polyline class="cls-1" points="7.22 176.92 23.57 145.38 55.99 159.9"/>
        <path class="cls-1" d="M245.36,157.4c-15.46,46.82-60.09,80.1-111.93,78.9-54.34-1.26-99-39.99-109.87-90.92"/>
      </g>
      <g>
        <path class="cls-2" d="M94.77,193.27c-3.36-1.12-6.06-2.3-8.11-3.55-1.98-1.19-3.48-2.95-4.49-5.26-.55-1.23-.81-3.52-.8-6.87.03-13.83.1-22.38.21-25.63,0-.21-.06-.4-.19-.56l-1.12-1.39c-.1-.12-.18-.23-.24-.37l-1.72-3.39c-.1-.21-.17-.45-.18-.68-.19-2.76,1.57-5.45,2.99-7.58.2-.3.3-.64.3-1l.07-31.78c0-.13-.01-.26-.05-.38,0-.03-.55-.96-1.64-2.8-1.84-3.13-.23-7.66,1.46-10.54.14-.24.22-.51.21-.79-.06-16.37-.07-26.66,0-30.88.04-2.59,2.11-4.31,4.75-4.7,3.25-.48,6.26-1.65,10.29-2.12,3.12-.37,7.22-1.32,11-1.33,3.86-.03,7.42-.53,11.96-.69,15.92-.57,31.84-.29,47.78.85,1.13.08,1.92.17,2.36.26,1.92.4,3.88.1,5.64.44,1.55.3,2.64.48,3.26.55,3.51.32,7.25,1.14,11.22,2.44,2.06.68,3.48,1.84,4.26,3.49.03.08.06.16.06.24v29.99c0,.7.21,1.37.62,1.94,2.63,3.68,3.19,7.33,1.7,10.98-.02.06-.06.12-.1.17l-1.55,1.81c-.47.55-.72,1.24-.72,1.95v30.04c0,.43.19.84.5,1.13,1.11,1,1.82,2.29,2.13,3.87.59,3.03.97,5.01-.56,7.79-.26.48-1.04,1.66-2.33,3.53-.12.17-.17.39-.13.59l.33,1.79s0,.08,0,.11l.23,28.06c0,.12-.01.23-.05.34-.75,2.62-2.08,4.57-4.02,5.84-.88.59-2.22,1.26-4.02,2.01-1.08.46-2.5.94-4.28,1.44-5.95,1.69-13.37,2.9-22.25,3.64-18.17,1.5-36.27,1.48-53.97-1.12-4.45-.66-7.34-1.21-8.66-1.65-.9-.3-1.51-.38-1.84-.25-.1.04-.21.04-.32,0M88.64,60.68c1.63.58,3.59.95,5.91,1.11,1.43.1,2.85.25,4.26.44,1.99.27,3.42.43,4.26.49,19.07,1.26,38.01,1.39,56.79.4,8.79-.46,15.06-.97,18.82-1.52,2.08-.3,4.25-.7,6.5-1.17.43-.09.55-.65.19-.9-.03-.03-.23-.06-.57-.1-3.54-.38-5.51-1.18-8.71-1.56-6.15-.73-10.57-1.15-13.25-1.26-3.32-.13-5.39-.25-6.22-.34-2.21-.25-4.28-.38-6.21-.39-8.27-.06-17.17-.04-26.7.04-5.91.05-11.74,1.03-17.3,1.15-1.9.05-3.95.24-6.13.59-4.69.74-8,.99-11.65,2.59-.19.09-.19.37.02.44M86.75,65.68c-.26-.07-.52.13-.52.4,0,6.18.03,13.48.11,21.89,0,1.2.17,2.03.49,2.48.13.19.33.33.56.39,3.27.85,5.04,1.3,5.33,1.35,4.3.72,7.23,1.22,8.78,1.5,2.24.4,5.19.72,8.87.98,7.46.51,12.19.79,14.18.86,11.3.34,22.22.16,32.77-.53.34-.02.79-.11,1.35-.27.26-.08.52-.12.79-.12,9.98-.39,19.67-1.69,29.04-3.91.35-.08.6-.39.6-.75v-24.68c0-.6-.67-.97-1.17-.63l-1.09.7c-.14.09-.29.15-.46.18-3.81.61-6.14,1.24-9.2,1.37-4.93.21-12.17,1.29-17.74,1.52-17.8.73-35.35.67-52.64-.18-2.71-.13-5.12-.57-7.67-.59-3.89-.03-8.87-1.07-12.39-1.93M83.9,96.9c-.03.22.24,1.15.3,1.75.11,1.18.62,1.99,1.54,2.41,1.86.86,4.4,1.01,6.52,1.49,8.85,1.99,13.17,2.37,24.47,3.56,4.99.52,9.52.81,13.6.86,11.02.13,18.69.06,23.03-.21,9.4-.59,18.15-1.5,26.23-2.77,3.13-.49,6.24-1.29,9.34-2.39,2.35-.83,5.51-2.29,3.08-5.42-.15-.2-.38-.32-.63-.35-1.37-.16-2.36-.12-2.99.1-2.67.95-4.6,1.48-5.78,1.62-8.4,1-15.17,1.77-20.29,2.31-.13.01-.37,0-.67-.06-.41-.06-1.05-.06-1.91,0-9.56.74-15.55,1.27-23.7,1.04-8.09-.22-12.08-.02-18.38-.56-.06,0-2.24-.14-6.54-.42-4.12-.26-10.29-1.1-18.51-2.5-2.32-.39-3.98-1-6.02-1.46-.9-.2-1.7-.06-2.37.45-.18.13-.3.33-.32.56M189.1,107.37c0-.38-.41-.63-.75-.45-.83.44-1.67.77-2.53.99-2.73.7-6.58,1.44-11.56,2.2-2.06.32-3.95.1-5.75.61-.19.05-.38.08-.57.1-3.73.22-6.22.38-7.44.47-5.01.39-9.51.3-14.01.68-7,.57-13.28.07-22.1-.16-5.38-.14-10.19-.46-14.46-.97-6.47-.77-11.25-1.44-14.37-2.01-2.57-.47-5.21-1.25-7.92-2.35-.63-.26-1.32.21-1.32.89v28.46c0,.67.49,1.24,1.16,1.34,2.57.38,5.09,1.21,8.15,1.75,1.47.26,3.6.55,6.4.86,6.37.7,12.93,1.36,19.95,1.65,12.21.49,24.11.41,35.71-.23,1.73-.1,2.79-.2,3.19-.31.19-.06.39-.02.54.1.59.45,1.4-.08,2-.12,4.14-.34,8.67-.79,13.59-1.36,2.3-.27,4.13-.58,5.49-.94.49-.13,2.28-.59,5.39-1.39.72-.19,1.22-.83,1.22-1.58v-28.21M83.9,144.14v.1c-.08,1.46.81,2.8,2.19,3.31,5.74,2.08,10.56,2.66,17.74,3.86,2.15.37,4.18.28,6.36.62,1.6.25,3.19.43,4.75.53,12.52.84,25.64.98,39.38.41,2.05-.08,3.25-.15,3.59-.2,3.05-.45,5.55-.2,9-.67,9.32-1.26,14.64-1.92,21.63-4.13,2.06-.66,3.35-1.86,3.85-3.6.07-.23.05-.48-.06-.7-.46-.97-.9-1.61-1.33-1.95-.28-.21-.65-.24-.96-.08-2.65,1.38-5.94,1.68-8.99,2.39-1.73.4-4.45.83-8.17,1.28-.1.01-.21,0-.34-.03-.17-.05-.3-.06-.39-.06-6.8.67-11.45,1.07-13.98,1.2-2.56.13-4.16.21-4.82.25-12.93.65-27.38.41-43.35-.73-7.16-.51-15.04-1.75-23.63-3.71-1.24-.28-2.44.63-2.5,1.9M86.82,175.15l7.4,2.06c.12.03.23.04.36.03.58-.04,1.2,0,1.86.1,7.89,1.29,13.78,2.1,17.66,2.41,9.46.75,18.52.99,27.17.72,6.94-.22,10.87-.37,11.79-.43,3.61-.27,5.93-.64,9.43-.71,3.22-.07,8.74-.8,16.54-2.19.25-.05,1.21-.29,2.9-.73,2.24-.59,4.43-.55,6.72-1.49.28-.12.46-.39.46-.69v-20.12c0-.3-.28-.53-.58-.46-2.74.63-6.38,1.35-10.91,2.13-2.46.43-5.85.95-10.19,1.58-5.03.72-9.06.68-14.28,1.01-6.51.42-13.9.55-22.17.41-6.22-.1-11.76-.41-16.63-.9-5.84-.6-11.35-1.28-16.53-2.04-3.86-.57-7.43-1.11-10.86-2.5-.32-.13-.66.1-.66.44v20.69c0,.32.21.61.52.69M86.71,181.16l.19,1.2c.17,1,.77,1.87,1.64,2.38,3.27,1.92,6.28,3.15,9.02,3.68,6.52,1.26,12.99,2.19,19.41,2.78,3.77.34,8.72.54,14.83.6,7.07.07,12.02.07,14.84,0,1.9-.05,6.54-.39,13.93-1.03.25-.02.5,0,.73.06.37.1.59.13.69.1,1.91-.61,4.61-.51,6.68-.92,1.78-.35,2.88-.59,3.31-.71.14-.04.29-.05.43-.01.03,0,.05,0,.06,0,.25.02.5,0,.75-.04l5.79-1.12s.08-.01.12-.03c4.32-1.79,9.49-1.44,10.62-7.66.07-.39-.3-.71-.68-.59-6.25,1.96-12.61,3.37-19.15,4.07-3.8.41-6.44.69-7.93.86-.1.01-.3-.05-.57-.19-.2-.1-.42-.14-.64-.14-3.28.15-6.49.89-9.72.99-9.51.28-19.38.32-29.59.1-3.33-.08-7.89-.68-11.04-.9-3.03-.21-8.09-.88-15.18-2.02-2.95-.48-5.42-1.23-7.43-2.26-.55-.28-1.19.19-1.09.8h0Z"/>
        <path class="cls-2" d="M157.18,82.76c.01,4.17-3.35,7.55-7.52,7.57l-23.38.08c-4.17.01-7.56-3.35-7.57-7.52v-.81c-.02-4.17,3.34-7.55,7.51-7.57l23.38-.08c4.17-.01,7.56,3.35,7.57,7.52v.81M152.41,82.49c0-1.55-1.26-2.8-2.81-2.8l-23.2.04c-1.55,0-2.8,1.26-2.8,2.81v.14c0,1.55,1.26,2.8,2.81,2.8l23.2-.04c1.55,0,2.8-1.26,2.8-2.81v-.14h0Z"/>
      </g>
    </g>
  </g>
</svg>