<?xml version="1.0" encoding="UTF-8"?>
<svg id="_レイヤー_2" data-name="レイヤー 2" xmlns="http://www.w3.org/2000/svg" viewBox="0 0 274.07 198.26">
  <defs>
    <style>
      .cls-1 {
        fill: #f4e6d1;
      }

      .cls-1, .cls-2 {
        stroke: #82530c;
        stroke-linecap: round;
        stroke-linejoin: round;
        stroke-width: 14.44px;
      }

      .cls-2 {
        fill: #fff;
      }
    </style>
  </defs>
  <g id="illustration">
    <g>
      <path class="cls-2" d="M266.85,128.81v41.13h-46.44c0-11.66-9.45-21.11-21.11-21.11s-21.11,9.45-21.11,21.11h-78.79c0-11.66-9.44-21.11-21.1-21.11s-21.11,9.45-21.11,21.11H7.22v-55.33L56.56,40.69h40.21v88.12h170.08Z"/>
      <rect class="cls-1" x="96.77" y="7.22" width="170.08" height="121.59"/>
      <path class="cls-1" d="M99.4,169.94c0,11.66-9.44,21.1-21.1,21.1s-21.11-9.44-21.11-21.1,9.45-21.11,21.11-21.11,21.1,9.45,21.1,21.11Z"/>
      <path class="cls-1" d="M220.41,169.94c0,11.66-9.45,21.1-21.11,21.1s-21.11-9.44-21.11-21.1,9.45-21.11,21.11-21.11,21.11,9.45,21.11,21.11Z"/>
    </g>
  </g>
</svg>