<?xml version="1.0" encoding="UTF-8"?>
<svg id="Layer_1" data-name="Layer 1" xmlns="http://www.w3.org/2000/svg" viewBox="0 0 39.69 39.69">
  <path d="M35.76,5.87c1.28,1.47,1.85,3.32,1.71,5.17h0c-.14,1.8-.95,3.61-2.42,4.89l-9.06,7.97c-.52.47-1.09.81-1.71,1.09h0l-.14.05-.05.05c-.09.05-.14.05-.24.1-.09.05-.14.05-.24.09h-.05l-.09.05h-.14l-.14.05-.09.05-.14.05h-.05l-.14.05h-.19l-.1.05h-.28l-.05.05h-1.57l-.19-.05h-.1l-.14-.05h-.05l-.19-.05h-.14l-.05-.05h-.05l-.14-.05h-.14v-.05h-.09l-.14-.05h-.05v-.05c-1.19-.38-2.23-1.04-3.08-2.04-.57-.71-1.04-1.47-1.33-2.33l1.9-1.66c.33-.28.76-.52,1.23-.57,0,.76.28,1.57.85,2.23.66.76,1.52,1.14,2.42,1.23h.05c.19,0,.38,0,.62-.05.09,0,.19,0,.28-.05h.14l.09-.05h.05c.09-.05.14-.05.24-.09h.05l.09-.05.14-.05.09-.05.05-.05h.05l.09-.05s.09-.09.14-.09l.05-.05h0l.1-.09h0l.09-.05h.05l.09-.1.05-.05,1.52-1.33,7.54-6.64c.71-.62,1.14-1.52,1.19-2.42v-.05c.05-.9-.24-1.85-.85-2.56-.66-.76-1.52-1.19-2.42-1.23h0c-.9-.05-1.85.24-2.61.85l-6.69,5.93c-.81-.33-1.66-.57-2.52-.62h0c-.81-.05-1.61,0-2.37.19.09-.09.14-.14.24-.19l9.06-7.97c1.42-1.28,3.32-1.85,5.12-1.76h0c1.8.14,3.56.95,4.84,2.47h0ZM23.61,16.5c.62.71,1.04,1.47,1.33,2.33l-1.9,1.66c-.33.28-.76.52-1.19.62-.05-.81-.33-1.61-.9-2.28-.62-.71-1.52-1.14-2.42-1.19h0c-.19-.05-.43-.05-.62,0-.09,0-.19,0-.28.05h-.14l-.14.05h0c-.09.05-.19.05-.28.1h-.05l-.09.05-.14.09-.1.05h0l-.05.05h-.09s-.09.09-.19.14h-.05l-.09.1h0l-.05.05h0l-.05.05h0l-.09.05-.05.05-1.57,1.38-7.5,6.6c-.76.66-1.14,1.52-1.23,2.47h0c-.05.9.24,1.85.9,2.56.62.76,1.52,1.19,2.42,1.23h0c.9.09,1.85-.19,2.56-.85l6.69-5.88c.81.33,1.66.52,2.56.57h0c.81.05,1.57,0,2.33-.19-.05.1-.14.14-.19.19l-9.06,7.97c-1.47,1.28-3.32,1.85-5.12,1.76h0c-1.8-.14-3.61-.95-4.84-2.42-1.28-1.47-1.85-3.37-1.71-5.17v-.05c.09-1.8.9-3.56,2.37-4.89l9.06-7.92c.57-.47,1.14-.85,1.76-1.14l.19-.1h0l.14-.05.05-.05h.05l.1-.05h.09l.05-.05h.05l.09-.05h.14l.05-.05h.05l.09-.05h.14c.14-.05.28-.1.38-.1h.14c.14-.05.28-.05.43-.09h1.33l.1.05h.24l.09.05h.19l.09.05h.09c.09,0,.14.05.24.05l.19.05.05.05h.1s.14.05.24.09h0c1.14.38,2.23,1.09,3.04,2.04h0Z"/>
</svg>