<svg width="20" height="16" viewBox="0 0 20 16" fill="none" xmlns="http://www.w3.org/2000/svg">
<path d="M1 1V0C0.447715 0 0 0.447715 0 1L1 1ZM19 1H20C20 0.447715 19.5523 0 19 0V1ZM10 8.1511L9.49655 9.01512L10 9.30847L10.5035 9.01512L10 8.1511ZM1 15H0C0 15.5523 0.447715 16 1 16L1 15ZM19 15V16C19.5523 16 20 15.5523 20 15H19ZM1 1V2H19V1V0H1V1ZM19 1H18V2.90696H19H20V1H19ZM19 2.90696L18.4965 2.04294L9.49655 7.28707L10 8.1511L10.5035 9.01512L19.5035 3.77098L19 2.90696ZM10 8.1511L10.5035 7.28707L1.50345 2.04294L1 2.90696L0.496549 3.77098L9.49655 9.01512L10 8.1511ZM1 2.90696H2V1H1H0V2.90696H1ZM1 15H2V2.90696H1H0V15H1ZM1 15V16H19V15V14H1V15ZM19 15H20V2.90696H19H18V15H19Z" fill="#ffffff"/>
</svg>
