<svg width="210" height="30" viewBox="0 0 210 30" fill="none" xmlns="http://www.w3.org/2000/svg">
<path d="M198.7 16.2783C199.744 16.3863 200.77 16.4403 201.868 16.4403C204.064 16.4403 206.314 16.2603 208.186 15.8643V18.0963C206.296 18.3843 204.028 18.5283 201.868 18.5463C200.806 18.5463 199.78 18.5103 198.718 18.4383L198.7 16.2783ZM205.558 13.2543C205.504 13.5963 205.468 14.0283 205.45 14.4063C205.414 15.0003 205.378 16.2423 205.378 17.5383C205.378 20.8503 205.666 23.1903 205.666 24.9003C205.666 26.7903 204.73 28.1583 202.138 28.1583C199.636 28.1583 198.088 27.1323 198.088 25.2423C198.088 23.4063 199.636 22.1463 202.102 22.1463C205.486 22.1463 207.664 23.8383 209.068 25.1343L207.844 27.0243C205.774 25.0983 203.956 23.8923 201.922 23.8923C200.896 23.8923 200.194 24.3063 200.194 24.9903C200.194 25.7283 200.914 26.0523 201.886 26.0523C202.984 26.0523 203.362 25.4763 203.362 24.4143C203.362 23.1723 203.128 20.1483 203.128 17.5563C203.128 16.1883 203.11 14.9823 203.092 14.4423C203.092 14.1543 203.038 13.5963 202.984 13.2543H205.558ZM196.774 13.4343C196.63 13.7943 196.414 14.7303 196.342 15.0543C196.072 16.2603 195.478 20.2203 195.478 22.0203C195.478 22.3623 195.496 22.8303 195.55 23.1903C195.802 22.5603 196.108 21.9483 196.36 21.3363L197.476 22.2183C196.972 23.7123 196.378 25.5303 196.18 26.5203C196.126 26.7723 196.072 27.1683 196.09 27.3483C196.09 27.5463 196.09 27.8523 196.108 28.1043L194.074 28.2483C193.714 27.0063 193.354 24.9363 193.354 22.5063C193.354 19.7883 193.894 16.3863 194.11 15.0003C194.182 14.4963 194.254 13.7943 194.272 13.2363L196.774 13.4343Z" fill="#202933"/>
<path d="M188.673 16.8364C188.115 17.1604 187.539 17.4844 186.873 17.8084C185.757 18.3664 183.507 19.4284 181.851 20.4904C180.357 21.4624 179.349 22.5064 179.349 23.7484C179.349 25.0444 180.609 25.7464 183.111 25.7464C184.947 25.7464 187.377 25.4584 188.979 25.0804L188.961 27.6724C187.413 27.9244 185.523 28.1224 183.183 28.1224C179.583 28.1224 176.865 27.1144 176.865 24.0184C176.865 21.7324 178.539 20.1304 180.681 18.7264C182.391 17.5924 184.659 16.4764 185.757 15.8464C186.441 15.4504 186.945 15.1444 187.413 14.7664L188.673 16.8364ZM179.619 12.9844C180.483 15.3784 181.617 17.5384 182.463 19.0504L180.411 20.2384C179.421 18.6004 178.341 16.2424 177.351 13.9204L179.619 12.9844Z" fill="#202933"/>
<path d="M164.469 6.61102H148.389V2.29102H168.949C168.949 8.77102 168.749 11.371 162.949 15.611L160.389 12.131C163.149 9.97102 164.109 8.77102 164.469 6.61102ZM154.709 29.971L151.749 26.771C155.789 23.851 155.509 21.451 155.509 18.171V9.85102H159.829V18.171C159.829 23.611 159.189 26.531 154.709 29.971Z" fill="#202933"/>
<path d="M137.737 5.89138C137.697 7.73138 136.137 9.21138 134.297 9.13138C132.417 9.05138 131.017 7.49138 131.057 5.65138C131.097 3.77138 132.657 2.33138 134.537 2.41138C136.377 2.49138 137.777 4.05138 137.737 5.89138ZM116.777 16.6114L113.737 13.5314L123.537 3.89138L140.577 22.0114L137.417 24.9714L123.417 10.0914L116.777 16.6114ZM133.097 5.73138C133.057 6.45138 133.617 7.01138 134.337 7.05138C135.057 7.09138 135.657 6.53138 135.697 5.81138C135.737 5.09138 135.177 4.45138 134.457 4.45138C133.737 4.45138 133.137 5.01138 133.097 5.73138Z" fill="#202933"/>
<path d="M88.126 2.29102H92.486V15.971H88.126V2.29102ZM93.846 29.971L92.006 26.051C98.726 22.371 98.846 16.691 98.846 2.29102H103.166C103.166 18.651 102.286 25.371 93.846 29.971Z" fill="#202933"/>
<path d="M60.1152 17.4108V13.0508H76.7552V17.4108H60.1152Z" fill="#202933"/>
<path d="M43.3842 19.8909V29.9709H39.0642V20.0909C37.1442 21.3309 34.8642 22.4109 32.1042 23.2909L30.7842 19.1709C38.6642 16.4509 42.0642 11.8909 44.0242 6.61086H33.9042V2.29086H39.0642V0.130859H43.3842V2.29086H48.5842V6.61086C47.6642 9.65086 46.4242 12.6509 44.3442 15.3309L51.7442 20.1709L49.3442 23.7709L43.3842 19.8909Z" fill="#202933"/>
<path d="M0.933594 2.29102H20.7336C20.2536 10.611 17.4136 14.771 11.4136 19.211L15.7336 28.091L11.8136 29.971L4.17359 14.171L8.09359 12.291L9.49359 15.251C13.0136 12.611 14.8136 10.131 15.7336 6.61102H0.933594V2.29102Z" fill="#202933"/>
</svg>
