<?xml version="1.0" encoding="UTF-8"?>
<svg id="Layer_1" data-name="Layer 1" xmlns="http://www.w3.org/2000/svg" viewBox="0 0 39.69 39.69">
  <path d="M10.35.69h19.03c.85,0,1.61.33,2.18.9l.05.05c.52.57.85,1.33.85,2.14v27.24c0,.85-.33,1.61-.9,2.18h0c-.57.57-1.33.9-2.18.9h-.62v3.94c0,.52-.43.95-1,.95-.24,0-.43-.05-.62-.19l-2.33-1.71-2.33,1.71c-.43.33-1.04.24-1.38-.19-.14-.19-.19-.38-.19-.57h0v-3.94h-10.58c-.85,0-1.66-.33-2.23-.9l-.05-.05c-.52-.57-.85-1.33-.85-2.14V3.77c0-.85.38-1.61.9-2.18h.05c.52-.57,1.33-.9,2.18-.9h0ZM11.11,5.77c-.52,0-.95-.43-.95-1,0-.52.43-.95.95-.95h19.41v-.05c0-.28-.09-.57-.28-.76l-.05-.05c-.19-.24-.47-.33-.81-.33H10.35c-.33,0-.62.09-.81.33-.24.19-.38.47-.38.81v27.24c0,.28.14.57.33.76l.05.05c.19.19.47.33.81.33h17.27c.14-.05.28,0,.38,0h1.38c.33,0,.62-.14.81-.33h0c.19-.19.33-.47.33-.81V5.77H11.11ZM26.82,34.1h-3.94v1.99l1.38-1c.33-.24.81-.28,1.19,0l1.38,1v-1.99Z"/>
  <rect x="10.2" y="8.08" width="21.08" height="1.95" rx=".97" ry=".97"/>
  <rect x="10.2" y="12.75" width="21.08" height="1.95" rx=".97" ry=".97"/>
  <rect x="10.2" y="17.42" width="21.08" height="1.95" rx=".97" ry=".97"/>
  <rect x="10.2" y="22.09" width="21.08" height="1.95" rx=".97" ry=".97"/>
  <rect x="10.2" y="26.77" width="21.08" height="1.95" rx=".97" ry=".97"/>
</svg>