<?xml version="1.0" encoding="UTF-8"?>
<svg id="Layer_1" data-name="Layer 1" xmlns="http://www.w3.org/2000/svg" viewBox="0 0 39.69 39.69">
  <path d="M20.71,1.26l5.74,11.39,12.62,1.95c.52.09.9.57.81,1.09-.05.24-.14.43-.28.57l-9.02,8.97,1.99,12.62c.09.52-.24,1-.81,1.09-.19.05-.43,0-.62-.09l-11.29-5.79-11.39,5.79c-.47.24-1.04.05-1.28-.43-.09-.19-.14-.38-.09-.57l2.04-12.62L.07,16.25c-.38-.38-.38-1,0-1.38.14-.19.38-.28.57-.28l12.57-1.95L18.96,1.26c.24-.47.85-.66,1.33-.43.19.09.33.24.43.43h0ZM24.94,13.98l-5.08-10.11-5.12,10.11c-.14.24-.43.47-.71.52l-11.2,1.71,8.02,8.02c.24.19.33.52.28.81l-1.8,11.2,10.06-5.17c.28-.14.62-.14.9,0l10.06,5.17-1.76-11.15c-.1-.28,0-.62.24-.85l8.02-8.02-11.1-1.71c-.33-.05-.62-.24-.81-.52h0Z"/>
</svg>