<svg width="42" height="439" viewBox="0 0 42 439" fill="none" xmlns="http://www.w3.org/2000/svg">
<path d="M33.856 414.118C33.856 414.566 33.702 414.986 33.394 415.378C33.114 415.742 32.792 416.05 32.428 416.302C32.092 416.554 31.84 416.75 31.672 416.89C31.504 417.254 31.224 417.772 30.832 418.444C30.44 419.088 30.146 419.606 29.95 419.998C29.418 421.118 28.76 422.266 27.976 423.442C27.22 424.59 26.436 425.696 25.624 426.76C23.524 429.448 21.102 431.702 18.358 433.522C15.614 435.314 12.576 436.616 9.24397 437.428C8.59997 437.568 7.82997 437.708 6.93397 437.848C6.03797 438.016 5.16997 438.142 4.32997 438.226C3.48997 438.338 2.81797 438.394 2.31397 438.394C2.28597 438.394 2.15997 438.38 1.93597 438.352C1.73997 438.352 1.64197 438.324 1.64197 438.268C1.64197 438.128 1.66997 438.03 1.72597 437.974C1.78197 437.946 1.86597 437.904 1.97797 437.848C2.20197 437.764 2.42597 437.68 2.64997 437.596C2.90197 437.512 3.13997 437.428 3.36397 437.344C3.92397 437.148 4.48397 436.938 5.04397 436.714C5.60397 436.49 6.14997 436.238 6.68197 435.958C9.70597 434.474 12.492 432.612 15.04 430.372C17.588 428.132 19.8 425.612 21.676 422.812C21.928 422.392 22.264 421.832 22.684 421.132C23.104 420.404 23.524 419.634 23.944 418.822C24.364 417.982 24.714 417.184 24.994 416.428C25.274 415.672 25.414 415.056 25.414 414.58C25.414 414.328 25.274 414.202 24.994 414.202C24.658 414.202 24.238 414.286 23.734 414.454C23.23 414.594 22.726 414.748 22.222 414.916C21.746 415.056 21.34 415.126 21.004 415.126C20.388 415.126 19.8 414.916 19.24 414.496C18.204 416.232 16.958 417.828 15.502 419.284C14.074 420.74 12.506 422.028 10.798 423.148C10.35 423.428 9.78997 423.736 9.11797 424.072C8.44597 424.408 7.75997 424.702 7.05997 424.954C6.38797 425.178 5.81397 425.318 5.33797 425.374C5.25397 425.402 5.11397 425.416 4.91797 425.416C4.69397 425.416 4.58197 425.332 4.58197 425.164C4.58197 425.08 4.65197 424.968 4.79197 424.828C4.95997 424.688 5.07197 424.604 5.12797 424.576C7.19997 422.84 9.06197 420.824 10.714 418.528C12.394 416.204 13.752 413.74 14.788 411.136C14.872 410.968 14.998 410.632 15.166 410.128C15.334 409.624 15.488 409.12 15.628 408.616C15.768 408.084 15.838 407.748 15.838 407.608C15.838 407.58 15.838 407.566 15.838 407.566C15.866 407.538 15.88 407.51 15.88 407.482C15.88 407.034 15.698 406.642 15.334 406.306C14.97 405.942 14.578 405.704 14.158 405.592C14.27 405.256 14.536 404.962 14.956 404.71C15.376 404.43 15.838 404.206 16.342 404.038C16.846 403.87 17.252 403.786 17.56 403.786C18.036 403.786 18.596 403.898 19.24 404.122C19.912 404.346 20.556 404.654 21.172 405.046C21.816 405.438 22.348 405.886 22.768 406.39C23.188 406.866 23.398 407.384 23.398 407.944C23.398 408.336 23.272 408.672 23.02 408.952C22.768 409.204 22.53 409.47 22.306 409.75C22.082 410.198 21.858 410.604 21.634 410.968C21.41 411.304 21.158 411.71 20.878 412.186C21.158 412.186 21.578 412.13 22.138 412.018C22.726 411.906 23.3 411.78 23.86 411.64C24.448 411.472 24.84 411.332 25.036 411.22C25.204 411.136 25.4 411.038 25.624 410.926C25.876 410.814 26.128 410.702 26.38 410.59C26.688 410.394 26.968 410.24 27.22 410.128C27.472 410.016 27.696 409.96 27.892 409.96C28.144 409.96 28.424 409.988 28.732 410.044C29.068 410.1 29.376 410.212 29.656 410.38C30.104 410.632 30.622 410.926 31.21 411.262C31.798 411.57 32.26 411.878 32.596 412.186C32.904 412.438 33.184 412.718 33.436 413.026C33.716 413.334 33.856 413.698 33.856 414.118ZM36.46 408.7C36.46 409.372 36.25 409.904 35.83 410.296C35.438 410.688 34.906 410.884 34.234 410.884C33.87 410.884 33.548 410.73 33.268 410.422C33.016 410.086 32.82 409.778 32.68 409.498C32.484 409.022 32.26 408.56 32.008 408.112C31.784 407.636 31.49 407.202 31.126 406.81C30.902 406.53 30.65 406.278 30.37 406.054C30.09 405.802 29.796 405.578 29.488 405.382C29.46 405.354 29.404 405.326 29.32 405.298C29.264 405.242 29.236 405.172 29.236 405.088C29.236 404.976 29.418 404.92 29.782 404.92C30.174 404.892 30.426 404.878 30.538 404.878C30.958 404.878 31.378 404.906 31.798 404.962C32.246 404.99 32.666 405.06 33.058 405.172C33.534 405.312 34.024 405.564 34.528 405.928C35.06 406.264 35.508 406.684 35.872 407.188C36.264 407.664 36.46 408.168 36.46 408.7ZM40.912 405.298C40.912 405.914 40.716 406.432 40.324 406.852C39.932 407.272 39.414 407.482 38.77 407.482C38.042 407.482 37.51 407.188 37.174 406.6C36.614 405.592 35.914 404.738 35.074 404.038C34.766 403.73 34.43 403.478 34.066 403.282C33.73 403.058 33.38 402.82 33.016 402.568C32.904 402.456 32.848 402.372 32.848 402.316C32.848 402.176 33.002 402.092 33.31 402.064C33.646 402.008 33.982 401.98 34.318 401.98C34.682 401.952 34.92 401.938 35.032 401.938C35.424 401.938 35.802 401.952 36.166 401.98C36.558 402.008 36.936 402.05 37.3 402.106C37.804 402.19 38.336 402.372 38.896 402.652C39.456 402.932 39.932 403.296 40.324 403.744C40.716 404.192 40.912 404.71 40.912 405.298Z" fill="white"/>
<path d="M37.6361 364.118C37.6361 364.174 37.6081 364.286 37.5521 364.454C37.4961 364.622 37.4401 364.734 37.3841 364.79C36.9081 365.77 36.1801 366.26 35.2001 366.26C34.7241 366.26 34.2481 366.204 33.7721 366.092C33.2961 365.952 32.8201 365.854 32.3441 365.798C31.5601 365.658 30.7341 365.588 29.8661 365.588C29.0261 365.56 28.2001 365.546 27.3881 365.546C27.1921 365.546 26.9961 365.546 26.8001 365.546C26.6321 365.546 26.4361 365.546 26.2121 365.546C26.4641 365.686 26.8001 365.882 27.2201 366.134C27.6401 366.386 27.8501 366.68 27.8501 367.016C27.8501 367.268 27.7941 367.506 27.6821 367.73C27.5981 367.954 27.4861 368.178 27.3461 368.402C27.0661 369.55 26.7161 370.768 26.2961 372.056C25.8761 373.344 25.4281 374.534 24.9521 375.626C22.3761 381.422 18.0921 385.384 12.1001 387.512C11.8201 387.624 11.4001 387.764 10.8401 387.932C10.2801 388.1 9.67805 388.268 9.03405 388.436C8.41805 388.604 7.83005 388.744 7.27005 388.856C6.73805 388.968 6.31805 389.024 6.01005 389.024C5.89805 389.024 5.84205 388.954 5.84205 388.814C5.84205 388.702 5.99605 388.562 6.30405 388.394C6.64005 388.226 6.99005 388.058 7.35405 387.89C7.71805 387.722 7.95605 387.61 8.06805 387.554C10.3081 386.434 12.2541 384.978 13.9061 383.186C15.5861 381.366 16.9721 379.336 18.0641 377.096C18.4561 376.284 18.8621 375.29 19.2821 374.114C19.7021 372.91 20.0521 371.706 20.3321 370.502C20.6121 369.27 20.7521 368.22 20.7521 367.352C20.7521 367.044 20.7101 366.778 20.6261 366.554C20.5701 366.302 20.3461 366.176 19.9541 366.176C19.6741 366.176 19.2121 366.232 18.5681 366.344C17.9241 366.456 17.4621 366.568 17.1821 366.68C16.8461 366.792 16.5381 366.946 16.2581 367.142C15.9781 367.338 15.6421 367.436 15.2501 367.436C15.0541 367.436 14.8301 367.366 14.5781 367.226C14.3541 367.086 14.1581 366.96 13.9901 366.848C12.8421 368.08 11.4841 369.312 9.91605 370.544C8.37605 371.748 6.83605 372.714 5.29605 373.442C5.07205 373.554 4.77805 373.68 4.41405 373.82C4.07805 373.96 3.78405 374.03 3.53205 374.03C3.28005 374.03 3.15405 373.89 3.15405 373.61C3.15405 373.526 3.26605 373.4 3.49005 373.232C3.74205 373.036 3.91005 372.91 3.99405 372.854C4.47005 372.49 4.96005 372.014 5.46405 371.426C5.99605 370.838 6.45805 370.306 6.85005 369.83C7.57805 368.934 8.23605 368.024 8.82405 367.1C9.41205 366.148 9.95805 365.154 10.4621 364.118C10.7141 363.614 10.9661 363.026 11.2181 362.354C11.4701 361.654 11.7081 360.954 11.9321 360.254C12.1561 359.526 12.2961 358.896 12.3521 358.364C12.3521 358.308 12.3521 358.252 12.3521 358.196C12.3801 358.14 12.3941 358.098 12.3941 358.07C12.3941 357.398 12.2121 356.936 11.8481 356.684C11.5121 356.432 11.1621 356.264 10.7981 356.18C10.4341 356.068 10.2521 355.914 10.2521 355.718C10.2521 355.606 10.3221 355.522 10.4621 355.466C11.0501 355.074 11.8201 354.724 12.7721 354.416C13.7241 354.08 14.5501 353.912 15.2501 353.912C15.9221 353.912 16.6221 354.108 17.3501 354.5C18.1061 354.892 18.7361 355.41 19.2401 356.054C19.7721 356.698 20.0381 357.384 20.0381 358.112C20.0381 358.364 19.8841 358.63 19.5761 358.91C19.2681 359.162 19.0161 359.358 18.8201 359.498C18.3721 360.338 17.8681 361.15 17.3081 361.934C16.7761 362.718 16.2301 363.502 15.6701 364.286C17.6581 364.006 19.6321 363.642 21.5921 363.194C23.5521 362.746 25.4981 362.256 27.4301 361.724C27.9901 361.556 28.5501 361.304 29.1101 360.968C29.6981 360.604 30.2721 360.422 30.8321 360.422C31.2801 360.422 31.8681 360.52 32.5961 360.716C33.3521 360.884 34.1081 361.136 34.8641 361.472C35.6481 361.78 36.3061 362.158 36.8381 362.606C37.3701 363.054 37.6361 363.558 37.6361 364.118Z" fill="white"/>
<path d="M17.098 315.168C17.098 315.644 16.916 316.05 16.552 316.386C16.16 319.522 15.46 322.35 14.452 324.87C13.472 327.39 12.072 329.616 10.252 331.548C8.46 333.48 6.108 335.146 3.196 336.546C3 336.63 2.72 336.756 2.356 336.924C1.992 337.12 1.628 337.288 1.264 337.428C0.927997 337.568 0.661997 337.638 0.465997 337.638C0.437997 337.638 0.381997 337.624 0.297997 337.596C0.213997 337.596 0.171997 337.568 0.171997 337.512C0.171997 337.4 0.185997 337.316 0.213997 337.26C0.241997 337.204 0.325997 337.12 0.465997 337.008C1.082 336.532 1.698 336.014 2.314 335.454C2.93 334.866 3.504 334.264 4.036 333.648C5.184 332.388 6.178 330.946 7.018 329.322C7.886 327.67 8.586 326.032 9.118 324.408C9.482 323.232 9.804 321.874 10.084 320.334C10.392 318.794 10.546 317.422 10.546 316.218C10.546 314.65 9.762 313.6 8.194 313.068C8.194 312.676 8.418 312.354 8.866 312.102C9.342 311.822 9.86 311.612 10.42 311.472C11.008 311.332 11.442 311.262 11.722 311.262C12.702 311.262 13.598 311.5 14.41 311.976C15.25 312.452 15.936 313.068 16.468 313.824C16.608 314.02 16.734 314.23 16.846 314.454C16.986 314.65 17.07 314.86 17.098 315.084V315.168ZM40.912 313.53C40.912 313.642 40.898 313.74 40.87 313.824C40.87 313.908 40.856 313.992 40.828 314.076C40.016 317.128 38.798 319.872 37.174 322.308C35.578 324.744 33.716 326.858 31.588 328.65C29.46 330.442 27.192 331.94 24.784 333.144C24.28 333.368 23.706 333.634 23.062 333.942C22.418 334.25 21.858 334.404 21.382 334.404C21.102 334.404 20.85 334.334 20.626 334.194C20.402 334.054 20.15 333.76 19.87 333.312C19.646 332.836 19.394 332.262 19.114 331.59C18.834 330.918 18.624 330.386 18.484 329.994C18.428 329.826 18.33 329.56 18.19 329.196C18.078 328.832 18.022 328.58 18.022 328.44C18.022 328.076 18.232 327.824 18.652 327.684C18.932 327.6 19.156 327.488 19.324 327.348C19.52 327.18 19.632 326.9 19.66 326.508C19.744 325.612 19.772 324.702 19.744 323.778C19.744 322.826 19.744 321.916 19.744 321.048C19.744 319.564 19.73 318.066 19.702 316.554C19.674 315.042 19.576 313.558 19.408 312.102C19.38 311.878 19.352 311.64 19.324 311.388C19.296 311.136 19.254 310.898 19.198 310.674C19.086 310.198 18.722 309.806 18.106 309.498C17.518 309.19 17.028 308.98 16.636 308.868C16.72 308.392 16.986 308 17.434 307.692C17.91 307.384 18.442 307.16 19.03 307.02C19.646 306.852 20.15 306.768 20.542 306.768C20.766 306.768 20.99 306.796 21.214 306.852C21.438 306.908 21.648 306.964 21.844 307.02C22.152 307.104 22.558 307.314 23.062 307.65C23.566 307.958 24.042 308.294 24.49 308.658C24.966 309.022 25.316 309.316 25.54 309.54C25.736 309.736 25.904 309.96 26.044 310.212C26.184 310.464 26.254 310.744 26.254 311.052C26.254 311.444 26.114 311.794 25.834 312.102C25.554 312.41 25.358 312.76 25.246 313.152C25.106 313.628 25.008 314.23 24.952 314.958C24.924 315.658 24.896 316.26 24.868 316.764C24.756 318.36 24.672 319.956 24.616 321.552C24.56 323.148 24.504 324.758 24.448 326.382C25.4 326.158 26.422 325.78 27.514 325.248C28.606 324.688 29.712 324.044 30.832 323.316C32.036 322.504 33.198 321.608 34.318 320.628C35.438 319.62 36.46 318.612 37.384 317.604C38.308 316.568 39.064 315.616 39.652 314.748C39.708 314.636 39.806 314.468 39.946 314.244C40.086 314.02 40.212 313.824 40.324 313.656C40.548 313.404 40.702 313.278 40.786 313.278C40.842 313.278 40.87 313.32 40.87 313.404C40.898 313.46 40.912 313.502 40.912 313.53Z" fill="white"/>
<path d="M20.521 289.045C19.961 289.045 19.513 288.863 19.177 288.499C18.841 288.163 18.603 287.729 18.463 287.197C18.323 286.693 18.253 286.203 18.253 285.727C18.253 284.467 18.295 283.207 18.379 281.947C18.491 280.715 18.547 279.469 18.547 278.209C18.547 276.109 18.519 273.995 18.463 271.867C18.407 269.767 18.323 267.667 18.211 265.567C18.183 264.531 18.099 263.509 17.959 262.501C17.819 261.493 17.665 260.485 17.497 259.477C17.441 259.113 17.357 258.721 17.245 258.301C17.161 257.909 17.119 257.517 17.119 257.125C17.119 255.837 17.469 254.703 18.169 253.723C18.869 252.743 19.905 252.253 21.277 252.253C21.529 252.253 21.851 252.309 22.243 252.421C22.635 252.533 22.999 252.687 23.335 252.883C23.699 253.079 23.923 253.303 24.007 253.555C23.279 254.031 22.789 254.703 22.537 255.571C22.285 256.439 22.159 257.279 22.159 258.091C22.159 258.679 22.145 259.267 22.117 259.855C22.117 260.471 22.117 261.073 22.117 261.661C22.117 263.285 22.173 264.895 22.285 266.491C22.397 268.087 22.537 269.683 22.705 271.279C22.845 272.427 22.985 273.561 23.125 274.681C23.265 275.801 23.447 276.921 23.671 278.041C23.755 278.433 23.839 278.811 23.923 279.175C24.007 279.539 24.105 279.903 24.217 280.267C24.217 280.323 24.259 280.477 24.343 280.729C24.427 280.981 24.469 281.107 24.469 281.107C24.469 282.003 24.343 283.025 24.091 284.173C23.839 285.321 23.475 286.287 22.999 287.071C22.803 287.407 22.439 287.813 21.907 288.289C21.403 288.793 20.941 289.045 20.521 289.045Z" fill="white"/>
<path d="M34.234 232.22C34.234 232.808 34.038 233.326 33.646 233.774C33.254 234.194 32.778 234.53 32.218 234.782C31.658 235.034 31.126 235.216 30.622 235.328C29.11 235.608 27.57 235.804 26.002 235.916C24.434 236.028 22.88 236.084 21.34 236.084C19.716 236.084 18.162 235.986 16.678 235.79C15.194 235.566 13.864 235.146 12.688 234.53C11.54 233.914 10.616 233.018 9.91603 231.842C9.24403 230.638 8.90803 229.056 8.90803 227.096C8.90803 224.548 8.90803 221.986 8.90803 219.41C8.93603 216.834 8.95003 214.272 8.95003 211.724C8.95003 211.108 8.90803 210.492 8.82403 209.876C8.74003 209.232 8.53003 208.686 8.19403 208.238C7.85803 207.762 7.31203 207.482 6.55603 207.398C6.86403 206.838 7.39603 206.362 8.15203 205.97C8.90803 205.55 9.59403 205.34 10.21 205.34C11.162 205.34 12.1 205.634 13.024 206.222C13.948 206.782 14.676 207.426 15.208 208.154C15.348 208.378 15.488 208.63 15.628 208.91C15.768 209.162 15.838 209.428 15.838 209.708C15.838 210.1 15.726 210.464 15.502 210.8C15.306 211.108 15.082 211.416 14.83 211.724C14.718 212.172 14.648 212.648 14.62 213.152C14.592 213.628 14.55 214.104 14.494 214.58C14.41 215.504 14.34 216.428 14.284 217.352C14.228 218.276 14.158 219.2 14.074 220.124C14.718 219.816 15.53 219.382 16.51 218.822C17.49 218.262 18.498 217.646 19.534 216.974C20.598 216.274 21.55 215.574 22.39 214.874C23.258 214.174 23.888 213.544 24.28 212.984C24.476 212.76 24.574 212.466 24.574 212.102C24.574 211.794 24.434 211.472 24.154 211.136C23.874 210.8 23.608 210.562 23.356 210.422C23.468 210.198 23.748 210.058 24.196 210.002C24.672 209.918 25.022 209.876 25.246 209.876C25.778 209.876 26.436 210.016 27.22 210.296C28.004 210.548 28.774 210.898 29.53 211.346C30.314 211.766 30.958 212.256 31.462 212.816C31.994 213.376 32.26 213.95 32.26 214.538C32.26 215.21 32.078 215.686 31.714 215.966C31.378 216.246 30.93 216.512 30.37 216.764C29.642 217.072 28.928 217.38 28.228 217.688C27.556 217.968 26.856 218.262 26.128 218.57C24.196 219.354 22.208 219.998 20.164 220.502C18.148 221.006 16.104 221.44 14.032 221.804C13.948 222.728 13.892 223.666 13.864 224.618C13.836 225.542 13.822 226.48 13.822 227.432C13.822 228.496 13.948 229.28 14.2 229.784C14.452 230.26 14.858 230.568 15.418 230.708C16.006 230.848 16.79 230.918 17.77 230.918C19.17 230.918 20.57 230.792 21.97 230.54C23.398 230.288 24.798 229.966 26.17 229.574C26.562 229.462 26.954 229.336 27.346 229.196C27.766 229.056 28.158 228.93 28.522 228.818C28.634 228.79 28.746 228.776 28.858 228.776C28.97 228.748 29.082 228.734 29.194 228.734C29.894 228.734 30.636 228.846 31.42 229.07C32.204 229.294 32.862 229.658 33.394 230.162C33.954 230.666 34.234 231.352 34.234 232.22ZM34.948 208.154C34.948 208.826 34.78 209.358 34.444 209.75C34.108 210.142 33.576 210.338 32.848 210.338C32.4 210.338 31.994 210.184 31.63 209.876C31.266 209.54 31.014 209.176 30.874 208.784C30.762 208.476 30.65 208.154 30.538 207.818C30.454 207.482 30.342 207.174 30.202 206.894C29.726 206.026 29.11 205.284 28.354 204.668C28.242 204.556 28.186 204.486 28.186 204.458C28.186 204.318 28.242 204.234 28.354 204.206C28.466 204.15 28.564 204.122 28.648 204.122C29.628 204.122 30.622 204.29 31.63 204.626C32.638 204.934 33.478 205.466 34.15 206.222C34.374 206.502 34.556 206.81 34.696 207.146C34.864 207.454 34.948 207.79 34.948 208.154ZM39.904 205.382C39.904 205.998 39.694 206.516 39.274 206.936C38.882 207.328 38.378 207.524 37.762 207.524C37.398 207.524 37.076 207.398 36.796 207.146C36.516 206.894 36.292 206.628 36.124 206.348C35.872 205.928 35.606 205.536 35.326 205.172C35.046 204.78 34.738 204.416 34.402 204.08C34.066 203.772 33.73 203.478 33.394 203.198C33.058 202.918 32.694 202.666 32.302 202.442C32.162 202.358 32.092 202.288 32.092 202.232C32.092 202.12 32.246 202.05 32.554 202.022C32.89 201.966 33.226 201.924 33.562 201.896C33.926 201.868 34.164 201.854 34.276 201.854C35.004 201.854 35.802 201.952 36.67 202.148C37.538 202.344 38.294 202.694 38.938 203.198C39.582 203.702 39.904 204.43 39.904 205.382Z" fill="white"/>
<path d="M19.17 163.18C16.9533 163.67 15.11 164.685 13.64 166.225C12.17 167.765 11.0616 169.573 10.315 171.65C10.105 172.233 9.91829 172.84 9.75496 173.47C9.61496 174.1 9.54496 174.73 9.54496 175.36C9.54496 175.687 9.56829 176.13 9.61496 176.69C9.66163 177.227 9.78996 177.705 9.99996 178.125C10.21 178.545 10.56 178.755 11.05 178.755C11.3533 178.755 11.6566 178.65 11.96 178.44C12.2866 178.207 12.555 178.008 12.765 177.845C14.1183 176.725 15.25 175.348 16.16 173.715C17.0933 172.082 17.805 170.343 18.295 168.5C18.8083 166.657 19.1 164.883 19.17 163.18ZM35.13 172.875C35.13 175.442 34.5816 177.6 33.485 179.35C32.3883 181.1 30.9066 182.535 29.04 183.655C27.1966 184.752 25.1316 185.603 22.845 186.21C22.5416 186.28 22.145 186.362 21.655 186.455C21.1883 186.572 20.7333 186.665 20.29 186.735C19.8466 186.805 19.4966 186.84 19.24 186.84C19.1466 186.84 19.0066 186.828 18.82 186.805C18.6566 186.805 18.575 186.747 18.575 186.63C18.575 186.49 18.645 186.373 18.785 186.28C18.925 186.21 19.0416 186.163 19.135 186.14C19.6716 185.953 20.185 185.755 20.675 185.545C21.165 185.335 21.6666 185.113 22.18 184.88C24.4666 183.737 26.275 182.103 27.605 179.98C28.2816 178.883 28.76 177.682 29.04 176.375C29.3433 175.068 29.495 173.773 29.495 172.49C29.495 170.507 29.1333 168.745 28.41 167.205C27.6866 165.665 26.3683 164.463 24.455 163.6C23.9416 163.367 23.405 163.203 22.845 163.11C22.285 163.017 21.725 162.97 21.165 162.97C21.0716 163.273 21.025 163.635 21.025 164.055C21.025 164.638 21.1066 165.21 21.27 165.77C21.4566 166.33 21.55 166.913 21.55 167.52C21.55 167.87 21.515 168.232 21.445 168.605C21.3983 168.955 21.34 169.305 21.27 169.655C20.8966 171.358 20.36 173.05 19.66 174.73C18.9833 176.41 18.12 177.985 17.07 179.455C16.02 180.902 14.7366 182.127 13.22 183.13C12.8933 183.34 12.5433 183.515 12.17 183.655C11.7966 183.795 11.4116 183.865 11.015 183.865C10.1983 183.865 9.60329 183.678 9.22996 183.305C8.85663 182.908 8.61163 182.325 8.49496 181.555C8.42496 180.972 8.37829 180.505 8.35496 180.155C8.33163 179.805 8.23829 179.478 8.07496 179.175C7.93496 178.872 7.63163 178.498 7.16496 178.055C6.58163 177.472 6.20829 176.877 6.04496 176.27C5.90496 175.663 5.83496 174.963 5.83496 174.17C5.83496 173.423 5.98663 172.63 6.28996 171.79C6.59329 170.927 6.93163 170.18 7.30496 169.55C8.93829 166.797 11.0733 164.743 13.71 163.39C16.3466 162.037 19.24 161.36 22.39 161.36C24.1633 161.36 25.82 161.593 27.36 162.06C28.9233 162.527 30.3 163.273 31.49 164.3C32.7033 165.327 33.6483 166.68 34.325 168.36C34.6283 169.107 34.8383 169.842 34.955 170.565C35.0716 171.288 35.13 172.058 35.13 172.875Z" fill="white"/>
<path d="M15.502 104.08C15.502 104.276 15.46 104.458 15.376 104.626C14.648 106.502 13.808 108.35 12.856 110.17C11.932 111.962 10.882 113.67 9.70602 115.294H11.68L11.638 138.478H6.34602L6.43002 118.822C6.12202 119.13 5.71602 119.522 5.21202 119.998C4.70802 120.446 4.16202 120.894 3.57402 121.342C2.98602 121.79 2.42602 122.168 1.89402 122.476C1.36202 122.756 0.928021 122.896 0.592021 122.896C0.424021 122.896 0.28402 122.84 0.17202 122.728C0.0880204 122.616 0.0460205 122.504 0.0460205 122.392C0.0460205 122.336 0.144021 122.168 0.340021 121.888C0.536021 121.608 0.746021 121.3 0.970021 120.964C1.19402 120.628 1.41802 120.306 1.64202 119.998C1.86602 119.69 2.00602 119.48 2.06202 119.368C3.15402 117.772 4.17602 115.966 5.12802 113.95C6.08002 111.934 6.92002 109.862 7.64802 107.734C8.37602 105.606 8.93602 103.59 9.32802 101.686C10.056 101.882 10.77 102.106 11.47 102.358C12.17 102.61 12.856 102.848 13.528 103.072C13.808 103.156 14.074 103.24 14.326 103.324C14.606 103.408 14.886 103.506 15.166 103.618C15.39 103.702 15.502 103.856 15.502 104.08ZM41.332 136.336C41.332 137.064 41.052 137.736 40.492 138.352C39.96 138.968 39.302 139.276 38.518 139.276C37.734 139.276 36.838 139.136 35.83 138.856C34.85 138.604 34.038 138.296 33.394 137.932C30.986 136.532 28.97 134.74 27.346 132.556C25.722 130.344 24.406 127.95 23.398 125.374C22.39 122.77 21.606 120.166 21.046 117.562L13.318 118.612L13.066 116.512L20.752 115.42C20.304 113.18 19.954 110.912 19.702 108.616C19.45 106.292 19.254 103.982 19.114 101.686L25.246 101.56C25.246 102.68 25.274 103.8 25.33 104.92C25.414 106.04 25.498 107.16 25.582 108.28C25.666 109.372 25.75 110.464 25.834 111.556C25.946 112.62 26.072 113.684 26.212 114.748L33.058 113.698C32.918 113.362 32.848 113.04 32.848 112.732C32.848 111.892 33.114 111.206 33.646 110.674C34.206 110.142 34.92 109.876 35.788 109.876C36.6 109.876 37.314 110.1 37.93 110.548C38.574 110.968 38.896 111.626 38.896 112.522C38.896 113.194 38.672 113.81 38.224 114.37C37.776 114.902 37.188 115.224 36.46 115.336L26.506 116.806C26.926 119.13 27.5 121.482 28.228 123.862C28.984 126.214 29.964 128.44 31.168 130.54C32.4 132.64 33.926 134.488 35.746 136.084C35.97 135.44 36.334 134.88 36.838 134.404C37.342 133.9 37.972 133.648 38.728 133.648C39.54 133.648 40.17 133.928 40.618 134.488C41.094 135.02 41.332 135.636 41.332 136.336ZM36.124 104.206C36.124 104.43 35.914 104.78 35.494 105.256C35.102 105.732 34.584 106.25 33.94 106.81C33.324 107.342 32.68 107.874 32.008 108.406C31.336 108.938 30.706 109.386 30.118 109.75C29.558 110.114 29.138 110.324 28.858 110.38C28.774 110.408 28.648 110.422 28.48 110.422C28.06 110.422 27.85 110.254 27.85 109.918C27.85 109.89 27.92 109.666 28.06 109.246C28.2 108.826 28.354 108.35 28.522 107.818L29.32 105.382C29.712 104.206 30.062 102.974 30.37 101.686C30.51 101.714 30.86 101.826 31.42 102.022C32.008 102.218 32.638 102.428 33.31 102.652C33.982 102.876 34.57 103.072 35.074 103.24C35.578 103.408 35.844 103.506 35.872 103.534C36.04 103.73 36.124 103.954 36.124 104.206Z" fill="white"/>
<path d="M27.178 65.378H22.81V76.76H25.162C26.058 76.76 26.618 76.424 26.842 75.752C27.066 75.08 27.178 74.352 27.178 73.568V65.378ZM41.038 62.438C41.038 63.362 40.716 64.09 40.072 64.622C39.428 65.126 38.686 65.378 37.846 65.378H32.47V73.442C32.47 75.402 32.008 76.802 31.084 77.642C30.16 78.482 28.704 78.902 26.716 78.902H17.77V65.378H12.982V86.084H32.512C32.596 85.328 32.932 84.628 33.52 83.984C34.108 83.312 34.808 82.976 35.62 82.976C36.488 82.976 37.244 83.256 37.888 83.816C38.532 84.348 38.854 85.048 38.854 85.916C38.854 86.644 38.56 87.274 37.972 87.806C37.412 88.366 36.754 88.646 35.998 88.646H7.68999C7.71799 86.91 7.73199 85.132 7.73199 83.312C7.73199 81.464 7.73199 79.7 7.73199 78.02V65.378H0.885986V63.026H7.73199C7.73199 61.598 7.71799 60.184 7.68999 58.784C7.68999 57.356 7.68999 55.914 7.68999 54.458H12.982V63.026H17.77V51.812H22.81V63.026H27.178V51.812H32.47V63.026H34.99V62.774C34.99 61.85 35.27 61.094 35.83 60.506C36.418 59.89 37.076 59.582 37.804 59.582C38.644 59.582 39.386 59.848 40.03 60.38C40.702 60.884 41.038 61.57 41.038 62.438Z" fill="white"/>
<path d="M12.562 16.974C12.562 17.03 12.548 17.058 12.52 17.058V17.142C12.1 18.57 11.596 20.138 11.008 21.846C10.42 23.526 9.73403 25.15 8.95003 26.718C8.16603 28.286 7.27003 29.644 6.26203 30.792C6.12203 30.988 5.95403 31.156 5.75803 31.296C5.59003 31.408 5.36603 31.464 5.08603 31.464C4.89003 31.464 4.54003 31.254 4.03603 30.834C3.53203 30.414 3.05603 30.022 2.60803 29.658C2.13203 29.266 1.62803 28.846 1.09603 28.398C0.564029 27.95 0.200028 27.642 0.00402832 27.474C1.65603 26.242 3.25203 24.926 4.79203 23.526C6.33203 22.098 7.76003 20.614 9.07603 19.074C9.44003 18.654 9.80403 18.22 10.168 17.772C10.532 17.324 10.896 16.876 11.26 16.428C11.4 16.288 11.568 16.218 11.764 16.218C11.988 16.218 12.17 16.302 12.31 16.47C12.478 16.638 12.562 16.806 12.562 16.974ZM41.29 37.134C41.29 37.75 40.996 38.31 40.408 38.814C39.82 39.318 39.204 39.57 38.56 39.57C37.972 39.57 37.314 39.43 36.586 39.15C35.858 38.87 35.256 38.59 34.78 38.31C32.512 36.854 30.566 35.09 28.942 33.018C27.318 30.946 25.862 28.51 24.574 25.71C23.566 28.258 22.306 30.4 20.794 32.136C19.31 33.844 17.546 35.244 15.502 36.336C13.486 37.428 11.176 38.338 8.57203 39.066C8.20803 39.178 7.83003 39.276 7.43803 39.36C7.07403 39.444 6.69603 39.486 6.30403 39.486C6.10803 39.486 5.95403 39.416 5.84203 39.276C5.75803 39.136 5.71603 39.01 5.71603 38.898C5.71603 38.842 5.77203 38.772 5.88403 38.688C6.02403 38.604 6.17803 38.52 6.34603 38.436C6.48603 38.352 6.62603 38.282 6.76603 38.226C6.93403 38.17 7.03203 38.128 7.06003 38.1C9.07603 37.176 10.924 36.028 12.604 34.656C14.284 33.256 15.726 31.618 16.93 29.742C18.498 27.278 19.576 24.618 20.164 21.762C20.752 18.906 21.102 16.036 21.214 13.152L27.22 13.992C27.164 14.86 27.01 15.896 26.758 17.1C26.506 18.304 26.296 19.326 26.128 20.166L28.942 19.452C29.39 21.664 29.908 23.708 30.496 25.584C31.112 27.432 31.882 29.196 32.806 30.876C33.73 32.528 34.864 34.166 36.208 35.79C36.516 35.398 36.922 35.09 37.426 34.866C37.93 34.642 38.434 34.53 38.938 34.53C39.61 34.53 40.17 34.824 40.618 35.412C41.066 35.972 41.29 36.546 41.29 37.134ZM12.52 10.758C12.52 10.982 12.436 11.192 12.268 11.388C12.128 11.556 11.904 11.64 11.596 11.64C11.344 11.64 11.036 11.584 10.672 11.472C10.308 11.36 9.91603 11.234 9.49603 11.094C8.34803 10.702 7.17203 10.366 5.96803 10.086C4.79203 9.778 3.60203 9.498 2.39803 9.246C2.70603 8.714 3.00003 8.18201 3.28003 7.65001C3.56003 7.11801 3.84003 6.614 4.12003 6.138C4.26003 5.914 4.45603 5.564 4.70803 5.088C4.98803 4.584 5.21203 4.22001 5.38003 3.99601C5.49203 3.82801 5.63203 3.68801 5.80003 3.576C5.99603 3.43601 6.20603 3.366 6.43003 3.366C6.68203 3.366 7.03203 3.534 7.48003 3.87C7.95603 4.206 8.46003 4.64 8.99203 5.172C9.52403 5.704 10.028 6.278 10.504 6.894C11.12 7.678 11.61 8.448 11.974 9.204C12.338 9.932 12.52 10.45 12.52 10.758ZM38.644 10.422C38.672 10.814 38.504 11.402 38.14 12.186C37.776 12.942 37.356 13.642 36.88 14.286C36.236 15.238 35.522 16.106 34.738 16.89C33.982 17.674 33.24 18.332 32.512 18.864C32.344 19.032 32.148 19.172 31.924 19.284C31.7 19.424 31.448 19.494 31.168 19.494C30.972 19.494 30.818 19.438 30.706 19.326C30.622 19.186 30.58 19.046 30.58 18.906V18.738C30.804 17.646 31 16.54 31.168 15.42C31.364 14.3 31.56 13.18 31.756 12.06H20.71C20.01 13.292 19.17 14.468 18.19 15.588C17.21 16.708 16.174 17.73 15.082 18.654C14.998 18.738 14.914 18.822 14.83 18.906C14.746 18.99 14.648 19.06 14.536 19.116C14.424 19.172 14.298 19.228 14.158 19.284C14.046 19.34 13.92 19.368 13.78 19.368C13.472 19.368 13.318 19.228 13.318 18.948C13.318 18.892 13.346 18.78 13.402 18.612C13.458 18.556 13.486 18.5 13.486 18.444C13.514 18.36 13.542 18.304 13.57 18.276C14.886 15.532 15.964 12.578 16.804 9.41401C17.672 6.25 18.316 3.184 18.736 0.216003L25.246 2.19C24.798 3.562 24.28 4.892 23.692 6.18C23.104 7.44 22.474 8.7 21.802 9.96H38.098C38.462 9.96 38.644 10.114 38.644 10.422Z" fill="white"/>
</svg>
