<svg width="42" height="489" viewBox="0 0 42 489" fill="none" xmlns="http://www.w3.org/2000/svg">
<path d="M18.2701 486.386V481.892H13.2301V486.386H18.2701ZM18.2701 479.96V475.55H13.2301V479.96H18.2701ZM28.9381 475.55H23.2681V479.96H24.6541C24.7941 479.512 25.0321 479.148 25.3681 478.868C25.7321 478.588 26.1661 478.448 26.6701 478.448C27.1461 478.448 27.5521 478.63 27.8881 478.994C28.2521 479.358 28.4341 479.75 28.4341 480.17C28.4341 480.59 28.2661 480.982 27.9301 481.346C27.5941 481.71 27.1881 481.892 26.7121 481.892H23.2681V486.428H26.4601C27.3281 486.428 27.9581 486.078 28.3501 485.378C28.7421 484.678 28.9381 483.908 28.9381 483.068V475.55ZM30.4501 473.702C29.1621 472.834 27.9021 471.826 26.6701 470.678C25.4661 469.502 24.3741 468.312 23.3941 467.108V472.652H18.2281V466.982C17.3601 468.27 16.3381 469.502 15.1621 470.678C13.9861 471.826 12.7541 472.834 11.4661 473.702H30.4501ZM41.9161 475.844C41.9161 476.292 41.6921 476.768 41.2441 477.272C40.7961 477.776 40.2921 478.028 39.7321 478.028C39.2561 478.028 38.7521 477.958 38.2201 477.818C37.7161 477.65 37.2121 477.468 36.7081 477.272C36.2601 477.076 35.8121 476.866 35.3641 476.642C34.9441 476.418 34.538 476.208 34.146 476.012V482.564C34.146 483.992 33.8101 485.14 33.1381 486.008C32.4941 486.876 31.6261 487.506 30.5341 487.898C29.4421 488.318 28.2521 488.528 26.9641 488.528L8.27405 488.486V475.55C7.85405 475.774 7.30805 476.026 6.63605 476.306C5.99205 476.586 5.30605 476.866 4.57805 477.146C3.85005 477.398 3.16405 477.622 2.52005 477.818C1.87605 477.986 1.35805 478.07 0.966052 478.07C0.798052 478.07 0.658052 478.014 0.546052 477.902C0.434052 477.79 0.378052 477.678 0.378052 477.566C0.378052 477.398 0.518051 477.216 0.798051 477.02C0.854051 477.02 0.910052 476.992 0.966052 476.936C1.33005 476.712 1.68005 476.488 2.01605 476.264C2.38005 476.04 2.74405 475.816 3.10805 475.592C3.80805 475.116 4.48005 474.64 5.12405 474.164C5.76805 473.66 6.38405 473.114 6.97205 472.526C8.20405 471.294 9.35205 469.978 10.4161 468.578C11.5081 467.178 12.5021 465.708 13.3981 464.168L18.2281 466.646V464.168H3.19205V462.068H13.6921C12.9921 461.452 12.2501 460.878 11.4661 460.346C10.7101 459.814 9.96805 459.268 9.24005 458.708C9.07205 458.596 8.98805 458.47 8.98805 458.33C8.98805 458.134 9.07205 458.022 9.24005 457.994C9.38005 457.91 9.68805 457.784 10.1641 457.616C10.6401 457.448 11.1721 457.266 11.7601 457.07C12.3761 456.874 12.9221 456.72 13.3981 456.608C13.8741 456.468 14.1821 456.398 14.3221 456.398C14.6301 456.398 14.8261 456.426 14.9101 456.482C14.9941 456.51 15.1061 456.636 15.2461 456.86C15.3861 457.168 15.4981 457.448 15.5821 457.7L15.8341 458.624C15.9741 459.184 16.1561 459.758 16.3801 460.346C16.6041 460.906 16.8001 461.48 16.9681 462.068H18.2281V455.894C16.2961 456.034 14.3641 456.146 12.4321 456.23C10.5001 456.314 8.56805 456.356 6.63605 456.356C6.46805 456.356 6.20205 456.356 5.83805 456.356C5.50205 456.328 5.18005 456.258 4.87205 456.146C4.56405 456.034 4.41005 455.852 4.41005 455.6C4.41005 455.46 4.48005 455.348 4.62005 455.264C4.78805 455.152 4.92805 455.082 5.04005 455.054C5.23605 454.998 5.43205 454.97 5.62805 454.97C5.85205 454.942 6.06205 454.914 6.25805 454.886C6.76205 454.83 7.26605 454.774 7.77005 454.718C8.30205 454.634 8.82005 454.55 9.32405 454.466C16.0441 453.374 22.6241 451.582 29.0641 449.09C29.6521 449.538 30.1981 450 30.7021 450.476C30.9261 450.7 31.1641 450.938 31.4161 451.19C31.6681 451.442 31.9201 451.68 32.1721 451.904L32.8861 452.576C33.0261 452.688 33.1521 452.8 33.2641 452.912C33.3761 453.024 33.4881 453.15 33.6001 453.29C33.7401 453.486 33.8101 453.654 33.8101 453.794C33.8101 454.046 33.6701 454.242 33.3901 454.382C33.2221 454.466 32.8301 454.55 32.2141 454.634C31.5981 454.718 30.8561 454.816 29.9881 454.928C29.1481 455.012 28.2801 455.096 27.3841 455.18C26.4881 455.264 25.6761 455.334 24.9481 455.39C24.2481 455.446 23.7301 455.488 23.3941 455.516V462.068H24.5281C24.8641 461.032 25.2141 460.01 25.5781 459.002C25.9421 457.966 26.2921 456.916 26.6281 455.852L27.9301 456.272C28.1821 456.356 28.4621 456.44 28.7701 456.524C29.0781 456.608 29.3721 456.692 29.6521 456.776C30.2121 456.972 30.7441 457.154 31.2481 457.322C31.7521 457.462 32.0461 457.56 32.1301 457.616C32.2981 457.728 32.4101 457.812 32.4661 457.868C32.5781 457.98 32.634 458.12 32.634 458.288C32.634 458.484 32.5781 458.638 32.4661 458.75C32.3821 458.862 32.2841 458.974 32.1721 459.086C31.8361 459.366 31.4581 459.646 31.0381 459.926C30.6461 460.178 30.2261 460.444 29.7781 460.724C29.4141 460.948 29.0361 461.172 28.6441 461.396C28.2521 461.62 27.8741 461.844 27.5101 462.068H34.3141C34.3981 461.368 34.6641 460.738 35.1121 460.178C35.5601 459.618 36.2041 459.338 37.0441 459.338C37.6601 459.338 38.2621 459.576 38.8501 460.052C39.4661 460.5 39.7741 461.032 39.7741 461.648C39.7741 462.46 39.5221 463.09 39.0181 463.538C38.5141 463.958 37.8421 464.168 37.0021 464.168H23.3941V466.814L28.0561 464.168C29.3721 466.128 30.828 468.088 32.424 470.048C34.0481 472.008 35.77 473.674 37.59 475.046C38.0661 474.206 38.8081 473.786 39.8161 473.786C40.4041 473.786 40.8941 473.996 41.2861 474.416C41.7061 474.836 41.9161 475.312 41.9161 475.844Z" fill="white"/>
<path d="M41.58 433.698C41.58 434.118 41.398 434.524 41.034 434.916C40.698 435.308 40.362 435.616 40.026 435.84C39.074 436.484 37.926 437.002 36.582 437.394C35.266 437.786 33.908 438.066 32.508 438.234C31.136 438.43 29.862 438.528 28.686 438.528C26.782 438.528 24.906 438.318 23.058 437.898C21.21 437.478 19.488 436.722 17.892 435.63C17.332 435.238 16.758 434.734 16.17 434.118C15.582 433.502 15.036 432.844 14.532 432.144C14.056 431.416 13.65 430.758 13.314 430.17C13.034 429.694 12.768 429.26 12.516 428.868C12.404 428.7 12.292 428.56 12.18 428.448C12.068 428.28 11.942 428.196 11.802 428.196V428.238H11.718C10.85 429.834 9.82799 431.402 8.65199 432.942C7.47599 434.454 6.15999 435.77 4.70399 436.89C4.45199 437.086 4.03199 437.352 3.44399 437.688C2.85599 438.052 2.37999 438.234 2.01599 438.234C1.90399 438.234 1.76399 438.206 1.59599 438.15C1.42799 438.094 1.34399 437.996 1.34399 437.856C1.34399 437.66 1.41399 437.45 1.55399 437.226C1.91799 436.778 2.30999 436.302 2.72999 435.798C3.17799 435.322 3.55599 434.86 3.86399 434.412C4.36799 433.684 4.80199 432.956 5.16599 432.228C5.55799 431.5 5.97799 430.534 6.42599 429.33C6.76199 428.406 7.08399 427.342 7.39199 426.138C7.69999 424.934 7.97999 423.688 8.23199 422.4C8.48399 421.112 8.70799 419.88 8.90399 418.704L14.826 420.132C14.63 421.168 14.35 422.176 13.986 423.156C13.65 424.136 13.286 425.116 12.894 426.096C13.258 426.152 13.594 426.264 13.902 426.432C14.182 426.572 14.448 426.768 14.7 427.02C14.952 427.244 15.176 427.482 15.372 427.734C15.652 428.042 15.918 428.35 16.17 428.658C16.422 428.938 16.688 429.232 16.968 429.54C17.192 429.82 17.416 430.086 17.64 430.338C17.892 430.562 18.158 430.8 18.438 431.052V415.218H10.122V412.992H28.098C28.182 412.348 28.448 411.858 28.896 411.522C29.372 411.158 29.946 410.976 30.618 410.976C31.234 410.976 31.752 411.214 32.172 411.69C32.592 412.166 32.802 412.684 32.802 413.244C32.802 413.748 32.578 414.21 32.13 414.63C31.71 415.022 31.22 415.218 30.66 415.218H23.688V422.064H30.66C30.772 421.42 31.052 420.902 31.5 420.51C31.976 420.09 32.55 419.88 33.222 419.88C33.866 419.88 34.426 420.104 34.902 420.552C35.406 420.972 35.658 421.504 35.658 422.148C35.658 422.764 35.42 423.282 34.944 423.702C34.496 424.094 33.95 424.29 33.306 424.29H23.688V433.908C24.92 434.356 26.11 434.706 27.258 434.958C28.434 435.21 29.666 435.336 30.954 435.336C32.018 435.336 33.096 435.308 34.188 435.252C35.28 435.196 36.344 435.084 37.38 434.916C36.988 434.524 36.792 434.006 36.792 433.362C36.792 432.774 37.086 432.284 37.674 431.892C38.262 431.5 38.822 431.304 39.354 431.304C39.942 431.304 40.46 431.57 40.908 432.102C41.356 432.606 41.58 433.138 41.58 433.698ZM40.53 406.398C40.53 406.706 40.432 407.098 40.236 407.574C40.04 408.022 39.816 408.47 39.564 408.918C39.34 409.338 39.158 409.674 39.018 409.926C38.486 410.766 37.856 411.592 37.128 412.404C36.428 413.188 35.686 413.874 34.902 414.462C34.846 414.518 34.734 414.602 34.566 414.714C34.342 414.798 34.076 414.84 33.768 414.84C33.488 414.84 33.306 414.728 33.222 414.504C33.138 414.28 33.096 414.042 33.096 413.79C33.096 413.482 33.11 413.174 33.138 412.866C33.194 412.558 33.236 412.25 33.264 411.942C33.32 411.27 33.362 410.612 33.39 409.968C33.418 409.296 33.446 408.638 33.474 407.994H8.90399V415.008H3.69599V405.768H18.606C18.41 404.676 18.228 403.584 18.06 402.492C17.892 401.4 17.738 400.294 17.598 399.174C17.878 399.174 18.368 399.188 19.068 399.216C19.768 399.216 20.524 399.23 21.336 399.258C22.148 399.258 22.876 399.286 23.52 399.342C24.164 399.37 24.57 399.426 24.738 399.51C24.99 399.65 25.116 399.888 25.116 400.224C25.116 400.476 25.032 400.854 24.864 401.358C24.696 401.834 24.486 402.366 24.234 402.954C24.01 403.514 23.772 404.06 23.52 404.592C23.296 405.096 23.114 405.488 22.974 405.768H39.774C40.278 405.768 40.53 405.978 40.53 406.398Z" fill="white"/>
<path d="M21.966 365.848C21.966 366.38 21.756 366.814 21.336 367.15C20.944 367.486 20.496 367.654 19.992 367.654H13.944V370.846H16.716C16.772 370.37 16.982 369.936 17.346 369.544C17.71 369.124 18.13 368.914 18.606 368.914C19.166 368.914 19.656 369.11 20.076 369.502C20.524 369.894 20.748 370.37 20.748 370.93C20.748 371.602 20.496 372.092 19.992 372.4C19.488 372.68 18.942 372.82 18.354 372.82H13.944V375.676C14.504 375.452 15.064 375.228 15.624 375.004C16.212 374.752 16.772 374.514 17.304 374.29C17.584 375.27 17.906 376.222 18.27 377.146C18.662 378.07 19.124 378.966 19.656 379.834C19.712 379.946 19.768 380.058 19.824 380.17C19.88 380.282 19.908 380.408 19.908 380.548C19.908 380.744 19.81 380.926 19.614 381.094C19.446 381.234 19.25 381.304 19.026 381.304C18.522 381.304 17.92 381.066 17.22 380.59C16.548 380.086 15.904 379.512 15.288 378.868C14.7 378.224 14.252 377.706 13.944 377.314V387.772H9.07197V377.398C8.81997 378.21 8.34397 379.064 7.64397 379.96C6.97197 380.856 6.20197 381.682 5.33397 382.438C4.49397 383.166 3.69597 383.74 2.93997 384.16C2.74397 384.272 2.49197 384.398 2.18397 384.538C1.87597 384.678 1.60997 384.748 1.38597 384.748C1.27397 384.748 1.14797 384.706 1.00797 384.622C0.895966 384.538 0.839966 384.44 0.839966 384.328C0.839966 384.188 0.923966 383.992 1.09197 383.74C1.28797 383.488 1.42797 383.306 1.51197 383.194C2.04397 382.438 2.53397 381.528 2.98197 380.464C3.42997 379.372 3.80797 378.266 4.11597 377.146C4.42397 375.998 4.63397 374.962 4.74597 374.038C5.47397 374.234 6.20197 374.416 6.92997 374.584C7.65797 374.752 8.37197 374.934 9.07197 375.13V372.82H2.14197V370.846H9.07197V367.654H1.93197V365.596H12.516C12.74 364.476 12.936 363.356 13.104 362.236C13.3 361.116 13.496 359.996 13.692 358.876C14.812 359.156 15.96 359.492 17.136 359.884C17.388 359.968 17.64 360.052 17.892 360.136C18.172 360.192 18.424 360.262 18.648 360.346C18.788 360.402 18.858 360.472 18.858 360.556C18.886 360.64 18.9 360.752 18.9 360.892C18.9 361.088 18.76 361.326 18.48 361.606C18.2 361.886 17.99 362.096 17.85 362.236C17.262 362.796 16.674 363.356 16.086 363.916C15.498 364.476 14.896 365.036 14.28 365.596H17.724C17.78 365.036 18.004 364.546 18.396 364.126C18.788 363.678 19.264 363.454 19.824 363.454C20.552 363.454 21.084 363.692 21.42 364.168C21.784 364.616 21.966 365.176 21.966 365.848ZM9.82797 361.564C9.82797 361.872 9.81397 362.334 9.78597 362.95C9.78597 363.566 9.68797 364.126 9.49197 364.63C9.32397 365.106 9.00197 365.344 8.52597 365.344C8.24597 365.344 7.97997 365.26 7.72797 365.092C7.50397 364.896 7.29397 364.7 7.09797 364.504C6.50997 363.86 5.93597 363.23 5.37597 362.614C4.84397 361.97 4.32597 361.298 3.82197 360.598C4.18597 360.458 4.68997 360.29 5.33397 360.094C6.00597 359.898 6.66397 359.73 7.30797 359.59C7.97997 359.422 8.48397 359.338 8.81997 359.338C9.21197 359.338 9.47797 359.464 9.61797 359.716C9.75797 359.968 9.82797 360.276 9.82797 360.64C9.82797 360.976 9.82797 361.284 9.82797 361.564ZM21.126 356.398C21.126 356.93 20.902 357.42 20.454 357.868C20.006 358.288 19.502 358.498 18.942 358.498H2.98197V356.356H9.28197C9.02997 355.292 8.79197 354.228 8.56797 353.164C8.34397 352.1 8.11997 351.05 7.89597 350.014H9.82797C9.99597 350.014 10.318 350.028 10.794 350.056C11.298 350.084 11.83 350.126 12.39 350.182C12.95 350.21 13.44 350.252 13.86 350.308C14.308 350.336 14.588 350.378 14.7 350.434C14.896 350.546 15.022 350.644 15.078 350.728C15.134 350.784 15.162 350.924 15.162 351.148C15.162 351.484 15.036 352.002 14.784 352.702C14.56 353.402 14.294 354.102 13.986 354.802C13.706 355.502 13.468 356.02 13.272 356.356H16.296C16.352 355.656 16.618 355.11 17.094 354.718C17.57 354.326 18.144 354.13 18.816 354.13C19.432 354.13 19.964 354.354 20.412 354.802C20.888 355.25 21.126 355.782 21.126 356.398ZM41.286 364.294C41.286 365.078 41.006 365.736 40.446 366.268C39.914 366.772 39.256 367.024 38.472 367.024H35.7V388.192H30.366V367.024H28.014C28.014 369.376 27.86 371.574 27.552 373.618C27.272 375.634 26.67 377.524 25.746 379.288C24.822 381.052 23.408 382.746 21.504 384.37C21.224 384.594 20.748 384.902 20.076 385.294C19.432 385.714 18.76 386.078 18.06 386.386C17.388 386.722 16.87 386.89 16.506 386.89C16.394 386.89 16.282 386.848 16.17 386.764C16.058 386.708 16.002 386.624 16.002 386.512C16.002 386.4 16.058 386.288 16.17 386.176C16.786 385.588 17.332 385.07 17.808 384.622C18.284 384.174 18.732 383.698 19.152 383.194C19.572 382.69 19.992 382.06 20.412 381.304C21.616 379.092 22.33 376.782 22.554 374.374C22.806 371.938 22.932 369.488 22.932 367.024C22.932 365.036 22.904 363.048 22.848 361.06C22.82 359.072 22.778 357.098 22.722 355.138L27.006 355.558C28.406 354.858 29.764 354.088 31.08 353.248C32.396 352.408 33.698 351.554 34.986 350.686C35.21 350.798 35.56 351.036 36.036 351.4C36.54 351.736 37.058 352.128 37.59 352.576C38.15 352.996 38.626 353.402 39.018 353.794C39.41 354.186 39.606 354.494 39.606 354.718C39.606 354.998 39.494 355.222 39.27 355.39C39.046 355.53 38.822 355.642 38.598 355.726C38.15 355.894 37.45 356.048 36.498 356.188C35.574 356.3 34.566 356.398 33.474 356.482C32.382 356.566 31.332 356.636 30.324 356.692C29.344 356.72 28.574 356.748 28.014 356.776C28.014 358.148 28.014 359.534 28.014 360.934C28.042 362.306 28.042 363.692 28.014 365.092H35.616C35.672 364.252 35.924 363.496 36.372 362.824C36.848 362.152 37.548 361.816 38.472 361.816C39.116 361.816 39.746 362.054 40.362 362.53C40.978 363.006 41.286 363.594 41.286 364.294Z" fill="white"/>
<path d="M19.67 312.18C17.4533 312.67 15.61 313.685 14.14 315.225C12.67 316.765 11.5616 318.573 10.815 320.65C10.605 321.233 10.4183 321.84 10.255 322.47C10.115 323.1 10.045 323.73 10.045 324.36C10.045 324.687 10.0683 325.13 10.115 325.69C10.1616 326.227 10.29 326.705 10.5 327.125C10.71 327.545 11.06 327.755 11.55 327.755C11.8533 327.755 12.1566 327.65 12.46 327.44C12.7866 327.207 13.055 327.008 13.265 326.845C14.6183 325.725 15.75 324.348 16.66 322.715C17.5933 321.082 18.305 319.343 18.795 317.5C19.3083 315.657 19.6 313.883 19.67 312.18ZM35.63 321.875C35.63 324.442 35.0816 326.6 33.985 328.35C32.8883 330.1 31.4066 331.535 29.54 332.655C27.6966 333.752 25.6316 334.603 23.345 335.21C23.0416 335.28 22.645 335.362 22.155 335.455C21.6883 335.572 21.2333 335.665 20.79 335.735C20.3466 335.805 19.9966 335.84 19.74 335.84C19.6466 335.84 19.5066 335.828 19.32 335.805C19.1566 335.805 19.075 335.747 19.075 335.63C19.075 335.49 19.145 335.373 19.285 335.28C19.425 335.21 19.5416 335.163 19.635 335.14C20.1716 334.953 20.685 334.755 21.175 334.545C21.665 334.335 22.1666 334.113 22.68 333.88C24.9666 332.737 26.775 331.103 28.105 328.98C28.7816 327.883 29.26 326.682 29.54 325.375C29.8433 324.068 29.995 322.773 29.995 321.49C29.995 319.507 29.6333 317.745 28.91 316.205C28.1866 314.665 26.8683 313.463 24.955 312.6C24.4416 312.367 23.905 312.203 23.345 312.11C22.785 312.017 22.225 311.97 21.665 311.97C21.5716 312.273 21.525 312.635 21.525 313.055C21.525 313.638 21.6066 314.21 21.77 314.77C21.9566 315.33 22.05 315.913 22.05 316.52C22.05 316.87 22.015 317.232 21.945 317.605C21.8983 317.955 21.84 318.305 21.77 318.655C21.3966 320.358 20.86 322.05 20.16 323.73C19.4833 325.41 18.62 326.985 17.57 328.455C16.52 329.902 15.2366 331.127 13.72 332.13C13.3933 332.34 13.0433 332.515 12.67 332.655C12.2966 332.795 11.9116 332.865 11.515 332.865C10.6983 332.865 10.1033 332.678 9.72996 332.305C9.35663 331.908 9.11163 331.325 8.99496 330.555C8.92496 329.972 8.87829 329.505 8.85496 329.155C8.83163 328.805 8.73829 328.478 8.57496 328.175C8.43496 327.872 8.13163 327.498 7.66496 327.055C7.08163 326.472 6.70829 325.877 6.54496 325.27C6.40496 324.663 6.33496 323.963 6.33496 323.17C6.33496 322.423 6.48663 321.63 6.78996 320.79C7.09329 319.927 7.43163 319.18 7.80496 318.55C9.43829 315.797 11.5733 313.743 14.21 312.39C16.8466 311.037 19.74 310.36 22.89 310.36C24.6633 310.36 26.32 310.593 27.86 311.06C29.4233 311.527 30.8 312.273 31.99 313.3C33.2033 314.327 34.1483 315.68 34.825 317.36C35.1283 318.107 35.3383 318.842 35.455 319.565C35.5716 320.288 35.63 321.058 35.63 321.875Z" fill="white"/>
<path d="M34.356 263.118C34.356 263.566 34.202 263.986 33.894 264.378C33.614 264.742 33.292 265.05 32.928 265.302C32.592 265.554 32.34 265.75 32.172 265.89C32.004 266.254 31.724 266.772 31.332 267.444C30.94 268.088 30.646 268.606 30.45 268.998C29.918 270.118 29.26 271.266 28.476 272.442C27.72 273.59 26.936 274.696 26.124 275.76C24.024 278.448 21.602 280.702 18.858 282.522C16.114 284.314 13.076 285.616 9.74397 286.428C9.09997 286.568 8.32997 286.708 7.43397 286.848C6.53797 287.016 5.66997 287.142 4.82997 287.226C3.98997 287.338 3.31797 287.394 2.81397 287.394C2.78597 287.394 2.65997 287.38 2.43597 287.352C2.23997 287.352 2.14197 287.324 2.14197 287.268C2.14197 287.128 2.16997 287.03 2.22597 286.974C2.28197 286.946 2.36597 286.904 2.47797 286.848C2.70197 286.764 2.92597 286.68 3.14997 286.596C3.40197 286.512 3.63997 286.428 3.86397 286.344C4.42397 286.148 4.98397 285.938 5.54397 285.714C6.10397 285.49 6.64997 285.238 7.18197 284.958C10.206 283.474 12.992 281.612 15.54 279.372C18.088 277.132 20.3 274.612 22.176 271.812C22.428 271.392 22.764 270.832 23.184 270.132C23.604 269.404 24.024 268.634 24.444 267.822C24.864 266.982 25.214 266.184 25.494 265.428C25.774 264.672 25.914 264.056 25.914 263.58C25.914 263.328 25.774 263.202 25.494 263.202C25.158 263.202 24.738 263.286 24.234 263.454C23.73 263.594 23.226 263.748 22.722 263.916C22.246 264.056 21.84 264.126 21.504 264.126C20.888 264.126 20.3 263.916 19.74 263.496C18.704 265.232 17.458 266.828 16.002 268.284C14.574 269.74 13.006 271.028 11.298 272.148C10.85 272.428 10.29 272.736 9.61797 273.072C8.94597 273.408 8.25997 273.702 7.55997 273.954C6.88797 274.178 6.31397 274.318 5.83797 274.374C5.75397 274.402 5.61397 274.416 5.41797 274.416C5.19397 274.416 5.08197 274.332 5.08197 274.164C5.08197 274.08 5.15197 273.968 5.29197 273.828C5.45997 273.688 5.57197 273.604 5.62797 273.576C7.69997 271.84 9.56197 269.824 11.214 267.528C12.894 265.204 14.252 262.74 15.288 260.136C15.372 259.968 15.498 259.632 15.666 259.128C15.834 258.624 15.988 258.12 16.128 257.616C16.268 257.084 16.338 256.748 16.338 256.608C16.338 256.58 16.338 256.566 16.338 256.566C16.366 256.538 16.38 256.51 16.38 256.482C16.38 256.034 16.198 255.642 15.834 255.306C15.47 254.942 15.078 254.704 14.658 254.592C14.77 254.256 15.036 253.962 15.456 253.71C15.876 253.43 16.338 253.206 16.842 253.038C17.346 252.87 17.752 252.786 18.06 252.786C18.536 252.786 19.096 252.898 19.74 253.122C20.412 253.346 21.056 253.654 21.672 254.046C22.316 254.438 22.848 254.886 23.268 255.39C23.688 255.866 23.898 256.384 23.898 256.944C23.898 257.336 23.772 257.672 23.52 257.952C23.268 258.204 23.03 258.47 22.806 258.75C22.582 259.198 22.358 259.604 22.134 259.968C21.91 260.304 21.658 260.71 21.378 261.186C21.658 261.186 22.078 261.13 22.638 261.018C23.226 260.906 23.8 260.78 24.36 260.64C24.948 260.472 25.34 260.332 25.536 260.22C25.704 260.136 25.9 260.038 26.124 259.926C26.376 259.814 26.628 259.702 26.88 259.59C27.188 259.394 27.468 259.24 27.72 259.128C27.972 259.016 28.196 258.96 28.392 258.96C28.644 258.96 28.924 258.988 29.232 259.044C29.568 259.1 29.876 259.212 30.156 259.38C30.604 259.632 31.122 259.926 31.71 260.262C32.298 260.57 32.76 260.878 33.096 261.186C33.404 261.438 33.684 261.718 33.936 262.026C34.216 262.334 34.356 262.698 34.356 263.118ZM36.96 257.7C36.96 258.372 36.75 258.904 36.33 259.296C35.938 259.688 35.406 259.884 34.734 259.884C34.37 259.884 34.048 259.73 33.768 259.422C33.516 259.086 33.32 258.778 33.18 258.498C32.984 258.022 32.76 257.56 32.508 257.112C32.284 256.636 31.99 256.202 31.626 255.81C31.402 255.53 31.15 255.278 30.87 255.054C30.59 254.802 30.296 254.578 29.988 254.382C29.96 254.354 29.904 254.326 29.82 254.298C29.764 254.242 29.736 254.172 29.736 254.088C29.736 253.976 29.918 253.92 30.282 253.92C30.674 253.892 30.926 253.878 31.038 253.878C31.458 253.878 31.878 253.906 32.298 253.962C32.746 253.99 33.166 254.06 33.558 254.172C34.034 254.312 34.524 254.564 35.028 254.928C35.56 255.264 36.008 255.684 36.372 256.188C36.764 256.664 36.96 257.168 36.96 257.7ZM41.412 254.298C41.412 254.914 41.216 255.432 40.824 255.852C40.432 256.272 39.914 256.482 39.27 256.482C38.542 256.482 38.01 256.188 37.674 255.6C37.114 254.592 36.414 253.738 35.574 253.038C35.266 252.73 34.93 252.478 34.566 252.282C34.23 252.058 33.88 251.82 33.516 251.568C33.404 251.456 33.348 251.372 33.348 251.316C33.348 251.176 33.502 251.092 33.81 251.064C34.146 251.008 34.482 250.98 34.818 250.98C35.182 250.952 35.42 250.938 35.532 250.938C35.924 250.938 36.302 250.952 36.666 250.98C37.058 251.008 37.436 251.05 37.8 251.106C38.304 251.19 38.836 251.372 39.396 251.652C39.956 251.932 40.432 252.296 40.824 252.744C41.216 253.192 41.412 253.71 41.412 254.298Z" fill="white"/>
<path d="M38.1361 213.118C38.1361 213.174 38.1081 213.286 38.0521 213.454C37.9961 213.622 37.9401 213.734 37.8841 213.79C37.4081 214.77 36.6801 215.26 35.7001 215.26C35.2241 215.26 34.7481 215.204 34.2721 215.092C33.7961 214.952 33.3201 214.854 32.8441 214.798C32.0601 214.658 31.2341 214.588 30.3661 214.588C29.5261 214.56 28.7001 214.546 27.8881 214.546C27.6921 214.546 27.4961 214.546 27.3001 214.546C27.1321 214.546 26.9361 214.546 26.7121 214.546C26.9641 214.686 27.3001 214.882 27.7201 215.134C28.1401 215.386 28.3501 215.68 28.3501 216.016C28.3501 216.268 28.2941 216.506 28.1821 216.73C28.0981 216.954 27.9861 217.178 27.8461 217.402C27.5661 218.55 27.2161 219.768 26.7961 221.056C26.3761 222.344 25.9281 223.534 25.4521 224.626C22.8761 230.422 18.5921 234.384 12.6001 236.512C12.3201 236.624 11.9001 236.764 11.3401 236.932C10.7801 237.1 10.1781 237.268 9.53405 237.436C8.91805 237.604 8.33005 237.744 7.77005 237.856C7.23805 237.968 6.81805 238.024 6.51005 238.024C6.39805 238.024 6.34205 237.954 6.34205 237.814C6.34205 237.702 6.49605 237.562 6.80405 237.394C7.14005 237.226 7.49005 237.058 7.85405 236.89C8.21805 236.722 8.45605 236.61 8.56805 236.554C10.8081 235.434 12.7541 233.978 14.4061 232.186C16.0861 230.366 17.4721 228.336 18.5641 226.096C18.9561 225.284 19.3621 224.29 19.7821 223.114C20.2021 221.91 20.5521 220.706 20.8321 219.502C21.1121 218.27 21.2521 217.22 21.2521 216.352C21.2521 216.044 21.2101 215.778 21.1261 215.554C21.0701 215.302 20.8461 215.176 20.4541 215.176C20.1741 215.176 19.7121 215.232 19.0681 215.344C18.4241 215.456 17.9621 215.568 17.6821 215.68C17.3461 215.792 17.0381 215.946 16.7581 216.142C16.4781 216.338 16.1421 216.436 15.7501 216.436C15.5541 216.436 15.3301 216.366 15.0781 216.226C14.8541 216.086 14.6581 215.96 14.4901 215.848C13.3421 217.08 11.9841 218.312 10.4161 219.544C8.87605 220.748 7.33605 221.714 5.79605 222.442C5.57205 222.554 5.27805 222.68 4.91405 222.82C4.57805 222.96 4.28405 223.03 4.03205 223.03C3.78005 223.03 3.65405 222.89 3.65405 222.61C3.65405 222.526 3.76605 222.4 3.99005 222.232C4.24205 222.036 4.41005 221.91 4.49405 221.854C4.97005 221.49 5.46005 221.014 5.96405 220.426C6.49605 219.838 6.95805 219.306 7.35005 218.83C8.07805 217.934 8.73605 217.024 9.32405 216.1C9.91205 215.148 10.4581 214.154 10.9621 213.118C11.2141 212.614 11.4661 212.026 11.7181 211.354C11.9701 210.654 12.2081 209.954 12.4321 209.254C12.6561 208.526 12.7961 207.896 12.8521 207.364C12.8521 207.308 12.8521 207.252 12.8521 207.196C12.8801 207.14 12.8941 207.098 12.8941 207.07C12.8941 206.398 12.7121 205.936 12.3481 205.684C12.0121 205.432 11.6621 205.264 11.2981 205.18C10.9341 205.068 10.7521 204.914 10.7521 204.718C10.7521 204.606 10.8221 204.522 10.9621 204.466C11.5501 204.074 12.3201 203.724 13.2721 203.416C14.2241 203.08 15.0501 202.912 15.7501 202.912C16.4221 202.912 17.1221 203.108 17.8501 203.5C18.6061 203.892 19.2361 204.41 19.7401 205.054C20.2721 205.698 20.5381 206.384 20.5381 207.112C20.5381 207.364 20.3841 207.63 20.0761 207.91C19.7681 208.162 19.5161 208.358 19.3201 208.498C18.8721 209.338 18.3681 210.15 17.8081 210.934C17.2761 211.718 16.7301 212.502 16.1701 213.286C18.1581 213.006 20.1321 212.642 22.0921 212.194C24.0521 211.746 25.9981 211.256 27.9301 210.724C28.4901 210.556 29.0501 210.304 29.6101 209.968C30.1981 209.604 30.7721 209.422 31.3321 209.422C31.7801 209.422 32.3681 209.52 33.0961 209.716C33.8521 209.884 34.6081 210.136 35.3641 210.472C36.1481 210.78 36.8061 211.158 37.3381 211.606C37.8701 212.054 38.1361 212.558 38.1361 213.118Z" fill="white"/>
<path d="M30.415 171.35C30.415 173.193 30.1816 174.99 29.715 176.74C29.2716 178.467 28.4083 180.042 27.125 181.465C25.9816 182.702 24.6516 183.728 23.135 184.545C21.6183 185.338 20.02 185.968 18.34 186.435C16.66 186.902 15.015 187.252 13.405 187.485C13.265 187.508 13.125 187.52 12.985 187.52C12.845 187.543 12.705 187.555 12.565 187.555C12.425 187.555 12.2616 187.532 12.075 187.485C11.9116 187.462 11.83 187.345 11.83 187.135C11.83 186.948 11.9933 186.808 12.32 186.715C12.67 186.622 12.915 186.563 13.055 186.54C13.9183 186.283 14.77 185.992 15.61 185.665C16.45 185.362 17.2666 185.012 18.06 184.615C20.0666 183.588 21.56 182.34 22.54 180.87C23.52 179.4 24.1616 177.755 24.465 175.935C24.7916 174.115 24.955 172.167 24.955 170.09C24.955 169.857 24.9433 169.483 24.92 168.97C24.8966 168.433 24.85 167.862 24.78 167.255C24.7333 166.625 24.64 166.018 24.5 165.435C24.3833 164.852 24.2083 164.373 23.975 164C23.765 163.627 23.4966 163.44 23.17 163.44C22.8666 163.44 22.575 163.568 22.295 163.825C22.015 164.058 21.77 164.338 21.56 164.665C21.3733 164.968 21.21 165.237 21.07 165.47C20.5333 166.473 20.1483 167.558 19.915 168.725C19.6816 169.892 19.565 171.047 19.565 172.19C19.565 173.263 19.6583 174.36 19.845 175.48C19.8683 175.597 19.8916 175.713 19.915 175.83C19.9383 175.947 19.95 176.075 19.95 176.215C19.95 176.798 19.7983 177.277 19.495 177.65C19.215 178 18.7716 178.175 18.165 178.175C17.325 178.175 16.5783 177.942 15.925 177.475C15.295 177.008 14.7583 176.413 14.315 175.69C13.895 174.943 13.58 174.162 13.37 173.345C13.16 172.528 13.055 171.758 13.055 171.035C13.055 169.495 13.1833 167.967 13.44 166.45C13.72 164.933 13.93 163.405 14.07 161.865C14.0933 161.678 14.105 161.48 14.105 161.27C14.1283 161.06 14.14 160.862 14.14 160.675C14.14 160.138 13.9766 159.59 13.65 159.03C13.3233 158.447 12.9266 158.038 12.46 157.805C12.5766 157.572 12.7633 157.432 13.02 157.385C13.3 157.315 13.545 157.28 13.755 157.28C14.315 157.28 14.9216 157.362 15.575 157.525C16.2283 157.665 16.835 157.898 17.395 158.225C17.9783 158.552 18.4566 158.96 18.83 159.45C19.2033 159.94 19.39 160.523 19.39 161.2C19.39 161.597 19.32 161.993 19.18 162.39C19.0633 162.787 18.9116 163.172 18.725 163.545C18.2116 164.758 17.745 165.948 17.325 167.115C16.9283 168.258 16.73 169.507 16.73 170.86C16.73 170.977 16.73 171.198 16.73 171.525C16.7533 171.852 16.8 172.155 16.87 172.435C16.9633 172.692 17.1033 172.82 17.29 172.82C17.3833 172.82 17.4416 172.68 17.465 172.4C17.5116 172.12 17.5466 171.945 17.57 171.875C17.8266 170.498 18.1766 169.122 18.62 167.745C19.0633 166.368 19.6816 165.108 20.475 163.965C20.9883 163.218 21.5716 162.612 22.225 162.145C22.8783 161.655 23.6716 161.41 24.605 161.41C25.0016 161.41 25.3983 161.48 25.795 161.62C26.1916 161.737 26.565 161.9 26.915 162.11C27.895 162.717 28.63 163.545 29.12 164.595C29.6333 165.645 29.9716 166.777 30.135 167.99C30.3216 169.18 30.415 170.3 30.415 171.35Z" fill="white"/>
<path d="M19.824 111.102C19.824 111.746 19.642 112.306 19.278 112.782C18.942 113.258 18.438 113.566 17.766 113.706L11.172 115.218C11.172 116.786 11.158 118.382 11.13 120.006C11.13 121.602 11.13 123.184 11.13 124.752C11.13 125.704 11.284 126.502 11.592 127.146C11.9 127.79 12.558 128.112 13.566 128.112C14.182 128.112 14.812 127.972 15.456 127.692C14.924 127.216 14.658 126.6 14.658 125.844C14.658 125.228 14.938 124.682 15.498 124.206C16.058 123.702 16.66 123.45 17.304 123.45C17.948 123.45 18.48 123.66 18.9 124.08C19.348 124.5 19.572 125.004 19.572 125.592C19.572 126.264 19.348 126.894 18.9 127.482C18.452 128.042 17.878 128.532 17.178 128.952C16.506 129.344 15.792 129.652 15.036 129.876C14.308 130.1 13.65 130.212 13.062 130.212C10.626 130.212 8.83403 129.75 7.68603 128.826C6.56603 127.874 6.00603 126.152 6.00603 123.66C6.00603 122.428 6.00603 121.21 6.00603 120.006C6.00603 118.774 5.99203 117.556 5.96403 116.352L0.882028 117.444L0.504028 115.134L5.96403 114V102.618H11.172V112.866L14.616 112.152C14.532 111.844 14.49 111.55 14.49 111.27C14.49 110.626 14.714 110.024 15.162 109.464C15.61 108.904 16.212 108.624 16.968 108.624C17.752 108.624 18.424 108.848 18.984 109.296C19.544 109.716 19.824 110.318 19.824 111.102ZM28.812 107.952C28.7 110.164 28.476 112.488 28.14 114.924C27.832 117.36 27.342 119.754 26.67 122.106C26.026 124.43 25.13 126.544 23.982 128.448C23.254 129.652 22.316 130.828 21.168 131.976C20.048 133.124 18.9 134.132 17.724 135C16.884 135.616 15.988 136.148 15.036 136.596C14.084 137.072 13.118 137.478 12.138 137.814C11.998 137.87 11.844 137.926 11.676 137.982C11.508 138.038 11.326 138.094 11.13 138.15C10.934 138.178 10.738 138.206 10.542 138.234C10.374 138.29 10.206 138.318 10.038 138.318C9.73003 138.318 9.57603 138.178 9.57603 137.898C9.57603 137.786 9.61803 137.674 9.70203 137.562C9.78603 137.478 9.88403 137.394 9.99603 137.31L10.206 137.184C11.354 136.512 12.418 135.784 13.398 135C14.462 134.104 15.456 133.11 16.38 132.018C17.304 130.926 18.102 129.778 18.774 128.574C19.922 126.53 20.776 124.276 21.336 121.812C21.924 119.348 22.33 116.828 22.554 114.252C22.806 111.676 22.96 109.212 23.016 106.86L28.812 107.952ZM39.018 104.256C39.018 106.356 38.99 108.442 38.934 110.514C38.878 112.586 38.822 114.658 38.766 116.73C38.738 117.934 38.696 119.25 38.64 120.678C38.612 122.078 38.542 123.478 38.43 124.878C38.318 126.306 38.178 127.664 38.01 128.952C37.842 130.24 37.562 131.458 37.17 132.606C36.666 134.09 35.924 135.336 34.944 136.344C33.964 137.38 32.634 137.898 30.954 137.898C29.89 137.898 28.868 137.576 27.888 136.932C26.908 136.288 26.026 135.504 25.242 134.58C24.486 133.656 23.856 132.802 23.352 132.018C23.324 131.934 23.254 131.808 23.142 131.64C23.03 131.444 22.974 131.29 22.974 131.178C22.974 130.954 23.086 130.842 23.31 130.842C23.394 130.842 23.464 130.856 23.52 130.884C23.576 130.912 23.618 130.94 23.646 130.968C24.458 131.64 25.41 132.2 26.502 132.648C27.622 133.068 28.728 133.278 29.82 133.278C30.156 133.278 30.464 133.138 30.744 132.858C31.024 132.55 31.262 132.2 31.458 131.808C31.654 131.416 31.794 131.066 31.878 130.758C32.046 130.142 32.186 129.428 32.298 128.616C32.41 127.804 32.494 127.034 32.55 126.306C32.802 122.974 32.956 119.642 33.012 116.31C33.068 112.978 33.096 109.632 33.096 106.272H14.826V104.256H39.018Z" fill="white"/>
<path d="M20.405 70.615C20.0783 71.2683 19.775 71.9333 19.495 72.61C19.215 73.2633 18.935 73.9283 18.655 74.605C18.375 75.2583 18.1183 75.97 17.885 76.74C17.6516 77.51 17.535 78.2567 17.535 78.98C17.535 79.47 17.64 79.9133 17.85 80.31C18.0833 80.6833 18.305 81.0217 18.515 81.325C18.7483 81.6283 18.865 81.8967 18.865 82.13C18.865 82.7833 18.6316 83.3083 18.165 83.705C17.7216 84.0783 17.185 84.265 16.555 84.265C16.0883 84.265 15.6333 84.2417 15.19 84.195C14.7466 84.125 14.315 83.9733 13.895 83.74C12.5183 82.97 11.48 81.99 10.78 80.8C10.1033 79.5867 9.62498 78.2683 9.34498 76.845C9.08831 75.3983 8.91331 73.9633 8.81998 72.54C8.77331 71.56 8.73831 70.58 8.71498 69.6C8.69164 68.5967 8.65664 67.605 8.60998 66.625C8.58664 65.6917 8.43498 64.7817 8.15497 63.895C7.87498 63.0083 7.31498 62.3083 6.47498 61.795C6.73164 61.7017 6.98831 61.6433 7.24498 61.62C7.50164 61.5967 7.78164 61.585 8.08498 61.585C9.71831 61.585 11.0833 62.005 12.18 62.845C13.3 63.685 13.86 64.98 13.86 66.73C13.86 67.1967 13.8133 67.675 13.72 68.165C13.6266 68.655 13.5216 69.1333 13.405 69.6C13.1716 70.44 13.0083 71.2917 12.915 72.155C12.8216 73.0183 12.775 73.8933 12.775 74.78C12.775 74.99 12.81 75.34 12.88 75.83C12.95 76.32 13.0666 76.775 13.23 77.195C13.3933 77.615 13.615 77.825 13.895 77.825C13.9416 77.825 14.0233 77.79 14.14 77.72C14.2566 77.65 14.3266 77.6033 14.35 77.58C14.5366 77.4167 14.7 77.23 14.84 77.02C15.0033 76.81 15.1666 76.6117 15.33 76.425C15.75 75.8183 16.24 75.1533 16.8 74.43C17.36 73.7067 17.9433 72.995 18.55 72.295C19.1566 71.595 19.7283 71 20.265 70.51L20.405 70.615ZM36.295 73.94C36.295 74.8733 36.05 75.7133 35.56 76.46C35.07 77.1833 34.3116 77.545 33.285 77.545C32.6083 77.545 32.0483 77.3233 31.605 76.88C31.1616 76.4133 30.8933 75.865 30.8 75.235C30.7066 74.675 30.6016 74.1383 30.485 73.625C30.3916 73.0883 30.2283 72.5633 29.995 72.05C29.4816 70.79 28.665 69.9383 27.545 69.495C26.425 69.0517 25.235 68.83 23.975 68.83C23.7183 68.83 23.45 68.8533 23.17 68.9C22.9133 68.9467 22.645 68.9933 22.365 69.04L22.26 68.795C22.7033 68.375 23.24 68.0367 23.87 67.78C24.5233 67.5 25.2 67.3017 25.9 67.185C26.6 67.045 27.23 66.975 27.79 66.975C29.2366 66.975 30.6016 67.22 31.885 67.71C33.1916 68.2 34.2533 68.9583 35.07 69.985C35.8866 71.0117 36.295 72.33 36.295 73.94Z" fill="white"/>
<path d="M23.3101 20.468V14.294H19.4881V20.468H23.3101ZM32.7601 14.294H28.6861C28.6581 15.33 28.6441 16.366 28.6441 17.402C28.6441 18.41 28.6301 19.432 28.6021 20.468H30.9121C31.5001 20.468 31.9481 20.146 32.2561 19.502C32.5921 18.858 32.7601 18.242 32.7601 17.654V14.294ZM14.3641 2.78601C14.1961 3.29001 13.9161 4.00401 13.5241 4.92801C13.1601 5.85201 12.7121 6.87401 12.1801 7.99401C11.6761 9.11401 11.1161 10.234 10.5001 11.354C9.88406 12.446 9.25406 13.412 8.61006 14.252H10.7521V37.856H5.75406V17.444C5.39006 17.808 4.91406 18.242 4.32606 18.746C3.76606 19.222 3.12206 19.698 2.39406 20.174C2.03006 20.426 1.73606 20.636 1.51206 20.804C1.31606 20.944 1.07806 21.014 0.798059 21.014C0.490059 21.014 0.33606 20.888 0.33606 20.636C0.33606 20.524 0.39206 20.342 0.50406 20.09C0.64406 19.838 0.77006 19.642 0.88206 19.502C1.02206 19.306 1.24606 18.97 1.55406 18.494C1.89006 18.018 2.12806 17.64 2.26806 17.36C2.88406 16.268 3.50006 15.022 4.11606 13.622C4.73206 12.194 5.30606 10.71 5.83806 9.17001C6.39806 7.60201 6.88806 6.07601 7.30806 4.59201C7.75606 3.08001 8.09206 1.70801 8.31606 0.476013L14.3641 2.78601ZM41.7901 36.554C41.7901 37.338 41.4961 37.996 40.9081 38.528C40.3481 39.06 39.6621 39.326 38.8501 39.326C37.3941 39.326 36.0221 39.102 34.7341 38.654C33.4461 38.234 32.2281 37.702 31.0801 37.058C30.4921 36.722 29.9181 36.358 29.3581 35.966C28.8261 35.602 28.2801 35.224 27.7201 34.832C27.1881 34.44 26.6701 34.034 26.1661 33.614C25.6621 33.194 25.1441 32.774 24.6121 32.354C22.9041 34.174 20.9301 35.63 18.6901 36.722C16.4501 37.842 14.0421 38.402 11.4661 38.402C11.1861 38.402 11.0461 38.304 11.0461 38.108C11.0461 37.912 11.1721 37.758 11.4241 37.646C11.4521 37.618 11.4801 37.604 11.5081 37.604C11.5361 37.604 11.5641 37.59 11.5921 37.562C11.7321 37.506 11.8301 37.464 11.8861 37.436C11.9421 37.436 12.0261 37.422 12.1381 37.394C12.2501 37.338 12.3621 37.282 12.4741 37.226C12.5861 37.198 12.6841 37.17 12.7681 37.142C14.1401 36.61 15.4561 35.882 16.7161 34.958C17.6121 34.286 18.5081 33.46 19.4041 32.48C20.3001 31.5 21.0141 30.492 21.5461 29.456C21.2661 29.232 21.0001 28.994 20.7481 28.742C20.4961 28.49 20.2581 28.266 20.0341 28.07C19.7821 27.846 19.5301 27.65 19.2781 27.482C19.0541 27.286 18.8161 27.118 18.5641 26.978C18.0881 26.67 17.5561 26.432 16.9681 26.264C16.3801 26.068 15.6941 25.97 14.9101 25.97C14.7981 25.97 14.6721 25.984 14.5321 26.012C14.4201 26.012 14.2941 26.012 14.1541 26.012C14.0981 26.012 14.0141 26.012 13.9021 26.012C13.8181 25.984 13.7761 25.914 13.7761 25.802L13.8181 25.676C13.9021 25.62 14.0421 25.508 14.2381 25.34C14.4341 25.172 14.6301 24.99 14.8261 24.794C15.0501 24.626 15.2461 24.472 15.4141 24.332C15.6101 24.164 15.7361 24.066 15.7921 24.038C15.8481 24.01 15.9881 23.996 16.2121 23.996H16.5481C17.2201 23.996 18.0041 24.066 18.9001 24.206C19.7961 24.346 20.5381 24.556 21.1261 24.836C21.2941 24.92 21.4621 25.004 21.6301 25.088C21.7981 25.172 21.9521 25.27 22.0921 25.382C22.2321 25.438 22.3721 25.508 22.5121 25.592C22.6521 25.676 22.7781 25.76 22.8901 25.844C23.0301 25.284 23.1141 24.724 23.1421 24.164C23.1981 23.576 23.2261 23.016 23.2261 22.484H14.6581V12.194H23.3101V8.28801H13.4821V6.10401H23.1841V0.476013H28.7281V6.10401H35.5321C35.5601 5.40401 35.8261 4.77401 36.3301 4.21401C36.8341 3.65401 37.4501 3.37401 38.1781 3.37401C38.8501 3.37401 39.4521 3.62601 39.9841 4.13001C40.5441 4.60601 40.8241 5.16601 40.8241 5.81001C40.8241 6.42601 40.5861 7.00001 40.1101 7.53201C39.6621 8.03601 39.1021 8.28801 38.4301 8.28801H28.7281V12.194H38.2201V17.402C38.2201 19.39 37.6881 20.734 36.6241 21.434C35.5601 22.134 34.1181 22.484 32.2981 22.484H28.4341C28.3781 23.464 28.2661 24.458 28.0981 25.466C27.9581 26.474 27.6781 27.44 27.2581 28.364C27.8181 28.896 28.4621 29.498 29.1901 30.17C29.9181 30.842 30.7301 31.598 31.6261 32.438C32.5221 33.25 33.4461 34.09 34.3981 34.958C35.3781 35.798 36.1901 36.344 36.8341 36.596C36.8901 35.952 37.1701 35.42 37.6741 35C38.1781 34.552 38.7801 34.328 39.4801 34.328C40.1241 34.328 40.6701 34.552 41.1181 35C41.5661 35.476 41.7901 35.994 41.7901 36.554Z" fill="white"/>
</svg>
