<svg width="42" height="688" viewBox="0 0 42 688" fill="none" xmlns="http://www.w3.org/2000/svg">
<path d="M34.356 663.118C34.356 663.566 34.202 663.986 33.894 664.378C33.614 664.742 33.292 665.05 32.928 665.302C32.592 665.554 32.34 665.75 32.172 665.89C32.004 666.254 31.724 666.772 31.332 667.444C30.94 668.088 30.646 668.606 30.45 668.998C29.918 670.118 29.26 671.266 28.476 672.442C27.72 673.59 26.936 674.696 26.124 675.76C24.024 678.448 21.602 680.702 18.858 682.522C16.114 684.314 13.076 685.616 9.74403 686.428C9.10003 686.568 8.33003 686.708 7.43403 686.848C6.53803 687.016 5.67003 687.142 4.83003 687.226C3.99003 687.338 3.31803 687.394 2.81403 687.394C2.78603 687.394 2.66003 687.38 2.43603 687.352C2.24003 687.352 2.14203 687.324 2.14203 687.268C2.14203 687.128 2.17003 687.03 2.22603 686.974C2.28203 686.946 2.36603 686.904 2.47803 686.848C2.70203 686.764 2.92603 686.68 3.15003 686.596C3.40203 686.512 3.64003 686.428 3.86403 686.344C4.42403 686.148 4.98403 685.938 5.54403 685.714C6.10403 685.49 6.65003 685.238 7.18203 684.958C10.206 683.474 12.992 681.612 15.54 679.372C18.088 677.132 20.3 674.612 22.176 671.812C22.428 671.392 22.764 670.832 23.184 670.132C23.604 669.404 24.024 668.634 24.444 667.822C24.864 666.982 25.214 666.184 25.494 665.428C25.774 664.672 25.914 664.056 25.914 663.58C25.914 663.328 25.774 663.202 25.494 663.202C25.158 663.202 24.738 663.286 24.234 663.454C23.73 663.594 23.226 663.748 22.722 663.916C22.246 664.056 21.84 664.126 21.504 664.126C20.888 664.126 20.3 663.916 19.74 663.496C18.704 665.232 17.458 666.828 16.002 668.284C14.574 669.74 13.006 671.028 11.298 672.148C10.85 672.428 10.29 672.736 9.61803 673.072C8.94603 673.408 8.26003 673.702 7.56003 673.954C6.88803 674.178 6.31403 674.318 5.83803 674.374C5.75403 674.402 5.61403 674.416 5.41803 674.416C5.19403 674.416 5.08203 674.332 5.08203 674.164C5.08203 674.08 5.15203 673.968 5.29203 673.828C5.46003 673.688 5.57203 673.604 5.62803 673.576C7.70003 671.84 9.56203 669.824 11.214 667.528C12.894 665.204 14.252 662.74 15.288 660.136C15.372 659.968 15.498 659.632 15.666 659.128C15.834 658.624 15.988 658.12 16.128 657.616C16.268 657.084 16.338 656.748 16.338 656.608C16.338 656.58 16.338 656.566 16.338 656.566C16.366 656.538 16.38 656.51 16.38 656.482C16.38 656.034 16.198 655.642 15.834 655.306C15.47 654.942 15.078 654.704 14.658 654.592C14.77 654.256 15.036 653.962 15.456 653.71C15.876 653.43 16.338 653.206 16.842 653.038C17.346 652.87 17.752 652.786 18.06 652.786C18.536 652.786 19.096 652.898 19.74 653.122C20.412 653.346 21.056 653.654 21.672 654.046C22.316 654.438 22.848 654.886 23.268 655.39C23.688 655.866 23.898 656.384 23.898 656.944C23.898 657.336 23.772 657.672 23.52 657.952C23.268 658.204 23.03 658.47 22.806 658.75C22.582 659.198 22.358 659.604 22.134 659.968C21.91 660.304 21.658 660.71 21.378 661.186C21.658 661.186 22.078 661.13 22.638 661.018C23.226 660.906 23.8 660.78 24.36 660.64C24.948 660.472 25.34 660.332 25.536 660.22C25.704 660.136 25.9 660.038 26.124 659.926C26.376 659.814 26.628 659.702 26.88 659.59C27.188 659.394 27.468 659.24 27.72 659.128C27.972 659.016 28.196 658.96 28.392 658.96C28.644 658.96 28.924 658.988 29.232 659.044C29.568 659.1 29.876 659.212 30.156 659.38C30.604 659.632 31.122 659.926 31.71 660.262C32.298 660.57 32.76 660.878 33.096 661.186C33.404 661.438 33.684 661.718 33.936 662.026C34.216 662.334 34.356 662.698 34.356 663.118ZM36.96 657.7C36.96 658.372 36.75 658.904 36.33 659.296C35.938 659.688 35.406 659.884 34.734 659.884C34.37 659.884 34.048 659.73 33.768 659.422C33.516 659.086 33.32 658.778 33.18 658.498C32.984 658.022 32.76 657.56 32.508 657.112C32.284 656.636 31.99 656.202 31.626 655.81C31.402 655.53 31.15 655.278 30.87 655.054C30.59 654.802 30.296 654.578 29.988 654.382C29.96 654.354 29.904 654.326 29.82 654.298C29.764 654.242 29.736 654.172 29.736 654.088C29.736 653.976 29.918 653.92 30.282 653.92C30.674 653.892 30.926 653.878 31.038 653.878C31.458 653.878 31.878 653.906 32.298 653.962C32.746 653.99 33.166 654.06 33.558 654.172C34.034 654.312 34.524 654.564 35.028 654.928C35.56 655.264 36.008 655.684 36.372 656.188C36.764 656.664 36.96 657.168 36.96 657.7ZM41.412 654.298C41.412 654.914 41.216 655.432 40.824 655.852C40.432 656.272 39.914 656.482 39.27 656.482C38.542 656.482 38.01 656.188 37.674 655.6C37.114 654.592 36.414 653.738 35.574 653.038C35.266 652.73 34.93 652.478 34.566 652.282C34.23 652.058 33.88 651.82 33.516 651.568C33.404 651.456 33.348 651.372 33.348 651.316C33.348 651.176 33.502 651.092 33.81 651.064C34.146 651.008 34.482 650.98 34.818 650.98C35.182 650.952 35.42 650.938 35.532 650.938C35.924 650.938 36.302 650.952 36.666 650.98C37.058 651.008 37.436 651.05 37.8 651.106C38.304 651.19 38.836 651.372 39.396 651.652C39.956 651.932 40.432 652.296 40.824 652.744C41.216 653.192 41.412 653.71 41.412 654.298Z" fill="white"/>
<path d="M38.136 613.118C38.136 613.174 38.108 613.286 38.052 613.454C37.996 613.622 37.94 613.734 37.884 613.79C37.408 614.77 36.68 615.26 35.7 615.26C35.224 615.26 34.748 615.204 34.272 615.092C33.796 614.952 33.32 614.854 32.844 614.798C32.06 614.658 31.234 614.588 30.366 614.588C29.526 614.56 28.7 614.546 27.888 614.546C27.692 614.546 27.496 614.546 27.3 614.546C27.132 614.546 26.936 614.546 26.712 614.546C26.964 614.686 27.3 614.882 27.72 615.134C28.14 615.386 28.35 615.68 28.35 616.016C28.35 616.268 28.294 616.506 28.182 616.73C28.098 616.954 27.986 617.178 27.846 617.402C27.566 618.55 27.216 619.768 26.796 621.056C26.376 622.344 25.928 623.534 25.452 624.626C22.876 630.422 18.592 634.384 12.6 636.512C12.32 636.624 11.9 636.764 11.34 636.932C10.78 637.1 10.178 637.268 9.53399 637.436C8.91799 637.604 8.32999 637.744 7.76999 637.856C7.23799 637.968 6.81799 638.024 6.50999 638.024C6.39799 638.024 6.34199 637.954 6.34199 637.814C6.34199 637.702 6.49599 637.562 6.80399 637.394C7.13999 637.226 7.48999 637.058 7.85399 636.89C8.21799 636.722 8.45599 636.61 8.56799 636.554C10.808 635.434 12.754 633.978 14.406 632.186C16.086 630.366 17.472 628.336 18.564 626.096C18.956 625.284 19.362 624.29 19.782 623.114C20.202 621.91 20.552 620.706 20.832 619.502C21.112 618.27 21.252 617.22 21.252 616.352C21.252 616.044 21.21 615.778 21.126 615.554C21.07 615.302 20.846 615.176 20.454 615.176C20.174 615.176 19.712 615.232 19.068 615.344C18.424 615.456 17.962 615.568 17.682 615.68C17.346 615.792 17.038 615.946 16.758 616.142C16.478 616.338 16.142 616.436 15.75 616.436C15.554 616.436 15.33 616.366 15.078 616.226C14.854 616.086 14.658 615.96 14.49 615.848C13.342 617.08 11.984 618.312 10.416 619.544C8.87599 620.748 7.33599 621.714 5.79599 622.442C5.57199 622.554 5.27799 622.68 4.91399 622.82C4.57799 622.96 4.28399 623.03 4.03199 623.03C3.77999 623.03 3.65399 622.89 3.65399 622.61C3.65399 622.526 3.76599 622.4 3.98999 622.232C4.24199 622.036 4.40999 621.91 4.49399 621.854C4.96999 621.49 5.45999 621.014 5.96399 620.426C6.49599 619.838 6.95799 619.306 7.34999 618.83C8.07799 617.934 8.73599 617.024 9.32399 616.1C9.91199 615.148 10.458 614.154 10.962 613.118C11.214 612.614 11.466 612.026 11.718 611.354C11.97 610.654 12.208 609.954 12.432 609.254C12.656 608.526 12.796 607.896 12.852 607.364C12.852 607.308 12.852 607.252 12.852 607.196C12.88 607.14 12.894 607.098 12.894 607.07C12.894 606.398 12.712 605.936 12.348 605.684C12.012 605.432 11.662 605.264 11.298 605.18C10.934 605.068 10.752 604.914 10.752 604.718C10.752 604.606 10.822 604.522 10.962 604.466C11.55 604.074 12.32 603.724 13.272 603.416C14.224 603.08 15.05 602.912 15.75 602.912C16.422 602.912 17.122 603.108 17.85 603.5C18.606 603.892 19.236 604.41 19.74 605.054C20.272 605.698 20.538 606.384 20.538 607.112C20.538 607.364 20.384 607.63 20.076 607.91C19.768 608.162 19.516 608.358 19.32 608.498C18.872 609.338 18.368 610.15 17.808 610.934C17.276 611.718 16.73 612.502 16.17 613.286C18.158 613.006 20.132 612.642 22.092 612.194C24.052 611.746 25.998 611.256 27.93 610.724C28.49 610.556 29.05 610.304 29.61 609.968C30.198 609.604 30.772 609.422 31.332 609.422C31.78 609.422 32.368 609.52 33.096 609.716C33.852 609.884 34.608 610.136 35.364 610.472C36.148 610.78 36.806 611.158 37.338 611.606C37.87 612.054 38.136 612.558 38.136 613.118Z" fill="white"/>
<path d="M17.598 564.168C17.598 564.644 17.416 565.05 17.052 565.386C16.66 568.522 15.96 571.35 14.952 573.87C13.972 576.39 12.572 578.616 10.752 580.548C8.96 582.48 6.608 584.146 3.696 585.546C3.5 585.63 3.22 585.756 2.856 585.924C2.492 586.12 2.128 586.288 1.764 586.428C1.428 586.568 1.162 586.638 0.965997 586.638C0.937997 586.638 0.881997 586.624 0.797997 586.596C0.713997 586.596 0.671997 586.568 0.671997 586.512C0.671997 586.4 0.685997 586.316 0.713997 586.26C0.741997 586.204 0.825997 586.12 0.965997 586.008C1.582 585.532 2.198 585.014 2.814 584.454C3.43 583.866 4.004 583.264 4.536 582.648C5.684 581.388 6.678 579.946 7.518 578.322C8.386 576.67 9.086 575.032 9.618 573.408C9.982 572.232 10.304 570.874 10.584 569.334C10.892 567.794 11.046 566.422 11.046 565.218C11.046 563.65 10.262 562.6 8.694 562.068C8.694 561.676 8.918 561.354 9.366 561.102C9.842 560.822 10.36 560.612 10.92 560.472C11.508 560.332 11.942 560.262 12.222 560.262C13.202 560.262 14.098 560.5 14.91 560.976C15.75 561.452 16.436 562.068 16.968 562.824C17.108 563.02 17.234 563.23 17.346 563.454C17.486 563.65 17.57 563.86 17.598 564.084V564.168ZM41.412 562.53C41.412 562.642 41.398 562.74 41.37 562.824C41.37 562.908 41.356 562.992 41.328 563.076C40.516 566.128 39.298 568.872 37.674 571.308C36.078 573.744 34.216 575.858 32.088 577.65C29.96 579.442 27.692 580.94 25.284 582.144C24.78 582.368 24.206 582.634 23.562 582.942C22.918 583.25 22.358 583.404 21.882 583.404C21.602 583.404 21.35 583.334 21.126 583.194C20.902 583.054 20.65 582.76 20.37 582.312C20.146 581.836 19.894 581.262 19.614 580.59C19.334 579.918 19.124 579.386 18.984 578.994C18.928 578.826 18.83 578.56 18.69 578.196C18.578 577.832 18.522 577.58 18.522 577.44C18.522 577.076 18.732 576.824 19.152 576.684C19.432 576.6 19.656 576.488 19.824 576.348C20.02 576.18 20.132 575.9 20.16 575.508C20.244 574.612 20.272 573.702 20.244 572.778C20.244 571.826 20.244 570.916 20.244 570.048C20.244 568.564 20.23 567.066 20.202 565.554C20.174 564.042 20.076 562.558 19.908 561.102C19.88 560.878 19.852 560.64 19.824 560.388C19.796 560.136 19.754 559.898 19.698 559.674C19.586 559.198 19.222 558.806 18.606 558.498C18.018 558.19 17.528 557.98 17.136 557.868C17.22 557.392 17.486 557 17.934 556.692C18.41 556.384 18.942 556.16 19.53 556.02C20.146 555.852 20.65 555.768 21.042 555.768C21.266 555.768 21.49 555.796 21.714 555.852C21.938 555.908 22.148 555.964 22.344 556.02C22.652 556.104 23.058 556.314 23.562 556.65C24.066 556.958 24.542 557.294 24.99 557.658C25.466 558.022 25.816 558.316 26.04 558.54C26.236 558.736 26.404 558.96 26.544 559.212C26.684 559.464 26.754 559.744 26.754 560.052C26.754 560.444 26.614 560.794 26.334 561.102C26.054 561.41 25.858 561.76 25.746 562.152C25.606 562.628 25.508 563.23 25.452 563.958C25.424 564.658 25.396 565.26 25.368 565.764C25.256 567.36 25.172 568.956 25.116 570.552C25.06 572.148 25.004 573.758 24.948 575.382C25.9 575.158 26.922 574.78 28.014 574.248C29.106 573.688 30.212 573.044 31.332 572.316C32.536 571.504 33.698 570.608 34.818 569.628C35.938 568.62 36.96 567.612 37.884 566.604C38.808 565.568 39.564 564.616 40.152 563.748C40.208 563.636 40.306 563.468 40.446 563.244C40.586 563.02 40.712 562.824 40.824 562.656C41.048 562.404 41.202 562.278 41.286 562.278C41.342 562.278 41.37 562.32 41.37 562.404C41.398 562.46 41.412 562.502 41.412 562.53Z" fill="white"/>
<path d="M21.021 538.045C20.461 538.045 20.013 537.863 19.677 537.499C19.341 537.163 19.103 536.729 18.963 536.197C18.823 535.693 18.753 535.203 18.753 534.727C18.753 533.467 18.795 532.207 18.879 530.947C18.991 529.715 19.047 528.469 19.047 527.209C19.047 525.109 19.019 522.995 18.963 520.867C18.907 518.767 18.823 516.667 18.711 514.567C18.683 513.531 18.599 512.509 18.459 511.501C18.319 510.493 18.165 509.485 17.997 508.477C17.941 508.113 17.857 507.721 17.745 507.301C17.661 506.909 17.619 506.517 17.619 506.125C17.619 504.837 17.969 503.703 18.669 502.723C19.369 501.743 20.405 501.253 21.777 501.253C22.029 501.253 22.351 501.309 22.743 501.421C23.135 501.533 23.499 501.687 23.835 501.883C24.199 502.079 24.423 502.303 24.507 502.555C23.779 503.031 23.289 503.703 23.037 504.571C22.785 505.439 22.659 506.279 22.659 507.091C22.659 507.679 22.645 508.267 22.617 508.855C22.617 509.471 22.617 510.073 22.617 510.661C22.617 512.285 22.673 513.895 22.785 515.491C22.897 517.087 23.037 518.683 23.205 520.279C23.345 521.427 23.485 522.561 23.625 523.681C23.765 524.801 23.947 525.921 24.171 527.041C24.255 527.433 24.339 527.811 24.423 528.175C24.507 528.539 24.605 528.903 24.717 529.267C24.717 529.323 24.759 529.477 24.843 529.729C24.927 529.981 24.969 530.107 24.969 530.107C24.969 531.003 24.843 532.025 24.591 533.173C24.339 534.321 23.975 535.287 23.499 536.071C23.303 536.407 22.939 536.813 22.407 537.289C21.903 537.793 21.441 538.045 21.021 538.045Z" fill="white"/>
<path d="M34.734 481.22C34.734 481.808 34.538 482.326 34.146 482.774C33.754 483.194 33.278 483.53 32.718 483.782C32.158 484.034 31.626 484.216 31.122 484.328C29.61 484.608 28.07 484.804 26.502 484.916C24.934 485.028 23.38 485.084 21.84 485.084C20.216 485.084 18.662 484.986 17.178 484.79C15.694 484.566 14.364 484.146 13.188 483.53C12.04 482.914 11.116 482.018 10.416 480.842C9.74403 479.638 9.40803 478.056 9.40803 476.096C9.40803 473.548 9.40803 470.986 9.40803 468.41C9.43603 465.834 9.45003 463.272 9.45003 460.724C9.45003 460.108 9.40803 459.492 9.32403 458.876C9.24003 458.232 9.03003 457.686 8.69403 457.238C8.35803 456.762 7.81203 456.482 7.05603 456.398C7.36403 455.838 7.89603 455.362 8.65203 454.97C9.40803 454.55 10.094 454.34 10.71 454.34C11.662 454.34 12.6 454.634 13.524 455.222C14.448 455.782 15.176 456.426 15.708 457.154C15.848 457.378 15.988 457.63 16.128 457.91C16.268 458.162 16.338 458.428 16.338 458.708C16.338 459.1 16.226 459.464 16.002 459.8C15.806 460.108 15.582 460.416 15.33 460.724C15.218 461.172 15.148 461.648 15.12 462.152C15.092 462.628 15.05 463.104 14.994 463.58C14.91 464.504 14.84 465.428 14.784 466.352C14.728 467.276 14.658 468.2 14.574 469.124C15.218 468.816 16.03 468.382 17.01 467.822C17.99 467.262 18.998 466.646 20.034 465.974C21.098 465.274 22.05 464.574 22.89 463.874C23.758 463.174 24.388 462.544 24.78 461.984C24.976 461.76 25.074 461.466 25.074 461.102C25.074 460.794 24.934 460.472 24.654 460.136C24.374 459.8 24.108 459.562 23.856 459.422C23.968 459.198 24.248 459.058 24.696 459.002C25.172 458.918 25.522 458.876 25.746 458.876C26.278 458.876 26.936 459.016 27.72 459.296C28.504 459.548 29.274 459.898 30.03 460.346C30.814 460.766 31.458 461.256 31.962 461.816C32.494 462.376 32.76 462.95 32.76 463.538C32.76 464.21 32.578 464.686 32.214 464.966C31.878 465.246 31.43 465.512 30.87 465.764C30.142 466.072 29.428 466.38 28.728 466.688C28.056 466.968 27.356 467.262 26.628 467.57C24.696 468.354 22.708 468.998 20.664 469.502C18.648 470.006 16.604 470.44 14.532 470.804C14.448 471.728 14.392 472.666 14.364 473.618C14.336 474.542 14.322 475.48 14.322 476.432C14.322 477.496 14.448 478.28 14.7 478.784C14.952 479.26 15.358 479.568 15.918 479.708C16.506 479.848 17.29 479.918 18.27 479.918C19.67 479.918 21.07 479.792 22.47 479.54C23.898 479.288 25.298 478.966 26.67 478.574C27.062 478.462 27.454 478.336 27.846 478.196C28.266 478.056 28.658 477.93 29.022 477.818C29.134 477.79 29.246 477.776 29.358 477.776C29.47 477.748 29.582 477.734 29.694 477.734C30.394 477.734 31.136 477.846 31.92 478.07C32.704 478.294 33.362 478.658 33.894 479.162C34.454 479.666 34.734 480.352 34.734 481.22ZM35.448 457.154C35.448 457.826 35.28 458.358 34.944 458.75C34.608 459.142 34.076 459.338 33.348 459.338C32.9 459.338 32.494 459.184 32.13 458.876C31.766 458.54 31.514 458.176 31.374 457.784C31.262 457.476 31.15 457.154 31.038 456.818C30.954 456.482 30.842 456.174 30.702 455.894C30.226 455.026 29.61 454.284 28.854 453.668C28.742 453.556 28.686 453.486 28.686 453.458C28.686 453.318 28.742 453.234 28.854 453.206C28.966 453.15 29.064 453.122 29.148 453.122C30.128 453.122 31.122 453.29 32.13 453.626C33.138 453.934 33.978 454.466 34.65 455.222C34.874 455.502 35.056 455.81 35.196 456.146C35.364 456.454 35.448 456.79 35.448 457.154ZM40.404 454.382C40.404 454.998 40.194 455.516 39.774 455.936C39.382 456.328 38.878 456.524 38.262 456.524C37.898 456.524 37.576 456.398 37.296 456.146C37.016 455.894 36.792 455.628 36.624 455.348C36.372 454.928 36.106 454.536 35.826 454.172C35.546 453.78 35.238 453.416 34.902 453.08C34.566 452.772 34.23 452.478 33.894 452.198C33.558 451.918 33.194 451.666 32.802 451.442C32.662 451.358 32.592 451.288 32.592 451.232C32.592 451.12 32.746 451.05 33.054 451.022C33.39 450.966 33.726 450.924 34.062 450.896C34.426 450.868 34.664 450.854 34.776 450.854C35.504 450.854 36.302 450.952 37.17 451.148C38.038 451.344 38.794 451.694 39.438 452.198C40.082 452.702 40.404 453.43 40.404 454.382Z" fill="white"/>
<path d="M19.67 412.18C17.4534 412.67 15.61 413.685 14.14 415.225C12.67 416.765 11.5617 418.573 10.815 420.65C10.605 421.233 10.4184 421.84 10.255 422.47C10.115 423.1 10.045 423.73 10.045 424.36C10.045 424.687 10.0684 425.13 10.115 425.69C10.1617 426.227 10.29 426.705 10.5 427.125C10.71 427.545 11.06 427.755 11.55 427.755C11.8534 427.755 12.1567 427.65 12.46 427.44C12.7867 427.207 13.055 427.008 13.265 426.845C14.6184 425.725 15.75 424.348 16.66 422.715C17.5934 421.082 18.305 419.343 18.795 417.5C19.3084 415.657 19.6 413.883 19.67 412.18ZM35.63 421.875C35.63 424.442 35.0817 426.6 33.985 428.35C32.8884 430.1 31.4067 431.535 29.54 432.655C27.6967 433.752 25.6317 434.603 23.345 435.21C23.0417 435.28 22.645 435.362 22.155 435.455C21.6884 435.572 21.2334 435.665 20.79 435.735C20.3467 435.805 19.9967 435.84 19.74 435.84C19.6467 435.84 19.5067 435.828 19.32 435.805C19.1567 435.805 19.075 435.747 19.075 435.63C19.075 435.49 19.145 435.373 19.285 435.28C19.425 435.21 19.5417 435.163 19.635 435.14C20.1717 434.953 20.685 434.755 21.175 434.545C21.665 434.335 22.1667 434.113 22.68 433.88C24.9667 432.737 26.775 431.103 28.105 428.98C28.7817 427.883 29.26 426.682 29.54 425.375C29.8434 424.068 29.995 422.773 29.995 421.49C29.995 419.507 29.6334 417.745 28.91 416.205C28.1867 414.665 26.8684 413.463 24.955 412.6C24.4417 412.367 23.905 412.203 23.345 412.11C22.785 412.017 22.225 411.97 21.665 411.97C21.5717 412.273 21.525 412.635 21.525 413.055C21.525 413.638 21.6067 414.21 21.77 414.77C21.9567 415.33 22.05 415.913 22.05 416.52C22.05 416.87 22.015 417.232 21.945 417.605C21.8984 417.955 21.84 418.305 21.77 418.655C21.3967 420.358 20.86 422.05 20.16 423.73C19.4834 425.41 18.62 426.985 17.57 428.455C16.52 429.902 15.2367 431.127 13.72 432.13C13.3934 432.34 13.0434 432.515 12.67 432.655C12.2967 432.795 11.9117 432.865 11.515 432.865C10.6984 432.865 10.1034 432.678 9.73002 432.305C9.35669 431.908 9.11169 431.325 8.99502 430.555C8.92502 429.972 8.87836 429.505 8.85502 429.155C8.83169 428.805 8.73836 428.478 8.57502 428.175C8.43502 427.872 8.13169 427.498 7.66502 427.055C7.08169 426.472 6.70836 425.877 6.54502 425.27C6.40502 424.663 6.33502 423.963 6.33502 423.17C6.33502 422.423 6.48669 421.63 6.79002 420.79C7.09336 419.927 7.43169 419.18 7.80502 418.55C9.43836 415.797 11.5734 413.743 14.21 412.39C16.8467 411.037 19.74 410.36 22.89 410.36C24.6634 410.36 26.32 410.593 27.86 411.06C29.4234 411.527 30.8 412.273 31.99 413.3C33.2034 414.327 34.1484 415.68 34.825 417.36C35.1284 418.107 35.3384 418.842 35.455 419.565C35.5717 420.288 35.63 421.058 35.63 421.875Z" fill="white"/>
<path d="M16.002 353.08C16.002 353.276 15.96 353.458 15.876 353.626C15.148 355.502 14.308 357.35 13.356 359.17C12.432 360.962 11.382 362.67 10.206 364.294H12.18L12.138 387.478H6.84602L6.93002 367.822C6.62202 368.13 6.21602 368.522 5.71202 368.998C5.20802 369.446 4.66202 369.894 4.07402 370.342C3.48602 370.79 2.92602 371.168 2.39402 371.476C1.86202 371.756 1.42802 371.896 1.09202 371.896C0.924021 371.896 0.784021 371.84 0.672021 371.728C0.588021 371.616 0.546021 371.504 0.546021 371.392C0.546021 371.336 0.64402 371.168 0.840021 370.888C1.03602 370.608 1.24602 370.3 1.47002 369.964C1.69402 369.628 1.91802 369.306 2.14202 368.998C2.36602 368.69 2.50602 368.48 2.56202 368.368C3.65402 366.772 4.67602 364.966 5.62802 362.95C6.58002 360.934 7.42002 358.862 8.14802 356.734C8.87602 354.606 9.43602 352.59 9.82802 350.686C10.556 350.882 11.27 351.106 11.97 351.358C12.67 351.61 13.356 351.848 14.028 352.072C14.308 352.156 14.574 352.24 14.826 352.324C15.106 352.408 15.386 352.506 15.666 352.618C15.89 352.702 16.002 352.856 16.002 353.08ZM41.832 385.336C41.832 386.064 41.552 386.736 40.992 387.352C40.46 387.968 39.802 388.276 39.018 388.276C38.234 388.276 37.338 388.136 36.33 387.856C35.35 387.604 34.538 387.296 33.894 386.932C31.486 385.532 29.47 383.74 27.846 381.556C26.222 379.344 24.906 376.95 23.898 374.374C22.89 371.77 22.106 369.166 21.546 366.562L13.818 367.612L13.566 365.512L21.252 364.42C20.804 362.18 20.454 359.912 20.202 357.616C19.95 355.292 19.754 352.982 19.614 350.686L25.746 350.56C25.746 351.68 25.774 352.8 25.83 353.92C25.914 355.04 25.998 356.16 26.082 357.28C26.166 358.372 26.25 359.464 26.334 360.556C26.446 361.62 26.572 362.684 26.712 363.748L33.558 362.698C33.418 362.362 33.348 362.04 33.348 361.732C33.348 360.892 33.614 360.206 34.146 359.674C34.706 359.142 35.42 358.876 36.288 358.876C37.1 358.876 37.814 359.1 38.43 359.548C39.074 359.968 39.396 360.626 39.396 361.522C39.396 362.194 39.172 362.81 38.724 363.37C38.276 363.902 37.688 364.224 36.96 364.336L27.006 365.806C27.426 368.13 28 370.482 28.728 372.862C29.484 375.214 30.464 377.44 31.668 379.54C32.9 381.64 34.426 383.488 36.246 385.084C36.47 384.44 36.834 383.88 37.338 383.404C37.842 382.9 38.472 382.648 39.228 382.648C40.04 382.648 40.67 382.928 41.118 383.488C41.594 384.02 41.832 384.636 41.832 385.336ZM36.624 353.206C36.624 353.43 36.414 353.78 35.994 354.256C35.602 354.732 35.084 355.25 34.44 355.81C33.824 356.342 33.18 356.874 32.508 357.406C31.836 357.938 31.206 358.386 30.618 358.75C30.058 359.114 29.638 359.324 29.358 359.38C29.274 359.408 29.148 359.422 28.98 359.422C28.56 359.422 28.35 359.254 28.35 358.918C28.35 358.89 28.42 358.666 28.56 358.246C28.7 357.826 28.854 357.35 29.022 356.818L29.82 354.382C30.212 353.206 30.562 351.974 30.87 350.686C31.01 350.714 31.36 350.826 31.92 351.022C32.508 351.218 33.138 351.428 33.81 351.652C34.482 351.876 35.07 352.072 35.574 352.24C36.078 352.408 36.344 352.506 36.372 352.534C36.54 352.73 36.624 352.954 36.624 353.206Z" fill="white"/>
<path d="M27.678 314.378H23.31V325.76H25.662C26.558 325.76 27.118 325.424 27.342 324.752C27.566 324.08 27.678 323.352 27.678 322.568V314.378ZM41.538 311.438C41.538 312.362 41.216 313.09 40.572 313.622C39.928 314.126 39.186 314.378 38.346 314.378H32.97V322.442C32.97 324.402 32.508 325.802 31.584 326.642C30.66 327.482 29.204 327.902 27.216 327.902H18.27V314.378H13.482V335.084H33.012C33.096 334.328 33.432 333.628 34.02 332.984C34.608 332.312 35.308 331.976 36.12 331.976C36.988 331.976 37.744 332.256 38.388 332.816C39.032 333.348 39.354 334.048 39.354 334.916C39.354 335.644 39.06 336.274 38.472 336.806C37.912 337.366 37.254 337.646 36.498 337.646H8.18999C8.21799 335.91 8.23199 334.132 8.23199 332.312C8.23199 330.464 8.23199 328.7 8.23199 327.02V314.378H1.38599V312.026H8.23199C8.23199 310.598 8.21799 309.184 8.18999 307.784C8.18999 306.356 8.18999 304.914 8.18999 303.458H13.482V312.026H18.27V300.812H23.31V312.026H27.678V300.812H32.97V312.026H35.49V311.774C35.49 310.85 35.77 310.094 36.33 309.506C36.918 308.89 37.576 308.582 38.304 308.582C39.144 308.582 39.886 308.848 40.53 309.38C41.202 309.884 41.538 310.57 41.538 311.438Z" fill="white"/>
<path d="M13.062 265.974C13.062 266.03 13.048 266.058 13.02 266.058V266.142C12.6 267.57 12.096 269.138 11.508 270.846C10.92 272.526 10.234 274.15 9.45003 275.718C8.66603 277.286 7.77003 278.644 6.76203 279.792C6.62203 279.988 6.45403 280.156 6.25803 280.296C6.09003 280.408 5.86603 280.464 5.58603 280.464C5.39003 280.464 5.04003 280.254 4.53603 279.834C4.03203 279.414 3.55603 279.022 3.10803 278.658C2.63203 278.266 2.12803 277.846 1.59603 277.398C1.06403 276.95 0.700028 276.642 0.504028 276.474C2.15603 275.242 3.75203 273.926 5.29203 272.526C6.83203 271.098 8.26003 269.614 9.57603 268.074C9.94003 267.654 10.304 267.22 10.668 266.772C11.032 266.324 11.396 265.876 11.76 265.428C11.9 265.288 12.068 265.218 12.264 265.218C12.488 265.218 12.67 265.302 12.81 265.47C12.978 265.638 13.062 265.806 13.062 265.974ZM41.79 286.134C41.79 286.75 41.496 287.31 40.908 287.814C40.32 288.318 39.704 288.57 39.06 288.57C38.472 288.57 37.814 288.43 37.086 288.15C36.358 287.87 35.756 287.59 35.28 287.31C33.012 285.854 31.066 284.09 29.442 282.018C27.818 279.946 26.362 277.51 25.074 274.71C24.066 277.258 22.806 279.4 21.294 281.136C19.81 282.844 18.046 284.244 16.002 285.336C13.986 286.428 11.676 287.338 9.07203 288.066C8.70803 288.178 8.33003 288.276 7.93803 288.36C7.57403 288.444 7.19603 288.486 6.80403 288.486C6.60803 288.486 6.45403 288.416 6.34203 288.276C6.25803 288.136 6.21603 288.01 6.21603 287.898C6.21603 287.842 6.27203 287.772 6.38403 287.688C6.52403 287.604 6.67803 287.52 6.84603 287.436C6.98603 287.352 7.12603 287.282 7.26603 287.226C7.43403 287.17 7.53203 287.128 7.56003 287.1C9.57603 286.176 11.424 285.028 13.104 283.656C14.784 282.256 16.226 280.618 17.43 278.742C18.998 276.278 20.076 273.618 20.664 270.762C21.252 267.906 21.602 265.036 21.714 262.152L27.72 262.992C27.664 263.86 27.51 264.896 27.258 266.1C27.006 267.304 26.796 268.326 26.628 269.166L29.442 268.452C29.89 270.664 30.408 272.708 30.996 274.584C31.612 276.432 32.382 278.196 33.306 279.876C34.23 281.528 35.364 283.166 36.708 284.79C37.016 284.398 37.422 284.09 37.926 283.866C38.43 283.642 38.934 283.53 39.438 283.53C40.11 283.53 40.67 283.824 41.118 284.412C41.566 284.972 41.79 285.546 41.79 286.134ZM13.02 259.758C13.02 259.982 12.936 260.192 12.768 260.388C12.628 260.556 12.404 260.64 12.096 260.64C11.844 260.64 11.536 260.584 11.172 260.472C10.808 260.36 10.416 260.234 9.99603 260.094C8.84803 259.702 7.67203 259.366 6.46803 259.086C5.29203 258.778 4.10203 258.498 2.89803 258.246C3.20603 257.714 3.50003 257.182 3.78003 256.65C4.06003 256.118 4.34003 255.614 4.62003 255.138C4.76003 254.914 4.95603 254.564 5.20803 254.088C5.48803 253.584 5.71203 253.22 5.88003 252.996C5.99203 252.828 6.13203 252.688 6.30003 252.576C6.49603 252.436 6.70603 252.366 6.93003 252.366C7.18203 252.366 7.53203 252.534 7.98003 252.87C8.45603 253.206 8.96003 253.64 9.49203 254.172C10.024 254.704 10.528 255.278 11.004 255.894C11.62 256.678 12.11 257.448 12.474 258.204C12.838 258.932 13.02 259.45 13.02 259.758ZM39.144 259.422C39.172 259.814 39.004 260.402 38.64 261.186C38.276 261.942 37.856 262.642 37.38 263.286C36.736 264.238 36.022 265.106 35.238 265.89C34.482 266.674 33.74 267.332 33.012 267.864C32.844 268.032 32.648 268.172 32.424 268.284C32.2 268.424 31.948 268.494 31.668 268.494C31.472 268.494 31.318 268.438 31.206 268.326C31.122 268.186 31.08 268.046 31.08 267.906V267.738C31.304 266.646 31.5 265.54 31.668 264.42C31.864 263.3 32.06 262.18 32.256 261.06H21.21C20.51 262.292 19.67 263.468 18.69 264.588C17.71 265.708 16.674 266.73 15.582 267.654C15.498 267.738 15.414 267.822 15.33 267.906C15.246 267.99 15.148 268.06 15.036 268.116C14.924 268.172 14.798 268.228 14.658 268.284C14.546 268.34 14.42 268.368 14.28 268.368C13.972 268.368 13.818 268.228 13.818 267.948C13.818 267.892 13.846 267.78 13.902 267.612C13.958 267.556 13.986 267.5 13.986 267.444C14.014 267.36 14.042 267.304 14.07 267.276C15.386 264.532 16.464 261.578 17.304 258.414C18.172 255.25 18.816 252.184 19.236 249.216L25.746 251.19C25.298 252.562 24.78 253.892 24.192 255.18C23.604 256.44 22.974 257.7 22.302 258.96H38.598C38.962 258.96 39.144 259.114 39.144 259.422Z" fill="white"/>
<path d="M20.405 220.615C20.0783 221.268 19.775 221.933 19.495 222.61C19.215 223.263 18.935 223.928 18.655 224.605C18.375 225.258 18.1183 225.97 17.885 226.74C17.6516 227.51 17.535 228.257 17.535 228.98C17.535 229.47 17.64 229.913 17.85 230.31C18.0833 230.683 18.305 231.022 18.515 231.325C18.7483 231.628 18.865 231.897 18.865 232.13C18.865 232.783 18.6316 233.308 18.165 233.705C17.7216 234.078 17.185 234.265 16.555 234.265C16.0883 234.265 15.6333 234.242 15.19 234.195C14.7466 234.125 14.315 233.973 13.895 233.74C12.5183 232.97 11.48 231.99 10.78 230.8C10.1033 229.587 9.62498 228.268 9.34498 226.845C9.08831 225.398 8.91331 223.963 8.81998 222.54C8.77331 221.56 8.73831 220.58 8.71498 219.6C8.69164 218.597 8.65664 217.605 8.60998 216.625C8.58664 215.692 8.43498 214.782 8.15498 213.895C7.87498 213.008 7.31498 212.308 6.47498 211.795C6.73164 211.702 6.98831 211.643 7.24498 211.62C7.50164 211.597 7.78164 211.585 8.08498 211.585C9.71831 211.585 11.0833 212.005 12.18 212.845C13.3 213.685 13.86 214.98 13.86 216.73C13.86 217.197 13.8133 217.675 13.72 218.165C13.6266 218.655 13.5216 219.133 13.405 219.6C13.1716 220.44 13.0083 221.292 12.915 222.155C12.8216 223.018 12.775 223.893 12.775 224.78C12.775 224.99 12.81 225.34 12.88 225.83C12.95 226.32 13.0666 226.775 13.23 227.195C13.3933 227.615 13.615 227.825 13.895 227.825C13.9416 227.825 14.0233 227.79 14.14 227.72C14.2566 227.65 14.3266 227.603 14.35 227.58C14.5366 227.417 14.7 227.23 14.84 227.02C15.0033 226.81 15.1666 226.612 15.33 226.425C15.75 225.818 16.24 225.153 16.8 224.43C17.36 223.707 17.9433 222.995 18.55 222.295C19.1566 221.595 19.7283 221 20.265 220.51L20.405 220.615ZM36.295 223.94C36.295 224.873 36.05 225.713 35.56 226.46C35.07 227.183 34.3116 227.545 33.285 227.545C32.6083 227.545 32.0483 227.323 31.605 226.88C31.1616 226.413 30.8933 225.865 30.8 225.235C30.7066 224.675 30.6016 224.138 30.485 223.625C30.3916 223.088 30.2283 222.563 29.995 222.05C29.4816 220.79 28.665 219.938 27.545 219.495C26.425 219.052 25.235 218.83 23.975 218.83C23.7183 218.83 23.45 218.853 23.17 218.9C22.9133 218.947 22.645 218.993 22.365 219.04L22.26 218.795C22.7033 218.375 23.24 218.037 23.87 217.78C24.5233 217.5 25.2 217.302 25.9 217.185C26.6 217.045 27.23 216.975 27.79 216.975C29.2366 216.975 30.6016 217.22 31.885 217.71C33.1916 218.2 34.2533 218.958 35.07 219.985C35.8866 221.012 36.295 222.33 36.295 223.94Z" fill="white"/>
<path d="M24.57 174.668V167.906H21.882V174.668H24.57ZM32.55 167.906H29.358V174.668H30.408C30.996 174.668 31.444 174.486 31.752 174.122C32.06 173.73 32.27 173.254 32.382 172.694C32.494 172.134 32.55 171.588 32.55 171.056V167.906ZM15.456 158.876C15.456 160.024 15.26 160.906 14.868 161.522C14.476 162.11 13.944 162.544 13.272 162.824C12.936 162.964 12.572 163.076 12.18 163.16C11.816 163.216 11.424 163.258 11.004 163.286C10.248 163.342 9.43602 163.342 8.56802 163.286L7.77002 169.292H15.162C15.106 170.384 15.008 171.672 14.868 173.156C14.728 174.612 14.532 176.124 14.28 177.692C14.056 179.26 13.762 180.73 13.398 182.102C13.034 183.474 12.586 184.622 12.054 185.546C11.522 186.47 10.864 187.212 10.08 187.772C9.29602 188.332 8.33002 188.612 7.18202 188.612C6.79002 188.612 6.25802 188.416 5.58602 188.024C4.94202 187.632 4.29802 187.17 3.65402 186.638C3.12202 186.162 2.61802 185.658 2.14202 185.126C1.66602 184.622 1.33002 184.188 1.13402 183.824C0.966019 183.572 0.882019 183.362 0.882019 183.194C0.882019 183.026 0.994019 182.942 1.21802 182.942C1.27402 182.942 1.37202 182.984 1.51202 183.068C1.68002 183.124 1.86202 183.208 2.05802 183.32C2.22602 183.404 2.42202 183.502 2.64602 183.614C2.87002 183.726 3.10802 183.838 3.36002 183.95C3.75202 184.118 4.15802 184.258 4.57802 184.37C5.02602 184.482 5.44602 184.538 5.83802 184.538C6.51002 184.538 7.08402 184.174 7.56002 183.446C8.03602 182.718 8.41402 181.794 8.69402 180.674C9.00202 179.554 9.22602 178.378 9.36602 177.146C9.53402 175.886 9.64602 174.738 9.70202 173.702C9.78602 172.638 9.84202 171.826 9.87002 171.266L2.56202 171.308L3.82202 161.48H9.11402C9.64602 161.48 10.01 161.242 10.206 160.766C10.402 160.262 10.5 159.772 10.5 159.296V154.676H2.10002V152.66H15.456V158.876ZM40.95 160.724C40.95 161.256 40.74 161.69 40.32 162.026C39.9 162.362 39.424 162.53 38.892 162.53C37.632 162.53 36.54 162.236 35.616 161.648C34.72 161.032 33.866 160.332 33.054 159.548C32.494 160.08 31.948 160.5 31.416 160.808C30.884 161.116 30.24 161.382 29.484 161.606V166.058H37.59V170.468C37.59 171.952 37.408 173.114 37.044 173.954C36.708 174.766 36.19 175.368 35.49 175.76C34.818 176.124 33.992 176.362 33.012 176.474C32.06 176.558 30.968 176.6 29.736 176.6H29.442V182.648C30.226 182.564 30.996 182.466 31.752 182.354C32.508 182.242 33.278 182.116 34.062 181.976C33.53 181.556 32.984 181.136 32.424 180.716C31.864 180.296 31.304 179.862 30.744 179.414L35.112 176.978C35.616 177.454 36.19 178.084 36.834 178.868C37.478 179.624 38.094 180.45 38.682 181.346C39.27 182.242 39.746 183.124 40.11 183.992C40.502 184.86 40.698 185.644 40.698 186.344C40.698 187.212 40.474 187.898 40.026 188.402C39.606 188.906 38.92 189.158 37.968 189.158C37.436 189.158 36.89 188.976 36.33 188.612C35.798 188.248 35.532 187.8 35.532 187.268C35.532 186.064 36.162 185.322 37.422 185.042L35.322 183.068C34.818 183.376 34.3 183.684 33.768 183.992C33.236 184.3 32.676 184.566 32.088 184.79C30.996 185.154 29.876 185.476 28.728 185.756C27.58 186.036 26.446 186.274 25.326 186.47C23.898 186.722 22.456 186.946 21 187.142C19.544 187.366 18.06 187.52 16.548 187.604L14.742 183.278C16.394 183.222 18.032 183.194 19.656 183.194C21.28 183.166 22.89 183.096 24.486 182.984V176.6C23.282 176.6 22.078 176.6 20.874 176.6C19.67 176.572 18.438 176.558 17.178 176.558V166.058H24.486V162.32C23.366 162.432 22.232 162.53 21.084 162.614C19.964 162.698 18.802 162.754 17.598 162.782L16.422 159.59C16.59 159.562 16.716 159.548 16.8 159.548C16.912 159.548 17.01 159.548 17.094 159.548C17.178 159.548 17.248 159.548 17.304 159.548C17.388 159.52 17.472 159.506 17.556 159.506C17.696 159.45 17.822 159.394 17.934 159.338C18.074 159.282 18.228 159.184 18.396 159.044C18.76 158.736 19.236 158.162 19.824 157.322C20.412 156.454 21.028 155.488 21.672 154.424C22.316 153.36 22.904 152.352 23.436 151.4C23.968 150.42 24.36 149.664 24.612 149.132C25.256 149.272 25.872 149.426 26.46 149.594C27.048 149.762 27.622 149.93 28.182 150.098C28.434 150.182 28.686 150.252 28.938 150.308C29.218 150.364 29.456 150.448 29.652 150.56C29.736 150.588 29.806 150.616 29.862 150.644C29.946 150.672 30.016 150.714 30.072 150.77C30.184 150.882 30.24 151.022 30.24 151.19C30.24 151.302 30.016 151.61 29.568 152.114C29.12 152.618 28.56 153.22 27.888 153.92C27.216 154.62 26.502 155.348 25.746 156.104C25.018 156.832 24.346 157.504 23.73 158.12C23.142 158.708 22.722 159.128 22.47 159.38C23.254 159.352 24.024 159.324 24.78 159.296C25.564 159.268 26.334 159.212 27.09 159.128C27.902 159.044 28.686 158.932 29.442 158.792C30.226 158.624 30.996 158.414 31.752 158.162C31.36 157.742 30.968 157.308 30.576 156.86C30.212 156.412 29.848 155.95 29.484 155.474L34.524 152.954C34.944 154.158 35.406 155.348 35.91 156.524C36.442 157.672 37.002 158.778 37.59 159.842C37.73 159.562 37.954 159.352 38.262 159.212C38.57 159.044 38.892 158.96 39.228 158.96C39.704 158.96 40.11 159.156 40.446 159.548C40.782 159.94 40.95 160.332 40.95 160.724Z" fill="white"/>
<path d="M34.055 112.32C34.055 112.903 33.8567 113.37 33.46 113.72C33.0867 114.047 32.6083 114.21 32.025 114.21C31.8383 114.21 31.64 114.175 31.43 114.105C31.0567 114.012 30.6717 113.953 30.275 113.93C29.8783 113.883 29.4817 113.86 29.085 113.86C28.4317 113.86 27.7667 113.918 27.09 114.035C26.4133 114.128 25.7717 114.327 25.165 114.63C24.4417 114.98 23.8233 115.528 23.31 116.275C22.7967 116.998 22.365 117.827 22.015 118.76C21.6883 119.693 21.4433 120.627 21.28 121.56C21.1167 122.47 21.035 123.298 21.035 124.045C21.035 125.795 21.2567 127.137 21.7 128.07C22.1667 129.003 22.9017 129.657 23.905 130.03C24.9317 130.403 26.2617 130.637 27.895 130.73C28.665 130.777 29.3767 130.975 30.03 131.325C30.6833 131.652 31.1733 132.188 31.5 132.935C31.5933 133.145 31.64 133.367 31.64 133.6C31.6633 133.81 31.675 134.02 31.675 134.23C31.675 134.837 31.4533 135.292 31.01 135.595C30.5667 135.922 30.0417 136.132 29.435 136.225C28.8283 136.342 28.2917 136.4 27.825 136.4C24.745 136.4 22.085 135.385 19.845 133.355C18.8417 132.468 18.13 131.5 17.71 130.45C17.29 129.4 17.08 128.222 17.08 126.915C17.08 124.418 17.5817 122.108 18.585 119.985C19.6117 117.838 20.9533 115.878 22.61 114.105C21.0467 114.478 19.53 115.027 18.06 115.75C16.6133 116.45 15.2017 117.208 13.825 118.025C13.5217 118.188 13.2067 118.375 12.88 118.585C12.5767 118.772 12.25 118.865 11.9 118.865C11.13 118.865 10.4067 118.678 9.72999 118.305C9.07666 117.908 8.53999 117.383 8.11999 116.73C7.69999 116.077 7.48999 115.353 7.48999 114.56C7.48999 114.21 7.58332 113.813 7.76999 113.37C7.97999 112.903 8.24832 112.588 8.57499 112.425C8.62166 112.542 8.67999 112.693 8.74999 112.88C8.84332 113.043 8.93666 113.183 9.02999 113.3C9.28666 113.533 9.63666 113.673 10.08 113.72C10.5233 113.743 10.92 113.755 11.27 113.755C12.04 113.755 12.9733 113.65 14.07 113.44C15.1667 113.23 16.31 112.973 17.5 112.67C18.69 112.343 19.8217 112.017 20.895 111.69C21.9917 111.34 22.925 111.037 23.695 110.78C24.3017 110.593 24.8733 110.36 25.41 110.08C25.9467 109.8 26.495 109.555 27.055 109.345C27.545 109.345 28.175 109.368 28.945 109.415C29.7383 109.462 30.52 109.578 31.29 109.765C32.0833 109.952 32.7367 110.255 33.25 110.675C33.7867 111.072 34.055 111.62 34.055 112.32Z" fill="white"/>
<path d="M28.875 84.3C28.875 85.1867 28.665 85.945 28.245 86.575C27.825 87.205 27.1133 87.52 26.11 87.52C25.27 87.52 24.535 87.2167 23.905 86.61C23.275 86.0267 22.82 85.3733 22.54 84.65C21.8167 82.76 20.9183 81.08 19.845 79.61C18.795 78.1167 17.4883 76.7283 15.925 75.445C15.435 75.025 14.9567 74.64 14.49 74.29C14.0467 73.9167 13.6733 73.4966 13.37 73.03C13.09 72.5633 12.95 71.9683 12.95 71.245C12.95 70.6383 13.0783 70.1133 13.335 69.67C13.5917 69.2266 13.9183 68.795 14.315 68.375C14.6183 68.0483 15.0383 67.605 15.575 67.045C16.135 66.485 16.7183 65.855 17.325 65.155C17.955 64.455 18.5383 63.755 19.075 63.055C19.635 62.3317 20.09 61.655 20.44 61.025C20.8133 60.395 21 59.87 21 59.45C21 58.8666 20.8133 58.365 20.44 57.945C20.09 57.5017 19.6933 57.1283 19.25 56.825C19.3667 56.7316 19.5183 56.6617 19.705 56.615C19.915 56.5683 20.09 56.545 20.23 56.545C21.0467 56.545 21.8517 56.6267 22.645 56.79C23.4617 56.9533 24.2317 57.2566 24.955 57.7C25.445 58.0033 25.8883 58.4467 26.285 59.03C26.705 59.6133 26.915 60.2083 26.915 60.815C26.915 61.445 26.67 61.97 26.18 62.39C25.7133 62.81 25.2583 63.195 24.815 63.545C23.9283 64.245 23.03 64.9333 22.12 65.61C21.2333 66.2633 20.3467 66.9516 19.46 67.675C19.0167 68.025 18.5617 68.375 18.095 68.725C17.6283 69.0516 17.1733 69.4133 16.73 69.81C16.5667 69.9733 16.4033 70.1483 16.24 70.335C16.1 70.5217 16.03 70.7433 16.03 71C16.03 71.2333 16.0883 71.455 16.205 71.665C16.345 71.875 16.4967 72.0616 16.66 72.225C16.94 72.4583 17.2317 72.68 17.535 72.89C17.8383 73.0767 18.1417 73.275 18.445 73.485C19.0517 73.905 19.6583 74.3367 20.265 74.78C20.895 75.2 21.5017 75.6433 22.085 76.11C22.925 76.7167 23.7533 77.37 24.57 78.07C25.3867 78.7467 26.1217 79.4933 26.775 80.31C27.2183 80.87 27.6733 81.4883 28.14 82.165C28.63 82.8183 28.875 83.53 28.875 84.3Z" fill="white"/>
<path d="M8.10601 23.618V19.46H6.25801V23.618H8.10601ZM8.10601 17.738V13.622H6.25801V17.738H8.10601ZM14.448 13.622H12.936V17.276C13.328 17.276 13.664 17.346 13.944 17.486C14.252 17.598 14.406 17.906 14.406 18.41C14.406 18.83 14.252 19.11 13.944 19.25C13.636 19.39 13.3 19.474 12.936 19.502V23.534C13.468 23.422 13.846 23.128 14.07 22.652C14.322 22.176 14.448 21.658 14.448 21.098V13.622ZM25.074 5.76801C25.634 6.80401 26.18 7.81201 26.712 8.79201C27.272 9.74401 27.86 10.668 28.476 11.564C29.036 10.668 29.596 9.74401 30.156 8.79201C30.716 7.81201 31.164 6.80401 31.5 5.76801H25.074ZM40.362 35.21C40.362 35.966 40.082 36.526 39.522 36.89C38.962 37.254 38.332 37.436 37.632 37.436H17.682V35.336H25.956V28.952H21.168V27.02H25.956V21.98H30.996V27.02H32.718C32.802 26.46 33.068 25.942 33.516 25.466C33.992 24.99 34.538 24.752 35.154 24.752C35.798 24.752 36.358 24.976 36.834 25.424C37.338 25.844 37.59 26.348 37.59 26.936C37.59 27.496 37.394 27.972 37.002 28.364C36.61 28.756 36.106 28.952 35.49 28.952H30.996V35.336H35.322C35.35 34.72 35.63 34.174 36.162 33.698C36.694 33.222 37.282 32.984 37.926 32.984C38.542 32.984 39.102 33.208 39.606 33.656C40.11 34.076 40.362 34.594 40.362 35.21ZM41.874 20.678C41.874 21.322 41.608 21.826 41.076 22.19C40.572 22.526 40.026 22.694 39.438 22.694C37.338 22.694 35.35 22.19 33.474 21.182C31.626 20.146 29.96 18.97 28.476 17.654C27.104 18.718 25.606 19.614 23.982 20.342C22.386 21.07 20.72 21.63 18.984 22.022C18.76 23.03 18.326 23.772 17.682 24.248C17.066 24.696 16.338 24.99 15.498 25.13C14.658 25.27 13.804 25.354 12.936 25.382V28.826H15.456C15.484 28.238 15.722 27.734 16.17 27.314C16.646 26.894 17.192 26.684 17.808 26.684C18.396 26.684 18.928 26.894 19.404 27.314C19.88 27.706 20.118 28.182 20.118 28.742C20.118 29.358 19.908 29.862 19.488 30.254C19.068 30.618 18.536 30.8 17.892 30.8H12.936V38.486H8.10601V30.8H0.588013V28.826H8.10601V25.382H1.76401V11.816H8.10601V8.20401H1.55401V6.14601H8.10601V0.644012H12.936V6.14601H14.658C14.714 5.55801 14.966 5.05401 15.414 4.63401C15.89 4.21401 16.436 4.00401 17.052 4.00401C17.64 4.00401 18.158 4.22801 18.606 4.67601C19.054 5.09601 19.278 5.58601 19.278 6.14601C19.278 6.67801 19.068 7.15401 18.648 7.57401C18.256 7.99401 17.752 8.20401 17.136 8.20401H12.936V11.816H19.11V20.384C20.342 19.656 21.504 18.844 22.596 17.948C23.688 17.024 24.71 16.044 25.662 15.008C24.766 14.056 23.884 13.076 23.016 12.068C22.176 11.032 21.378 9.96801 20.622 8.87601L24.78 5.76801H20.118V3.75201H37.968C37.94 4.73201 37.73 5.76801 37.338 6.86001C36.946 7.92401 36.456 8.91801 35.868 9.84201C35.168 10.934 34.482 11.886 33.81 12.698C33.138 13.51 32.326 14.308 31.374 15.092C32.214 16.044 33.166 16.996 34.23 17.948C35.322 18.9 36.414 19.712 37.506 20.384C37.646 19.824 37.912 19.376 38.304 19.04C38.696 18.704 39.2 18.536 39.816 18.536C40.432 18.536 40.922 18.76 41.286 19.208C41.678 19.628 41.874 20.118 41.874 20.678Z" fill="white"/>
</svg>
