<?xml version="1.0" encoding="UTF-8"?>
<svg id="Layer_1" data-name="Layer 1" xmlns="http://www.w3.org/2000/svg" viewBox="0 0 39.69 39.69">
  <path d="M37.45,15.3l.05-13.03-13.18-.05L2.64,24.09l12.93,12.98,21.87-21.77ZM32.6,7.21c-.4-.35-.85-.55-1.35-.55s-.95.2-1.35.55c-.35.35-.55.85-.55,1.35,0,.45.2.95.55,1.3.4.4.85.55,1.35.55s.95-.15,1.35-.55h0c.35-.35.55-.85.55-1.3,0-.5-.2-1-.55-1.35h0ZM31.25,4.61c1,0,2,.4,2.8,1.15h0c.75.75,1.15,1.8,1.15,2.8s-.4,2-1.15,2.75h0c-.8.8-1.8,1.15-2.8,1.15s-2-.35-2.8-1.15c-.75-.75-1.15-1.75-1.15-2.75s.4-2.05,1.15-2.8h0c.8-.75,1.8-1.15,2.8-1.15h0ZM39.54,1.27l-.05,14.43c0,.3-.1.55-.3.75l-22.82,22.72-.05.05c-.4.4-1.05.4-1.45,0L.44,24.84H.44c-.4-.4-.4-1.05,0-1.45L23.16.47c.2-.2.45-.3.75-.3l14.63.05c.55.05,1,.5,1,1.05h0Z"/>
</svg>